<svg width="50" height="37" viewBox="0 0 50 37" fill="none" xmlns="http://www.w3.org/2000/svg">
<rect x="0.175781" y="0.951172" width="49" height="36" rx="10" fill="#249F58"/>
<path fill-rule="evenodd" clip-rule="evenodd" d="M37.5107 24.9518V22.5518H11.8441L16.5107 24.9518H30.5107C30.5107 26.2766 32.0787 27.3518 34.0107 27.3518C35.9427 27.3518 37.5107 26.2766 37.5107 24.9518ZM20.5474 10.3262C20.5194 10.3262 20.4774 10.3406 20.4237 10.3742C20.2977 10.4606 20.0504 10.727 20.0411 11.0342C20.0341 11.2094 20.0014 11.2094 20.1111 11.3222C20.1904 11.4374 20.2744 11.4278 20.4331 11.339C20.5264 11.267 20.5567 11.2262 20.5894 11.1086C20.6267 10.9166 20.3864 11.2046 20.3561 10.9838C20.3024 10.7822 20.4564 10.6958 20.6011 10.5038C20.6057 10.4078 20.6057 10.3358 20.5474 10.331V10.3262ZM22.8877 10.3382C22.8411 10.3478 22.7874 10.4102 22.7104 10.5494C22.6567 10.6982 22.4211 10.9238 22.5937 11.3894C22.7291 11.6846 22.7874 12.1622 22.7244 12.6974C22.6264 12.8486 22.6077 12.9014 22.4794 13.0526C22.3021 13.2518 22.1061 13.2014 21.9614 13.1246C21.8214 13.0286 21.7141 12.9806 21.6511 12.6782C21.6627 12.1982 21.6907 11.4014 21.6044 11.2334C21.4784 10.9742 21.2684 11.0654 21.1797 11.1446C20.7527 11.5526 20.5404 12.2318 20.4097 12.7766C20.2931 13.1702 20.1647 13.055 20.0761 12.8966C19.8591 12.6854 19.8427 11.0486 19.5814 11.3198C19.1614 12.5534 19.8217 13.9046 20.2814 13.7726C20.6081 13.9166 20.8181 13.2686 20.9534 12.5606C21.0467 12.3614 21.1167 12.3374 21.1634 12.4406C21.1517 13.3814 21.2334 13.5926 21.4667 13.8758C21.9894 14.2934 22.4234 13.9286 22.4584 13.895L22.8667 13.4774C22.9601 13.3814 23.0767 13.3718 23.2051 13.4582C23.3311 13.5782 23.3147 13.7774 23.5784 13.9142C23.8071 14.0102 24.2854 13.9382 24.3951 13.739C24.5467 13.475 24.5817 13.3838 24.6517 13.283C24.7591 13.139 24.9434 13.2038 24.9434 13.2494C24.9271 13.3334 24.8197 13.4174 24.8921 13.5614C25.0204 13.6574 25.0507 13.595 25.1254 13.5734C25.3914 13.4438 25.5921 12.8486 25.5921 12.8486C25.6037 12.6278 25.4824 12.6446 25.4054 12.6902C25.3004 12.755 25.2957 12.7766 25.1954 12.8414C25.0624 12.8606 24.8104 12.9494 24.6867 12.7502C24.5584 12.5102 24.5584 12.179 24.4604 11.9342C24.4604 11.9198 24.2901 11.5574 24.4464 11.5358C24.5234 11.5502 24.6961 11.5958 24.7217 11.4494C24.8057 11.3054 24.5421 10.8974 24.3624 10.6958C24.2084 10.5206 23.9937 10.499 23.7861 10.6766C23.6391 10.8158 23.6624 10.9694 23.6321 11.1158C23.5971 11.2838 23.6041 11.4926 23.7721 11.7158C23.9167 12.0086 24.1804 12.3878 24.0917 12.9206C24.0917 12.9206 23.9401 13.175 23.6717 13.1414C23.5551 13.1174 23.3731 13.0694 23.2751 12.3254C23.2051 11.7662 23.2937 10.9814 23.0651 10.6142C23.0114 10.4774 22.9671 10.343 22.8924 10.3502L22.8877 10.3382ZM22.1457 10.4006C22.0757 10.4078 21.9987 10.4918 21.9357 10.6526C21.8821 10.7774 21.8144 11.4206 21.8261 11.4206C21.7794 11.6126 22.0197 11.6942 22.1294 11.4494C22.2927 10.9934 22.2927 10.8014 22.3021 10.6142C22.2787 10.4702 22.2157 10.3982 22.1457 10.403V10.4006ZM24.8827 10.4486C24.8127 10.4582 24.7544 10.5014 24.7334 10.6118C24.7031 10.8662 24.7194 11.0078 24.7614 11.2214C24.7917 11.3654 24.9947 11.6006 25.0927 11.7398C25.5664 12.395 26.0261 13.0526 26.4647 13.7318C26.5347 14.2406 26.5814 14.735 26.6164 15.2294C26.6911 16.3094 26.7097 17.6534 26.6467 18.7934C26.8427 18.8006 27.1601 18.4646 27.2697 17.9774C27.3397 17.2958 27.2464 15.9134 27.2371 15.5102L27.2137 14.939C27.7271 15.803 28.2217 16.715 28.7071 17.7134C28.8867 17.627 28.8471 16.5974 28.7444 16.4534C28.3524 15.5894 27.8111 14.735 27.6407 14.4062C27.5777 14.2862 27.3654 13.9574 27.1157 13.5758C27.0691 13.0286 27.0177 12.5678 26.9851 12.4286C26.9034 11.8526 27.2137 12.4934 27.1717 12.1598C27.0691 11.5838 26.7611 11.195 26.3971 10.667C26.2804 10.499 26.2804 10.4606 26.1007 10.7102C25.9957 10.9622 25.9957 11.1734 26.0307 11.3702C25.9794 11.2982 25.9211 11.2166 25.8371 11.111L25.2421 10.5926C25.1604 10.5326 25.0017 10.4414 24.8827 10.4486ZM32.9934 10.5374C32.9584 10.5326 32.9234 10.5494 32.8767 10.6142C32.7951 10.6862 32.7087 10.823 32.7134 10.9982C32.7297 11.2982 32.7834 11.6078 32.8021 11.9102L32.8254 12.0302C32.7927 11.9918 32.7647 11.9582 32.7484 11.9438C32.1721 11.3198 33.0121 11.8382 32.6364 11.3606C32.3214 11.0006 32.2281 10.8902 31.9597 10.6742C31.8197 10.5878 31.7404 10.415 31.6961 10.7078C31.6774 10.9646 31.6587 11.2646 31.6727 11.4806C31.6727 11.6006 31.7964 11.8286 31.9014 11.9606C32.2841 12.4478 32.6761 12.9638 33.0681 13.5014C33.1521 14.5982 33.1731 15.6038 33.2547 16.703C33.2454 17.1734 33.1054 17.7974 32.9747 17.855C32.9747 17.855 32.7694 17.975 32.6341 17.843C32.5337 17.8022 32.1394 17.1638 32.1394 17.1638C31.9364 16.9718 31.8011 17.027 31.6587 17.1638C31.2621 17.5574 31.0801 18.2966 30.8117 18.8054C30.7417 18.9182 30.5481 19.0166 30.3311 18.7958C29.7781 18.0182 30.0977 16.9118 30.0324 17.1974C29.5424 17.7686 29.7571 18.7142 29.8691 18.9182C30.0324 19.2542 30.1631 19.4702 30.4757 19.631C30.7674 19.847 30.9891 19.715 31.1151 19.559C31.4044 19.2518 31.4091 18.4622 31.5444 18.3062C31.6377 18.0182 31.8781 18.0662 31.9947 18.1958C32.1114 18.3638 32.2421 18.4718 32.4077 18.563C32.6784 18.8078 33.0004 18.851 33.3177 18.6278C33.5347 18.503 33.6771 18.3398 33.8031 18.0182C33.9431 17.6438 33.8731 15.6758 33.8427 14.5814L34.4494 15.4838C34.5334 16.4438 34.5731 17.3918 34.5427 18.299C34.5241 18.479 35.1564 17.7614 35.1494 17.4206C35.1494 17.1254 35.1541 16.8542 35.1494 16.6046C35.4597 17.1086 35.7561 17.6198 36.0361 18.1406C36.2111 18.0446 36.1527 17.0294 36.0431 16.8926C35.7491 16.3838 35.3711 15.8366 35.0794 15.4094C35.0211 14.8742 34.9441 14.243 34.9067 14.0486C34.8531 13.7462 34.7971 13.2926 34.7131 12.935C34.6897 12.7982 34.6197 12.3518 34.6431 12.311C34.6757 12.2078 34.8064 12.311 34.8694 12.1958C34.9627 12.0878 34.5381 10.9478 34.3211 10.6262C34.2441 10.4822 34.1017 10.5302 33.9291 10.7702C33.7657 10.9238 33.8264 11.279 33.8871 11.6174C34.0457 12.4814 34.1904 13.355 34.3024 14.2334C34.0924 13.9094 33.8357 13.5206 33.5837 13.1486L33.5511 12.9806C33.5511 12.9614 33.5184 12.2726 33.4881 12.1094C33.4811 12.0422 33.4647 12.023 33.5347 12.0326C33.6047 12.095 33.6141 12.0974 33.6584 12.119C33.7331 12.1286 33.7984 12.0038 33.7517 11.8862L33.0751 10.6046C33.0517 10.5734 33.0191 10.5446 32.9817 10.5398L32.9934 10.5374ZM12.0634 10.5614C11.9351 10.5566 11.7997 10.6334 11.8534 10.7894C11.8207 10.8734 12.0961 11.1566 12.1451 11.3126C12.1847 11.4254 12.0984 11.7806 12.1917 11.8166C12.2734 11.8526 12.3877 11.567 12.4297 11.3054C12.4531 11.1614 12.4367 10.667 12.1101 10.5662C12.0937 10.5614 12.0774 10.5614 12.0587 10.559L12.0634 10.5614ZM35.9101 10.5614C35.8797 10.5662 35.8447 10.6094 35.7934 10.7294C35.6651 10.9454 35.6207 11.3294 35.6721 11.6654C35.9754 13.8014 36.2087 15.8702 36.2554 17.7614C36.2274 17.9438 36.2181 18.0398 36.1387 18.2654C35.9567 18.5054 35.7561 18.803 35.5671 18.947C35.3804 19.091 34.9791 19.2302 34.8484 19.3358C34.4284 19.5806 34.4284 19.8638 34.7644 19.8758C35.3431 19.8038 36.0291 19.7558 36.5004 19.0238C36.6264 18.8198 36.7757 18.263 36.7804 17.9198C36.8271 15.9278 36.7571 13.9718 36.4654 12.5294C36.4467 12.3854 36.3861 12.0662 36.4094 12.0254C36.4444 11.9246 36.6334 12.0326 36.7011 11.9198C36.8014 11.8142 36.2111 11.039 36.0057 10.7078C35.9637 10.6262 35.9357 10.5566 35.9031 10.5638L35.9101 10.5614ZM29.8364 10.595C29.8131 10.5998 29.7804 10.6382 29.7151 10.727C29.5517 11.2694 29.4957 11.711 29.5587 12.0518C29.9787 14.2838 30.3987 16.3118 30.3334 18.4358C30.5294 18.4358 30.7581 17.9726 30.8561 17.5118C30.9097 16.8758 30.8187 16.4894 30.8047 16.1198C30.7884 15.7454 30.3941 12.7214 30.3147 12.4406C30.2167 11.9078 30.6974 12.3686 30.6461 12.0614C30.4781 11.6678 30.0627 11.1014 29.9367 10.7582C29.8901 10.667 29.8807 10.583 29.8434 10.5902L29.8364 10.595ZM15.0571 10.6382C15.0104 10.6478 14.9567 10.691 14.9404 10.7582C14.9287 10.8062 14.9591 10.8854 14.9171 10.9094C14.8937 10.9334 14.8051 10.9166 14.8097 10.7894C14.8097 10.7462 14.7794 10.703 14.7631 10.6766C14.7444 10.667 14.7327 10.6646 14.7001 10.6646C14.6604 10.6646 14.6604 10.6766 14.6394 10.7126C14.6301 10.7462 14.6161 10.7798 14.6161 10.8182C14.6114 10.8662 14.5927 10.8782 14.5624 10.8854C14.5251 10.8854 14.5321 10.8902 14.5041 10.8686C14.4807 10.8518 14.4621 10.8446 14.4621 10.811C14.4621 10.775 14.4527 10.715 14.4434 10.6958C14.4271 10.6718 14.4014 10.6622 14.3734 10.655C14.2194 10.655 14.2101 10.8422 14.2171 10.9094C14.2054 10.9238 14.2007 11.2454 14.4107 11.3366C14.6907 11.4758 15.2227 11.4158 15.2041 10.9478C15.2041 10.907 15.1924 10.7678 15.1877 10.7318C15.1597 10.6598 15.1061 10.6358 15.0547 10.643L15.0571 10.6382ZM18.8511 10.643C18.7531 10.6478 18.6644 10.6766 18.5944 10.715C18.4077 10.8998 18.3611 11.195 18.5104 11.3798C18.6504 11.4518 18.7974 11.5958 18.7017 11.6798C18.2957 12.1238 17.2387 12.8702 17.1851 13.007V13.0214H17.1944V13.0262C17.2481 13.0622 17.9107 13.0622 17.9831 13.0262H17.9877C18.2164 12.9374 19.2944 11.6702 19.2944 11.6702C19.2384 11.6222 19.1871 11.5838 19.1311 11.5334C19.0704 11.4806 19.0774 11.4278 19.1311 11.375C19.3971 11.2166 19.3131 10.8638 19.1731 10.703C19.0564 10.6502 18.9491 10.631 18.8511 10.6382V10.643ZM28.7677 10.643C28.7397 10.6502 28.7047 10.691 28.6511 10.811C28.5227 11.027 28.4364 11.399 28.4481 11.747C28.7234 13.715 28.8074 15.4358 28.9894 17.4038C29.0034 17.5958 28.9754 17.8694 28.8541 17.9798C28.3967 18.4694 27.7411 19.0694 27.0271 19.3478C26.9501 19.4366 27.2184 19.8134 27.5637 19.8134C28.1424 19.7414 28.6511 19.4102 29.1271 18.5294C29.2507 18.3254 29.4724 17.8862 29.4771 17.5454C29.5237 15.5486 29.3837 13.9934 29.0897 12.5534C29.0734 12.4094 29.0851 12.2414 29.1084 12.203C29.1457 12.155 29.2717 12.203 29.3417 12.0902C29.4397 11.9846 29.0757 11.123 28.8704 10.7942C28.8284 10.7102 28.8051 10.643 28.7677 10.6454V10.643ZM13.4051 10.7078C13.3257 10.7174 13.2511 10.7798 13.2137 10.8758C13.2021 11.1878 13.1997 11.4998 13.2371 11.7926C13.3771 12.3038 13.4167 12.7526 13.4844 13.2734C13.5077 13.9742 13.0924 13.5758 13.1111 13.2302C13.2044 12.779 13.1811 12.071 13.0971 11.891C13.0271 11.711 12.9524 11.6678 12.7891 11.699C12.6607 11.6894 12.3271 12.059 12.2337 12.683C12.2337 12.683 12.1544 12.9998 12.1217 13.283C12.0751 13.6022 11.8697 13.8302 11.7251 13.2398C11.6014 12.8078 11.5267 11.7518 11.3191 11.9966C11.2584 12.8222 11.1884 14.2766 11.8697 14.4254C12.6957 14.507 12.2384 12.9902 12.5371 12.7142C12.5954 12.5822 12.7004 12.5798 12.7074 12.7502V14.039C12.6981 14.4566 12.9641 14.5814 13.1741 14.6678C13.3911 14.651 13.5334 14.6582 13.6174 14.8742L13.7224 17.1062C13.7224 17.1062 14.2217 17.2502 14.2451 15.851C14.2684 15.0278 14.0817 14.339 14.1914 14.1782C14.1961 14.0198 14.3921 14.0102 14.5274 14.0894C14.7444 14.2454 14.8401 14.4374 15.1761 14.3606C15.6894 14.2166 15.9927 13.9622 15.9997 13.559C15.9764 13.175 15.9297 12.791 15.7664 12.407C15.7897 12.3398 15.6731 12.1598 15.6964 12.0902C15.7851 12.2342 15.9251 12.2246 15.9531 12.0902C15.8691 11.795 15.7337 11.5142 15.5144 11.3942C15.3347 11.2262 15.0711 11.2622 14.9731 11.603C14.9264 11.9966 15.1131 12.4622 15.3931 12.8438C15.4491 12.9926 15.5331 13.2398 15.4957 13.463C15.3487 13.5494 15.2017 13.511 15.0757 13.379C15.0757 13.379 14.6721 13.067 14.6721 12.995C14.7817 12.287 14.6954 12.203 14.6371 12.011C14.5951 11.7374 14.4691 11.651 14.3687 11.4638C14.2661 11.351 14.1284 11.351 14.0654 11.4638C13.8834 11.783 13.9674 12.4718 14.0981 12.7766C14.1914 13.0598 14.3361 13.2374 14.2684 13.2374C14.2124 13.3934 14.0957 13.3574 14.0117 13.1726C13.8951 12.7886 13.8671 12.2222 13.8671 11.9654C13.8321 11.6486 13.7924 10.9694 13.5871 10.7966C13.5334 10.7198 13.4704 10.6934 13.4074 10.7006L13.4051 10.7078ZM16.3031 10.7078C16.2634 10.7174 16.2167 10.7414 16.1631 10.7558C15.9881 10.811 15.8247 10.967 15.8761 11.2694C16.0861 12.5654 16.2191 13.5566 16.4267 14.8526C16.4571 15.0062 16.3334 15.2054 16.1747 15.1886C15.9041 14.9966 15.8364 14.6126 15.3744 14.6318C15.0384 14.6318 14.6557 15.011 14.6091 15.371C14.5531 15.659 14.5344 15.971 14.6091 16.2206C14.8424 16.5086 15.1271 16.4798 15.3744 16.4126C15.5774 16.3286 15.7477 16.1246 15.8177 16.1726C15.8644 16.2518 15.8131 16.9262 14.8611 17.4446C14.2731 17.7182 13.8064 17.7806 13.5544 17.291C13.4004 16.9838 13.5684 15.8126 13.1857 16.0814C12.0517 19.0862 15.8387 19.5038 16.2611 16.2062C16.2891 16.1102 16.3707 16.019 16.4314 16.043C16.4547 16.055 16.4781 16.091 16.4874 16.1582C16.3987 19.1438 13.5567 19.3502 13.0761 18.4094C12.9547 18.1886 12.9197 17.6942 12.9081 17.4014C12.8847 17.2214 12.8427 17.1182 12.7914 17.0774C12.6747 16.9886 12.5207 17.2214 12.4881 17.6222C12.4414 17.9462 12.4531 18.035 12.4531 18.347C12.6071 20.7062 16.2634 19.691 16.8584 17.747C17.1524 16.739 16.8514 15.9782 16.9517 15.8846L16.9587 15.8798H16.9657L16.9774 15.875C17.3414 16.2782 17.8501 15.923 17.9621 15.7862C18.0087 15.7142 18.1301 15.6662 18.2141 15.7622C18.4941 15.9686 18.9934 15.8702 19.0961 15.4982C19.1567 15.1382 19.2081 14.7686 19.2197 14.3822C19.0331 14.4422 18.8837 14.4854 18.8231 14.5502C18.8091 14.567 18.7997 14.5862 18.7951 14.6054L18.7484 14.9246C18.7484 14.9366 18.7437 14.9438 18.7391 14.9486C18.7321 14.9654 18.7157 14.9774 18.7064 14.9846C18.6411 15.0206 18.5267 15.0014 18.5197 14.903C18.4334 14.495 18.0717 14.4422 17.8524 15.0782C17.7054 15.1982 17.4324 15.2222 17.4091 15.0398C17.4441 14.6126 17.2761 14.555 16.9424 14.7566L16.6204 12.2606C16.7604 12.2534 16.8864 12.3566 17.0171 12.1934C16.8771 11.7518 16.5854 10.8542 16.4197 10.7678H16.4151L16.3917 10.7438C16.3917 10.739 16.3847 10.7366 16.3801 10.7342L16.3707 10.7198C16.3614 10.7198 16.3521 10.715 16.3474 10.7126C16.3311 10.7078 16.3171 10.7078 16.3007 10.7078H16.3031ZM27.6011 10.7174C27.4564 10.7126 27.2977 10.8062 27.3584 10.9934C27.3211 11.0966 27.6687 11.4422 27.7247 11.6294C27.8251 11.9174 27.6477 12.1982 27.7527 12.239C27.8507 12.2822 27.9861 11.939 28.0327 11.6198C28.0934 11.3606 27.9161 10.8326 27.6594 10.7246L27.6011 10.7198V10.7174ZM18.7974 11.0318C18.8627 11.027 18.9421 11.0894 18.9841 11.1758C19.0237 11.2718 19.0027 11.3606 18.9374 11.3774C18.8674 11.3942 18.7787 11.3342 18.7367 11.2382C18.6947 11.1422 18.7134 11.0534 18.7834 11.0366H18.7974V11.0318ZM35.1237 11.4686C34.9907 11.4638 34.8437 11.5646 34.9044 11.7686C34.8717 11.879 35.1844 12.2534 35.2381 12.4598C35.2847 12.6038 35.1681 13.0742 35.2614 13.1174C35.3501 13.1654 35.4714 12.791 35.5181 12.4454C35.5461 12.2534 35.4107 11.5934 35.1797 11.4758C35.1634 11.471 35.1447 11.4662 35.1261 11.4662L35.1237 11.4686ZM26.0937 11.699C26.1101 11.7542 26.1217 11.8094 26.1287 11.867C26.1567 11.987 26.1801 12.107 26.2034 12.2318C26.1007 12.083 26.0167 11.963 25.9771 11.9198C25.7437 11.6318 25.9817 11.7326 26.0937 11.699ZM28.1774 12.7502C28.1261 12.7598 28.0771 12.8054 28.0607 12.8774C28.0467 12.9206 28.0794 12.9974 28.0374 13.0214C28.0141 13.0454 27.9207 13.031 27.9277 12.9014C27.9277 12.8582 27.8974 12.8126 27.8811 12.7886C27.8624 12.7766 27.8507 12.7718 27.8181 12.7718C27.7784 12.7718 27.7784 12.7838 27.7574 12.8198C27.7481 12.8534 27.7341 12.887 27.7341 12.9278C27.7341 12.9758 27.7154 12.9902 27.6827 12.9998C27.6454 12.9998 27.6524 12.9998 27.6221 12.983C27.6034 12.959 27.5824 12.9542 27.5824 12.9206C27.5824 12.8846 27.5754 12.8294 27.5637 12.8054C27.5474 12.7814 27.5241 12.7742 27.4937 12.7646C27.3421 12.7646 27.3304 12.947 27.3397 13.0142C27.3304 13.0286 27.3234 13.355 27.5334 13.4462C27.8181 13.583 28.3501 13.5182 28.3267 13.0526C28.3267 13.0118 28.3151 12.8726 28.3127 12.8366C28.2824 12.7646 28.2287 12.7406 28.1797 12.7478L28.1774 12.7502ZM18.6807 12.8462C18.6481 12.8462 18.6014 12.8558 18.5477 12.8894C18.2981 13.0286 18.2024 13.4414 18.3611 13.6814C18.5011 13.8974 18.7344 13.8182 18.7647 13.8182C19.0097 13.8518 19.1544 13.3478 19.1544 13.3478C19.1544 13.3478 19.1614 13.2038 18.8744 13.4726C18.7484 13.4966 18.7344 13.4486 18.7017 13.3766C18.6737 13.2494 18.6784 13.1126 18.7367 12.9854C18.7647 12.9062 18.7367 12.8558 18.6807 12.851V12.8462ZM32.1044 12.911C31.9644 12.9038 31.8174 12.9974 31.7777 13.1918C31.7777 13.307 31.8291 13.3694 31.8197 13.475C31.8081 13.535 31.7497 13.571 31.6051 13.5038C31.6284 13.4798 31.5117 13.3166 31.5117 13.3166C31.4021 13.2446 31.2551 13.3166 31.1571 13.3838C31.1034 13.4846 31.0637 13.655 31.1244 13.8278C31.2831 14.1326 31.8314 14.651 32.0927 14.6558C32.0974 14.3822 32.1231 14.0174 32.1394 13.7918C32.1441 13.7054 32.1627 13.6118 32.2444 13.5902C32.3237 13.5662 32.4614 13.6718 32.4614 13.583C32.4474 13.4102 32.4147 13.151 32.3214 13.031C32.2701 12.959 32.1884 12.9158 32.1067 12.911H32.1044ZM20.9907 13.8638L20.9837 13.871C20.9837 13.871 20.9791 13.871 20.9767 13.8758C20.9487 13.8998 20.9161 13.9478 20.8437 13.9958C20.7201 14.1398 20.6991 14.243 20.7037 14.531C20.7131 14.5622 20.9371 15.2102 21.1307 15.6638C21.2614 16.1366 21.3804 16.679 21.2941 17.1902C20.9907 17.867 20.3841 18.4742 19.7937 18.8054C19.4904 18.9014 19.2337 18.8678 19.1637 18.8006C18.9911 18.6806 18.9887 18.4646 19.0004 18.431V18.4238C19.4951 18.0686 20.0621 17.7806 20.5054 16.823C20.6361 16.4558 20.6781 16.235 20.5474 15.671C20.4961 15.455 20.4307 15.287 20.2907 15.1334H20.2954C20.3794 15.0926 20.5987 15.2582 20.6337 15.1574C20.5801 14.8838 20.4004 14.5214 20.2021 14.3342C20.0247 14.1662 19.8287 14.1494 19.6701 14.3006C19.4881 14.4062 19.4507 14.7806 19.5371 15.107C19.6351 15.3518 19.8987 15.395 20.0854 15.8918C20.0901 15.9254 20.1484 16.2638 20.0551 16.403C19.9757 16.6478 18.9934 17.4446 18.9234 17.4926L18.9164 17.4974L18.9117 17.5022H18.9071H18.9024V17.495C18.8977 17.4758 18.9024 17.423 18.9024 17.3438C18.8954 17.195 18.9561 16.8566 18.9491 16.7966V16.7918C18.6224 17.0078 18.5127 17.6678 18.4544 17.8646C17.6307 18.4478 16.6974 18.8822 16.1584 19.4726C15.8784 19.9286 18.0904 18.959 18.3471 18.8414L18.3541 18.8486C18.4054 18.9038 18.4077 19.0958 18.5547 19.271C18.7881 19.5902 19.2734 19.787 19.7494 19.6646C20.5474 19.3694 21.0094 18.8102 21.4761 18.1886C21.5414 18.0926 21.6464 18.011 21.7444 18.0878C22.0641 18.827 22.9927 19.355 24.1897 19.4078C24.4697 19.0622 24.3367 18.8918 24.2247 18.8198C24.1897 18.7958 23.6297 18.5702 23.5411 18.347C23.4874 18.1406 23.6204 17.9558 23.8864 17.819C24.6564 17.723 25.4124 17.615 26.1451 17.3726C26.1521 17.1182 26.2967 16.7414 26.3947 16.5758C26.4647 16.463 26.5044 16.451 26.5207 16.4366V16.4318H26.5254V16.4246V16.4006L26.3994 16.3238L23.9424 16.3142C23.9121 16.3022 23.8911 16.2902 23.8771 16.2782L23.8724 16.271C23.8724 16.271 23.8677 16.271 23.8677 16.2662C23.8677 16.2614 23.8631 16.2614 23.8631 16.2614V16.2638V16.259V16.2542V16.2494L23.8677 16.2422C23.8794 16.2278 23.9097 16.211 23.9447 16.1942C24.5327 16.115 25.5734 15.9398 25.6434 14.9102C25.6317 14.3726 25.4194 14.0222 24.7801 13.9262C24.3087 13.9622 23.9727 14.4302 24.0264 14.9438C24.0031 15.0806 24.0731 15.3518 23.9331 15.383C23.0324 15.4694 22.0477 16.0502 22.0151 16.4678H22.0104H22.0057H22.0011C22.0011 16.4726 21.9964 16.4726 21.9941 16.4726H21.9847H21.9801H21.9707C21.9124 16.4534 21.8377 16.3526 21.8494 16.2158C21.8144 15.4958 21.5857 14.6798 21.2311 14.0558C21.1027 13.9238 21.0444 13.871 21.0117 13.8638H21.0047H20.9977H20.9931H20.9907ZM23.3427 14.243C23.2961 14.2526 23.2424 14.2958 23.2261 14.3678C23.2144 14.4158 23.2494 14.4926 23.2074 14.5166C23.1841 14.5406 23.0907 14.5262 23.0954 14.3966C23.0954 14.3558 23.0651 14.3102 23.0487 14.2838C23.0301 14.2718 23.0184 14.2694 22.9881 14.2694C22.9484 14.2694 22.9461 14.279 22.9251 14.3126C22.9134 14.3462 22.9017 14.3846 22.9017 14.4206C22.8971 14.4686 22.8784 14.483 22.8481 14.4878C22.8107 14.4878 22.8201 14.495 22.7897 14.4758C22.7711 14.4566 22.7477 14.447 22.7477 14.4134C22.7477 14.3774 22.7407 14.3174 22.7314 14.2934C22.7151 14.2766 22.6894 14.2694 22.6614 14.2598C22.5051 14.2598 22.4981 14.4398 22.5051 14.5094C22.4934 14.5214 22.4864 14.8454 22.6964 14.9366C22.9764 15.0758 23.6531 14.9942 23.4897 14.5454C23.4897 14.5046 23.4781 14.3654 23.4757 14.3294C23.4454 14.2574 23.3917 14.2334 23.3404 14.2406L23.3427 14.243ZM32.8277 14.6438H32.8044C32.8044 14.6438 31.4931 15.6038 31.4627 15.6374C31.3321 15.7574 31.3974 16.1726 31.4627 16.1246C31.5561 16.1606 32.8744 15.2414 32.8487 15.1334C32.9071 15.1382 32.9351 14.6606 32.8254 14.6414L32.8277 14.6438ZM24.5817 14.7878C24.6331 14.7806 24.7031 14.7998 24.7684 14.8358C24.8687 14.8982 24.9317 14.9846 24.9201 15.0518V15.0614C24.9154 15.0614 24.9154 15.0614 24.9154 15.0662V15.071C24.9154 15.071 24.9107 15.071 24.9107 15.0758C24.9107 15.0806 24.9037 15.0854 24.8991 15.0902C24.8524 15.1382 24.7451 15.1286 24.6424 15.0662C24.5444 15.011 24.4861 14.9222 24.4907 14.8598V14.8526L24.5024 14.8286C24.5024 14.8286 24.5024 14.8238 24.5071 14.8214L24.5187 14.807C24.5351 14.795 24.5561 14.783 24.5817 14.783V14.7878ZM13.1064 15.0278C12.4297 15.0422 11.4334 15.9446 11.4077 16.4438L13.5544 15.3878C13.4377 15.2054 13.5474 15.0422 13.1064 15.0278ZM15.3067 15.3398C15.3721 15.3446 15.4421 15.3782 15.4794 15.4742C15.5121 15.563 15.4794 15.6542 15.4397 15.6998V15.707C15.4071 15.7454 15.3091 15.731 15.2367 15.731C15.1504 15.7262 15.1084 15.7118 15.0571 15.6398C15.0291 15.5558 15.1037 15.4766 15.1387 15.419L15.1551 15.395C15.1784 15.371 15.2251 15.3518 15.2717 15.347L15.3021 15.3422L15.3067 15.3398ZM32.5734 15.6206C32.4497 15.635 32.3354 15.7526 32.3867 15.9398C32.3541 16.0502 32.5501 16.4366 32.6037 16.6406C32.6504 16.7846 32.5431 17.1998 32.6387 17.2406C32.7274 17.2886 32.9584 17.0006 32.9514 16.631C32.9747 16.439 32.8861 15.743 32.6551 15.6278C32.6271 15.6206 32.5991 15.6182 32.5711 15.6206H32.5734ZM17.9107 16.3022C17.8034 16.3094 17.7077 16.367 17.7521 16.523C17.7451 16.6334 18.0554 16.7702 18.0717 17.027C18.1137 17.1374 18.0017 17.483 18.0951 17.5118C18.1791 17.5478 18.2957 17.2718 18.3401 17.0222C18.3634 16.883 18.2327 16.3982 18.0134 16.3094C17.9784 16.2998 17.9434 16.2974 17.9084 16.2998L17.9107 16.3022ZM22.2974 16.9166H22.3254C22.6007 16.9934 23.0021 17.003 23.3521 17.0366C23.6391 17.0606 23.7791 17.2862 23.5154 17.3846C23.2494 17.4758 22.9951 17.5526 22.9951 17.9414C23.0277 18.1334 23.0184 18.2342 22.9904 18.2774C22.9904 18.2846 22.9834 18.2894 22.9811 18.2918C22.9811 18.2918 22.9811 18.2966 22.9764 18.2966V18.3014H22.9694L22.9531 18.3086H22.9414C22.8784 18.3206 22.7874 18.2606 22.7197 18.2222C22.5564 18.1022 22.1014 17.8142 22.0361 17.1902C22.0267 17.0462 22.1294 16.9262 22.2927 16.9142L22.2974 16.9166ZM11.5781 17.3966C11.5617 17.3966 11.5314 17.4494 11.4847 17.5094C11.0787 18.1694 11.0414 19.1558 11.2654 19.4534C11.3821 19.5902 11.5781 19.6526 11.7227 19.6094C11.9794 19.4966 12.0891 18.9662 12.0261 18.7742C11.9444 18.6374 11.8767 18.6158 11.7927 18.731C11.6131 19.103 11.5361 18.8462 11.5244 18.635C11.4964 18.2438 11.5337 17.879 11.5757 17.591C11.5991 17.447 11.5991 17.3918 11.5757 17.3918L11.5781 17.3966ZM25.3377 18.2654C25.3074 18.2654 25.2771 18.2702 25.2444 18.2894C25.2374 18.2894 24.9551 18.4814 24.8641 18.6206C24.8081 18.6638 24.8174 18.6998 24.8314 18.7766C24.8734 18.8798 24.9481 18.8486 25.0367 18.8006C25.1534 18.7814 25.2071 18.8606 25.2001 19.0022C25.1464 19.1822 25.2234 19.247 25.2234 19.259C25.2234 19.2686 25.3331 19.367 25.4637 19.2902C25.7367 19.1822 25.9071 19.0742 26.2921 18.9902C26.3924 18.9902 26.3854 18.7118 26.2267 18.7022C26.0167 18.7118 25.8301 18.7262 25.6201 18.8942C25.4917 18.923 25.4707 18.8414 25.4404 18.7694C25.4077 18.5918 25.5151 18.467 25.4917 18.3326C25.4964 18.3398 25.4264 18.275 25.3354 18.2702L25.3377 18.2654ZM34.1484 18.6014L33.9617 18.6206C33.8777 18.6374 33.8497 18.6758 33.8334 18.7814C33.8404 18.9374 33.9337 18.9302 34.0317 18.9926C34.0877 19.0646 34.1251 19.1318 34.0271 19.2566C33.9337 19.3406 33.8707 19.3886 33.7774 19.4726C33.7377 19.5494 33.7074 19.6646 33.8427 19.703C34.0877 19.775 34.6547 19.3958 34.6547 19.391C34.7481 19.319 34.7154 19.1822 34.7084 19.1822C34.6524 19.1198 34.5311 19.1582 34.4517 19.1462C34.4121 19.1462 34.2884 19.127 34.3444 19.0118C34.3957 18.9398 34.4144 18.899 34.4494 18.8102C34.4844 18.7238 34.4494 18.6662 34.3141 18.6182C34.2441 18.6038 34.1974 18.599 34.1437 18.6014H34.1484ZM30.7581 27.8654C31.3881 27.8966 31.9761 27.8726 32.6014 27.9038C32.7041 27.9902 32.6551 28.1918 32.5897 28.2254L32.5781 28.2302H32.5711H32.5617L32.0344 28.2158V28.1846C31.9831 28.0358 31.6331 28.0454 31.5491 28.1606V28.1678C31.5444 28.1678 31.5421 28.175 31.5421 28.1774L31.5374 28.1894V28.2182C31.2574 28.2542 31.0124 28.2086 30.7371 28.199C30.6554 28.0958 30.6671 27.911 30.7604 27.863L30.7581 27.8654Z" fill="white"/>
</svg>
