<svg width="115" height="115" viewBox="0 0 115 115" fill="none" xmlns="http://www.w3.org/2000/svg">
<path opacity="0.4" d="M95.8325 38.333V59.7086C95.8276 59.9338 95.7698 60.1547 95.6639 60.3534C95.558 60.5522 95.4068 60.7232 95.2227 60.8529C95.0385 60.9825 94.8264 61.067 94.6036 61.0996C94.3808 61.1323 94.1534 61.1121 93.9398 61.0407C91.0468 60.152 88.0212 59.7742 84.9985 59.9243C78.469 60.2951 72.3043 63.0559 67.6799 67.6804C63.0554 72.3049 60.2945 78.4696 59.9237 84.9991C59.7736 88.0217 60.1514 91.0474 61.0402 93.9403C61.1116 94.1539 61.1317 94.3813 61.0991 94.6041C61.0665 94.827 60.9819 95.039 60.8523 95.2232C60.7227 95.4074 60.5516 95.5585 60.3529 95.6644C60.1541 95.7704 59.9333 95.8281 59.7081 95.833H23.9575C22.0049 96.1116 20.0142 95.9318 18.1431 95.308C16.2719 94.6841 14.5717 93.6332 13.177 92.2385C11.7823 90.8438 10.7314 89.1436 10.1075 87.2724C9.48365 85.4013 9.30388 83.4106 9.58248 81.458V38.333H95.8325Z" fill="white"/>
<path d="M81.4575 16.7705H75.4679V9.58301C75.4679 8.62989 75.0893 7.7158 74.4153 7.04184C73.7413 6.36788 72.8273 5.98926 71.8741 5.98926C70.921 5.98926 70.0069 6.36788 69.333 7.04184C68.659 7.7158 68.2804 8.62989 68.2804 9.58301V16.7705H37.1346V9.58301C37.1346 8.62989 36.7559 7.7158 36.082 7.04184C35.408 6.36788 34.4939 5.98926 33.5408 5.98926C32.5877 5.98926 31.6736 6.36788 30.9996 7.04184C30.3257 7.7158 29.9471 8.62989 29.9471 9.58301V16.7705H23.9575C22.0049 16.4919 20.0142 16.6717 18.1431 17.2956C16.2719 17.9195 14.5717 18.9703 13.177 20.365C11.7823 21.7597 10.7314 23.46 10.1075 25.3311C9.48365 27.2022 9.30388 29.1929 9.58248 31.1455V38.333H95.8325V31.1455C96.1111 29.1929 95.9313 27.2022 95.3074 25.3311C94.6835 23.46 93.6326 21.7597 92.2379 20.365C90.8432 18.9703 89.143 17.9195 87.2719 17.2956C85.4008 16.6717 83.4101 16.4919 81.4575 16.7705Z" fill="white"/>
<path d="M33.6384 62.2913C32.3676 62.2977 31.1463 61.799 30.2432 60.9048C29.3401 60.0107 28.8292 58.7945 28.8228 57.5236C28.8165 56.2528 29.3152 55.0315 30.2093 54.1284C31.1034 53.2253 32.3197 52.7144 33.5905 52.708H33.6384C34.9093 52.708 36.128 53.2128 37.0267 54.1115C37.9253 55.0101 38.4301 56.2288 38.4301 57.4997C38.4301 58.7705 37.9253 59.9893 37.0267 60.8879C36.128 61.7865 34.9093 62.2913 33.6384 62.2913ZM57.5968 57.4997C57.5968 56.2288 57.0919 55.0101 56.1933 54.1115C55.2947 53.2128 54.0759 52.708 52.8051 52.708H52.7572C51.8116 52.7175 50.8899 53.0065 50.1083 53.5387C49.3266 54.071 48.7199 54.8226 48.3646 55.6989C48.0092 56.5753 47.9212 57.5372 48.1114 58.4635C48.3017 59.3898 48.7618 60.2391 49.4338 60.9045C50.1058 61.5698 50.9596 62.0214 51.8878 62.2025C52.8159 62.3835 53.7769 62.2859 54.6497 61.9218C55.5225 61.5578 56.268 60.9436 56.7924 60.1567C57.3169 59.3698 57.5967 58.4453 57.5968 57.4997ZM38.4301 76.6663C38.4301 75.3955 37.9253 74.1767 37.0267 73.2781C36.128 72.3795 34.9093 71.8747 33.6384 71.8747H33.5905C32.6449 71.8841 31.7233 72.1732 30.9416 72.7054C30.1599 73.2376 29.5532 73.9893 29.1979 74.8656C28.8426 75.742 28.7545 76.7039 28.9448 77.6302C29.135 78.5565 29.5951 79.4058 30.2671 80.0711C30.9391 80.7365 31.793 81.1881 32.7211 81.3691C33.6493 81.5502 34.6103 81.4525 35.483 81.0885C36.3558 80.7245 37.1013 80.1103 37.6258 79.3234C38.1502 78.5365 38.4301 77.612 38.4301 76.6663Z" fill="white"/>
<path d="M86.2477 67.083C82.4569 67.083 78.7512 68.2071 75.5993 70.3132C72.4474 72.4192 69.9907 75.4127 68.54 78.9149C67.0894 82.4172 66.7098 86.2709 67.4493 89.9889C68.1889 93.7069 70.0143 97.122 72.6949 99.8026C75.3754 102.483 78.7905 104.309 82.5085 105.048C86.2265 105.788 90.0802 105.408 93.5825 103.957C97.0847 102.507 100.078 100.05 102.184 96.8981C104.29 93.7462 105.414 90.0405 105.414 86.2497C105.414 81.1664 103.395 76.2912 99.8006 72.6968C96.2062 69.1023 91.3311 67.083 86.2477 67.083ZM93.0759 93.073C92.6266 93.5222 92.0173 93.7745 91.382 93.7745C90.7467 93.7745 90.1374 93.5222 89.6882 93.073L84.5515 87.9459C84.3291 87.723 84.1529 87.4585 84.0329 87.1674C83.9128 86.8764 83.8513 86.5645 83.8519 86.2497V79.0622C83.8519 78.4268 84.1043 77.8174 84.5536 77.3681C85.0029 76.9188 85.6123 76.6663 86.2477 76.6663C86.8831 76.6663 87.4925 76.9188 87.9418 77.3681C88.3912 77.8174 88.6436 78.4268 88.6436 79.0622V85.2578L93.0759 89.6853C93.525 90.1346 93.7773 90.7439 93.7773 91.3792C93.7773 92.0144 93.525 92.6237 93.0759 93.073Z" fill="white"/>
</svg>
