<svg width="124" height="125" viewBox="0 0 124 125" fill="none" xmlns="http://www.w3.org/2000/svg">
<path opacity="0.4" d="M103.333 36.4167V63.8362C103.327 64.0567 103.273 64.2733 103.174 64.4703C103.075 64.6673 102.933 64.8398 102.759 64.9753C102.585 65.1108 102.383 65.2059 102.168 65.2537C101.952 65.3016 101.729 65.3009 101.514 65.2518C100.667 64.9717 99.7811 64.8304 98.8894 64.8333H92.0177C90.1858 64.8262 88.4018 65.418 86.9374 66.5186C85.473 67.6192 84.4085 69.1684 83.906 70.93C83.1662 70.7222 82.4011 70.6179 81.6327 70.62C80.1732 70.6281 78.7405 71.0129 77.4733 71.737C76.2061 72.4611 75.1473 73.5001 74.3994 74.7533L70.9377 80.54C69.79 82.4866 69.4558 84.8071 70.0077 86.9983C70.3937 88.3686 71.1024 89.6265 72.0744 90.6667C70.5224 92.3509 69.6948 94.5777 69.77 96.8667C69.7647 97.0779 69.7174 97.286 69.6308 97.4788C69.5443 97.6715 69.4201 97.8451 69.2658 97.9894C69.1114 98.1337 68.9298 98.2458 68.7316 98.3191C68.5334 98.3925 68.3226 98.4257 68.1115 98.4167H25.8327C23.7272 98.7171 21.5808 98.5232 19.5632 97.8505C17.5457 97.1778 15.7124 96.0447 14.2085 94.5408C12.7047 93.037 11.5716 91.2037 10.8988 89.1861C10.2261 87.1686 10.0323 85.0221 10.3327 82.9167V36.4167C10.0323 34.3112 10.2261 32.1648 10.8988 30.1472C11.5716 28.1296 12.7047 26.2964 14.2085 24.7925C15.7124 23.2887 17.5457 22.1555 19.5632 21.4828C21.5808 20.8101 23.7272 20.6163 25.8327 20.9167H87.8327C89.9381 20.6163 92.0846 20.8101 94.1022 21.4828C96.1197 22.1555 97.953 23.2887 99.4568 24.7925C100.961 26.2964 102.094 28.1296 102.767 30.1472C103.439 32.1648 103.633 34.3112 103.333 36.4167Z" fill="white"/>
<path d="M56.8334 64.9056C54.9226 64.907 53.0607 64.3008 51.5169 63.1748L26.1383 44.7143C25.3079 44.11 24.7515 43.2005 24.5917 42.1861C24.4318 41.1716 24.6815 40.1351 25.2858 39.3048C25.89 38.4744 26.7995 37.918 27.8139 37.7582C28.8284 37.5983 29.8649 37.848 30.6953 38.4523L56.0791 56.9076C56.2982 57.0672 56.5623 57.1532 56.8334 57.1532C57.1045 57.1532 57.3686 57.0672 57.5877 56.9076L82.9716 38.4523C83.802 37.848 84.8384 37.5983 85.8529 37.7582C86.8674 37.918 87.7768 38.4744 88.3811 39.3048C88.9854 40.1351 89.2351 41.1716 89.0752 42.1861C88.9153 43.2005 88.359 44.11 87.5286 44.7143L62.1499 63.1748C60.6061 64.3008 58.7443 64.907 56.8334 64.9056Z" fill="white"/>
<path d="M113.067 95.8952C112.128 95.3825 111.345 94.6265 110.799 93.7064C110.253 92.7864 109.965 91.7363 109.965 90.6665C109.965 89.5967 110.253 88.5466 110.799 87.6266C111.345 86.7065 112.128 85.9505 113.067 85.4379L113.667 85.102L109.533 78.1477L108.939 78.4835C107.986 79.0156 106.913 79.295 105.821 79.295C104.73 79.295 103.656 79.0156 102.703 78.4835C101.769 77.9688 100.99 77.2144 100.445 76.298C99.9001 75.3816 99.6095 74.3365 99.6031 73.2704C99.6032 73.1788 99.5849 73.0882 99.5494 73.0038C99.5139 72.9194 99.4619 72.8429 99.3964 72.7789C99.331 72.7149 99.2534 72.6646 99.1682 72.631C99.083 72.5974 98.992 72.5811 98.9005 72.5832H92.0081C91.8268 72.5818 91.6522 72.6522 91.5225 72.779C91.3928 72.9057 91.3185 73.0787 91.3158 73.26C91.3084 74.3259 91.0173 75.3707 90.4725 76.2868C89.9277 77.203 89.1488 77.9577 88.2158 78.4732C87.2627 79.0053 86.1893 79.2847 85.0977 79.2847C84.0061 79.2847 82.9327 79.0053 81.9796 78.4732C81.8229 78.3838 81.6374 78.3591 81.4627 78.4045C81.288 78.4499 81.1379 78.5616 81.0445 78.716L77.5828 84.5182C77.5383 84.5937 77.5095 84.6775 77.4981 84.7644C77.4868 84.8514 77.4931 84.9398 77.5168 85.0242C77.5404 85.1086 77.5809 85.1874 77.6357 85.2558C77.6906 85.3243 77.7587 85.3809 77.836 85.4224C78.775 85.935 79.5586 86.691 80.1045 87.6111C80.6504 88.5311 80.9385 89.5812 80.9385 90.651C80.9385 91.7208 80.6504 92.7709 80.1045 93.6909C79.5586 94.611 78.775 95.367 77.836 95.8797C77.7588 95.9226 77.691 95.9805 77.6365 96.0501C77.5821 96.1196 77.5421 96.1994 77.519 96.2846C77.4959 96.3699 77.4901 96.4589 77.5019 96.5464C77.5138 96.6339 77.543 96.7182 77.588 96.7942L81.0393 102.591C81.1337 102.746 81.2847 102.858 81.4603 102.903C81.6358 102.948 81.8221 102.924 81.9796 102.834C82.9318 102.302 84.0044 102.022 85.0951 102.022C86.1859 102.022 87.2585 102.302 88.2106 102.834C89.1454 103.347 89.9258 104.102 90.4709 105.018C91.016 105.935 91.3059 106.981 91.3106 108.047C91.3147 108.229 91.3901 108.402 91.5207 108.529C91.6512 108.655 91.8263 108.725 92.0081 108.724H98.9108C99.0004 108.725 99.0893 108.709 99.1726 108.676C99.2558 108.643 99.3318 108.594 99.3961 108.532C99.4604 108.469 99.5118 108.395 99.5473 108.313C99.5828 108.23 99.6018 108.142 99.6031 108.052C99.6095 106.986 99.9001 105.941 100.445 105.025C100.99 104.108 101.769 103.354 102.703 102.839C103.656 102.307 104.73 102.028 105.821 102.028C106.913 102.028 107.986 102.307 108.939 102.839C109.096 102.929 109.282 102.953 109.456 102.908C109.631 102.863 109.781 102.751 109.874 102.596L113.331 96.7942C113.376 96.7189 113.405 96.6355 113.416 96.5487C113.428 96.462 113.422 96.3738 113.399 96.2894C113.376 96.205 113.336 96.1261 113.282 96.0575C113.227 95.9889 113.16 95.9319 113.083 95.89L113.067 95.8952ZM95.6816 95.8332C94.3113 95.84 92.9945 95.3023 92.0207 94.3382C91.0469 93.3741 90.496 92.0626 90.4891 90.6923C90.4823 89.3221 91.0201 88.0052 91.9841 87.0314C92.9482 86.0576 94.2597 85.5067 95.63 85.4998H95.6816C97.0519 85.4998 98.3661 86.0442 99.335 87.0131C100.304 87.9821 100.848 89.2962 100.848 90.6665C100.848 92.0368 100.304 93.351 99.335 94.3199C98.3661 95.2888 97.0519 95.8332 95.6816 95.8332Z" fill="white"/>
</svg>
