<svg width="100" height="101" viewBox="0 0 100 101" fill="none" xmlns="http://www.w3.org/2000/svg">
<path opacity="0.4" d="M67.3691 43.9056C67.3691 43.799 67.3552 43.6971 67.3529 43.5906C67.1792 34.129 59.4941 28.459 49.9978 28.459C40.4042 28.459 32.6265 34.2494 32.6265 43.9056C32.5456 47.6178 33.8929 51.2193 36.3903 53.967C35.9882 56.2196 34.7641 58.2426 32.9554 59.644C32.8172 59.7653 32.7182 59.9249 32.671 60.1026C32.6238 60.2804 32.6306 60.4681 32.6905 60.6419C32.7503 60.8158 32.8606 60.9679 33.0071 61.0789C33.1537 61.1899 33.33 61.2548 33.5136 61.2653C35.2289 61.4422 36.9623 61.2643 38.6059 60.7427C40.2496 60.2212 41.7683 59.367 43.0678 58.2334C43.5959 58.4164 44.1402 58.5785 44.6891 58.7175C46.4243 59.1468 48.2057 59.3607 49.9932 59.3545C59.5891 59.3545 67.3691 53.5617 67.3691 43.9056Z" fill="white"/>
<path d="M49.8389 46.0337C49.5348 46.0352 49.2333 45.9768 48.9517 45.8618C48.6701 45.7469 48.4139 45.5775 48.1977 45.3635C47.7612 44.9313 47.5142 44.3434 47.5112 43.7291C47.5081 43.1148 47.7492 42.5245 48.1814 42.0879C48.6136 41.6514 49.2015 41.4044 49.8158 41.4014H49.8389C50.4532 41.4014 51.0423 41.6454 51.4767 42.0798C51.9111 42.5141 52.1551 43.1033 52.1551 43.7175C52.1551 44.3318 51.9111 44.921 51.4767 45.3553C51.0423 45.7897 50.4532 46.0337 49.8389 46.0337ZM44.4839 43.7175C44.4839 43.1033 44.2399 42.5141 43.8055 42.0798C43.3712 41.6454 42.782 41.4014 42.1677 41.4014H42.1446C41.6875 41.4059 41.242 41.5457 40.8642 41.8029C40.4863 42.0602 40.1931 42.4235 40.0213 42.8471C39.8495 43.2707 39.807 43.7357 39.8989 44.1834C39.9909 44.6312 40.2133 45.0417 40.5381 45.3633C40.863 45.685 41.2757 45.9033 41.7243 45.9908C42.173 46.0783 42.6375 46.0311 43.0594 45.8551C43.4812 45.6791 43.8416 45.3823 44.0951 45.0019C44.3486 44.6215 44.4839 44.1746 44.4839 43.7175ZM59.7846 43.7175C59.7846 43.1033 59.5406 42.5141 59.1062 42.0798C58.6718 41.6454 58.0827 41.4014 57.4684 41.4014H57.4452C56.9882 41.4059 56.5427 41.5457 56.1648 41.8029C55.787 42.0602 55.4937 42.4235 55.322 42.8471C55.1502 43.2707 55.1076 43.7357 55.1996 44.1834C55.2916 44.6312 55.514 45.0417 55.8388 45.3633C56.1636 45.685 56.5763 45.9033 57.025 45.9908C57.4736 46.0783 57.9382 46.0311 58.36 45.8551C58.7819 45.6791 59.1423 45.3823 59.3958 45.0019C59.6493 44.6215 59.7846 44.1746 59.7846 43.7175Z" fill="white"/>
<path fill-rule="evenodd" clip-rule="evenodd" d="M50.0007 0.5C26.3196 0.5 7.14355 19.6761 7.14355 43.3571V54.0714C7.14355 55.0186 7.51983 55.927 8.1896 56.5968C8.85937 57.2666 9.76778 57.6429 10.715 57.6429C11.6622 57.6429 12.5706 57.2666 13.2404 56.5968C13.9101 55.927 14.2864 55.0186 14.2864 54.0714V43.3571C14.2864 23.5097 30.1532 7.64286 50.0007 7.64286C69.8482 7.64286 85.715 23.5097 85.715 43.3571V54.0714C85.715 55.0186 86.0913 55.927 86.761 56.5968C87.4308 57.2666 88.3392 57.6429 89.2864 57.6429C90.2336 57.6429 91.142 57.2666 91.8118 56.5968C92.4816 55.927 92.8578 55.0186 92.8578 54.0714V43.3571C92.8578 19.6761 73.6818 0.5 50.0007 0.5Z" fill="#787878"/>
<path fill-rule="evenodd" clip-rule="evenodd" d="M92.8582 71.9287C91.911 71.9287 91.0026 72.305 90.3328 72.9748C89.663 73.6445 89.2868 74.5529 89.2868 75.5001V79.0716C89.2868 85.0312 84.5321 89.7859 78.5725 89.7859H64.2868C63.3396 89.7859 62.4311 90.1621 61.7614 90.8319C61.0916 91.5017 60.7153 92.4101 60.7153 93.3573C60.7153 94.3045 61.0916 95.2129 61.7614 95.8827C62.4311 96.5524 63.3396 96.9287 64.2868 96.9287H78.5725C88.3924 96.9287 96.4296 88.8915 96.4296 79.0716V75.5001C96.4296 74.5529 96.0533 73.6445 95.3836 72.9748C94.7138 72.305 93.8054 71.9287 92.8582 71.9287Z" fill="#787878"/>
<path fill-rule="evenodd" clip-rule="evenodd" d="M48.2136 82.6426C43.3289 82.6426 39.285 86.6865 39.285 91.5711C39.285 96.4558 43.3289 100.5 48.2136 100.5H58.9279C63.8125 100.5 67.8564 96.4558 67.8564 91.5711C67.8564 86.6865 63.8125 82.6426 58.9279 82.6426H48.2136Z" fill="white"/>
<path fill-rule="evenodd" clip-rule="evenodd" d="M87.5 41.5713C80.6368 41.5713 75 47.2081 75 54.0713V68.357C75 75.2202 80.6368 80.857 87.5 80.857C94.3632 80.857 100 75.2202 100 68.357V54.0713C100 47.2081 94.3632 41.5713 87.5 41.5713Z" fill="white"/>
<path fill-rule="evenodd" clip-rule="evenodd" d="M12.5 41.5713C5.6368 41.5713 0 47.2081 0 54.0713V68.357C0 75.2202 5.6368 80.857 12.5 80.857C19.3632 80.857 25 75.2202 25 68.357V54.0713C25 47.2081 19.3632 41.5713 12.5 41.5713Z" fill="white"/>
</svg>
