<svg width="105" height="120" viewBox="0 0 105 120" fill="none" xmlns="http://www.w3.org/2000/svg">
<path d="M10.5005 108.884L17.5005 119.617H24.5005L31.5005 108.884L21.0005 98.3838L10.5005 108.884ZM84.0005 98.3838L73.5005 108.884L80.5005 119.617H87.5005L94.5005 108.884L84.0005 98.3838ZM42.0005 101.884L52.5005 112.384L63.0005 101.884L56.0005 84.3838H52.5005H49.0005L42.0005 101.884ZM74.5507 70.3838L76.7207 63.3838C76.9305 62.2636 77.0005 61.0736 77.0005 59.8838V56.3838L84.0005 49.3838L77.0005 35.3838L52.5005 28.3838L28.0005 35.3838L21.0005 49.3838L28.0005 56.3838V59.8838C28.0005 73.3828 39.0017 84.3838 52.5005 84.3838C62.2305 84.3838 70.7003 78.6438 74.5507 70.3838ZM17.5005 42.3838C19.4351 42.3838 21.0005 40.8184 21.0005 38.8838V31.8838C21.0005 18.3759 31.9926 7.38379 45.5005 7.38379H59.5005C73.0084 7.38379 84.0005 18.3759 84.0005 31.8838V38.8838C84.0005 40.8184 85.5659 42.3838 87.5005 42.3838C89.4351 42.3838 91.0005 40.8184 91.0005 38.8838V31.8838C91.0005 14.5138 76.8705 0.383789 59.5005 0.383789H45.5005C28.1305 0.383789 14.0005 14.5138 14.0005 31.8838V38.8838C14.0005 40.8184 15.5659 42.3838 17.5005 42.3838Z" fill="white"/>
<path d="M80.5 84.3838H56V101.884C56 103.844 54.4602 105.384 52.5 105.384C50.5398 105.384 49 103.844 49 101.884V84.3838H24.5C10.99 84.3838 0 95.3738 0 108.884V116.117C0 118.077 1.53977 119.617 3.5 119.617H17.5V108.884C17.5 106.924 19.0398 105.384 21 105.384C22.9602 105.384 24.5 106.924 24.5 108.884V119.617H80.5V108.884C80.5 106.924 82.0398 105.384 84 105.384C85.9602 105.384 87.5 106.924 87.5 108.884V119.617H101.5C103.46 119.617 105 118.077 105 116.117V108.884C105 95.3738 94.01 84.3838 80.5 84.3838ZM84 56.3838V59.8838C84 61.8436 82.4602 63.3838 80.5 63.3838H52.5C50.5398 63.3838 49 64.9236 49 66.8838C49 68.8436 50.5398 70.3838 52.5 70.3838H80.5C86.3102 70.3838 91 65.6936 91 59.8838V38.8838C91 36.9236 89.4602 35.3838 87.5 35.3838H77V56.3838H84ZM45.5 35.3838C47.4602 35.3838 49 36.9236 49 38.8838C49 40.8436 50.5398 42.3838 52.5 42.3838C54.4602 42.3838 56 40.8436 56 38.8838C56 36.9236 57.5398 35.3838 59.5 35.3838H70H77V31.8838C77 22.2238 69.16 14.3838 59.5 14.3838H45.5C35.84 14.3838 28 22.2238 28 31.8838V35.3838H35H45.5ZM17.5 56.3838H28V35.3838H17.5C15.5398 35.3838 14 36.9236 14 38.8838V52.8838C14 54.8436 15.5398 56.3838 17.5 56.3838Z" fill="#706F73"/>
</svg>
