<svg width="100" height="101" viewBox="0 0 100 101" fill="none" xmlns="http://www.w3.org/2000/svg">
<path d="M51.4605 46.7761C50.0533 45.9623 48.4565 45.5337 46.831 45.5337C45.2055 45.5337 43.6087 45.9623 42.2016 46.7761C42.0852 46.8433 41.9568 46.8869 41.8236 46.9044C41.6904 46.922 41.5551 46.9131 41.4253 46.8783C41.2955 46.8435 41.1739 46.7835 41.0673 46.7017C40.9608 46.6198 40.8714 46.5178 40.8043 46.4015L35.6604 37.5264C35.5255 37.2921 35.4888 37.0139 35.5584 36.7526C35.6281 36.4913 35.7983 36.2683 36.032 36.1322H36.0627C37.4641 35.3231 38.6277 34.1592 39.4363 32.7575C40.245 31.3559 40.6702 29.7659 40.6692 28.1477C40.6674 26.5301 40.241 24.9413 39.4327 23.5401C38.6243 22.1389 37.4622 20.9745 36.0627 20.1633C35.9472 20.0965 35.846 20.0076 35.7649 19.9017C35.6838 19.7957 35.6244 19.6748 35.5902 19.5458C35.5559 19.4168 35.5475 19.2824 35.5653 19.1501C35.5832 19.0179 35.627 18.8905 35.6942 18.7752L40.7981 9.88482C40.9342 9.65196 41.1567 9.48227 41.4172 9.41268C41.6778 9.34309 41.9552 9.37922 42.1893 9.51323C43.5972 10.3279 45.1951 10.7569 46.8218 10.7569C48.4485 10.7569 50.0464 10.3279 51.4543 9.51323C52.8536 8.70323 54.015 7.53927 54.8219 6.13828C55.6289 4.73729 56.053 3.14861 56.0515 1.53184C56.0523 1.2579 56.1617 0.995451 56.3557 0.802031C56.5497 0.608612 56.8125 0.499999 57.0864 0.5H69.2351C69.5091 0.499999 69.7718 0.608612 69.9658 0.802031C70.1598 0.995451 70.2692 1.2579 70.27 1.53184C70.2703 3.14511 70.6943 4.73001 71.4994 6.12799C72.3046 7.52597 73.4627 8.68801 74.858 9.49788C76.266 10.3126 77.8639 10.7415 79.4905 10.7415C81.1172 10.7415 82.7151 10.3126 84.1231 9.49788C84.3573 9.3633 84.6353 9.32717 84.8961 9.39742C85.157 9.46766 85.3792 9.63854 85.5142 9.87253L90.6519 18.7353C90.7859 18.9693 90.822 19.2468 90.7524 19.5073C90.6829 19.7679 90.5132 19.9904 90.2803 20.1264H90.2557C88.8543 20.9355 87.6908 22.0995 86.8821 23.5011C86.0735 24.9028 85.6483 26.4927 85.6493 28.1109C85.6511 29.7285 86.0775 31.3174 86.8858 32.7185C87.6942 34.1197 88.8562 35.2841 90.2557 36.0953C90.3713 36.1621 90.4725 36.251 90.5536 36.357C90.6347 36.4629 90.6941 36.5839 90.7283 36.7128C90.7626 36.8418 90.771 36.9763 90.7531 37.1085C90.7353 37.2407 90.6915 37.3682 90.6243 37.4834L85.4866 46.3523C85.3505 46.5852 85.128 46.7549 84.8675 46.8245C84.6069 46.894 84.3294 46.8579 84.0954 46.7239C82.6875 45.9092 81.0896 45.4802 79.4629 45.4802C77.8362 45.4802 76.2383 45.9092 74.8304 46.7239C73.429 47.533 72.2654 48.6969 71.4568 50.0986C70.6481 51.5002 70.2229 53.0902 70.224 54.7084C70.224 54.8441 70.1972 54.9786 70.1451 55.1039C70.0931 55.2293 70.0168 55.3432 69.9207 55.4391C69.8245 55.5349 69.7104 55.6109 69.5849 55.6625C69.4593 55.7142 69.3248 55.7406 69.189 55.7402H57.0772C56.9416 55.7406 56.8073 55.7142 56.6819 55.6625C56.5565 55.6108 56.4426 55.5348 56.3467 55.4389C56.2508 55.343 56.1748 55.2291 56.1231 55.1037C56.0714 54.9783 56.045 54.844 56.0454 54.7084C56.0395 53.1011 55.6132 51.5234 54.8089 50.1319C54.0046 48.7404 52.8502 47.5835 51.4605 46.7761Z" fill="white"/>
<path d="M63.1625 37.3515C68.2507 37.3515 72.3754 33.2267 72.3754 28.1386C72.3754 23.0505 68.2507 18.9258 63.1625 18.9258C58.0744 18.9258 53.9497 23.0505 53.9497 28.1386C53.9497 33.2267 58.0744 37.3515 63.1625 37.3515Z" fill="#787878"/>
<path d="M15.7895 100.5H5.26316C3.86728 100.5 2.52858 99.9453 1.54154 98.9583C0.55451 97.9713 0 96.6326 0 95.2367V74.1841C0 72.7882 0.55451 71.4495 1.54154 70.4624C2.52858 69.4754 3.86728 68.9209 5.26316 68.9209H15.7895C17.1854 68.9209 18.5241 69.4754 19.5111 70.4624C20.4981 71.4495 21.0526 72.7882 21.0526 74.1841V95.2367C21.0526 96.6326 20.4981 97.9713 19.5111 98.9583C18.5241 99.9453 17.1854 100.5 15.7895 100.5Z" fill="white"/>
<path opacity="0.4" d="M100 76.0788C100.004 77.1308 99.7689 78.1698 99.3131 79.1179C98.8573 80.066 98.1924 80.8984 97.3686 81.5525L79.4738 95.8683C75.7439 98.8666 71.1016 100.501 66.3159 100.5H36.8422C34.053 100.492 31.3805 99.3798 29.4082 97.4076C27.4359 95.4353 26.3242 92.7627 26.3159 89.9735V79.4472C26.3242 76.658 27.4359 73.9855 29.4082 72.0132C31.3805 70.0409 34.053 68.9292 36.8422 68.9209H63.7896C65.36 68.9209 66.866 69.5447 67.9764 70.6551C69.0868 71.7655 69.7107 73.2716 69.7107 74.842C69.7107 76.4123 69.0868 77.9184 67.9764 79.0288C66.866 80.1392 65.36 80.763 63.7896 80.763H47.3686C46.3216 80.763 45.3176 81.1789 44.5773 81.9192C43.8371 82.6594 43.4212 83.6635 43.4212 84.7104C43.4212 85.7573 43.8371 86.7613 44.5773 87.5016C45.3176 88.2419 46.3216 88.6577 47.3686 88.6577H63.7896C67.0481 88.6531 70.2008 87.5004 72.6938 85.402C75.1867 83.3037 76.8606 80.394 77.4212 77.1841L89.3686 70.0262C90.4488 69.3745 91.6859 69.0289 92.9475 69.0262C94.818 69.0262 96.6118 69.7692 97.9345 71.0918C99.2571 72.4145 100 74.2083 100 76.0788Z" fill="white"/>
</svg>
