<svg width="299" height="195" viewBox="0 0 299 195" fill="none" xmlns="http://www.w3.org/2000/svg">
<g filter="url(#filter0_b_3_4250)">
<rect width="298.8" height="194.4" rx="18" fill="#1D1B1B" fill-opacity="0.6"/>
<rect x="0.45" y="0.45" width="297.9" height="193.5" rx="17.55" stroke="white" stroke-opacity="0.1" stroke-width="0.9"/>
<rect x="33.84" y="26.6" width="45" height="45" rx="22.5" fill="white" fill-opacity="0.1"/>
<path d="M46.62 48.0199H49.86C50.4329 48.0199 50.9823 48.2475 51.3873 48.6526C51.7924 49.0577 52.02 49.6071 52.02 50.1799V53.4199C52.02 53.9928 51.7924 54.5422 51.3873 54.9473C50.9823 55.3524 50.4329 55.5799 49.86 55.5799H48.78C48.2071 55.5799 47.6577 55.3524 47.2526 54.9473C46.8476 54.5422 46.62 53.9928 46.62 53.4199V48.0199ZM46.62 48.0199C46.62 46.7435 46.8714 45.4795 47.3599 44.3002C47.8484 43.121 48.5643 42.0494 49.4669 41.1468C50.3695 40.2443 51.441 39.5283 52.6203 39.0398C53.7996 38.5513 55.0635 38.2999 56.34 38.2999C57.6164 38.2999 58.8804 38.5513 60.0597 39.0398C61.239 39.5283 62.3105 40.2443 63.2131 41.1468C64.1157 42.0494 64.8316 43.121 65.3201 44.3002C65.8086 45.4795 66.06 46.7435 66.06 48.0199M66.06 48.0199V53.4199M66.06 48.0199H62.82C62.2471 48.0199 61.6977 48.2475 61.2926 48.6526C60.8876 49.0577 60.66 49.6071 60.66 50.1799V53.4199C60.66 53.9928 60.8876 54.5422 61.2926 54.9473C61.6977 55.3524 62.2471 55.5799 62.82 55.5799H63.9C64.4729 55.5799 65.0223 55.3524 65.4273 54.9473C65.8324 54.5422 66.06 53.9928 66.06 53.4199M66.06 53.4199V55.5799C66.06 56.7257 65.6049 57.8245 64.7947 58.6346C63.9845 59.4448 62.8857 59.8999 61.74 59.8999H56.34" stroke="white" stroke-width="1.08" stroke-linecap="round" stroke-linejoin="round"/>
<path d="M97.182 63.8659C93.546 63.8659 90.864 61.0039 90.864 57.3859V57.3499C90.864 53.7859 93.546 50.8339 97.236 50.8339C99.522 50.8339 100.908 51.6259 102.15 52.8319L101.178 53.8759C100.098 52.8679 98.946 52.1479 97.218 52.1479C94.428 52.1479 92.34 54.4159 92.34 57.3139V57.3499C92.34 60.2659 94.428 62.5519 97.218 62.5519C98.946 62.5519 100.08 61.8859 101.286 60.7339L102.222 61.6519C100.926 62.9839 99.45 63.8659 97.182 63.8659ZM108.62 63.8659C105.83 63.8659 103.796 61.6699 103.796 59.0419V59.0059C103.796 56.3599 105.83 54.1459 108.656 54.1459C111.464 54.1459 113.498 56.3419 113.498 58.9699V59.0059C113.498 61.6519 111.428 63.8659 108.62 63.8659ZM108.656 62.6239C110.672 62.6239 112.076 60.9859 112.076 59.0419V59.0059C112.076 57.0079 110.582 55.3699 108.62 55.3699C106.604 55.3699 105.218 57.0079 105.218 58.9699V59.0059C105.218 61.0039 106.694 62.6239 108.656 62.6239ZM116.008 63.6499V54.3439H117.394V55.9639C118.024 54.9559 118.978 54.1459 120.58 54.1459C122.812 54.1459 124.144 55.6579 124.144 57.8719V63.6499H122.758V58.2139C122.758 56.4859 121.84 55.4059 120.184 55.4059C118.582 55.4059 117.394 56.5759 117.394 58.3219V63.6499H116.008ZM127.622 63.6499V55.5679H126.344V54.3619H127.622V53.5519C127.622 52.4899 127.892 51.6979 128.432 51.1579C128.918 50.6719 129.584 50.4379 130.43 50.4379C131.078 50.4379 131.51 50.5099 131.96 50.6719V51.8779C131.456 51.7339 131.096 51.6439 130.61 51.6439C129.53 51.6439 128.99 52.3099 128.99 53.6239V54.3799H131.942V55.5679H129.008V63.6499H127.622ZM133.85 63.6499V54.3439H135.218V63.6499H133.85ZM133.742 52.3099V50.7799H135.326V52.3099H133.742ZM138.456 63.6499V54.3439H139.842V56.7739C140.526 55.2259 141.876 54.1279 143.64 54.1819V55.6759H143.532C141.498 55.6759 139.842 57.1339 139.842 59.9419V63.6499H138.456ZM145.751 63.6499V54.3439H147.137V55.9099C147.767 54.9739 148.577 54.1459 150.143 54.1459C151.655 54.1459 152.627 54.9379 153.131 55.9999C153.815 54.9739 154.769 54.1459 156.407 54.1459C158.567 54.1459 159.863 55.5679 159.863 57.8899V63.6499H158.477V58.2139C158.477 56.4139 157.577 55.4059 156.065 55.4059C154.679 55.4059 153.491 56.4499 153.491 58.2859V63.6499H152.123V58.1779C152.123 56.4319 151.223 55.4059 149.729 55.4059C148.253 55.4059 147.137 56.6299 147.137 58.3399V63.6499H145.751ZM166.887 63.8659C164.349 63.8659 162.243 61.9039 162.243 59.0239V58.9879C162.243 56.3059 164.115 54.1459 166.707 54.1459C169.461 54.1459 171.045 56.3419 171.045 59.0599C171.045 59.2579 171.045 59.3479 171.027 59.5099H163.647C163.845 61.5259 165.267 62.6599 166.923 62.6599C168.219 62.6599 169.083 62.1379 169.857 61.3459L170.721 62.1199C169.785 63.1819 168.669 63.8659 166.887 63.8659ZM163.647 58.4839H169.641C169.497 56.8099 168.543 55.3159 166.671 55.3159C165.033 55.3159 163.845 56.6839 163.647 58.4839ZM177.377 63.8479C175.145 63.8479 172.931 62.0839 172.931 59.0239V58.9879C172.931 55.9639 175.145 54.1459 177.377 54.1459C179.105 54.1459 180.221 55.0639 180.941 56.1259V50.5099H182.327V63.6499H180.941V61.7779C180.167 62.8939 179.105 63.8479 177.377 63.8479ZM177.629 62.6059C179.357 62.6059 180.995 61.1479 180.995 59.0059V58.9699C180.995 56.8279 179.357 55.3879 177.629 55.3879C175.829 55.3879 174.353 56.7199 174.353 58.9699V59.0059C174.353 61.2199 175.847 62.6059 177.629 62.6059Z" fill="white"/>
<path opacity="0.5" d="M93.3012 39.6579C92.0916 39.6579 91.1196 39.2691 90.2124 38.4483L90.7416 37.8219C91.53 38.5455 92.286 38.8911 93.3336 38.8911C94.3596 38.8911 95.0184 38.3511 95.0184 37.6059V37.5843C95.0184 36.8823 94.6404 36.4935 93.0528 36.1479C91.314 35.7699 90.5148 35.2083 90.5148 33.9663V33.9447C90.5148 32.7675 91.5624 31.8819 92.9988 31.8819C94.1112 31.8819 94.878 32.1951 95.6556 32.8107L95.1588 33.4695C94.4568 32.8971 93.7548 32.6487 92.9772 32.6487C91.9836 32.6487 91.368 33.1779 91.368 33.8691V33.8907C91.368 34.6035 91.746 35.0139 93.42 35.3595C95.1048 35.7375 95.8824 36.3423 95.8824 37.4979V37.5195C95.8824 38.8155 94.8024 39.6579 93.3012 39.6579ZM99.9178 39.6795C98.395 39.6795 97.1314 38.5023 97.1314 36.7743V36.7527C97.1314 35.1435 98.2546 33.8475 99.8098 33.8475C101.462 33.8475 102.413 35.1651 102.413 36.7959C102.413 36.9147 102.413 36.9687 102.402 37.0659H97.9738C98.0926 38.2755 98.9458 38.9559 99.9394 38.9559C100.717 38.9559 101.235 38.6427 101.7 38.1675L102.218 38.6319C101.657 39.2691 100.987 39.6795 99.9178 39.6795ZM97.9738 36.4503H101.57C101.484 35.4459 100.911 34.5495 99.7882 34.5495C98.8054 34.5495 98.0926 35.3703 97.9738 36.4503ZM105.715 39.6579C104.905 39.6579 104.041 39.3447 103.404 38.8371L103.825 38.2431C104.43 38.7075 105.1 38.9559 105.758 38.9559C106.439 38.9559 106.914 38.6211 106.914 38.0703V38.0487C106.914 37.4979 106.255 37.2711 105.521 37.0659C104.657 36.8067 103.674 36.5259 103.674 35.4891V35.4675C103.674 34.5063 104.473 33.8691 105.575 33.8691C106.266 33.8691 107.011 34.1067 107.584 34.4847L107.206 35.1111C106.687 34.7763 106.104 34.5711 105.553 34.5711C104.894 34.5711 104.473 34.9167 104.473 35.3811V35.4027C104.473 35.9319 105.164 36.1371 105.91 36.3639C106.774 36.6231 107.702 36.9579 107.702 37.9623V37.9839C107.702 39.0423 106.828 39.6579 105.715 39.6579ZM110.989 39.6579C110.179 39.6579 109.315 39.3447 108.677 38.8371L109.099 38.2431C109.703 38.7075 110.373 38.9559 111.032 38.9559C111.712 38.9559 112.187 38.6211 112.187 38.0703V38.0487C112.187 37.4979 111.529 37.2711 110.794 37.0659C109.93 36.8067 108.947 36.5259 108.947 35.4891V35.4675C108.947 34.5063 109.747 33.8691 110.848 33.8691C111.539 33.8691 112.285 34.1067 112.857 34.4847L112.479 35.1111C111.961 34.7763 111.377 34.5711 110.827 34.5711C110.168 34.5711 109.747 34.9167 109.747 35.3811V35.4027C109.747 35.9319 110.438 36.1371 111.183 36.3639C112.047 36.6231 112.976 36.9579 112.976 37.9623V37.9839C112.976 39.0423 112.101 39.6579 110.989 39.6579ZM114.542 32.7459V31.8279H115.493V32.7459H114.542ZM114.596 39.5499V33.9663H115.428V39.5499H114.596ZM119.907 39.6795C118.233 39.6795 117.012 38.3619 117.012 36.7851V36.7635C117.012 35.1759 118.233 33.8475 119.928 33.8475C121.613 33.8475 122.833 35.1651 122.833 36.7419V36.7635C122.833 38.3511 121.591 39.6795 119.907 39.6795ZM119.928 38.9343C121.138 38.9343 121.98 37.9515 121.98 36.7851V36.7635C121.98 35.5647 121.084 34.5819 119.907 34.5819C118.697 34.5819 117.865 35.5647 117.865 36.7419V36.7635C117.865 37.9623 118.751 38.9343 119.928 38.9343ZM124.34 39.5499V33.9663H125.172V34.9383C125.55 34.3335 126.122 33.8475 127.083 33.8475C128.422 33.8475 129.222 34.7547 129.222 36.0831V39.5499H128.39V36.2883C128.39 35.2515 127.839 34.6035 126.846 34.6035C125.884 34.6035 125.172 35.3055 125.172 36.3531V39.5499H124.34ZM137.16 39.6795C135.205 39.6795 133.974 37.9083 133.974 35.7915V35.7699C133.974 33.6531 135.237 31.8603 137.181 31.8603C139.125 31.8603 140.356 33.6315 140.356 35.7483V35.7699C140.356 37.8867 139.104 39.6795 137.16 39.6795ZM137.181 38.9019C138.607 38.9019 139.471 37.4439 139.471 35.7915V35.7699C139.471 34.1283 138.574 32.6379 137.16 32.6379C135.745 32.6379 134.859 34.0851 134.859 35.7483V35.7699C134.859 37.4115 135.756 38.9019 137.181 38.9019ZM142.905 39.5499V32.8215L141.479 33.2643L141.274 32.5731L143.121 31.9359H143.747V39.5499H142.905Z" fill="white"/>
<g opacity="0.5">
<path d="M251.462 50.3596C252.058 50.3596 252.542 49.8761 252.542 49.2796C252.542 48.6832 252.058 48.1996 251.462 48.1996C250.865 48.1996 250.382 48.6832 250.382 49.2796C250.382 49.8761 250.865 50.3596 251.462 50.3596Z" stroke="white" stroke-width="1.08" stroke-linecap="round" stroke-linejoin="round"/>
<path d="M251.462 42.7996C252.058 42.7996 252.542 42.3161 252.542 41.7196C252.542 41.1232 252.058 40.6396 251.462 40.6396C250.865 40.6396 250.382 41.1232 250.382 41.7196C250.382 42.3161 250.865 42.7996 251.462 42.7996Z" stroke="white" stroke-width="1.08" stroke-linecap="round" stroke-linejoin="round"/>
<path d="M251.462 57.9196C252.058 57.9196 252.542 57.4361 252.542 56.8396C252.542 56.2432 252.058 55.7596 251.462 55.7596C250.865 55.7596 250.382 56.2432 250.382 56.8396C250.382 57.4361 250.865 57.9196 251.462 57.9196Z" stroke="white" stroke-width="1.08" stroke-linecap="round" stroke-linejoin="round"/>
</g>
<rect x="64.8" y="102.2" width="197.1" height="9" rx="4.5" fill="#3F3F3F"/>
<rect x="36.9" y="102.2" width="126.9" height="9" rx="4.5" fill="#D46804"/>
<path d="M41.1948 162.8V150.272L38.4732 151.028L37.9116 148.868L41.994 147.572H43.83V162.8H41.1948ZM46.9292 165.954L46.6484 164.83C47.966 164.571 48.5924 163.902 48.506 162.8H47.3828V159.819H50.2556V162.346C50.2556 164.766 49.1108 165.759 46.9292 165.954ZM52.7732 162.8V160.705L57.9788 156.277C60.0308 154.506 60.8084 153.577 60.8084 152.194C60.8084 150.726 59.75 149.84 58.3676 149.84C56.9852 149.84 56.0348 150.574 54.89 152.108L52.9892 150.618C54.4364 148.609 55.8836 147.464 58.562 147.464C61.4996 147.464 63.5516 149.278 63.5516 151.978V152.022C63.5516 154.419 62.2988 155.672 59.6204 157.875L56.51 160.467H63.7028V162.8H52.7732ZM71.4849 160.64C74.1417 160.64 75.0921 157.875 75.1569 155.888C74.3145 156.903 73.1481 157.486 71.5929 157.486C68.3961 157.486 66.2361 155.629 66.2361 152.691V152.648C66.2361 149.689 68.5257 147.421 71.8737 147.421C73.7745 147.421 74.9841 147.939 76.0857 149.041C77.1873 150.142 77.9001 151.827 77.9001 154.786V154.83C77.9001 159.69 75.4809 163.059 71.4201 163.059C69.3249 163.059 67.8777 162.303 66.5817 161.245L68.0289 159.214C69.1737 160.165 70.1889 160.64 71.4849 160.64ZM71.9817 155.262C73.9041 155.262 75.0489 154.009 75.0489 152.54V152.497C75.0489 150.92 73.8177 149.732 71.8953 149.732C69.9945 149.732 68.8929 150.963 68.8929 152.54V152.583C68.8929 154.138 70.0809 155.262 71.9817 155.262ZM85.9407 163.016C82.6359 163.016 80.1735 161.288 80.1735 158.674V158.631C80.1735 156.817 81.1671 155.672 82.8951 154.959C81.5991 154.29 80.6919 153.296 80.6919 151.59V151.546C80.6919 149.235 82.9167 147.464 85.9407 147.464C88.9647 147.464 91.1895 149.214 91.1895 151.546V151.59C91.1895 153.296 90.2823 154.29 88.9863 154.959C90.6495 155.715 91.7079 156.774 91.7079 158.588V158.631C91.7079 161.353 89.2455 163.016 85.9407 163.016ZM85.9407 154.074C87.4959 154.074 88.6407 153.145 88.6407 151.849V151.806C88.6407 150.618 87.5823 149.689 85.9407 149.689C84.2991 149.689 83.2407 150.618 83.2407 151.806V151.849C83.2407 153.145 84.3855 154.074 85.9407 154.074ZM85.9407 160.791C87.9279 160.791 89.0943 159.798 89.0943 158.523V158.48C89.0943 157.098 87.7551 156.212 85.9407 156.212C84.1263 156.212 82.7871 157.098 82.7871 158.48V158.523C82.7871 159.754 83.9535 160.791 85.9407 160.791ZM98.9911 164.182L104.002 154.182H104.769L99.7579 164.182H98.9911ZM109.873 162.8V156.072L108.448 156.514L108.243 155.823L110.089 155.186H110.716V162.8H109.873ZM115.667 162.93C113.712 162.93 112.481 161.158 112.481 159.042V159.02C112.481 156.903 113.744 155.11 115.688 155.11C117.632 155.11 118.863 156.882 118.863 158.998V159.02C118.863 161.137 117.611 162.93 115.667 162.93ZM115.688 162.152C117.114 162.152 117.978 160.694 117.978 159.042V159.02C117.978 157.378 117.081 155.888 115.667 155.888C114.252 155.888 113.366 157.335 113.366 158.998V159.02C113.366 160.662 114.263 162.152 115.688 162.152ZM123.387 162.93C121.432 162.93 120.201 161.158 120.201 159.042V159.02C120.201 156.903 121.464 155.11 123.408 155.11C125.352 155.11 126.584 156.882 126.584 158.998V159.02C126.584 161.137 125.331 162.93 123.387 162.93ZM123.408 162.152C124.834 162.152 125.698 160.694 125.698 159.042V159.02C125.698 157.378 124.802 155.888 123.387 155.888C121.972 155.888 121.086 157.335 121.086 158.998V159.02C121.086 160.662 121.983 162.152 123.408 162.152ZM129.52 159.02C128.494 159.02 127.813 158.113 127.813 157.108V157.087C127.813 156.061 128.504 155.154 129.541 155.154C130.546 155.154 131.237 156.061 131.237 157.065V157.087C131.237 158.113 130.546 159.02 129.52 159.02ZM129.52 155.758C128.926 155.758 128.537 156.342 128.537 157.065V157.087C128.537 157.832 128.98 158.415 129.541 158.415C130.124 158.415 130.524 157.832 130.524 157.108V157.087C130.524 156.342 130.07 155.758 129.52 155.758ZM131.507 158.858L134.142 155.24H134.909L131.993 159.204L129.368 162.8H128.591L131.507 158.858ZM133.969 162.886C132.965 162.886 132.274 161.979 132.274 160.975V160.953C132.274 159.927 132.965 159.02 133.991 159.02C135.028 159.02 135.686 159.927 135.686 160.932V160.953C135.686 161.979 135.006 162.886 133.969 162.886ZM133.991 162.282C134.585 162.282 134.974 161.698 134.974 160.975V160.953C134.974 160.208 134.531 159.625 133.969 159.625C133.386 159.625 132.986 160.208 132.986 160.932V160.953C132.986 161.698 133.429 162.282 133.991 162.282Z" fill="white"/>
</g>
<defs>
<filter id="filter0_b_3_4250" x="-90" y="-90" width="478.8" height="374.4" filterUnits="userSpaceOnUse" color-interpolation-filters="sRGB">
<feFlood flood-opacity="0" result="BackgroundImageFix"/>
<feGaussianBlur in="BackgroundImageFix" stdDeviation="45"/>
<feComposite in2="SourceAlpha" operator="in" result="effect1_backgroundBlur_3_4250"/>
<feBlend mode="normal" in="SourceGraphic" in2="effect1_backgroundBlur_3_4250" result="shape"/>
</filter>
</defs>
</svg>
