<svg width="336" height="187" viewBox="0 0 336 187" fill="none" xmlns="http://www.w3.org/2000/svg">
<g filter="url(#filter0_b_39_390)">
<rect y="52" width="300" height="135" rx="20" fill="#171717"/>
<rect x="0.5" y="52.5" width="299" height="134" rx="19.5" stroke="white" stroke-opacity="0.1"/>
<path opacity="0.5" d="M49.12 103.5V89.5H50.7V103.5H49.12ZM54.5403 103.5V93.16H56.0803V94.96C56.7803 93.84 57.8403 92.94 59.6203 92.94C62.1003 92.94 63.5803 94.62 63.5803 97.08V103.5H62.0403V97.46C62.0403 95.54 61.0203 94.34 59.1803 94.34C57.4003 94.34 56.0803 95.64 56.0803 97.58V103.5H54.5403ZM76.7606 103.5V90.96H72.0406V89.5H83.0606V90.96H78.3406V103.5H76.7606ZM83.9544 103.5V93.16H85.4944V95.86C86.2544 94.14 87.7544 92.92 89.7144 92.98V94.64H89.5944C87.3344 94.64 85.4944 96.26 85.4944 99.38V103.5H83.9544ZM94.632 103.72C92.712 103.72 90.772 102.64 90.772 100.5V100.46C90.772 98.3 92.572 97.12 95.192 97.12C96.532 97.12 97.432 97.3 98.372 97.56V97.2C98.372 95.34 97.232 94.38 95.292 94.38C94.072 94.38 93.112 94.68 92.152 95.14L91.692 93.88C92.832 93.34 93.932 93.02 95.452 93.02C96.912 93.02 98.032 93.4 98.792 94.16C99.492 94.86 99.852 95.88 99.852 97.18V103.5H98.372V101.94C97.652 102.88 96.472 103.72 94.632 103.72ZM94.932 102.5C96.852 102.5 98.392 101.34 98.392 99.7V98.7C97.612 98.48 96.632 98.26 95.352 98.26C93.412 98.26 92.332 99.1 92.332 100.4V100.44C92.332 101.74 93.552 102.5 94.932 102.5ZM103.134 103.5V93.16H104.674V94.96C105.374 93.84 106.434 92.94 108.214 92.94C110.694 92.94 112.174 94.62 112.174 97.08V103.5H110.634V97.46C110.634 95.54 109.614 94.34 107.774 94.34C105.994 94.34 104.674 95.64 104.674 97.58V103.5H103.134ZM118.878 103.7C117.378 103.7 115.778 103.12 114.598 102.18L115.378 101.08C116.498 101.94 117.738 102.4 118.958 102.4C120.218 102.4 121.098 101.78 121.098 100.76V100.72C121.098 99.7 119.878 99.28 118.518 98.9C116.918 98.42 115.098 97.9 115.098 95.98V95.94C115.098 94.16 116.578 92.98 118.618 92.98C119.898 92.98 121.278 93.42 122.338 94.12L121.638 95.28C120.678 94.66 119.598 94.28 118.578 94.28C117.358 94.28 116.578 94.92 116.578 95.78V95.82C116.578 96.8 117.858 97.18 119.238 97.6C120.838 98.08 122.558 98.7 122.558 100.56V100.6C122.558 102.56 120.938 103.7 118.878 103.7ZM125.459 90.9V89.2H127.219V90.9H125.459ZM125.559 103.5V93.16H127.099V103.5H125.559ZM134.133 103.68C132.453 103.68 131.213 102.86 131.213 100.76V94.52H129.773V93.16H131.213V90.04H132.753V93.16H136.033V94.52H132.753V100.56C132.753 101.84 133.453 102.28 134.493 102.28C135.033 102.28 135.453 102.18 135.993 101.92V103.24C135.453 103.54 134.873 103.68 134.133 103.68Z" fill="white"/>
<path d="M52.34 147.5V130.1L48.56 131.15L47.78 128.15L53.45 126.35H56V147.5H52.34ZM68.2245 147.86C64.5345 147.86 61.9845 146.36 60.1845 144.2L62.7645 141.77C64.2945 143.57 65.9145 144.53 68.2845 144.53C70.3245 144.53 71.9145 143.27 71.9145 141.35V141.29C71.9145 139.22 70.0545 138.05 67.0845 138.05H65.3745L64.7745 135.74L70.4445 129.71H61.3545V126.5H75.2445V129.26L69.3945 135.26C72.5745 135.65 75.5745 137.27 75.5745 141.14V141.2C75.5745 145.07 72.6045 147.86 68.2245 147.86ZM78.8495 151.88L78.4595 150.32C80.2895 149.96 81.1595 149.03 81.0395 147.5H79.4795V143.36H83.4695V146.87C83.4695 150.23 81.8795 151.61 78.8495 151.88ZM86.9661 147.5V144.59L94.1961 138.44C97.0461 135.98 98.1261 134.69 98.1261 132.77C98.1261 130.73 96.6561 129.5 94.7361 129.5C92.8161 129.5 91.4961 130.52 89.9061 132.65L87.2661 130.58C89.2761 127.79 91.2861 126.2 95.0061 126.2C99.0861 126.2 101.936 128.72 101.936 132.47V132.53C101.936 135.86 100.196 137.6 96.4761 140.66L92.1561 144.26H102.146V147.5H86.9661ZM112.955 144.5C116.645 144.5 117.965 140.66 118.055 137.9C116.885 139.31 115.265 140.12 113.105 140.12C108.665 140.12 105.665 137.54 105.665 133.46V133.4C105.665 129.29 108.845 126.14 113.495 126.14C116.135 126.14 117.815 126.86 119.345 128.39C120.875 129.92 121.865 132.26 121.865 136.37V136.43C121.865 143.18 118.505 147.86 112.865 147.86C109.955 147.86 107.945 146.81 106.145 145.34L108.155 142.52C109.745 143.84 111.155 144.5 112.955 144.5ZM113.645 137.03C116.315 137.03 117.905 135.29 117.905 133.25V133.19C117.905 131 116.195 129.35 113.525 129.35C110.885 129.35 109.355 131.06 109.355 133.25V133.31C109.355 135.47 111.005 137.03 113.645 137.03ZM132.619 147.86C128.929 147.86 126.379 146.36 124.579 144.2L127.159 141.77C128.689 143.57 130.309 144.53 132.679 144.53C134.719 144.53 136.309 143.27 136.309 141.35V141.29C136.309 139.22 134.449 138.05 131.479 138.05H129.769L129.169 135.74L134.839 129.71H125.749V126.5H139.639V129.26L133.789 135.26C136.969 135.65 139.969 137.27 139.969 141.14V141.2C139.969 145.07 136.999 147.86 132.619 147.86Z" fill="white"/>
<rect x="162" y="121.5" width="91" height="30" rx="15" fill="white" fill-opacity="0.1"/>
<circle cx="178" cy="136.5" r="5" fill="#FFB800"/>
<path d="M190.148 140.5V133.024L188.564 133.516L188.336 132.748L190.388 132.04H191.084V140.5H190.148ZM196.585 140.644C194.413 140.644 193.045 138.676 193.045 136.324V136.3C193.045 133.948 194.449 131.956 196.609 131.956C198.769 131.956 200.137 133.924 200.137 136.276V136.3C200.137 138.652 198.745 140.644 196.585 140.644ZM196.609 139.78C198.193 139.78 199.153 138.16 199.153 136.324V136.3C199.153 134.476 198.157 132.82 196.585 132.82C195.013 132.82 194.029 134.428 194.029 136.276V136.3C194.029 138.124 195.025 139.78 196.609 139.78ZM202.968 140.5V133.024L201.384 133.516L201.156 132.748L203.208 132.04H203.904V140.5H202.968ZM209.991 140.5V132.1H210.939V140.5H209.991ZM215.319 140.608C214.311 140.608 213.567 140.116 213.567 138.856V135.112H212.703V134.296H213.567V132.424H214.491V134.296H216.459V135.112H214.491V138.736C214.491 139.504 214.911 139.768 215.535 139.768C215.859 139.768 216.111 139.708 216.435 139.552V140.344C216.111 140.524 215.763 140.608 215.319 140.608ZM220.631 140.644C218.939 140.644 217.535 139.336 217.535 137.416V137.392C217.535 135.604 218.783 134.164 220.511 134.164C222.347 134.164 223.403 135.628 223.403 137.44C223.403 137.572 223.403 137.632 223.391 137.74H218.471C218.603 139.084 219.551 139.84 220.655 139.84C221.519 139.84 222.095 139.492 222.611 138.964L223.187 139.48C222.563 140.188 221.819 140.644 220.631 140.644ZM218.471 137.056H222.467C222.371 135.94 221.735 134.944 220.487 134.944C219.395 134.944 218.603 135.856 218.471 137.056ZM225.02 140.5V134.296H225.944V135.34C226.364 134.716 226.904 134.164 227.948 134.164C228.956 134.164 229.604 134.692 229.94 135.4C230.396 134.716 231.032 134.164 232.124 134.164C233.564 134.164 234.428 135.112 234.428 136.66V140.5H233.504V136.876C233.504 135.676 232.904 135.004 231.896 135.004C230.972 135.004 230.18 135.7 230.18 136.924V140.5H229.268V136.852C229.268 135.688 228.668 135.004 227.672 135.004C226.688 135.004 225.944 135.82 225.944 136.96V140.5H225.02ZM238.451 140.62C237.551 140.62 236.591 140.272 235.883 139.708L236.351 139.048C237.023 139.564 237.767 139.84 238.499 139.84C239.255 139.84 239.783 139.468 239.783 138.856V138.832C239.783 138.22 239.051 137.968 238.235 137.74C237.275 137.452 236.183 137.14 236.183 135.988V135.964C236.183 134.896 237.071 134.188 238.295 134.188C239.063 134.188 239.891 134.452 240.527 134.872L240.107 135.568C239.531 135.196 238.883 134.968 238.271 134.968C237.539 134.968 237.071 135.352 237.071 135.868V135.892C237.071 136.48 237.839 136.708 238.667 136.96C239.627 137.248 240.659 137.62 240.659 138.736V138.76C240.659 139.936 239.687 140.62 238.451 140.62Z" fill="white"/>
</g>
<g filter="url(#filter1_b_39_390)">
<rect x="228" width="108" height="108" rx="27" fill="#FFB800" fill-opacity="0.2"/>
<path d="M297.039 72.6617L292.373 51.4073L301.445 42.3353C305.333 38.4473 306.629 33.2633 305.333 30.6713C302.741 29.3753 297.557 30.6713 293.669 34.5593L284.597 43.6313L263.343 38.9657C262.047 38.7065 261.01 39.2249 260.492 40.2617L259.714 41.5577C259.196 42.8537 259.455 44.1497 260.492 44.9273L274.229 53.9993L269.045 61.7753H261.269L258.677 64.3673L266.453 69.5513L271.637 77.3273L274.229 74.7353V66.9593L282.005 61.7753L291.077 75.5129C291.855 76.5497 293.151 76.8089 294.447 76.2905L295.743 75.7721C296.78 74.9945 297.298 73.9577 297.039 72.6617Z" stroke="#FFB800" stroke-width="2.592" stroke-linecap="round" stroke-linejoin="round"/>
</g>
<defs>
<filter id="filter0_b_39_390" x="-100" y="-48" width="500" height="335" filterUnits="userSpaceOnUse" color-interpolation-filters="sRGB">
<feFlood flood-opacity="0" result="BackgroundImageFix"/>
<feGaussianBlur in="BackgroundImageFix" stdDeviation="50"/>
<feComposite in2="SourceAlpha" operator="in" result="effect1_backgroundBlur_39_390"/>
<feBlend mode="normal" in="SourceGraphic" in2="effect1_backgroundBlur_39_390" result="shape"/>
</filter>
<filter id="filter1_b_39_390" x="204" y="-24" width="156" height="156" filterUnits="userSpaceOnUse" color-interpolation-filters="sRGB">
<feFlood flood-opacity="0" result="BackgroundImageFix"/>
<feGaussianBlur in="BackgroundImageFix" stdDeviation="12"/>
<feComposite in2="SourceAlpha" operator="in" result="effect1_backgroundBlur_39_390"/>
<feBlend mode="normal" in="SourceGraphic" in2="effect1_backgroundBlur_39_390" result="shape"/>
</filter>
</defs>
</svg>
