<svg width="1711" height="3444" viewBox="0 0 1711 3444" fill="none" xmlns="http://www.w3.org/2000/svg">
<mask id="path-1-inside-1_3_717" fill="white">
<path d="M229.663 3132.32L1543.57 1805.36C1953.32 1391.53 1974.15 719.901 1589.93 307.975C1205.89 -103.762 559.828 -102.246 150.077 311.577C-259.674 725.399 -280.133 1397.03 103.903 1808.77C148.2 1856.16 230.413 1917.2 287.662 1957.2C308.309 1971.6 314.316 1975.77 325.39 1983.17C327.642 1984.68 262.322 2101.46 262.322 2101.46L710.552 1872.46L595.867 1393.43C585.356 1417.69 534.864 1512.29 534.864 1512.29L460.535 1448.21C267.015 1240.64 289.352 890.131 495.823 681.609C702.293 473.086 1027.58 472.518 1221.1 680.093C1414.62 887.667 1404.29 1226.04 1198.01 1434.37L-116.082 2761.52C-322.553 2970.05 -647.839 2971 -841.547 2763.23C-1035.07 2555.66 -1024.74 2217.28 -818.271 2008.76L-320.864 1506.41C-394.818 1263.77 -407.019 1034.96 -354.838 820.75L-1164.2 1638.16C-1573.77 2051.79 -1594.41 2723.61 -1210.38 3135.35C-826.154 3547.27 -180.464 3545.76 229.475 3131.75"/>
</mask>
<path d="M229.663 3132.32L1543.57 1805.36C1953.32 1391.53 1974.15 719.901 1589.93 307.975C1205.89 -103.762 559.828 -102.246 150.077 311.577C-259.674 725.399 -280.133 1397.03 103.903 1808.77C148.2 1856.16 230.413 1917.2 287.662 1957.2C308.309 1971.6 314.316 1975.77 325.39 1983.17C327.642 1984.68 262.322 2101.46 262.322 2101.46L710.552 1872.46L595.867 1393.43C585.356 1417.69 534.864 1512.29 534.864 1512.29L460.535 1448.21C267.015 1240.64 289.352 890.131 495.823 681.609C702.293 473.086 1027.58 472.518 1221.1 680.093C1414.62 887.667 1404.29 1226.04 1198.01 1434.37L-116.082 2761.52C-322.553 2970.05 -647.839 2971 -841.547 2763.23C-1035.07 2555.66 -1024.74 2217.28 -818.271 2008.76L-320.864 1506.41C-394.818 1263.77 -407.019 1034.96 -354.838 820.75L-1164.2 1638.16C-1573.77 2051.79 -1594.41 2723.61 -1210.38 3135.35C-826.154 3547.27 -180.464 3545.76 229.475 3131.75" fill="url(#paint0_linear_3_717)" fill-opacity="0.15"/>
<path d="M1589.93 307.975L1589.21 308.664L1589.21 308.664L1589.93 307.975ZM103.903 1808.77L103.179 1809.46L103.179 1809.46L103.903 1808.77ZM287.662 1957.2L287.096 1958.02L287.097 1958.02L287.662 1957.2ZM325.39 1983.17L325.942 1982.33L325.939 1982.33L325.39 1983.17ZM262.322 2101.46L261.456 2100.96L259.84 2103.85L262.772 2102.35L262.322 2101.46ZM710.552 1872.46L711.001 1873.36L711.704 1873L711.519 1872.22L710.552 1872.46ZM595.867 1393.43L596.834 1393.19L596.14 1390.29L594.955 1393.03L595.867 1393.43ZM534.864 1512.29L534.218 1513.05L535.156 1513.86L535.74 1512.76L534.864 1512.29ZM460.535 1448.21L459.81 1448.9L459.847 1448.94L459.889 1448.98L460.535 1448.21ZM-841.547 2763.23L-842.271 2763.92L-842.271 2763.92L-841.547 2763.23ZM-320.864 1506.41L-320.161 1507.12L-319.737 1506.69L-319.913 1506.11L-320.864 1506.41ZM-354.838 820.75L-353.872 820.99L-353.02 817.493L-355.542 820.04L-354.838 820.75ZM-1210.38 3135.35L-1211.1 3136.04L-1210.38 3135.35ZM230.366 3133.03L1544.27 1806.07L1542.87 1804.64L228.959 3131.61L230.366 3133.03ZM1544.27 1806.07C1954.38 1391.88 1975.27 719.629 1590.66 307.285L1589.21 308.664C1973.04 720.173 1952.26 1391.18 1542.87 1804.64L1544.27 1806.07ZM1590.66 307.285C1206.21 -104.888 559.498 -103.333 149.374 310.866L150.781 312.287C560.159 -101.158 1205.58 -102.637 1589.21 308.664L1590.66 307.285ZM149.374 310.866C-260.737 725.051 -281.247 1397.3 103.179 1809.46L104.627 1808.08C-279.02 1396.76 -258.611 725.747 150.781 312.287L149.374 310.866ZM103.179 1809.46C147.558 1856.94 229.854 1918.03 287.096 1958.02L288.228 1956.37C230.973 1916.37 148.843 1855.38 104.626 1808.08L103.179 1809.46ZM287.097 1958.02C307.743 1972.43 313.757 1976.61 324.842 1984.01L325.939 1982.33C314.874 1974.94 308.875 1970.78 288.228 1956.37L287.097 1958.02ZM324.838 1984C324.635 1983.87 324.539 1983.69 324.497 1983.57C324.457 1983.46 324.453 1983.38 324.452 1983.36C324.451 1983.31 324.458 1983.32 324.435 1983.43C324.394 1983.62 324.296 1983.93 324.123 1984.39C323.783 1985.29 323.211 1986.59 322.428 1988.25C320.867 1991.57 318.507 1996.24 315.605 2001.82C309.803 2012.97 301.853 2027.71 293.83 2042.4C285.807 2057.08 277.713 2071.73 271.625 2082.7C268.582 2088.18 266.039 2092.75 264.258 2095.94C263.367 2097.54 262.666 2098.8 262.189 2099.65C261.95 2100.08 261.767 2100.41 261.643 2100.63C261.581 2100.74 261.535 2100.82 261.503 2100.88C261.488 2100.91 261.476 2100.93 261.468 2100.94C261.464 2100.95 261.461 2100.95 261.459 2100.96C261.458 2100.96 261.457 2100.96 261.457 2100.96C261.456 2100.96 261.456 2100.96 262.322 2101.46C263.189 2101.95 263.189 2101.95 263.189 2101.95C263.19 2101.95 263.191 2101.95 263.192 2101.95C263.194 2101.94 263.197 2101.94 263.201 2101.93C263.209 2101.92 263.221 2101.89 263.236 2101.87C263.268 2101.81 263.314 2101.73 263.376 2101.62C263.5 2101.39 263.683 2101.07 263.922 2100.64C264.4 2099.78 265.101 2098.53 265.992 2096.93C267.774 2093.73 270.317 2089.17 273.361 2083.68C279.451 2072.71 287.546 2058.06 295.572 2043.37C303.597 2028.67 311.555 2013.93 317.367 2002.76C320.272 1997.17 322.646 1992.47 324.226 1989.12C325.014 1987.44 325.614 1986.08 325.983 1985.1C326.165 1984.62 326.306 1984.2 326.379 1983.86C326.415 1983.69 326.448 1983.49 326.441 1983.29C326.437 1983.15 326.407 1982.64 325.942 1982.33L324.838 1984ZM262.772 2102.35L711.001 1873.36L710.103 1871.56L261.873 2100.56L262.772 2102.35ZM711.519 1872.22L596.834 1393.19L594.9 1393.66L709.585 1872.7L711.519 1872.22ZM594.955 1393.03C589.718 1405.12 574.488 1434.79 560.544 1461.49C553.577 1474.83 546.938 1487.41 542.04 1496.65C539.592 1501.28 537.579 1505.07 536.178 1507.7C535.477 1509.02 534.93 1510.04 534.558 1510.74C534.372 1511.09 534.229 1511.36 534.134 1511.54C534.086 1511.63 534.049 1511.7 534.025 1511.74C534.013 1511.76 534.004 1511.78 533.998 1511.79C533.995 1511.8 533.992 1511.8 533.991 1511.8C533.99 1511.81 533.989 1511.81 533.989 1511.81C533.989 1511.81 533.989 1511.81 534.864 1512.29C535.74 1512.76 535.74 1512.76 535.741 1512.76C535.741 1512.76 535.742 1512.76 535.743 1512.76C535.744 1512.76 535.746 1512.75 535.75 1512.75C535.756 1512.73 535.765 1512.72 535.777 1512.69C535.801 1512.65 535.838 1512.58 535.886 1512.49C535.981 1512.31 536.124 1512.04 536.31 1511.69C536.683 1511 537.23 1509.97 537.931 1508.65C539.332 1506.02 541.346 1502.22 543.795 1497.6C548.694 1488.35 555.334 1475.77 562.304 1462.43C576.233 1435.76 591.505 1406.01 596.779 1393.83L594.955 1393.03ZM535.51 1511.52L461.181 1447.45L459.889 1448.98L534.218 1513.05L535.51 1511.52ZM461.259 1447.52C268.154 1240.39 290.386 890.507 496.526 682.319L495.119 680.898C288.317 889.755 265.876 1240.88 459.81 1448.9L461.259 1447.52ZM496.526 682.319C702.623 474.175 1027.26 473.643 1220.37 680.781L1221.82 679.404C1027.9 471.393 701.964 471.998 495.119 680.898L496.526 682.319ZM1220.37 680.781C1413.5 887.939 1403.23 1225.69 1197.31 1433.66L1198.72 1435.09C1405.36 1226.39 1415.73 887.395 1221.82 679.404L1220.37 680.781ZM1197.31 1433.66L-116.786 2760.81L-115.379 2762.24L1198.72 1435.09L1197.31 1433.66ZM-116.786 2760.81C-322.884 2968.96 -647.522 2969.87 -840.822 2762.54L-842.271 2763.92C-648.156 2972.12 -322.223 2971.13 -115.379 2762.24L-116.786 2760.81ZM-840.822 2762.54C-1033.95 2555.39 -1023.68 2217.63 -817.568 2009.47L-818.975 2008.05C-1025.81 2216.93 -1036.18 2555.93 -842.271 2763.92L-840.822 2762.54ZM-817.568 2009.47L-320.161 1507.12L-321.568 1505.7L-818.975 2008.05L-817.568 2009.47ZM-319.913 1506.11C-393.824 1263.61 -406.003 1034.99 -353.872 820.99L-355.804 820.51C-408.035 1034.93 -395.813 1263.92 -321.815 1506.71L-319.913 1506.11ZM-355.542 820.04L-1164.91 1637.45L-1163.5 1638.87L-354.135 821.461L-355.542 820.04ZM-1164.91 1637.45C-1574.83 2051.44 -1595.53 2723.88 -1211.1 3136.04L-1209.65 3134.66C-1593.3 2723.34 -1572.7 2052.14 -1163.5 1638.87L-1164.91 1637.45ZM-1211.1 3136.04C-826.471 3548.4 -180.133 3546.85 230.179 3132.46L228.771 3131.04C-180.794 3544.67 -825.837 3546.15 -1209.65 3134.66L-1211.1 3136.04Z" fill="black" mask="url(#path-1-inside-1_3_717)"/>
<defs>
<linearGradient id="paint0_linear_3_717" x1="439.603" y1="283.256" x2="-416.482" y2="1915.56" gradientUnits="userSpaceOnUse">
<stop stop-color="#FF0000"/>
<stop offset="1"/>
</linearGradient>
</defs>
</svg>
