<svg width="24" height="24" viewBox="0 0 24 24" fill="none" xmlns="http://www.w3.org/2000/svg">
<path opacity="0.4" d="M12 24C18.6274 24 24 18.6274 24 12C24 5.37258 18.6274 0 12 0C5.37258 0 0 5.37258 0 12C0 18.6274 5.37258 24 12 24Z" fill="white" fill-opacity="0.4"/>
<path d="M15.0024 15.3089C14.2013 15.6309 13.3098 15.6541 12.4928 15.3741C11.6758 15.0941 10.9884 14.5299 10.5578 13.7858H13.1128C13.3035 13.7858 13.4864 13.7105 13.6212 13.5766C13.7561 13.4427 13.8318 13.2611 13.8318 13.0718C13.8318 12.8824 13.7561 12.7008 13.6212 12.5669C13.4864 12.433 13.3035 12.3578 13.1128 12.3578H10.0938C10.0752 12.2386 10.0631 12.1184 10.0574 11.9979C10.0632 11.8784 10.0753 11.7592 10.0938 11.6409H13.1128C13.3035 11.6409 13.4864 11.5657 13.6212 11.4318C13.7561 11.2979 13.8318 11.1163 13.8318 10.927C13.8318 10.7376 13.7561 10.556 13.6212 10.4221C13.4864 10.2882 13.3035 10.213 13.1128 10.213H10.5578C10.8708 9.67216 11.3215 9.22256 11.8647 8.90927C12.4078 8.59599 13.0244 8.43001 13.6526 8.42799C14.1129 8.42698 14.569 8.51594 14.9948 8.68979C15.0824 8.72752 15.1766 8.74755 15.2721 8.74872C15.3676 8.74989 15.4623 8.73216 15.5508 8.69659C15.6393 8.66101 15.7198 8.60828 15.7875 8.54149C15.8553 8.4747 15.909 8.39518 15.9455 8.30757C15.9819 8.21996 16.0005 8.12601 16 8.03121C15.9995 7.93641 15.98 7.84265 15.9427 7.75541C15.9053 7.66816 15.8508 7.58918 15.7824 7.52307C15.714 7.45695 15.633 7.40503 15.5441 7.37033C14.9443 7.1244 14.3015 6.99855 13.6526 7.00001C12.6358 7.00246 11.6437 7.31078 10.8069 7.88435C9.97019 8.45792 9.32813 9.26979 8.96538 10.213H7.71904C7.52834 10.213 7.34545 10.2882 7.2106 10.4221C7.07576 10.556 7 10.7376 7 10.927C7 11.1163 7.07576 11.2979 7.2106 11.4318C7.34545 11.5657 7.52834 11.6409 7.71904 11.6409H8.65475C8.64612 11.7609 8.61832 11.8761 8.61832 11.9979C8.61832 12.1198 8.64612 12.235 8.65475 12.3549H7.72C7.5293 12.3549 7.34641 12.4302 7.21156 12.5641C7.07671 12.698 7.00096 12.8796 7.00096 13.0689C7.00096 13.2583 7.07671 13.4399 7.21156 13.5738C7.34641 13.7077 7.5293 13.7829 7.72 13.7829H8.96634C9.20357 14.4031 9.56301 14.9701 10.0236 15.4506C10.4842 15.9312 11.0367 16.3157 11.6488 16.5816C12.2609 16.8476 12.9202 16.9896 13.5883 16.9995C14.2563 17.0093 14.9196 16.8867 15.5393 16.6389C15.7163 16.5683 15.8578 16.4308 15.9327 16.2567C16.0076 16.0825 16.0097 15.8859 15.9386 15.7102C15.8676 15.5345 15.7291 15.394 15.5537 15.3196C15.3783 15.2453 15.1804 15.2431 15.0034 15.3137L15.0024 15.3089Z" fill="white" fill-opacity="0.4"/>
</svg>
