<svg width="24" height="24" viewBox="0 0 24 24" fill="none" xmlns="http://www.w3.org/2000/svg">
<path opacity="0.4" d="M11.9993 23.9987C9.62609 23.9987 7.30614 23.2949 5.33286 21.9764C3.35959 20.6579 1.8216 18.7839 0.9134 16.5913C0.00519912 14.3987 -0.232428 11.986 0.230569 9.65838C0.693566 7.33074 1.83639 5.19266 3.51453 3.51453C5.19266 1.83639 7.33074 0.693566 9.65838 0.230569C11.986 -0.232428 14.3987 0.00519912 16.5913 0.9134C18.7839 1.8216 20.6579 3.35959 21.9764 5.33286C23.2949 7.30614 23.9987 9.62609 23.9987 11.9993C23.9952 15.1807 22.7298 18.2307 20.4803 20.4803C18.2307 22.7298 15.1807 23.9952 11.9993 23.9987Z" fill="white" fill-opacity="0.4"/>
<path d="M23.9592 12.9726C23.6377 12.9187 23.3078 12.9493 23.0017 13.0614C22.6956 13.1736 22.4239 13.3633 22.2133 13.6121C21.6302 14.2709 20.8298 13.9457 19.5327 11.553C18.2896 9.26237 19.4283 8.25443 19.8819 6.85411C20.2694 5.70817 19.2267 2.82713 18.5859 1.97278L18.5979 1.98478C20.2573 3.07608 21.6195 4.56252 22.5622 6.31054C23.5049 8.05856 23.9985 10.0134 23.9988 11.9994C23.9988 12.3234 23.9868 12.6594 23.9628 12.9714L23.9592 12.9726Z" fill="white" fill-opacity="0.4"/>
<path d="M14.7824 23.6747C13.8706 23.893 12.9361 24.0018 11.9985 23.9987C11.5786 23.9987 11.1706 23.9747 10.7626 23.9387C11.0718 22.9787 11.0076 21.9375 10.5826 21.0228C9.69467 19.7029 7.3908 19.6789 7.30681 18.011C7.36342 17.0345 7.33532 16.0548 7.22281 15.0832C6.99482 14.1232 1.12715 13.6864 1.42713 6.34285V6.33565C2.45061 4.42152 3.97455 2.82118 5.83636 1.70536C7.69816 0.589546 9.82798 0.000128968 11.9985 0C12.8493 0.00156391 13.6976 0.090018 14.5304 0.263985C14.5222 0.745889 14.3614 1.21278 14.0712 1.59761C13.781 1.98244 13.3763 2.2654 12.9153 2.40587C9.52188 3.517 12.2289 7.93996 9.97066 8.40553C9.2207 8.55912 7.94037 7.29919 7.22041 7.47318C7.03347 7.51087 6.86042 7.59905 6.72005 7.72814C6.57968 7.85723 6.47735 8.02231 6.42417 8.20545C6.371 8.3886 6.36901 8.58281 6.41842 8.767C6.46783 8.9512 6.56675 9.11834 6.70444 9.25028C7.72438 10.3074 7.24441 10.7154 7.61759 11.5686C7.99077 12.4217 9.1775 12.5213 10.579 12.3617C11.9805 12.2021 12.6105 12.1301 13.5969 13.1573C14.5832 14.1844 14.384 15.6363 15.7699 15.7971C17.1559 15.9579 18.7302 16.5771 18.5298 17.7638C18.2502 19.4233 15.1808 20.2981 14.7788 23.6747" fill="white" fill-opacity="0.4"/>
</svg>
