<svg width="24" height="24" viewBox="0 0 24 24" fill="none" xmlns="http://www.w3.org/2000/svg">
<path opacity="0.4" d="M12 24C18.6274 24 24 18.6274 24 12C24 5.37258 18.6274 0 12 0C5.37258 0 0 5.37258 0 12C0 18.6274 5.37258 24 12 24Z" fill="white" fill-opacity="0.4"/>
<path d="M12.6413 6.69989L13.9349 9.32669C13.9836 9.42291 14.0549 9.50591 14.1427 9.5686C14.2305 9.63128 14.3321 9.6718 14.4389 9.68669L17.4269 10.1223C17.5505 10.1407 17.6665 10.1933 17.7618 10.274C17.8571 10.3548 17.9279 10.4606 17.9664 10.5795C18.0048 10.6984 18.0092 10.8256 17.9792 10.9469C17.9492 11.0682 17.8859 11.1786 17.7965 11.2659L15.6365 13.3743C15.5589 13.4504 15.5009 13.5443 15.4675 13.6477C15.4341 13.7511 15.4262 13.8611 15.4445 13.9683L15.9389 16.8543C15.9598 16.9853 15.9441 17.1195 15.8935 17.2421C15.843 17.3647 15.7595 17.4709 15.6524 17.5491C15.5453 17.6273 15.4187 17.6744 15.2865 17.6852C15.1543 17.696 15.0217 17.6701 14.9033 17.6103L12.3113 16.2459C12.2154 16.1956 12.1088 16.1694 12.0005 16.1694C11.8923 16.1694 11.7856 16.1956 11.6897 16.2459L9.09892 17.6151C8.98036 17.6756 8.84734 17.7021 8.71464 17.6916C8.58193 17.6811 8.45474 17.634 8.3472 17.5555C8.23965 17.4771 8.15596 17.3703 8.10543 17.2472C8.05489 17.124 8.03948 16.9893 8.06092 16.8579L8.55532 13.9779C8.57366 13.8707 8.56577 13.7607 8.53233 13.6573C8.4989 13.5539 8.44091 13.46 8.36332 13.3839L6.20332 11.2755C6.1139 11.1882 6.05062 11.0778 6.02061 10.9565C5.99061 10.8352 5.99506 10.708 6.03348 10.5891C6.0719 10.4702 6.14276 10.3644 6.23807 10.2836C6.33338 10.2029 6.44935 10.1503 6.57292 10.1319L9.56092 9.69629C9.66774 9.6814 9.76937 9.64088 9.85713 9.5782C9.9449 9.51551 10.0162 9.43251 10.0649 9.33629L11.3585 6.70949C11.4179 6.59079 11.509 6.49082 11.6217 6.42064C11.7344 6.35045 11.8642 6.31278 11.997 6.31179C12.1297 6.31079 12.2601 6.34652 12.3739 6.41501C12.4876 6.4835 12.5801 6.58209 12.6413 6.69989Z" fill="white" fill-opacity="0.4"/>
</svg>
