<svg width="22" height="16" viewBox="0 0 22 16" fill="none" xmlns="http://www.w3.org/2000/svg">
<path opacity="0.4" fill-rule="evenodd" clip-rule="evenodd" d="M14.9066 15.8801H0.657898C0.529144 15.8801 0.400391 15.7943 0.400391 15.6226V13.8201C0.400391 11.5025 2.28878 9.61414 4.56342 9.61414H6.1943C6.28014 9.61414 6.36598 9.65705 6.40889 9.74289H9.15564C9.19855 9.65705 9.28439 9.61414 9.41314 9.61414H11.0011C13.3187 9.61414 15.1641 11.5025 15.1641 13.8201V15.6226C15.1641 15.7943 15.0783 15.8801 14.9066 15.8801Z" fill="white"/>
<path fill-rule="evenodd" clip-rule="evenodd" d="M15.0358 12.7469C15.1216 13.0903 15.1645 13.4336 15.1645 13.8199V14.6783H14.3699C13.812 14.6783 13.3828 14.2491 13.3828 13.7341C13.3828 13.1761 13.812 12.7469 14.3699 12.7469H15.0358Z" fill="white"/>
<path fill-rule="evenodd" clip-rule="evenodd" d="M0.528689 12.7469C0.442854 13.0903 0.399936 13.4336 0.399936 13.8199V14.6783H1.19453C1.75246 14.6783 2.18164 14.2491 2.18164 13.7341C2.18164 13.1761 1.75246 12.7469 1.19453 12.7469H0.528689Z" fill="white"/>
<path fill-rule="evenodd" clip-rule="evenodd" d="M9.0705 8.58389L9.15634 8.45514C9.15634 8.32639 9.24218 8.19763 9.41385 8.19763C9.5426 8.19763 9.67136 8.32639 9.67136 8.45514V9.87143V9.91435H9.62844C9.62844 9.95726 9.62844 10.0002 9.58552 10.0431L8.08339 12.189C8.04048 12.2748 7.95464 12.3177 7.8688 12.3177C7.78297 12.3177 7.69713 12.2748 7.65421 12.2319L5.98042 10.0431C5.9375 10.0002 5.9375 9.91435 5.9375 9.87143V8.45514C5.9375 8.32639 6.02334 8.19763 6.19501 8.19763C6.32376 8.19763 6.45251 8.32639 6.45251 8.45514L6.53835 8.58389C6.96753 8.79848 7.31087 8.71265 7.78297 8.71265C8.25507 8.71265 8.64133 8.79848 9.0705 8.58389Z" fill="white"/>
<path fill-rule="evenodd" clip-rule="evenodd" d="M7.78129 9.27106C7.05169 9.27106 6.365 8.97063 5.84999 8.49853C5.37789 8.06936 5.07746 7.51142 4.94871 6.86765H4.77704C4.64828 6.86765 4.51953 6.7389 4.51953 6.61015V5.36553C4.51953 5.23678 4.64828 5.10802 4.77704 5.10802H4.86287C4.86287 4.8076 4.86287 4.46425 4.86287 4.12091C4.86287 3.99216 4.99163 3.8634 5.12038 3.8634H10.4422C10.6139 3.8634 10.6997 3.99216 10.6997 4.12091V5.10802H10.7855C10.9572 5.10802 11.043 5.23678 11.043 5.36553V6.61015C11.043 6.7389 10.9572 6.86765 10.7855 6.86765H10.6139C10.528 7.51142 10.2276 8.06936 9.75551 8.49853C9.19758 8.97063 8.51089 9.27106 7.78129 9.27106Z" fill="#7B95BF"/>
<path fill-rule="evenodd" clip-rule="evenodd" d="M10.5739 4.42101H4.99457C4.90873 4.42101 4.86581 4.37809 4.77998 4.29226L3.74995 2.87597C3.70703 2.83305 3.70703 2.74721 3.70703 2.66138C3.74995 2.57554 3.79287 2.53263 3.8787 2.48971L7.69839 0.944664C7.74131 0.901746 7.82715 0.901746 7.87006 0.944664L11.7327 2.53263C11.8185 2.53263 11.8614 2.61846 11.8614 2.7043C11.9043 2.79013 11.8614 2.83305 11.8185 2.91889L10.7885 4.29226C10.7456 4.37809 10.6597 4.42101 10.5739 4.42101Z" fill="#323FB0"/>
<path fill-rule="evenodd" clip-rule="evenodd" d="M10.5739 4.42101H4.99457C4.90873 4.42101 4.86581 4.37809 4.77998 4.29226L3.74995 2.87597C3.70703 2.83305 3.70703 2.74721 3.70703 2.66138C3.74995 2.57554 3.79287 2.53263 3.8787 2.48971L7.69839 0.944664C7.74131 0.901746 7.82715 0.901746 7.87006 0.944664L11.7327 2.53263C11.8185 2.53263 11.8614 2.61846 11.8614 2.7043C11.9043 2.79013 11.8614 2.83305 11.8185 2.91889L10.7885 4.29226C10.7456 4.37809 10.6597 4.42101 10.5739 4.42101Z" fill="white"/>
<path fill-rule="evenodd" clip-rule="evenodd" d="M8.03815 14.033H7.52313C7.39438 14.033 7.26562 13.9042 7.26562 13.7755C7.26562 13.6467 7.39438 13.5179 7.52313 13.5179H8.03815C8.1669 13.5179 8.29565 13.6467 8.29565 13.7755C8.29565 13.9042 8.1669 14.033 8.03815 14.033Z" fill="white"/>
<path fill-rule="evenodd" clip-rule="evenodd" d="M8.03815 15.1501H7.52313C7.39438 15.1501 7.26562 15.0643 7.26562 14.8926C7.26562 14.7639 7.39438 14.6351 7.52313 14.6351H8.03815C8.1669 14.6351 8.29565 14.7639 8.29565 14.8926C8.29565 15.0643 8.1669 15.1501 8.03815 15.1501Z" fill="white"/>
<path opacity="0.4" d="M20.4296 3.51529V5.82847C20.4296 5.98802 20.2656 6.00044 20.1811 6.00044C20.0047 5.99892 19.8315 6.04706 19.6812 6.13935C19.5309 6.23164 19.4096 6.36435 19.3312 6.52232L19.0826 7.00941L18.5011 7.09391C18.3274 7.11836 18.1641 7.1912 18.0298 7.3041C17.8955 7.417 17.7957 7.5654 17.7418 7.73235C17.6879 7.89929 17.682 8.07804 17.7249 8.24815C17.7677 8.41827 17.8576 8.57289 17.9842 8.69434L18.3967 9.087L18.347 9.36533C18.3394 9.39711 18.3216 9.42552 18.2963 9.44617C18.271 9.46682 18.2395 9.47859 18.2069 9.47965H14.4652C14.2627 9.50855 14.0562 9.4899 13.8621 9.42519C13.668 9.36047 13.4917 9.25146 13.347 9.1068C13.2023 8.96213 13.0933 8.78577 13.0286 8.59168C12.9639 8.39759 12.9453 8.1911 12.9742 7.98856V2.0242C12.9453 1.82166 12.9639 1.61517 13.0286 1.42108C13.0933 1.227 13.2023 1.05064 13.347 0.905967C13.4917 0.761298 13.668 0.652291 13.8621 0.587576C14.0562 0.522861 14.2627 0.504214 14.4652 0.533113H17.4474V2.0242C17.4185 2.22674 17.4372 2.43323 17.5019 2.62732C17.5666 2.82141 17.6756 2.99777 17.8203 3.14244C17.9649 3.28711 18.1413 3.39611 18.3354 3.46083C18.5295 3.52554 18.736 3.54419 18.9385 3.51529H20.4296Z" fill="#D9D9D9"/>
<path d="M18.9379 3.5155H20.429L17.4468 0.533325V2.02441C17.4179 2.22696 17.4366 2.43344 17.5013 2.62753C17.566 2.82162 17.675 2.99798 17.8197 3.14265C17.9643 3.28732 18.1407 3.39633 18.3348 3.46104C18.5289 3.52576 18.7354 3.5444 18.9379 3.5155Z" fill="white"/>
<path d="M15.3354 5.00644C15.3354 5.08017 15.3135 5.15224 15.2726 5.21354C15.2316 5.27484 15.1734 5.32262 15.1053 5.35084C15.0372 5.37905 14.9622 5.38643 14.8899 5.37205C14.8176 5.35767 14.7512 5.32216 14.699 5.27003C14.6469 5.2179 14.6114 5.15147 14.597 5.07916C14.5826 5.00685 14.59 4.9319 14.6182 4.86379C14.6464 4.79567 14.6942 4.73745 14.7555 4.69649C14.8168 4.65553 14.8889 4.63367 14.9626 4.63367C15.0615 4.63367 15.1563 4.67294 15.2262 4.74285C15.2961 4.81276 15.3354 4.90757 15.3354 5.00644ZM14.9626 6.62179C14.8889 6.62179 14.8168 6.64365 14.7555 6.68461C14.6942 6.72557 14.6464 6.78379 14.6182 6.85191C14.59 6.92002 14.5826 6.99497 14.597 7.06728C14.6114 7.13959 14.6469 7.20602 14.699 7.25815C14.7512 7.31028 14.8176 7.34578 14.8899 7.36017C14.9622 7.37455 15.0372 7.36717 15.1053 7.33896C15.1734 7.31074 15.2316 7.26296 15.2726 7.20166C15.3135 7.14036 15.3354 7.06829 15.3354 6.99456C15.3354 6.89569 15.2961 6.80088 15.2262 6.73097C15.1563 6.66106 15.0615 6.62179 14.9626 6.62179ZM18.8146 5.00644C18.8146 4.90757 18.7753 4.81276 18.7054 4.74285C18.6355 4.67294 18.5407 4.63367 18.4418 4.63367H16.2052C16.1063 4.63367 16.0115 4.67294 15.9416 4.74285C15.8717 4.81276 15.8324 4.90757 15.8324 5.00644C15.8324 5.1053 15.8717 5.20012 15.9416 5.27003C16.0115 5.33994 16.1063 5.37921 16.2052 5.37921H18.4418C18.5407 5.37921 18.6355 5.33994 18.7054 5.27003C18.7753 5.20012 18.8146 5.1053 18.8146 5.00644ZM17.3235 6.99456C17.3235 6.89569 17.2842 6.80088 17.2143 6.73097C17.1444 6.66106 17.0496 6.62179 16.9507 6.62179H16.2052C16.1063 6.62179 16.0115 6.66106 15.9416 6.73097C15.8717 6.80088 15.8324 6.89569 15.8324 6.99456C15.8324 7.09342 15.8717 7.18824 15.9416 7.25815C16.0115 7.32806 16.1063 7.36733 16.2052 7.36733H16.9507C17.0496 7.36733 17.1444 7.32806 17.2143 7.25815C17.2842 7.18824 17.3235 7.09342 17.3235 6.99456Z" fill="white"/>
<path d="M20.3661 6.85933L20.7414 7.60488C20.7557 7.63256 20.7764 7.6564 20.8018 7.67439C20.8273 7.69238 20.8567 7.704 20.8875 7.70826L21.7538 7.83152C21.7893 7.83597 21.8227 7.85038 21.8503 7.87308C21.8779 7.89578 21.8985 7.92584 21.9097 7.95978C21.9209 7.99371 21.9222 8.03012 21.9135 8.06477C21.9049 8.09943 21.8865 8.13092 21.8607 8.15558L21.2344 8.75202C21.212 8.77332 21.1951 8.79986 21.1854 8.82926C21.1757 8.85866 21.1734 8.89002 21.1788 8.92051L21.3219 9.73813C21.3278 9.77572 21.3231 9.81419 21.3084 9.84928C21.2937 9.88437 21.2695 9.91469 21.2386 9.93689C21.2077 9.95908 21.1713 9.97228 21.1334 9.975C21.0954 9.97773 21.0575 9.96989 21.0237 9.95235L20.2722 9.56566C20.2443 9.55151 20.2135 9.54414 20.1822 9.54414C20.151 9.54414 20.1201 9.55151 20.0923 9.56566L19.3413 9.95235C19.3074 9.96954 19.2695 9.9771 19.2317 9.97419C19.1938 9.97127 19.1575 9.958 19.1267 9.93583C19.0959 9.91366 19.0718 9.88343 19.0571 9.84847C19.0423 9.81352 19.0375 9.77517 19.043 9.73763L19.1862 8.92051C19.1916 8.88997 19.1893 8.85857 19.1795 8.82915C19.1696 8.79973 19.1527 8.77321 19.13 8.75202L18.5038 8.15558C18.4779 8.13089 18.4596 8.09936 18.4509 8.06466C18.4423 8.02997 18.4436 7.99353 18.4549 7.95958C18.4661 7.92564 18.4868 7.89558 18.5144 7.87291C18.5421 7.85024 18.5756 7.83589 18.6111 7.83152L19.4774 7.70826C19.5082 7.70404 19.5376 7.69244 19.5629 7.67444C19.5883 7.65644 19.6089 7.63257 19.6231 7.60488L19.9988 6.85933C20.0168 6.82635 20.0434 6.79883 20.0757 6.77966C20.108 6.76048 20.1449 6.75037 20.1825 6.75037C20.2201 6.75037 20.2569 6.76048 20.2892 6.77966C20.3216 6.79883 20.3481 6.82635 20.3661 6.85933Z" fill="white"/>
</svg>
