<svg width="52" height="37" viewBox="0 0 52 37" fill="none" xmlns="http://www.w3.org/2000/svg">
<g clip-path="url(#clip0_245_88199)">
<rect x="0.975586" y="0.5" width="50.4" height="36" rx="10" fill="white"/>
<path fill-rule="evenodd" clip-rule="evenodd" d="M26.1748 24.5C29.4868 24.5 32.1748 21.812 32.1748 18.5C32.1748 15.188 29.4868 12.5 26.1748 12.5C22.8628 12.5 20.1748 15.188 20.1748 18.5C20.1748 21.812 22.8628 24.5 26.1748 24.5ZM26.1748 22.1C28.162 22.1 29.7748 20.4872 29.7748 18.5C29.7748 16.5128 28.162 14.9 26.1748 14.9C24.1876 14.9 22.5748 16.5128 22.5748 18.5C22.5748 20.4872 24.1876 22.1 26.1748 22.1Z" fill="#696969"/>
<path d="M26.1756 19.7008C26.8383 19.7008 27.3756 19.1635 27.3756 18.5008C27.3756 17.838 26.8383 17.3008 26.1756 17.3008C25.5128 17.3008 24.9756 17.838 24.9756 18.5008C24.9756 19.1635 25.5128 19.7008 26.1756 19.7008Z" fill="#696969"/>
<path fill-rule="evenodd" clip-rule="evenodd" d="M0.975586 24.5H51.3756V36.5H0.975586V24.5Z" fill="#626262"/>
<path fill-rule="evenodd" clip-rule="evenodd" d="M0.975586 0.5H51.3756V12.5H0.975586V0.5Z" fill="#969696"/>
</g>
<defs>
<clipPath id="clip0_245_88199">
<rect x="0.975586" y="0.5" width="50.4" height="36" rx="10" fill="white"/>
</clipPath>
</defs>
</svg>
