<svg width="52" height="37" viewBox="0 0 52 37" fill="none" xmlns="http://www.w3.org/2000/svg">
<g clip-path="url(#clip0_245_88208)">
<rect x="0.975586" y="0.911133" width="50.4" height="36" rx="10" fill="#999999"/>
<path fill-rule="evenodd" clip-rule="evenodd" d="M0.975586 0.911133H51.3756V20.1111H0.975586V0.911133Z" fill="#696969"/>
<path fill-rule="evenodd" clip-rule="evenodd" d="M0.975586 0.911133V36.9903L24.9756 18.9111L0.975586 0.911133Z" fill="white"/>
<path fill-rule="evenodd" clip-rule="evenodd" d="M11.7404 20.0744C13.8284 19.9424 15.3764 19.4744 15.3764 18.9104C15.3764 18.3488 13.8284 17.8784 11.7404 17.7464C11.6084 15.6584 11.1404 14.1104 10.5764 14.1104C10.0148 14.1104 9.54437 15.6584 9.41237 17.7464C7.32437 17.8784 5.77637 18.3464 5.77637 18.9104C5.77637 19.472 7.32437 19.9424 9.41237 20.0744C9.54197 22.1624 10.0124 23.7104 10.5764 23.7104C11.138 23.7104 11.6084 22.1624 11.7404 20.0744Z" fill="#959595"/>
<path d="M18.9764 20.1119C19.6391 20.1119 20.1764 19.5747 20.1764 18.9119C20.1764 18.2492 19.6391 17.7119 18.9764 17.7119C18.3136 17.7119 17.7764 18.2492 17.7764 18.9119C17.7764 19.5747 18.3136 20.1119 18.9764 20.1119Z" fill="#959595"/>
<path d="M6.97637 12.9127C7.63911 12.9127 8.17637 12.3754 8.17637 11.7127C8.17637 11.05 7.63911 10.5127 6.97637 10.5127C6.31363 10.5127 5.77637 11.05 5.77637 11.7127C5.77637 12.3754 6.31363 12.9127 6.97637 12.9127Z" fill="#959595"/>
<path d="M6.97637 27.3111C7.63911 27.3111 8.17637 26.7739 8.17637 26.1111C8.17637 25.4484 7.63911 24.9111 6.97637 24.9111C6.31363 24.9111 5.77637 25.4484 5.77637 26.1111C5.77637 26.7739 6.31363 27.3111 6.97637 27.3111Z" fill="#959595"/>
</g>
<defs>
<clipPath id="clip0_245_88208">
<rect x="0.975586" y="0.911133" width="50.4" height="36" rx="10" fill="white"/>
</clipPath>
</defs>
</svg>
