<svg width="31" height="30" viewBox="0 0 31 30" fill="none" xmlns="http://www.w3.org/2000/svg">
<path d="M21.75 26.25C23.1307 26.25 24.25 25.1307 24.25 23.75C24.25 22.3693 23.1307 21.25 21.75 21.25C20.3693 21.25 19.25 22.3693 19.25 23.75C19.25 25.1307 20.3693 26.25 21.75 26.25Z" fill="white"/>
<path d="M9.25 26.25C10.6307 26.25 11.75 25.1307 11.75 23.75C11.75 22.3693 10.6307 21.25 9.25 21.25C7.86929 21.25 6.75 22.3693 6.75 23.75C6.75 25.1307 7.86929 26.25 9.25 26.25Z" fill="white"/>
<path opacity="0.4" d="M27.625 16.2C27.6217 16.1145 27.6048 16.0302 27.575 15.95C27.5215 15.7036 27.4505 15.4613 27.3625 15.225L26.0625 12.0125C25.4875 10.5625 24.8875 9.0625 21.7125 9.0625H18.9375V6.875C18.9365 6.12938 18.6399 5.41459 18.1126 4.88736C17.5854 4.36013 16.8706 4.06349 16.125 4.0625H6.125C5.37938 4.06349 4.66459 4.36013 4.13736 4.88736C3.61013 5.41459 3.31349 6.12938 3.3125 6.875V20.625C3.31269 21.0493 3.40961 21.468 3.59588 21.8492C3.78216 22.2304 4.05289 22.5641 4.3875 22.825C4.47052 22.8835 4.56381 22.9259 4.6625 22.95C4.73909 22.9558 4.81537 22.9354 4.87893 22.8923C4.94248 22.8492 4.98956 22.7858 5.0125 22.7125C5.25093 21.7268 5.82514 20.8548 6.63652 20.2464C7.4479 19.638 8.4458 19.3311 9.45884 19.3785C10.4719 19.4258 11.4368 19.8244 12.188 20.5058C12.9391 21.1872 13.4295 22.1088 13.575 23.1125C13.5848 23.2018 13.6273 23.2843 13.6941 23.3443C13.761 23.4042 13.8477 23.4374 13.9375 23.4375H17.0625C17.1523 23.4374 17.239 23.4042 17.3059 23.3443C17.3727 23.2843 17.4152 23.2018 17.425 23.1125C17.5705 22.1088 18.0609 21.1872 18.812 20.5058C19.5632 19.8244 20.5281 19.4258 21.5412 19.3785C22.5542 19.3311 23.5521 19.638 24.3635 20.2464C25.1749 20.8548 25.7491 21.7268 25.9875 22.7125C26.0056 22.7847 26.0486 22.8481 26.1091 22.8916C26.1695 22.9351 26.2433 22.9558 26.3175 22.95C26.426 22.9382 26.5286 22.8947 26.6125 22.825C26.9471 22.5641 27.2178 22.2304 27.4041 21.8492C27.5904 21.468 27.6873 21.0493 27.6875 20.625V16.975C27.6858 16.7155 27.6649 16.4564 27.625 16.2ZM18.9375 15.3125V10.9375H21.7125C23.6125 10.9375 23.7875 11.3875 24.3125 12.7125L25.375 15.3125H18.9375Z" fill="white"/>
<path d="M13.9375 16.25C13.9359 16.4981 13.8366 16.7356 13.6611 16.9111C13.4856 17.0866 13.2481 17.1859 13 17.1875H3.3125V15.3125H13C13.2481 15.3141 13.4856 15.4134 13.6611 15.5889C13.8366 15.7644 13.9359 16.0019 13.9375 16.25Z" fill="white"/>
<path d="M25.375 15.3125H18.9375V10.9375H21.7125C23.6125 10.9375 23.7875 11.3875 24.3125 12.7125L25.375 15.3125Z" fill="white"/>
</svg>
