<svg width="26" height="26" viewBox="0 0 26 26" fill="none" xmlns="http://www.w3.org/2000/svg">
<g clip-path="url(#clip0_245_70432)">
<path d="M13.2007 25.6507C20.0932 25.6507 25.6807 20.0632 25.6807 13.1707C25.6807 6.27816 20.0932 0.690674 13.2007 0.690674C6.30819 0.690674 0.720703 6.27816 0.720703 13.1707C0.720703 20.0632 6.30819 25.6507 13.2007 25.6507Z" fill="#F0F0F0"/>
<path d="M25.6811 13.1706C25.6811 7.80459 22.2944 3.23013 17.542 1.4668V24.8744C22.2944 23.111 25.6811 18.5365 25.6811 13.1706Z" fill="#D80027"/>
<path d="M0.720703 13.1706C0.720703 18.5365 4.10751 23.111 8.85986 24.8743V1.4668C4.10751 3.23013 0.720703 7.80459 0.720703 13.1706Z" fill="#0052B4"/>
</g>
<defs>
<clipPath id="clip0_245_70432">
<rect width="24.96" height="24.96" fill="white" transform="translate(0.720703 0.690674)"/>
</clipPath>
</defs>
</svg>
