<svg width="20" height="20" viewBox="0 0 20 20" fill="none" xmlns="http://www.w3.org/2000/svg">
<g clip-path="url(#clip0_245_70462)">
<path d="M9.8002 19.4524C15.1021 19.4524 19.4002 15.1544 19.4002 9.85244C19.4002 4.55051 15.1021 0.252441 9.8002 0.252441C4.49826 0.252441 0.200195 4.55051 0.200195 9.85244C0.200195 15.1544 4.49826 19.4524 9.8002 19.4524Z" fill="#F0F0F0"/>
<path d="M9.79976 0.252441C5.6721 0.252441 2.15329 2.85764 0.796875 6.51333H18.8027C17.4462 2.85764 13.9274 0.252441 9.79976 0.252441Z" fill="#D80027"/>
<path d="M9.79976 19.4523C13.9274 19.4523 17.4462 16.8471 18.8027 13.1914H0.796875C2.15329 16.8471 5.6721 19.4523 9.79976 19.4523Z" fill="#338AF3"/>
</g>
<defs>
<clipPath id="clip0_245_70462">
<rect width="19.2" height="19.2" fill="white" transform="translate(0.200195 0.252441)"/>
</clipPath>
</defs>
</svg>
