<svg width="130" height="60" viewBox="0 0 130 60" fill="none" xmlns="http://www.w3.org/2000/svg">
<path d="M30.2036 53.1193C30.6592 53.5335 30.89 54.1074 30.89 54.8352C30.89 55.563 30.6592 56.1487 30.2036 56.5629C29.748 56.9771 29.1031 57.1842 28.2747 57.1842H26.5648V59.6042H24.8726V52.498H28.2747C29.1031 52.498 29.748 52.7051 30.2036 53.1193ZM28.8664 55.5985C29.0676 55.415 29.1682 55.1606 29.1682 54.8352C29.1682 54.5098 29.0676 54.2613 28.8605 54.0778C28.6534 53.8944 28.3576 53.8116 27.973 53.8116H26.5589V55.8706H27.973C28.3635 55.8706 28.6593 55.7819 28.8605 55.5985H28.8664Z" fill="white"/>
<path d="M37.2976 52.7831C37.8361 53.079 38.2562 53.505 38.5579 54.0612C38.8597 54.6173 39.0135 55.28 39.0135 56.0492C39.0135 56.8184 38.8597 57.4811 38.5579 58.0373C38.2562 58.5934 37.8361 59.0194 37.2976 59.3153C36.7592 59.6111 36.1439 59.7591 35.4457 59.7591C34.7475 59.7591 34.144 59.6111 33.6055 59.3153C33.0671 59.0194 32.647 58.5934 32.3453 58.0373C32.0435 57.4811 31.8896 56.8184 31.8896 56.0492C31.8896 55.28 32.0376 54.6173 32.3453 54.0612C32.647 53.505 33.0671 53.079 33.6055 52.7831C34.144 52.4873 34.7534 52.3394 35.4457 52.3394C36.1379 52.3394 36.7592 52.4873 37.2976 52.7831ZM36.7829 57.8183C37.1201 57.4278 37.2917 56.8361 37.2917 56.0492C37.2917 55.2623 37.1201 54.6706 36.7829 54.2801C36.4456 53.8896 36.0019 53.6943 35.4516 53.6943C34.9013 53.6943 34.4694 53.8896 34.1262 54.2801C33.789 54.6706 33.6174 55.2623 33.6174 56.0492C33.6174 56.8361 33.789 57.4278 34.1262 57.8183C34.4635 58.2088 34.9072 58.4041 35.4516 58.4041C35.9959 58.4041 36.4456 58.2088 36.7829 57.8183Z" fill="white"/>
<path d="M44.4158 54.6341H44.3744L43.4514 59.5983H41.3509L39.7119 52.4922H41.4337L42.4455 57.6457H42.4869L43.4395 52.4922H45.3329L46.2855 57.6457H46.3269L47.3387 52.4922H49.0901L47.4393 59.5983H45.3625L44.4158 54.6341Z" fill="white"/>
<path d="M55.4447 55.3204V56.5926H52.0248V58.2433H55.6281V59.5983H50.3267V52.4922H55.6281V53.8057H52.0248V55.3204H55.4447Z" fill="white"/>
<path d="M60.0538 57.1014H58.7699V59.5983H57.0776V52.4922H60.6277C61.4561 52.4922 62.101 52.6934 62.5684 53.1016C63.0359 53.5099 63.2666 54.072 63.2666 54.7879C63.2666 55.3086 63.1424 55.7583 62.8939 56.1251C62.6454 56.492 62.2844 56.7582 61.817 56.918L63.4501 59.5924H61.4798L60.0597 57.0955L60.0538 57.1014ZM60.3615 55.7879C60.7461 55.7879 61.0419 55.6991 61.2431 55.5216C61.4443 55.3441 61.5449 55.1015 61.5449 54.7879C61.5449 54.4743 61.4443 54.2317 61.2431 54.0602C61.0419 53.8886 60.7461 53.7998 60.3615 53.7998H58.7699V55.7819H60.3615V55.7879Z" fill="white"/>
<path d="M72.5978 59.5985V58.7701C72.083 59.4269 71.3493 59.7523 70.4085 59.7523C69.7163 59.7523 69.1068 59.6044 68.5684 59.3027C68.03 59.0068 67.6099 58.5749 67.3081 58.0128C67.0064 57.4507 66.8525 56.7939 66.8525 56.0366C66.8525 55.2792 67.0005 54.6224 67.3081 54.0603C67.6099 53.4983 68.03 53.0722 68.5684 52.7705C69.1068 52.4746 69.7163 52.3208 70.4085 52.3208C71.231 52.3208 71.9292 52.522 72.509 52.9302C73.083 53.3385 73.4853 53.8828 73.7042 54.5574L72.0002 54.7644C71.8582 54.4213 71.657 54.1491 71.3907 53.9598C71.1245 53.7704 70.7991 53.6698 70.4026 53.6698C69.8524 53.6698 69.4086 53.8651 69.0773 54.2615C68.74 54.6579 68.5743 55.2437 68.5743 56.0247C68.5743 56.8058 68.74 57.3974 69.0773 57.7879C69.4145 58.1844 69.8524 58.3796 70.4026 58.3796C70.8405 58.3796 71.2191 58.2554 71.5327 58.0187C71.8463 57.7761 72.0593 57.4389 72.1658 57.0069H70.5269V55.7821H73.7515V59.5748H72.5978V59.5985Z" fill="white"/>
<path d="M78.13 57.1014H76.846V59.5983H75.1538V52.4922H78.7039C79.5323 52.4922 80.1772 52.6934 80.6446 53.1016C81.1121 53.5099 81.3428 54.072 81.3428 54.7879C81.3428 55.3086 81.2185 55.7583 80.97 56.1251C80.7215 56.492 80.3606 56.7582 79.8932 56.918L81.5262 59.5924H79.5559L78.1359 57.0955L78.13 57.1014ZM78.4376 55.7879C78.8222 55.7879 79.1181 55.6991 79.3192 55.5216C79.5204 55.3441 79.621 55.1015 79.621 54.7879C79.621 54.4743 79.5204 54.2317 79.3192 54.0602C79.1181 53.8886 78.8222 53.7998 78.4376 53.7998H76.846V55.7819H78.4376V55.7879Z" fill="white"/>
<path d="M87.7922 52.7831C88.3307 53.079 88.7508 53.505 89.0525 54.0612C89.3543 54.6173 89.5081 55.28 89.5081 56.0492C89.5081 56.8184 89.3543 57.4811 89.0525 58.0373C88.7508 58.5934 88.3307 59.0194 87.7922 59.3153C87.2538 59.6111 86.6385 59.7591 85.9403 59.7591C85.2421 59.7591 84.6386 59.6111 84.1002 59.3153C83.5617 59.0194 83.1416 58.5934 82.8399 58.0373C82.5381 57.4811 82.3843 56.8184 82.3843 56.0492C82.3843 55.28 82.5322 54.6173 82.8399 54.0612C83.1416 53.505 83.5617 53.079 84.1002 52.7831C84.6386 52.4873 85.248 52.3394 85.9403 52.3394C86.6325 52.3394 87.2538 52.4873 87.7922 52.7831ZM87.2716 57.8183C87.6088 57.4278 87.7804 56.8361 87.7804 56.0492C87.7804 55.2623 87.6088 54.6706 87.2716 54.2801C86.9343 53.8896 86.4905 53.6943 85.9403 53.6943C85.39 53.6943 84.9581 53.8896 84.6149 54.2801C84.2777 54.6706 84.1061 55.2623 84.1061 56.0492C84.1061 56.8361 84.2777 57.4278 84.6149 57.8183C84.9522 58.2088 85.3959 58.4041 85.9403 58.4041C86.4846 58.4041 86.9343 58.2088 87.2716 57.8183Z" fill="white"/>
<path d="M96.6675 58.5214C96.4012 58.9355 96.0285 59.2432 95.561 59.4503C95.0936 59.6574 94.5552 59.758 93.9517 59.758C93.3481 59.758 92.8156 59.6574 92.3423 59.4503C91.8749 59.2432 91.508 58.9355 91.2358 58.5214C90.9637 58.1072 90.8335 57.5924 90.8335 56.983V52.498H92.5257V56.8232C92.5257 57.8705 92.999 58.3971 93.9457 58.3971C94.4191 58.3971 94.7741 58.2669 95.0108 58.0125C95.2474 57.7581 95.3658 57.3617 95.3658 56.8232V52.498H97.058V56.983C97.058 57.5924 96.9219 58.1072 96.6556 58.5214H96.6675Z" fill="white"/>
<path d="M104.04 53.1193C104.495 53.5335 104.726 54.1074 104.726 54.8352C104.726 55.563 104.495 56.1487 104.04 56.5629C103.584 56.9771 102.939 57.1842 102.111 57.1842H100.401V59.6042H98.7085V52.498H102.111C102.939 52.498 103.584 52.7051 104.04 53.1193ZM102.696 55.5985C102.898 55.415 102.998 55.1606 102.998 54.8352C102.998 54.5098 102.898 54.2613 102.691 54.0778C102.483 53.8944 102.188 53.8116 101.803 53.8116H100.389V55.8706H101.803C102.193 55.8706 102.489 55.7819 102.691 55.5985H102.696Z" fill="white"/>
<path d="M23.0855 34.2921C16.577 34.2921 11.4412 29.174 11.6246 22.8844C11.8139 16.5948 17.2574 11.4768 23.7659 11.4768H39.4633C41.2147 7.34683 44.6819 3.62515 49.5811 0.240723H24.1032C11.1868 0.240723 0.382654 10.394 0.00989411 22.8785C-0.362866 35.363 9.84366 45.5163 22.7542 45.5163H48.4568C43.7293 42.2324 40.5934 38.4693 38.8539 34.2802H23.0855V34.2921Z" fill="white"/>
<path d="M106.844 0.246582H65.4265C52.5101 0.246582 41.7 10.3999 41.3273 22.8844C40.9545 35.3629 51.161 45.5221 64.0775 45.5221C76.9939 45.5221 87.798 35.3629 88.1708 22.8844C88.2122 21.4466 87.869 19.1982 87.5909 17.6716C87.4904 17.1214 87.4608 16.9616 87.4016 16.6717C87.3898 16.6125 90.2417 15.8197 90.2417 15.8197L79.6032 12.3287L73.9349 21.6122C74.4793 21.3992 76.7513 20.7188 76.7513 20.7188L76.9229 22.8903C76.7336 29.1799 70.9114 34.2979 64.4029 34.2979C57.8944 34.2979 52.7586 29.1799 52.9479 22.8903C53.1373 16.6007 58.5807 11.4826 65.0833 11.4826H106.507C113.016 11.4826 118.157 16.5948 117.968 22.8903C117.779 29.1799 112.335 34.2979 105.827 34.2979H90.147C87.5259 39.2503 84.1474 43.0134 79.9819 45.534H105.495C118.406 45.534 129.216 35.3748 129.589 22.8962C129.961 10.4117 119.761 0.258418 106.838 0.258418" fill="white"/>
</svg>
