<svg width="134" height="22" viewBox="0 0 134 22" fill="none" xmlns="http://www.w3.org/2000/svg">
<g clip-path="url(#clip0_245_68824)">
<path d="M16.5088 3.06066C15.6023 2.14066 14.615 1.44648 13.5467 0.988189C12.4818 0.523141 11.3327 0.293973 10.1195 0.290594C7.47417 0.290594 5.22982 1.30157 3.37639 3.31678C1.52633 5.33534 0.602974 7.9234 0.599609 11.081C0.599609 14.1274 1.55329 16.6784 3.46401 18.7239C5.37473 20.7761 7.63929 21.804 10.2577 21.804C11.427 21.8056 12.5121 21.5951 13.5096 21.1771C14.5105 20.7559 15.508 20.0718 16.5021 19.1148V21.2816H21.6176V0.826424H16.5088V3.06066ZM15.1541 15.4147C14.1027 16.5402 12.7784 17.0962 11.181 17.0996C9.63426 17.0979 8.33011 16.5267 7.27535 15.381C6.2172 14.2386 5.68813 12.7794 5.68813 11.0102C5.68813 9.24777 6.21046 7.80883 7.24839 6.68329C8.28968 5.55774 9.59383 5.00171 11.1676 5.00171C12.7784 5.00171 14.1095 5.55437 15.1609 6.65633C16.2123 7.76501 16.5526 9.02536 16.5493 10.808C16.5493 12.6311 16.2089 14.2925 15.1541 15.4147ZM50.9524 3.06066C50.0459 2.14066 49.0552 1.44648 47.9937 0.988189C46.922 0.523141 45.7796 0.293973 44.5598 0.290594C41.9211 0.290594 39.67 1.30157 37.82 3.31678C35.9699 5.33534 35.0466 7.9234 35.0432 11.081C35.0399 14.1274 35.9935 16.6784 37.9076 18.7239C39.8183 20.7761 42.0829 21.804 44.7047 21.804C45.8706 21.8056 46.9557 21.5951 47.9499 21.1771C48.9507 20.7559 49.9482 20.0718 50.9423 19.1148V21.2816H56.0578V0.826424H50.9524V3.06066ZM49.5977 15.4147C48.5463 16.5402 47.2186 17.0962 45.628 17.0996C44.0779 17.0979 42.7737 16.5267 41.7156 15.381C40.6574 14.2386 40.1284 12.7794 40.1317 11.0102C40.1351 9.24777 40.6507 7.80883 41.692 6.68329C42.7333 5.55774 44.0374 5.00171 45.6112 5.00171C47.2186 5.00171 48.5497 5.55437 49.6045 6.65633C50.6559 7.76501 50.9929 9.02536 50.9895 10.808C50.9895 12.6311 50.6525 14.2925 49.5977 15.4147ZM86.8383 1.32516C85.7397 0.647816 84.4693 0.310825 83.0202 0.310825C81.6184 0.309152 80.3344 0.62425 79.1516 1.25778C77.9722 1.88794 76.978 2.80793 76.1625 4.02446C75.5425 2.80793 74.7202 1.88456 73.6991 1.25439C72.6713 0.620867 71.5256 0.304104 70.2517 0.300741C68.9914 0.300741 67.8288 0.539891 66.7605 1.02189C65.6923 1.5004 64.7218 2.22494 63.849 3.19882V0.826424H58.7301L58.7233 21.2816H63.8387L63.8421 12.2065C63.8454 10.2453 64.0173 8.80632 64.361 7.89307C64.7081 6.97984 65.2271 6.27216 65.9213 5.76331C66.6189 5.26118 67.3906 5.00509 68.2431 5.00509C69.0047 5.00677 69.6585 5.20732 70.1977 5.60827C70.7369 6.00929 71.1379 6.61926 71.4075 7.43813C71.6771 8.25704 71.8119 9.57802 71.8119 11.4078L71.8018 21.2816H76.924V12.0818C76.9309 10.1307 77.0993 8.71532 77.4363 7.83579C77.7766 6.95287 78.2956 6.2654 78.9898 5.76331C79.6806 5.26456 80.4725 5.01518 81.3521 5.01518C82.5046 5.01518 83.3639 5.4263 83.9435 6.24183C84.5231 7.06408 84.8096 8.63108 84.8096 10.9394L84.8027 21.2816H89.9182L89.9249 9.30167C89.9249 6.84504 89.6856 5.0691 89.2071 3.98065C88.7286 2.88878 87.9403 2.00252 86.8383 1.32516ZM107.782 15.2529C106.414 16.6143 104.776 17.295 102.872 17.295C101.275 17.2934 99.9705 16.8536 98.9393 15.9842C97.9115 15.1147 97.2813 13.942 97.0421 12.466L113.453 12.476L113.474 11.5021C113.474 8.13225 112.473 5.42286 110.464 3.36388C108.459 1.3116 105.851 0.283787 102.643 0.280407C99.6234 0.280407 97.1095 1.30823 95.1111 3.37397C93.1061 5.43296 92.1052 8.02441 92.1052 11.1449C92.1019 14.1947 93.1061 16.7255 95.1078 18.7508C97.1095 20.7794 99.711 21.7904 102.899 21.7904C104.955 21.7921 106.727 21.4264 108.227 20.6918C109.72 19.9605 111.004 18.8249 112.075 17.295L107.782 15.2529ZM99.155 5.85091C100.23 5.05899 101.48 4.6647 102.902 4.66808C104.22 4.66808 105.372 5.01856 106.36 5.72286C107.357 6.43055 108.021 7.34379 108.358 8.46932L97.2813 8.46262C97.8542 7.21577 98.481 6.34291 99.155 5.85091ZM125.595 10.4576L132.51 0.823105H126.677L122.673 6.40026L118.657 0.823105H112.732L119.718 10.5149L111.994 21.2816H117.828L122.636 14.5756L127.472 21.2816H133.4L125.595 10.4576ZM33.9309 0.196289C32.9839 0.196289 32.1583 0.374805 31.4675 0.721985C30.7868 1.06234 30.0049 1.68576 29.1254 2.59901V0.82645H24.2424V21.2816H29.3579L29.3546 10.6429C29.3546 6.74398 30.433 4.78945 33.0412 4.78945C33.4928 4.78945 33.9545 4.88733 34.4195 5.06242C35.2586 3.65717 36.2291 2.33619 37.3142 1.11963C36.1449 0.519795 35.016 0.196289 33.9309 0.196289Z" fill="white"/>
</g>
<defs>
<clipPath id="clip0_245_68824">
<rect width="132.8" height="21.6077" fill="white" transform="translate(0.599609 0.196289)"/>
</clipPath>
</defs>
</svg>
