<svg width="148" height="28" viewBox="0 0 148 28" fill="none" xmlns="http://www.w3.org/2000/svg">
<g clip-path="url(#clip0_245_68820)">
<path d="M130.026 26.7202H134.937V18.7926L141.79 26.7202H147.799L139.821 17.5837L146.636 9.6616H141.168L134.937 16.9633V0.84375L130.026 1.48599V26.7202ZM118.7 9.22463C113.247 9.22463 109.461 12.8834 109.461 18.1882C109.461 23.493 113.247 27.1519 118.7 27.1519C124.152 27.1519 127.938 23.493 127.938 18.1882C127.938 12.8834 124.152 9.22463 118.7 9.22463ZM118.7 22.975C116.173 22.975 114.443 21.0268 114.443 18.1882C114.443 15.3497 116.173 13.4015 118.7 13.4015C121.225 13.4015 122.956 15.3497 122.956 18.1882C122.956 21.0268 121.225 22.975 118.7 22.975ZM98.7407 9.22463C93.2887 9.22463 89.5024 12.8834 89.5024 18.1882C89.5024 23.493 93.2887 27.1519 98.7407 27.1519C104.193 27.1519 107.979 23.493 107.979 18.1882C107.979 12.8834 104.193 9.22463 98.7407 9.22463ZM98.7407 22.975C96.2149 22.975 94.484 21.0268 94.484 18.1882C94.484 15.3497 96.2149 13.4015 98.7407 13.4015C101.267 13.4015 102.997 15.3497 102.997 18.1882C102.997 21.0268 101.267 22.975 98.7407 22.975ZM79.9449 9.22463C77.6732 9.22463 75.7909 10.115 74.6118 11.7447V0.84375L69.6952 1.48051V26.7147H74.0547L74.1412 24.0813C75.3042 26.0456 77.3865 27.1519 79.9449 27.1519C84.6074 27.1519 88.0204 23.3742 88.0204 18.1882C88.0204 13.0021 84.6236 9.22463 79.9449 9.22463ZM78.7821 22.975C76.2561 22.975 74.5253 21.0268 74.5253 18.1882C74.5253 15.3497 76.2561 13.4015 78.7821 13.4015C81.3079 13.4015 83.0388 15.3497 83.0388 18.1882C83.0388 21.0268 81.3079 22.975 78.7821 22.975ZM59.851 23.1962C57.244 23.1962 55.3725 21.9873 54.7343 19.9044H66.8338C66.9529 19.2676 67.0341 18.512 67.0341 18.0047C67.0341 12.5164 63.9563 9.22463 58.7855 9.22463C53.566 9.22463 49.9528 12.8834 49.9528 18.1882C49.9528 23.5632 53.7391 27.1519 59.3589 27.1519C62.2687 27.1519 65.0976 26.1805 66.8663 24.5669L65.0976 21.4586C63.3831 22.6404 61.7008 23.1962 59.851 23.1962ZM58.753 13.0345C61.0248 13.0345 62.4743 14.4106 62.4743 16.5423V16.5585H54.6315C55.1021 14.2974 56.5678 13.0345 58.753 13.0345ZM42.2614 27.1572C44.8036 27.1572 47.2917 26.1858 49.044 24.5021L47.1239 21.2804C45.7609 22.3382 44.2141 22.9101 42.7482 22.9101C40.0221 22.9101 38.2048 21.0105 38.2048 18.1936C38.2048 15.3766 40.0221 13.477 42.7482 13.477C44.095 13.477 45.5608 13.9626 46.7507 14.8208L48.7034 11.5288C47.1239 10.1042 44.6792 9.22995 42.256 9.22995C36.9229 9.22995 33.1529 12.9428 33.1529 18.1936C33.1582 23.4282 36.9282 27.1572 42.2614 27.1572ZM26.646 9.6616L26.5596 12.3168C25.3966 10.3363 23.3142 9.22995 20.7558 9.22995C16.0771 9.22995 12.6803 13.0076 12.6803 18.1936C12.6803 23.3797 16.0988 27.1572 20.7558 27.1572C23.3142 27.1572 25.4019 26.0509 26.5596 24.0866L26.646 26.72H31.0055V9.6616H26.646ZM21.9187 22.975C19.3928 22.975 17.6619 21.0268 17.6619 18.1882C17.6619 15.3497 19.3928 13.4015 21.9187 13.4015C24.4447 13.4015 26.1754 15.3497 26.1754 18.1882C26.1754 21.0268 24.4392 22.975 21.9187 22.975ZM12.3125 9.69368H7.8935V8.2365C7.8935 6.05631 8.74811 5.21993 10.9658 5.21993C11.6526 5.21993 12.2097 5.23605 12.5289 5.26846V1.52871C11.923 1.36133 10.4465 1.19412 9.5919 1.19412C5.07544 1.19412 2.99305 3.3203 2.99305 7.91272V9.68819H0.202148V13.8112H2.99305V26.7144H7.89883V13.8166H11.5553L12.3125 9.69368Z" fill="white"/>
</g>
<defs>
<clipPath id="clip0_245_68820">
<rect width="147.6" height="26.3163" fill="white" transform="translate(0.200195 0.841797)"/>
</clipPath>
</defs>
</svg>
