<svg width="108" height="36" viewBox="0 0 108 36" fill="none" xmlns="http://www.w3.org/2000/svg">
<path d="M45.9592 18.4614C45.9592 23.4583 41.9925 27.1405 37.1246 27.1405C32.2567 27.1405 28.29 23.4583 28.29 18.4614C28.29 13.4292 32.2567 9.78223 37.1246 9.78223C41.9925 9.78223 45.9592 13.4292 45.9592 18.4614ZM42.0918 18.4614C42.0918 15.3387 39.7928 13.2022 37.1246 13.2022C34.4564 13.2022 32.1574 15.3387 32.1574 18.4614C32.1574 21.5527 34.4564 23.7205 37.1246 23.7205C39.7928 23.7205 42.0918 21.5487 42.0918 18.4614Z" fill="white"/>
<path d="M65.0187 18.4614C65.0187 23.4583 61.0521 27.1405 56.1842 27.1405C51.3162 27.1405 47.3496 23.4583 47.3496 18.4614C47.3496 13.4331 51.3162 9.78223 56.1842 9.78223C61.0521 9.78223 65.0187 13.4292 65.0187 18.4614ZM61.1514 18.4614C61.1514 15.3387 58.8524 13.2022 56.1842 13.2022C53.5159 13.2022 51.217 15.3387 51.217 18.4614C51.217 21.5527 53.5159 23.7205 56.1842 23.7205C58.8524 23.7205 61.1514 21.5487 61.1514 18.4614Z" fill="white"/>
<path d="M83.2833 10.3066V25.8883C83.2833 32.2979 79.4477 34.9157 74.9133 34.9157C70.645 34.9157 68.076 32.1022 67.1072 29.8014L70.4742 28.4201C71.0738 29.8327 72.5429 31.4996 74.9094 31.4996C77.8119 31.4996 79.6105 29.7348 79.6105 26.4127V25.1644H79.4755C78.61 26.217 76.9423 27.1366 74.8379 27.1366C70.4345 27.1366 66.4004 23.3566 66.4004 18.4927C66.4004 13.5935 70.4345 9.78223 74.8379 9.78223C76.9383 9.78223 78.606 10.7018 79.4755 11.7231H79.6105V10.3105H83.2833V10.3066ZM79.8845 18.4927C79.8845 15.4366 77.8158 13.2022 75.1833 13.2022C72.5151 13.2022 70.2797 15.4366 70.2797 18.4927C70.2797 21.5174 72.5151 23.7205 75.1833 23.7205C77.8158 23.7205 79.8845 21.5174 79.8845 18.4927Z" fill="white"/>
<path d="M89.3385 1.17383V26.6086H85.5664V1.17383H89.3385Z" fill="white"/>
<path d="M104.037 21.3179L107.039 23.2901C106.07 24.7027 103.735 27.1366 99.7012 27.1366C94.6982 27.1366 90.9619 23.3253 90.9619 18.4574C90.9619 13.2961 94.73 9.77832 99.2684 9.77832C103.839 9.77832 106.074 13.3627 106.805 15.2996L107.206 16.2857L95.4328 21.0909C96.3341 22.8322 97.7357 23.7205 99.7012 23.7205C101.671 23.7205 103.036 22.7657 104.037 21.3179ZM94.7975 18.1953L102.667 14.9748C102.234 13.8909 100.932 13.1357 99.3994 13.1357C97.434 13.1357 94.6982 14.8457 94.7975 18.1953Z" fill="white"/>
<path d="M14.0118 16.2036V12.5214H26.6026C26.7257 13.1632 26.7892 13.9223 26.7892 14.744C26.7892 17.5066 26.0229 20.9227 23.5532 23.3566C21.151 25.8219 18.0817 27.1366 14.0158 27.1366C6.47964 27.1366 0.142578 21.0871 0.142578 13.6601C0.142578 6.23316 6.47964 0.183594 14.0158 0.183594C18.1849 0.183594 21.1549 1.79577 23.3864 3.89707L20.7499 6.49533C19.1498 5.0162 16.9818 3.86577 14.0118 3.86577C8.50861 3.86577 4.20449 8.23664 4.20449 13.6601C4.20449 19.0836 8.50861 23.4545 14.0118 23.4545C17.5814 23.4545 19.6143 22.0419 20.9167 20.7584C21.9729 19.7175 22.6677 18.2306 22.9417 16.1997L14.0118 16.2036Z" fill="white"/>
</svg>
