<svg width="88" height="30" viewBox="0 0 88 30" fill="none" xmlns="http://www.w3.org/2000/svg">
<g clip-path="url(#clip0_245_68845)">
<path d="M13.259 26.3991H10.6043L10.267 28.1608H13.2443L12.995 29.4858H8.4043L9.82696 22.1914H14.2563L13.9776 23.5309H11.1616L10.8536 25.0888H13.523L13.259 26.3991Z" fill="white"/>
<path d="M17.5271 29.4858L17.0137 28.0152C16.8671 27.5784 16.7497 27.229 16.6177 26.7777H16.6031C16.3537 27.1853 16.1631 27.5639 15.8404 28.0735L14.9457 29.4858H13.0244L15.8257 25.7585L14.5204 22.1914H16.2071L16.6617 23.5891C16.7937 24.0405 16.8964 24.3753 17.0137 24.7976H17.0431C17.3217 24.3025 17.5271 23.9531 17.7471 23.56L18.6124 22.1914H20.5191L17.7911 25.7731L19.2284 29.4858H17.5271Z" fill="white"/>
<path d="M20.9588 22.3231C21.4428 22.2066 22.1908 22.1338 22.9094 22.1338C23.5841 22.1338 24.3614 22.2357 24.9041 22.6143C25.4174 22.9491 25.7108 23.4733 25.7108 24.1721C25.7108 25.0748 25.2708 25.7882 24.6988 26.2105C24.0828 26.6764 23.2174 26.8948 22.2934 26.8948C22.0294 26.8948 21.8094 26.8656 21.6334 26.8511L21.1201 29.4718H19.5508L20.9588 22.3231ZM21.8974 25.5844C22.0588 25.6135 22.2348 25.6426 22.5134 25.6426C23.4668 25.6426 24.0974 25.0457 24.0974 24.3177C24.0974 23.5897 23.5694 23.4005 22.9681 23.4005C22.6748 23.4005 22.4401 23.415 22.3081 23.4442L21.8974 25.5844Z" fill="white"/>
<path d="M26.7957 22.3231C27.2944 22.2066 28.057 22.1338 28.7904 22.1338C29.5237 22.1338 30.2277 22.2357 30.7557 22.556C31.2397 22.8326 31.5917 23.2986 31.5917 23.9683C31.5917 25.0457 30.8584 25.73 29.8904 26.0358V26.0649C30.3304 26.2687 30.5357 26.7346 30.5944 27.3898C30.697 28.2197 30.7557 29.1661 30.8877 29.4718H29.245C29.1717 29.2825 29.0984 28.6565 29.0397 27.7538C28.9664 26.8656 28.6584 26.6036 28.013 26.6036H27.529L26.9717 29.4864H25.3877L26.7957 22.3231ZM27.7784 25.4388H28.4384C29.3037 25.4388 29.9344 24.9292 29.9344 24.2158C29.9344 23.6189 29.4357 23.3568 28.7904 23.3568C28.497 23.3568 28.3064 23.3859 28.1744 23.415L27.7784 25.4388Z" fill="white"/>
<path d="M36.2853 26.3991H33.6307L33.2787 28.1608H36.2707L36.0214 29.4858H31.416L32.8387 22.1914H37.268L37.004 23.5309H34.188L33.8653 25.0888H36.5493L36.2853 26.3991Z" fill="white"/>
<path d="M37.0329 27.7972C37.4729 28.0593 38.1182 28.2631 38.7929 28.2631C39.4089 28.2631 39.9809 27.9865 39.9809 27.4186C39.9809 26.9964 39.6582 26.7343 38.9689 26.3849C38.1769 25.9772 37.4289 25.3949 37.4289 24.4631C37.4289 22.978 38.7342 22.0898 40.3769 22.0898C41.2862 22.0898 41.8142 22.2791 42.1369 22.4538L41.6382 23.7496C41.3889 23.6186 40.8609 23.4293 40.2449 23.4293C39.4969 23.4293 39.1009 23.7933 39.1009 24.1864C39.1009 24.6086 39.5556 24.8853 40.1862 25.2202C41.0956 25.6715 41.6676 26.2684 41.6676 27.142C41.6676 28.7581 40.2889 29.6026 38.6316 29.6026C37.5902 29.588 36.8422 29.326 36.4902 29.0784L37.0329 27.7972Z" fill="white"/>
<path d="M42.2546 27.7972C42.6946 28.0593 43.3399 28.2631 44.0146 28.2631C44.6306 28.2631 45.2026 27.9865 45.2026 27.4186C45.2026 26.9964 44.8799 26.7343 44.1906 26.3849C43.3986 25.9772 42.6506 25.3949 42.6506 24.4631C42.6506 22.978 43.9559 22.0898 45.5986 22.0898C46.5079 22.0898 47.0359 22.2791 47.3586 22.4538L46.8599 23.7496C46.6106 23.6186 46.0826 23.4293 45.4666 23.4293C44.7186 23.4293 44.3226 23.7933 44.3226 24.1864C44.3226 24.6086 44.7772 24.8853 45.4079 25.2202C46.3172 25.6715 46.8892 26.2684 46.8892 27.142C46.8892 28.7581 45.5106 29.6026 43.8532 29.6026C42.8119 29.588 42.0639 29.326 41.7119 29.0784L42.2546 27.7972Z" fill="white"/>
<path d="M0 22.1914V29.4858H6.80533L8.228 22.1914H0Z" fill="white"/>
<path d="M64.4013 16.572V12.5681H72.688V9.07382H64.4013V5.06993H73.26L73.2746 1.16797H59.752V20.474H73.2746L73.26 16.572H64.4013Z" fill="white"/>
<path d="M45.936 20.3715C45.936 20.3715 46.0973 20.4006 46.1413 20.4006C46.2733 20.4151 46.4053 20.4297 46.5373 20.4443H46.64C46.772 20.4588 46.9186 20.4588 47.0506 20.4734H47.1386C47.2853 20.4734 47.4173 20.4879 47.564 20.4734H47.652C47.7986 20.4734 47.9306 20.4588 48.0773 20.4588H48.1653C48.312 20.4443 48.4586 20.4297 48.6053 20.4151C48.62 20.4151 48.6493 20.4006 48.6786 20.4006C48.8253 20.386 48.972 20.3569 49.1333 20.3423C49.148 20.3423 49.1773 20.3278 49.192 20.3278C49.3386 20.2987 49.5 20.2695 49.6466 20.2404C49.6613 20.2404 49.676 20.2259 49.6906 20.2259C49.8373 20.1967 49.9986 20.1531 50.1453 20.1239C50.1551 20.1239 50.16 20.1191 50.16 20.1094C50.4826 20.022 50.82 19.9056 51.1573 19.7891C51.1573 19.7891 51.7586 19.527 51.9346 19.4396C51.9493 19.4251 51.9786 19.4251 51.9933 19.4105C52.3746 19.2504 52.58 19.5124 52.8293 19.7454C53.0493 19.9347 53.196 20.0657 53.4746 20.3132C55.9973 22.5554 62.2746 27.724 69.1826 29.049C77.968 30.7379 83.6586 29.6605 83.6586 29.6605C83.6586 29.6605 71.896 28.5394 65.252 24.652C60.9253 22.1186 56.9506 19.2213 55.264 17.7362C55.1906 17.6779 54.868 17.4741 55.088 17.1101L55.132 17.0664C56.496 15.5668 57.42 13.6449 57.684 11.4756C58.3733 5.87012 54.3546 0.759713 48.708 0.0754134C43.0613 -0.608886 37.9133 3.38044 37.224 8.98587C36.52 14.5331 40.4066 19.5707 45.936 20.3715ZM41.3893 9.53913C41.8 6.23411 44.836 3.87546 48.1653 4.28313C51.4946 4.6908 53.8706 7.70463 53.4746 11.0097C53.064 14.3147 50.028 16.6733 46.6986 16.2657C43.3546 15.858 40.9786 12.8442 41.3893 9.53913Z" fill="white"/>
<path d="M79.6845 16.572V1.16797H75.0352V20.474H88.0005V16.572H79.6845Z" fill="white"/>
<path d="M13.7133 1.16797V13.762L5.456 1.16797H0V20.474H4.25333V7.87993L12.5107 20.474H17.9667V1.16797H13.7133Z" fill="white"/>
<path d="M31.2842 1.16797H26.2682L18.6855 20.4885H22.8509L24.5815 16.0915H33.0295L34.8042 20.4885H39.0722L31.2842 1.16797ZM26.1215 12.175L28.7322 5.5504L31.4455 12.175H26.1215Z" fill="white"/>
</g>
<defs>
<clipPath id="clip0_245_68845">
<rect width="88" height="30" fill="white"/>
</clipPath>
</defs>
</svg>
