<svg width="44" height="52" viewBox="0 0 44 52" fill="none" xmlns="http://www.w3.org/2000/svg">
<path fill-rule="evenodd" clip-rule="evenodd" d="M21.5999 51.219C21.773 51.2952 21.9081 51.3546 22 51.3955L22.037 51.3765C23.291 50.8285 34.211 46.0145 37.641 43.2265C39.5085 41.6732 40.996 39.7133 41.9899 37.4969C42.9837 35.2805 43.4575 32.8661 43.375 30.4385V5.34547C37.41 2.20547 30.271 0.605469 22 0.605469C13.729 0.605469 6.55501 2.19547 0.625015 5.34547V30.4665C0.544273 32.8935 1.0198 35.3067 2.01521 37.5217C3.01062 39.7366 4.49954 41.6945 6.36801 43.2455C9.61707 45.9491 19.2155 50.1704 21.5999 51.219ZM35.205 16.9154C32.497 16.8844 30.271 19.0474 30.225 21.7574L30.206 21.7514C30.206 23.7314 30.763 25.2074 33.821 27.0014C35.447 27.9864 36.135 28.6274 36.135 29.7894C36.1525 30.0791 36.1057 30.3691 35.9981 30.6386C35.8905 30.9081 35.7246 31.1505 35.5124 31.3484C35.3002 31.5464 35.0469 31.695 34.7706 31.7837C34.4943 31.8724 34.2018 31.8989 33.914 31.8614C32.5947 31.7672 31.3449 31.2338 30.364 30.3464V33.7464C31.6017 34.4829 33.0129 34.8773 34.453 34.8894C35.1372 34.9388 35.8243 34.8474 36.4717 34.6209C37.1192 34.3944 37.7134 34.0376 38.2177 33.5725C38.7219 33.1075 39.1255 32.544 39.4035 31.9169C39.6815 31.2898 39.828 30.6124 39.834 29.9264C39.917 27.7604 39.304 26.1634 36.2 24.3034C36.0915 24.238 35.9848 24.1743 35.8803 24.112C34.651 23.379 33.7219 22.825 33.756 21.6084C33.793 20.2884 34.89 19.8334 35.94 19.8334C37.2044 19.8952 38.3975 20.437 39.276 21.3484V18.1234C38.0979 17.2655 36.6604 16.839 35.205 16.9154ZM22.529 19.9074C22.089 19.9044 21.642 19.9974 21.229 20.1774L21.209 20.1784V31.5894C21.595 31.7344 22.004 31.8094 22.417 31.8124C24.555 31.8124 25.577 29.9534 25.577 25.7904C25.577 21.6274 24.685 19.9074 22.529 19.9074ZM17.51 42.4354H21.229L21.199 42.4264V34.6384C21.742 34.7904 22.307 34.8624 22.872 34.8524C27.008 34.8524 29.378 31.1254 29.378 25.7164C29.378 20.3074 26.943 16.9434 22.51 16.9434C20.75 16.8836 19.0112 17.3427 17.51 18.2634V42.4354ZM4.50003 17.3344V28.9704L4.47203 28.9624C4.47203 32.9024 6.33103 34.8924 10.048 34.8924C12.0134 34.964 13.9553 34.4461 15.624 33.4054V17.3354H11.907V31.2754C11.389 31.5994 10.777 31.7644 10.177 31.7494C8.46703 31.7494 8.21703 30.1874 8.21703 29.1374V17.3344H4.50003ZM7.66003 41.7394C4.33003 38.9624 2.47503 34.7984 2.64003 30.4664H2.63203V16.0984C14.267 5.43043 28.96 4.72243 41.389 5.87543V30.4754C41.4724 32.6121 41.0631 34.7394 40.1928 36.6926C39.3225 38.6458 38.0145 40.3726 36.37 41.7394C33.423 44.1664 24.5 48.1624 22.02 49.2594C19.5 48.1524 10.56 44.1094 7.66003 41.7394Z" fill="white"/>
</svg>
