<svg width="136" height="40" viewBox="0 0 136 40" fill="none" xmlns="http://www.w3.org/2000/svg">
<path d="M24.0831 12.8386C26.6425 14.6837 29.7766 15.7695 33.1618 15.7695V10.596C31.2722 10.1899 29.5994 9.19371 28.3417 7.80802C26.1888 6.45267 24.6377 4.21668 24.1829 1.59961H19.4371V27.8508C19.4263 30.9111 16.9646 33.3891 13.9288 33.3891C12.1398 33.3891 10.5505 32.5288 9.54401 31.1961C7.74663 30.2809 6.51407 28.402 6.51407 26.2321C6.51407 23.1633 8.97988 20.6751 12.0222 20.6751C12.6051 20.6751 13.1669 20.7667 13.6939 20.9354V15.7054C7.16061 15.8415 1.90625 21.2272 1.90625 27.8509C1.90625 31.1574 3.21471 34.1549 5.33835 36.345C7.25418 37.6428 9.56047 38.3998 12.0418 38.3998C18.6921 38.3998 24.0832 32.9607 24.0832 26.2512V12.8386H24.0831Z" fill="white"/>
<path d="M33.162 10.5964V9.19751C31.458 9.20011 29.7875 8.71868 28.3419 7.80825C29.6216 9.2218 31.3068 10.1965 33.162 10.5964ZM24.1831 1.59998C24.1397 1.34986 24.1064 1.09809 24.0833 0.84536V0H17.5305V26.2514C17.5201 29.3114 15.0585 31.7894 12.0224 31.7894C11.1311 31.7894 10.2895 31.5759 9.54421 31.1966C10.5507 32.5292 12.14 33.3894 13.929 33.3894C16.9645 33.3894 19.4266 30.9116 19.4373 27.8513V1.59998H24.1831ZM13.6944 15.7057V14.2165C13.1468 14.141 12.5948 14.1031 12.0421 14.1034C5.39131 14.1033 0 19.5424 0 26.2514C0 30.4577 2.11888 34.1646 5.33868 36.3451C3.21504 34.1551 1.90658 31.1575 1.90658 27.8512C1.90658 21.2276 7.16081 15.8419 13.6944 15.7057Z" fill="white"/>
<path d="M109.089 32.9002C113.848 32.9002 117.705 29.0377 117.705 24.2736C117.705 19.5096 113.848 15.6465 109.089 15.6465H107.791C112.55 15.6465 116.407 19.5095 116.407 24.2736C116.407 29.0377 112.55 32.9002 107.791 32.9002H109.089Z" fill="white"/>
<path d="M107.673 15.6465H106.375C101.617 15.6465 97.7588 19.5095 97.7588 24.2736C97.7588 29.0377 101.617 32.9002 106.375 32.9002H107.673C102.914 32.9002 99.0568 29.0377 99.0568 24.2736C99.0566 19.5096 102.914 15.6465 107.673 15.6465Z" fill="white"/>
<path d="M42.168 11.7471V16.1198H47.2423V32.7818H52.3186V16.2379H56.4492L57.8655 11.7472L42.168 11.7471ZM83.7135 11.7471V16.1198H88.7878V32.7818H93.8642V16.2379H97.9946L99.4108 11.7472L83.7135 11.7471ZM58.8106 14.2285C58.8106 12.8583 59.9184 11.7471 61.2871 11.7471C62.657 11.7471 63.7661 12.8583 63.7661 14.2285C63.7661 15.5988 62.6577 16.7101 61.2871 16.7101C59.9184 16.7094 58.8106 15.5988 58.8106 14.2285ZM58.8106 18.4832H63.7661V32.7818H58.8106V18.4832ZM65.891 11.7471V32.7817H70.8485V27.3463L72.383 25.927L77.2214 32.8997H82.5322L75.5681 22.737L81.8237 16.5913H75.8046L70.8485 21.5544V11.7471H65.891ZM119.356 11.7471V32.7817H124.314V27.3463L125.848 25.927L130.688 32.8997H136L129.035 22.737L135.291 16.5913H129.272L124.314 21.5544V11.7471H119.356Z" fill="white"/>
<path d="M107.791 32.9002C112.549 32.9002 116.407 29.0377 116.407 24.2736C116.407 19.5096 112.549 15.6465 107.791 15.6465H107.673C102.914 15.6465 99.0566 19.5095 99.0566 24.2736C99.0566 29.0377 102.914 32.9002 107.673 32.9002H107.791ZM103.542 24.2736C103.542 21.9562 105.418 20.0791 107.733 20.0791C110.045 20.0791 111.922 21.9562 111.922 24.2736C111.922 26.591 110.045 28.4692 107.733 28.4692C105.418 28.4688 103.542 26.591 103.542 24.2736Z" fill="white"/>
</svg>
