<svg width="32" height="25" viewBox="0 0 32 25" fill="none" xmlns="http://www.w3.org/2000/svg">
<path opacity="0.4" d="M25.2442 7.88209C25.0477 8.47218 24.7203 8.99484 24.2782 9.41633C23.8362 9.83782 23.3041 10.1413 22.723 10.3015C22.2154 10.4448 21.6915 10.4785 21.1677 10.3942C20.652 10.3183 20.1526 10.1244 19.7106 9.83782C19.6615 9.8041 19.6287 9.76195 19.596 9.71137C19.5714 9.6608 19.5551 9.61022 19.5469 9.55121C19.5469 9.4922 19.5469 9.43319 19.5714 9.38261C19.596 9.33203 19.6205 9.28145 19.6615 9.2393C20.7093 7.99168 21.2823 6.40687 21.2904 4.76304C21.2904 4.26568 21.2413 3.77675 21.1349 3.29625C21.1185 3.24567 21.1104 3.19509 21.1104 3.14451C21.1104 3.04335 21.1513 2.94219 21.2168 2.86632C21.2904 2.79045 21.3805 2.74831 21.4869 2.73988C21.5033 2.73988 21.667 2.73145 21.7325 2.73145C22.33 2.73145 22.9194 2.88318 23.4515 3.1698C23.9836 3.45641 24.442 3.86948 24.7858 4.37527C25.1296 4.88106 25.3506 5.46272 25.4324 6.0781C25.5143 6.69348 25.4488 7.30886 25.2524 7.89895L25.2442 7.88209Z" fill="white"/>
<path d="M15.3901 18.4789C15.3901 15.9246 16.5279 13.6486 18.3124 12.1565C17.8786 12.0891 17.4365 12.0722 17.0027 12.0975H12.3041C11.4282 12.0385 10.5523 12.1734 9.73374 12.4937C8.91516 12.814 8.17026 13.3114 7.54814 13.9436C6.92602 14.5843 6.45125 15.3514 6.14019 16.1944C5.82913 17.0374 5.70634 17.9478 5.76364 18.8414V22.4494C5.76364 22.6264 5.83731 22.8034 5.9601 22.9299C6.08289 23.0563 6.25479 23.1322 6.42669 23.1322H16.8144C15.914 21.8087 15.3819 20.207 15.3819 18.4705L15.3901 18.4789Z" fill="white"/>
<path opacity="0.4" d="M4.06649 7.88209C4.26295 8.47218 4.59038 8.99484 5.03241 9.41633C5.47444 9.83782 6.00652 10.1413 6.58771 10.3015C7.09522 10.4448 7.61911 10.4785 8.143 10.3942C8.6587 10.3183 9.15804 10.1244 9.60007 9.83782C9.64918 9.8041 9.68193 9.76195 9.71467 9.71137C9.73923 9.6608 9.7556 9.61022 9.76378 9.55121C9.76378 9.4922 9.76378 9.43319 9.73923 9.38261C9.72285 9.33203 9.69011 9.28145 9.64918 9.2393C8.6014 7.99168 8.0284 6.40687 8.02021 4.76304C8.02021 4.26568 8.06933 3.77675 8.17574 3.29625C8.19212 3.24567 8.2003 3.19509 8.2003 3.14451C8.2003 3.04335 8.15937 2.94219 8.09389 2.86632C8.02021 2.79045 7.93017 2.74831 7.82376 2.73988C7.80738 2.73988 7.64367 2.73145 7.57818 2.73145C6.98062 2.73145 6.39125 2.88318 5.85917 3.1698C5.3271 3.45641 4.86869 3.86948 4.52489 4.37527C4.18109 4.88106 3.96007 5.46272 3.87822 6.0781C3.79636 6.69348 3.86185 7.30886 4.0583 7.89895L4.06649 7.88209Z" fill="white"/>
<path opacity="0.4" d="M5.84493 11.8015C5.90223 11.8015 5.95135 11.8015 6.00046 11.8268C6.04958 11.8437 6.09869 11.8774 6.13143 11.9111C6.16418 11.9448 6.19692 11.9954 6.22148 12.046C6.23785 12.0965 6.25422 12.1556 6.24603 12.2061C6.22966 12.3157 6.18055 12.4253 6.09869 12.5096C4.55977 14.2377 3.733 16.5138 3.78212 18.8489V20.0628C3.78212 20.1555 3.74119 20.2482 3.6757 20.3157C3.61022 20.3831 3.52017 20.4168 3.43013 20.4168H1.44099C1.26909 20.4168 1.09719 20.341 0.9744 20.2145C0.851614 20.0881 0.777942 19.911 0.777942 19.734V17.028C0.728827 16.3283 0.827056 15.6287 1.06444 14.9796C1.30183 14.322 1.67019 13.7319 2.15315 13.2346C2.63611 12.7372 3.20911 12.3579 3.8476 12.1134C4.48609 11.8689 5.16551 11.7594 5.83675 11.8099L5.84493 11.8015Z" fill="white"/>
<path d="M14.6718 9.52575C17.2258 9.52575 19.2968 7.39299 19.2968 4.76287C19.2968 2.13276 17.2258 0 14.6718 0C12.1179 0 10.0469 2.13276 10.0469 4.76287C10.0469 7.39299 12.1179 9.52575 14.6718 9.52575Z" fill="white"/>
<path d="M23.9031 22.1063C23.0578 22.1063 22.2353 21.7847 21.6032 21.2044C20.9712 20.624 20.5599 19.8319 20.4533 18.9614C20.3467 18.0988 20.5523 17.2204 21.0245 16.4911C21.4966 15.7695 22.2125 15.2441 23.0349 15.0245C23.1263 15.001 23.2177 14.9931 23.3091 15.001C23.4005 15.0167 23.4918 15.048 23.568 15.0951C23.6518 15.1422 23.7203 15.2049 23.7736 15.2833C23.8269 15.3617 23.8726 15.448 23.8955 15.5421C23.9183 15.6362 23.9259 15.7303 23.9107 15.8244C23.8955 15.9186 23.865 16.0127 23.8193 16.0911C23.7736 16.1695 23.7051 16.2401 23.6289 16.3028C23.5528 16.3577 23.469 16.3969 23.3776 16.4205C23.0197 16.5146 22.6922 16.7028 22.4333 16.9694C22.1668 17.2361 21.984 17.5733 21.885 17.9341C21.786 18.3027 21.786 18.6869 21.885 19.0555C21.9764 19.4241 22.1668 19.7614 22.4257 20.028C22.6846 20.2946 23.0121 20.4907 23.37 20.5848C23.7279 20.6789 24.1011 20.6789 24.459 20.5848C24.8169 20.4829 25.1368 20.2868 25.3957 20.0202C25.6546 19.7457 25.8374 19.4163 25.9288 19.0477C25.9516 18.9536 25.9897 18.8673 26.043 18.7967C26.0963 18.7183 26.1648 18.6556 26.2486 18.6085C26.3248 18.5615 26.4162 18.5301 26.5075 18.5144C26.5989 18.4987 26.6903 18.5066 26.7817 18.5301C26.8731 18.5536 26.9568 18.5928 27.0254 18.6556C27.1015 18.7105 27.1625 18.7811 27.2081 18.8673C27.2538 18.9457 27.2843 19.0399 27.2995 19.134C27.3148 19.2281 27.2995 19.3222 27.2843 19.4163C27.0939 20.1927 26.6598 20.875 26.043 21.3612C25.4338 21.8475 24.6798 22.1141 23.9031 22.1141V22.1063Z" fill="white"/>
<path opacity="0.4" d="M23.9038 24.984C22.236 24.984 20.6368 24.3017 19.464 23.0861C18.2836 21.8705 17.6211 20.2236 17.6211 18.514C17.6211 16.8043 18.2836 15.1496 19.464 13.9418C20.6444 12.7262 22.2436 12.0439 23.9038 12.0439C24.0561 12.0439 24.2084 12.0518 24.3607 12.0675C24.4521 12.0675 24.5435 12.0988 24.6272 12.1459C24.711 12.193 24.7795 12.2478 24.8405 12.3263C24.9014 12.3969 24.9471 12.4831 24.9699 12.5772C24.9928 12.6713 25.008 12.7655 24.9928 12.8596C24.9775 12.9537 24.9547 13.0478 24.909 13.134C24.8633 13.2203 24.8024 13.2909 24.7262 13.3536C24.6501 13.4164 24.5663 13.4556 24.4749 13.4791C24.3835 13.5026 24.2922 13.5105 24.2008 13.4948C24.1018 13.487 24.0028 13.4791 23.9038 13.4791C22.9366 13.4791 21.9923 13.7771 21.1927 14.3261C20.3855 14.8751 19.761 15.6672 19.3955 16.5847C19.0223 17.5023 18.9309 18.514 19.1137 19.4943C19.3041 20.4667 19.7686 21.3686 20.454 22.0745C21.1394 22.7803 22.0075 23.2587 22.9595 23.4547C23.9038 23.6508 24.8862 23.5488 25.7848 23.1646C26.6758 22.7803 27.4373 22.1372 27.978 21.3137C28.5187 20.4824 28.8005 19.51 28.8005 18.5218C28.8005 18.4199 28.8005 18.3179 28.7852 18.216C28.7624 18.0277 28.8157 17.8395 28.9299 17.6905C29.0442 17.5415 29.2117 17.4474 29.3945 17.4239C29.4858 17.4082 29.5772 17.4239 29.6686 17.4474C29.76 17.4709 29.8438 17.518 29.9123 17.5729C29.9808 17.6278 30.0418 17.7062 30.0875 17.7925C30.1332 17.8787 30.156 17.965 30.1712 18.0591C30.1865 18.216 30.1941 18.3728 30.1941 18.5297C30.1941 20.2472 29.5315 21.8862 28.3512 23.1018C27.1708 24.3174 25.5792 24.9997 23.9114 24.9997L23.9038 24.984Z" fill="white"/>
<path d="M31.2065 14.0675C31.1836 14.0048 31.1379 13.9421 31.077 13.9028C31.0161 13.8636 30.9552 13.8401 30.8866 13.8401H28.4421V11.3227C28.4421 11.2521 28.4193 11.1815 28.3812 11.1188C28.3431 11.056 28.2898 11.0168 28.2213 10.9855C28.1603 10.9619 28.0842 10.9541 28.0156 10.9619C27.9471 10.9776 27.8862 11.009 27.8405 11.0639L26.0509 12.9069C25.792 13.1735 25.6396 13.5421 25.6396 13.9264V15.6988L23.4007 18.0045C23.3322 18.0672 23.2789 18.1535 23.2408 18.2397C23.2027 18.326 23.1875 18.4201 23.1875 18.5142C23.1875 18.6083 23.2027 18.7024 23.2408 18.7965C23.2789 18.8828 23.3246 18.9691 23.3931 19.0318C23.4617 19.1024 23.5378 19.1495 23.6216 19.1887C23.7053 19.2279 23.7967 19.2436 23.8957 19.2436C23.9871 19.2436 24.0785 19.22 24.1623 19.1887C24.246 19.1495 24.3222 19.0946 24.3907 19.024L26.6296 16.7183H28.3507C28.7239 16.7183 29.0742 16.5693 29.3407 16.2948L31.1303 14.4518C31.176 14.4048 31.2141 14.3342 31.2293 14.2714C31.2446 14.2009 31.2293 14.1303 31.2065 14.0675Z" fill="white"/>
</svg>
