<svg width="31" height="31" viewBox="0 0 31 31" fill="none" xmlns="http://www.w3.org/2000/svg">
<path opacity="0.4" d="M9.25135 13.1566V5.34413C9.2058 5.02574 9.23501 4.70112 9.33668 4.39598C9.43836 4.09084 9.6097 3.81357 9.83712 3.58615C10.0646 3.35872 10.3418 3.18738 10.647 3.08571C10.9521 2.98403 11.2767 2.95482 11.5951 3.00038H19.4076C19.726 2.95482 20.0506 2.98403 20.3558 3.08571C20.6609 3.18738 20.9382 3.35872 21.1656 3.58615C21.393 3.81357 21.5643 4.09084 21.666 4.39598C21.7677 4.70112 21.7969 5.02574 21.7514 5.34413V13.1566C21.7969 13.475 21.7677 13.7996 21.666 14.1048C21.5643 14.4099 21.393 14.6872 21.1656 14.9146C20.9382 15.142 20.6609 15.3134 20.3558 15.415C20.0506 15.5167 19.726 15.5459 19.4076 15.5004H11.5951C11.2767 15.5459 10.9521 15.5167 10.647 15.415C10.3418 15.3134 10.0646 15.142 9.83712 14.9146C9.6097 14.6872 9.43836 14.4099 9.33668 14.1048C9.23501 13.7996 9.2058 13.475 9.25135 13.1566Z" fill="white"/>
<path opacity="0.4" d="M3.00135 25.6566V17.8441C2.95579 17.5257 2.98501 17.2011 3.08668 16.896C3.18836 16.5908 3.3597 16.3136 3.58712 16.0861C3.81455 15.8587 4.09182 15.6874 4.39695 15.5857C4.70209 15.484 5.02671 15.4548 5.3451 15.5004H13.1576C13.476 15.4548 13.8006 15.484 14.1058 15.5857C14.4109 15.6874 14.6882 15.8587 14.9156 16.0861C15.143 16.3136 15.3143 16.5908 15.416 16.896C15.5177 17.2011 15.5469 17.5257 15.5014 17.8441V25.6566C15.5469 25.975 15.5177 26.2996 15.416 26.6048C15.3143 26.9099 15.143 27.1872 14.9156 27.4146C14.6882 27.642 14.4109 27.8134 14.1058 27.915C13.8006 28.0167 13.476 28.0459 13.1576 28.0004H5.3451C5.02671 28.0459 4.70209 28.0167 4.39695 27.915C4.09182 27.8134 3.81455 27.642 3.58712 27.4146C3.3597 27.1872 3.18836 26.9099 3.08668 26.6048C2.98501 26.2996 2.95579 25.975 3.00135 25.6566Z" fill="white"/>
<path opacity="0.4" d="M15.5014 25.6566V17.8441C15.4558 17.5257 15.485 17.2011 15.5867 16.896C15.6884 16.5908 15.8597 16.3136 16.0871 16.0861C16.3146 15.8587 16.5918 15.6874 16.897 15.5857C17.2021 15.484 17.5267 15.4548 17.8451 15.5004H25.6576C25.976 15.4548 26.3006 15.484 26.6058 15.5857C26.9109 15.6874 27.1882 15.8587 27.4156 16.0861C27.643 16.3136 27.8143 16.5908 27.916 16.896C28.0177 17.2011 28.0469 17.5257 28.0014 17.8441V25.6566C28.0469 25.975 28.0177 26.2996 27.916 26.6048C27.8143 26.9099 27.643 27.1872 27.4156 27.4146C27.1882 27.642 26.9109 27.8134 26.6058 27.915C26.3006 28.0167 25.976 28.0459 25.6576 28.0004H17.8451C17.5267 28.0459 17.2021 28.0167 16.897 27.915C16.5918 27.8134 16.3146 27.642 16.0871 27.4146C15.8597 27.1872 15.6884 26.9099 15.5867 26.6048C15.485 26.2996 15.4558 25.975 15.5014 25.6566Z" fill="white"/>
<path fill-rule="evenodd" clip-rule="evenodd" d="M13.625 3V8L15.5 6.75L17.375 8V3" fill="white"/>
<path fill-rule="evenodd" clip-rule="evenodd" d="M7.375 15.5V20.5L9.25 19.25L11.125 20.5V15.5" fill="white"/>
<path fill-rule="evenodd" clip-rule="evenodd" d="M19.875 15.5V20.5L21.75 19.25L23.625 20.5V15.5" fill="white"/>
</svg>
