<svg width="30" height="31" viewBox="0 0 30 31" fill="none" xmlns="http://www.w3.org/2000/svg">
<path opacity="0.4" d="M11.85 14.4381C12.1607 14.5681 12.4829 14.6686 12.8125 14.7381V26.6381C12.6104 26.586 12.4137 26.5148 12.225 26.4256L4.725 23.0881C4.06279 22.7933 3.5002 22.3129 3.10531 21.7051C2.71043 21.0972 2.50018 20.3879 2.5 19.6631V11.3381C2.50099 11.0042 2.54725 10.672 2.6375 10.3506L11.85 14.4381Z" fill="white"/>
<path d="M14.8984 12.7127C14.5363 12.8734 14.1446 12.9565 13.7484 12.9565C13.3523 12.9565 12.9605 12.8734 12.5984 12.7127L3.58594 8.70023C3.91121 8.36735 4.29737 8.10002 4.72344 7.91273L12.2234 4.57523C12.7027 4.35893 13.2226 4.24707 13.7484 4.24707C14.2743 4.24707 14.7941 4.35893 15.2734 4.57523L22.7734 7.91273C23.1995 8.10002 23.5857 8.36735 23.9109 8.70023L14.8984 12.7127Z" fill="white"/>
<path opacity="0.4" d="M25 11.3381V14.8256C24.9992 14.8852 24.9843 14.9437 24.9564 14.9964C24.9285 15.049 24.8884 15.0943 24.8396 15.1284C24.7907 15.1625 24.7344 15.1844 24.6753 15.1924C24.6163 15.2004 24.5562 15.1942 24.5 15.1743C23.768 14.9488 23.0029 14.8494 22.2375 14.8806C20.6396 14.947 19.1142 15.5653 17.921 16.6301C16.7279 17.695 15.9407 19.1405 15.6938 20.7206C15.4499 22.3231 15.7859 23.96 16.6412 25.3368C16.6702 25.3818 16.6892 25.4324 16.6969 25.4853C16.7047 25.5382 16.701 25.5922 16.6862 25.6435C16.6715 25.6949 16.6458 25.7425 16.6111 25.7832C16.5764 25.8239 16.5334 25.8567 16.485 25.8793L14.735 26.6681L14.6875 26.6381V14.7381C15.0155 14.6628 15.3373 14.5625 15.65 14.4381L24.8625 10.3506C24.9528 10.672 24.999 11.0042 25 11.3381Z" fill="white"/>
<path d="M28.5088 26.1213L26.5725 24.1838C27.1965 23.2316 27.4452 22.0819 27.2706 20.957C27.096 19.8321 26.5105 18.8119 25.6273 18.0936C24.744 17.3754 23.6259 17.0102 22.489 17.0686C21.3521 17.127 20.2773 17.6049 19.4723 18.4098C18.6674 19.2148 18.1895 20.2896 18.1311 21.4265C18.0727 22.5634 18.4379 23.6815 19.1561 24.5648C19.8744 25.448 20.8946 26.0335 22.0195 26.2081C23.1444 26.3827 24.2941 26.134 25.2463 25.51L27.1838 27.4463C27.3615 27.6119 27.5965 27.702 27.8394 27.6977C28.0823 27.6934 28.314 27.5951 28.4858 27.4233C28.6575 27.2515 28.7559 27.0198 28.7602 26.7769C28.7645 26.534 28.6744 26.299 28.5088 26.1213ZM20.0338 21.68C20.0335 21.1442 20.1922 20.6204 20.4897 20.1748C20.7871 19.7292 21.2101 19.3818 21.705 19.1766C22.2 18.9713 22.7447 18.9175 23.2702 19.0219C23.7957 19.1263 24.2785 19.3842 24.6574 19.7629C25.0364 20.1417 25.2945 20.6244 25.3991 21.1498C25.5037 21.6753 25.4502 22.22 25.2452 22.7151C25.0402 23.2101 24.693 23.6332 24.2475 23.9309C23.8021 24.2286 23.2783 24.3875 22.7425 24.3875C22.0245 24.3868 21.3361 24.1014 20.8283 23.5938C20.3205 23.0863 20.0348 22.398 20.0338 21.68Z" fill="white"/>
</svg>
