<svg width="30" height="31" viewBox="0 0 30 31" fill="none" xmlns="http://www.w3.org/2000/svg">
<path opacity="0.4" d="M20.5757 8.27734V15.7043C20.6188 16.0061 20.591 16.3139 20.4945 16.6031C20.3981 16.8924 20.2356 17.1552 20.02 17.3708C19.8044 17.5864 19.5416 17.7489 19.2523 17.8453C18.9631 17.9418 18.6553 17.9696 18.3535 17.9265H9.46457C9.16272 17.9696 8.85498 17.9418 8.56573 17.8453C8.27647 17.7489 8.01363 17.5864 7.79803 17.3708C7.58242 17.1552 7.41997 16.8924 7.32352 16.6031C7.22707 16.3139 7.19928 16.0061 7.24235 15.7043V8.27734H20.5757Z" fill="white"/>
<path d="M20.5757 6.81614V8.29762H7.24235V6.81614C7.19928 6.51428 7.22707 6.20654 7.32352 5.91729C7.41997 5.62803 7.58242 5.3652 7.79803 5.14959C8.01363 4.93399 8.27647 4.77153 8.56573 4.67508C8.85498 4.57864 9.16272 4.55085 9.46457 4.59391H18.3535C18.6553 4.55085 18.9631 4.57864 19.2523 4.67508C19.5416 4.77153 19.8044 4.93399 20.02 5.14959C20.2356 5.3652 20.3981 5.62803 20.4945 5.91729C20.591 6.20654 20.6188 6.51428 20.5757 6.81614Z" fill="white"/>
<path d="M12.4278 15.7051H10.2056C10.0091 15.7051 9.82072 15.6271 9.6818 15.4882C9.54289 15.3492 9.46484 15.1608 9.46484 14.9644C9.46484 14.7679 9.54289 14.5795 9.6818 14.4406C9.82072 14.3017 10.0091 14.2236 10.2056 14.2236H12.4278C12.6243 14.2236 12.8127 14.3017 12.9516 14.4406C13.0905 14.5795 13.1685 14.7679 13.1685 14.9644C13.1685 15.1608 13.0905 15.3492 12.9516 15.4882C12.8127 15.6271 12.6243 15.7051 12.4278 15.7051Z" fill="white"/>
<path d="M29.0679 8.4746C29.0675 7.86172 28.8596 7.26651 28.4771 6.78334C28.0946 6.30017 27.5594 5.9567 26.9563 5.80737L25.2982 5.40215C25.0638 5.34448 24.8562 5.20994 24.7096 5.02063C24.5645 4.83681 24.4862 4.6102 24.4875 4.37725C24.4875 4.09734 24.6003 3.8289 24.8011 3.63098C25.0019 3.43306 25.2742 3.32187 25.5582 3.32187H26.2796C26.5435 3.32199 26.7982 3.41811 26.9947 3.59182C27.1912 3.76553 27.3158 4.00461 27.3445 4.26324C27.3543 4.37595 27.3868 4.48559 27.4403 4.58569C27.4937 4.68579 27.567 4.77431 27.6557 4.84603C27.7445 4.91775 27.8469 4.97122 27.9569 5.00326C28.067 5.03531 28.1824 5.04529 28.2965 5.03262C28.4105 5.01995 28.5208 4.98487 28.6209 4.92948C28.7209 4.87408 28.8087 4.79948 28.879 4.71008C28.9493 4.62068 29.0007 4.5183 29.0302 4.40898C29.0597 4.29967 29.0667 4.18563 29.0507 4.07362C28.9839 3.48307 28.7245 2.92983 28.3116 2.49694C27.8986 2.06405 27.3544 1.77485 26.7605 1.67277V1.34656C26.7605 1.12204 26.67 0.906713 26.509 0.747952C26.3479 0.589191 26.1295 0.5 25.9017 0.5C25.6739 0.5 25.4555 0.589191 25.2944 0.747952C25.1333 0.906713 25.0429 1.12204 25.0429 1.34656V1.68519C24.4191 1.80234 23.8546 2.12595 23.4428 2.60244C23.031 3.07892 22.7967 3.67973 22.7785 4.30541C22.7603 4.93108 22.9594 5.54412 23.3429 6.04304C23.7264 6.54197 24.2712 6.89686 24.8871 7.04899L26.5441 7.45422C26.7758 7.51171 26.9814 7.64371 27.1285 7.82933C27.2755 8.01496 27.3556 8.24361 27.356 8.47912C27.3542 8.75847 27.2408 9.02588 27.0404 9.22342C26.84 9.42096 26.5687 9.53272 26.2853 9.5345H25.5639C25.2999 9.53438 25.0453 9.43826 24.8488 9.26455C24.6523 9.09084 24.5277 8.85176 24.4989 8.59312C24.4892 8.48041 24.4566 8.37077 24.4032 8.27067C24.3497 8.17058 24.2765 8.08205 24.1877 8.01033C24.099 7.93861 23.9966 7.88515 23.8865 7.8531C23.7765 7.82105 23.661 7.81107 23.547 7.82375C23.4329 7.83642 23.3226 7.87149 23.2226 7.92689C23.1225 7.98229 23.0348 8.05689 22.9644 8.14629C22.8941 8.23569 22.8427 8.33807 22.8132 8.44738C22.7837 8.5567 22.7768 8.67073 22.7927 8.78275C22.8587 9.3669 23.1128 9.91485 23.5177 10.3463C23.9227 10.7777 24.4572 11.07 25.0429 11.1802V11.5053C25.0429 11.7298 25.1333 11.9451 25.2944 12.1039C25.4555 12.2627 25.6739 12.3519 25.9017 12.3519C26.1295 12.3519 26.3479 12.2627 26.509 12.1039C26.67 11.9451 26.7605 11.7298 26.7605 11.5053V11.1768C27.4076 11.0679 27.9947 10.7369 28.418 10.2423C28.8413 9.74781 29.0736 9.12165 29.0736 8.4746H29.0679Z" fill="white"/>
<path d="M5.37023 30.5002H2.40726C2.01435 30.5002 1.63753 30.3441 1.3597 30.0663C1.08187 29.7885 0.925781 29.4116 0.925781 29.0187V23.0928C0.925781 22.6999 1.08187 22.3231 1.3597 22.0452C1.63753 21.7674 2.01435 21.6113 2.40726 21.6113H5.37023C5.76314 21.6113 6.13996 21.7674 6.41779 22.0452C6.69562 22.3231 6.85171 22.6999 6.85171 23.0928V29.0187C6.85171 29.4116 6.69562 29.7885 6.41779 30.0663C6.13996 30.3441 5.76314 30.5002 5.37023 30.5002Z" fill="white"/>
<path opacity="0.4" d="M29.0728 23.6261C29.0738 23.9222 29.0077 24.2147 28.8794 24.4816C28.7511 24.7485 28.5639 24.9828 28.332 25.1669L23.295 29.1965C22.2451 30.0405 20.9384 30.5005 19.5913 30.5002H11.295C10.5099 30.4979 9.75761 30.185 9.20245 29.6298C8.6473 29.0746 8.33438 28.3224 8.33203 27.5373V24.5743C8.33438 23.7892 8.6473 23.0369 9.20245 22.4818C9.75761 21.9266 10.5099 21.6137 11.295 21.6113H18.8802C19.3222 21.6113 19.7461 21.7869 20.0587 22.0995C20.3713 22.412 20.5468 22.836 20.5468 23.278C20.5468 23.72 20.3713 24.1439 20.0587 24.4565C19.7461 24.7691 19.3222 24.9447 18.8802 24.9447H14.258C13.9633 24.9447 13.6807 25.0617 13.4723 25.2701C13.2639 25.4785 13.1468 25.7611 13.1468 26.0558C13.1468 26.3505 13.2639 26.6331 13.4723 26.8414C13.6807 27.0498 13.9633 27.1669 14.258 27.1669H18.8802C19.7974 27.1656 20.6848 26.8411 21.3865 26.2505C22.0883 25.6598 22.5594 24.8408 22.7172 23.9373L26.0802 21.9224C26.3843 21.739 26.7325 21.6417 27.0876 21.641C27.6141 21.641 28.119 21.8501 28.4913 22.2224C28.8636 22.5947 29.0728 23.0996 29.0728 23.6261Z" fill="white"/>
</svg>
