<svg width="31" height="31" viewBox="0 0 31 31" fill="none" xmlns="http://www.w3.org/2000/svg">
<path d="M26.95 21.2929C27.0848 20.6539 27.0359 19.9898 26.8089 19.3775C26.582 18.7651 26.1862 18.2296 25.6675 17.8329C25.3493 17.586 24.9895 17.398 24.605 17.2779L23.4275 16.9166C23.1527 16.8323 22.864 16.8029 22.5779 16.8302C22.2917 16.8575 22.0138 16.9409 21.7599 17.0757C21.506 17.2105 21.2812 17.394 21.0982 17.6157C20.9153 17.8374 20.7779 18.093 20.6938 18.3679L18.8388 24.4354C18.7543 24.7101 18.7248 24.9988 18.752 25.2849C18.7792 25.571 18.8627 25.8489 18.9975 26.1027C19.1323 26.3566 19.3158 26.5813 19.5376 26.7641C19.7594 26.9468 20.0151 27.0841 20.29 27.1679L21.4975 27.5429C21.8214 27.6431 22.1585 27.6941 22.4975 27.6941C23.2324 27.6931 23.9477 27.4572 24.5391 27.021C25.1305 26.5848 25.5671 25.9709 25.785 25.2691L26.3738 23.3616C26.5113 22.9466 26.6238 22.5154 26.74 22.0866C26.7763 21.9529 26.82 21.8229 26.8538 21.6879C26.8775 21.5979 26.9088 21.5116 26.9313 21.4216C26.9425 21.3754 26.9413 21.3341 26.95 21.2929Z" fill="white"/>
<path d="M4.05085 21.292C4.0596 21.3333 4.05835 21.3733 4.06835 21.417C4.09085 21.5083 4.1221 21.592 4.1446 21.682C4.17835 21.8145 4.22085 21.9383 4.25585 22.0683C4.38085 22.5008 4.48835 22.9433 4.62335 23.3483L5.2146 25.2645C5.43294 25.9657 5.86946 26.5788 6.46057 27.0145C7.05168 27.4503 7.76649 27.6859 8.50085 27.687C8.83988 27.687 9.17697 27.636 9.50085 27.5358L10.7071 27.1608C10.9821 27.0772 11.2379 26.9402 11.4598 26.7576C11.6817 26.575 11.8654 26.3504 12.0004 26.0967C12.1353 25.8429 12.2188 25.565 12.2461 25.279C12.2735 24.9929 12.2441 24.7042 12.1596 24.4295L10.3071 18.3658C10.2229 18.091 10.0853 17.8355 9.90236 17.6139C9.71938 17.3924 9.49453 17.209 9.24065 17.0743C8.98678 16.9397 8.70886 16.8564 8.42278 16.8292C8.1367 16.802 7.84806 16.8314 7.57335 16.9158L6.39585 17.2758C6.01164 17.3964 5.65189 17.5844 5.33335 17.8308C4.81477 18.2279 4.41915 18.7637 4.1922 19.3762C3.96525 19.9886 3.91625 20.6528 4.05085 21.292Z" fill="white"/>
<path opacity="0.4" d="M26.95 21.2925C27.4259 19.398 27.6735 17.4533 27.6875 15.5C27.6875 12.2677 26.4035 9.16774 24.1179 6.88214C21.8323 4.59654 18.7323 3.3125 15.5 3.3125C12.2677 3.3125 9.16774 4.59654 6.88214 6.88214C4.59654 9.16774 3.3125 12.2677 3.3125 15.5C3.32654 17.4533 3.57413 19.398 4.05 21.2925C3.9154 20.6533 3.9644 19.9891 4.19135 19.3766C4.4183 18.7642 4.81392 18.2284 5.3325 17.8312C5.24143 17.0574 5.19302 16.2792 5.1875 15.5C5.1875 12.765 6.27399 10.1419 8.20796 8.20796C10.1419 6.27399 12.765 5.1875 15.5 5.1875C18.235 5.1875 20.8581 6.27399 22.792 8.20796C24.726 10.1419 25.8125 12.765 25.8125 15.5C25.807 16.2796 25.7586 17.0582 25.6675 17.8325C26.1862 18.2292 26.582 18.7648 26.8089 19.3771C27.0359 19.9894 27.0848 20.6535 26.95 21.2925Z" fill="white"/>
</svg>
