<svg width="30" height="31" viewBox="0 0 30 31" fill="none" xmlns="http://www.w3.org/2000/svg">
<path opacity="0.4" fill-rule="evenodd" clip-rule="evenodd" d="M24.4062 14.1494L23.4688 23.3744C23.4898 23.8534 23.4052 24.3311 23.2207 24.7736C23.0363 25.2161 22.7566 25.6126 22.4016 25.9348C22.0466 26.257 21.6249 26.497 21.1666 26.6378C20.7084 26.7786 20.2247 26.8167 19.75 26.7494H10.2813C7.48125 26.7494 6.74375 25.2869 6.54375 23.3744L5.59375 14.1619C5.80058 14.2233 6.01554 14.2528 6.23125 14.2494H23.7313C23.9599 14.2487 24.1872 14.215 24.4062 14.1494Z" fill="white"/>
<path d="M23.75 9.24981H21.5963L18.3288 3.76981C18.2657 3.66402 18.1825 3.57167 18.0837 3.49805C17.985 3.42443 17.8728 3.37098 17.7534 3.34074C17.634 3.3105 17.5098 3.30408 17.388 3.32183C17.2661 3.33958 17.1489 3.38116 17.0431 3.44419C16.9373 3.50722 16.845 3.59048 16.7714 3.6892C16.6977 3.78793 16.6443 3.90018 16.6141 4.01956C16.5838 4.13894 16.5774 4.26311 16.5951 4.38498C16.6129 4.50684 16.6545 4.62402 16.7175 4.72982L19.4125 9.24981H10.5988L13.325 4.73482C13.3928 4.62944 13.4388 4.51154 13.4602 4.38808C13.4817 4.26463 13.4782 4.13813 13.4499 4.01605C13.4217 3.89397 13.3692 3.7788 13.2957 3.67735C13.2221 3.57589 13.129 3.4902 13.0218 3.42535C12.9146 3.36051 12.7954 3.31781 12.6714 3.29979C12.5474 3.28176 12.4211 3.28878 12.2998 3.32043C12.1786 3.35208 12.0649 3.40771 11.9655 3.48403C11.8662 3.56036 11.7831 3.65584 11.7212 3.76481L8.41 9.24981H6.25C5.58696 9.24981 4.95107 9.51321 4.48223 9.98205C4.01339 10.4509 3.75 11.0868 3.75 11.7498C3.75 12.4129 4.01339 13.0487 4.48223 13.5176C4.95107 13.9864 5.58696 14.2498 6.25 14.2498H23.75C24.413 14.2498 25.0489 13.9864 25.5178 13.5176C25.9866 13.0487 26.25 12.4129 26.25 11.7498C26.25 11.0868 25.9866 10.4509 25.5178 9.98205C25.0489 9.51321 24.413 9.24981 23.75 9.24981Z" fill="white"/>
<path d="M12.5234 23.3125C12.2748 23.3125 12.0363 23.2137 11.8605 23.0379C11.6847 22.8621 11.5859 22.6236 11.5859 22.375V18.625C11.5859 18.3764 11.6847 18.1379 11.8605 17.9621C12.0363 17.7863 12.2748 17.6875 12.5234 17.6875C12.7721 17.6875 13.0105 17.7863 13.1864 17.9621C13.3622 18.1379 13.4609 18.3764 13.4609 18.625V22.375C13.4609 22.6236 13.3622 22.8621 13.1864 23.0379C13.0105 23.2137 12.7721 23.3125 12.5234 23.3125ZM18.4609 22.375V18.625C18.4609 18.3764 18.3622 18.1379 18.1864 17.9621C18.0105 17.7863 17.7721 17.6875 17.5234 17.6875C17.2748 17.6875 17.0363 17.7863 16.8605 17.9621C16.6847 18.1379 16.5859 18.3764 16.5859 18.625V22.375C16.5859 22.6236 16.6847 22.8621 16.8605 23.0379C17.0363 23.2137 17.2748 23.3125 17.5234 23.3125C17.7721 23.3125 18.0105 23.2137 18.1864 23.0379C18.3622 22.8621 18.4609 22.6236 18.4609 22.375Z" fill="white"/>
</svg>
