<svg width="31" height="31" viewBox="0 0 31 31" fill="none" xmlns="http://www.w3.org/2000/svg">
<path d="M21.75 26.75C23.1307 26.75 24.25 25.6307 24.25 24.25C24.25 22.8693 23.1307 21.75 21.75 21.75C20.3693 21.75 19.25 22.8693 19.25 24.25C19.25 25.6307 20.3693 26.75 21.75 26.75Z" fill="white"/>
<path d="M9.25 26.75C10.6307 26.75 11.75 25.6307 11.75 24.25C11.75 22.8693 10.6307 21.75 9.25 21.75C7.86929 21.75 6.75 22.8693 6.75 24.25C6.75 25.6307 7.86929 26.75 9.25 26.75Z" fill="white"/>
<path opacity="0.4" d="M27.625 16.7C27.6217 16.6145 27.6048 16.5302 27.575 16.45C27.5215 16.2036 27.4505 15.9613 27.3625 15.725L26.0625 12.5125C25.4875 11.0625 24.8875 9.5625 21.7125 9.5625H18.9375V7.375C18.9365 6.62938 18.6399 5.91459 18.1126 5.38736C17.5854 4.86013 16.8706 4.56349 16.125 4.5625H6.125C5.37938 4.56349 4.66459 4.86013 4.13736 5.38736C3.61013 5.91459 3.31349 6.62938 3.3125 7.375V21.125C3.31269 21.5493 3.40961 21.968 3.59588 22.3492C3.78216 22.7304 4.05289 23.0641 4.3875 23.325C4.47052 23.3835 4.56381 23.4259 4.6625 23.45C4.73909 23.4558 4.81537 23.4354 4.87893 23.3923C4.94248 23.3492 4.98956 23.2858 5.0125 23.2125C5.25093 22.2268 5.82514 21.3548 6.63652 20.7464C7.4479 20.138 8.4458 19.8311 9.45884 19.8785C10.4719 19.9258 11.4368 20.3244 12.188 21.0058C12.9391 21.6872 13.4295 22.6088 13.575 23.6125C13.5848 23.7018 13.6273 23.7843 13.6941 23.8443C13.761 23.9042 13.8477 23.9374 13.9375 23.9375H17.0625C17.1523 23.9374 17.239 23.9042 17.3059 23.8443C17.3727 23.7843 17.4152 23.7018 17.425 23.6125C17.5705 22.6088 18.0609 21.6872 18.812 21.0058C19.5632 20.3244 20.5281 19.9258 21.5412 19.8785C22.5542 19.8311 23.5521 20.138 24.3635 20.7464C25.1749 21.3548 25.7491 22.2268 25.9875 23.2125C26.0056 23.2847 26.0486 23.3481 26.1091 23.3916C26.1695 23.4351 26.2433 23.4558 26.3175 23.45C26.426 23.4382 26.5286 23.3947 26.6125 23.325C26.9471 23.0641 27.2178 22.7304 27.4041 22.3492C27.5904 21.968 27.6873 21.5493 27.6875 21.125V17.475C27.6858 17.2155 27.6649 16.9564 27.625 16.7ZM18.9375 15.8125V11.4375H21.7125C23.6125 11.4375 23.7875 11.8875 24.3125 13.2125L25.375 15.8125H18.9375Z" fill="white"/>
<path d="M13.9375 16.75C13.9359 16.9981 13.8366 17.2356 13.6611 17.4111C13.4856 17.5866 13.2481 17.6859 13 17.6875H3.3125V15.8125H13C13.2481 15.8141 13.4856 15.9134 13.6611 16.0889C13.8366 16.2644 13.9359 16.5019 13.9375 16.75Z" fill="white"/>
<path d="M25.375 15.8125H18.9375V11.4375H21.7125C23.6125 11.4375 23.7875 11.8875 24.3125 13.2125L25.375 15.8125Z" fill="white"/>
</svg>
