<svg width="29" height="31" viewBox="0 0 29 31" fill="none" xmlns="http://www.w3.org/2000/svg">
<path opacity="0.2" d="M5.76562 7.49029L22.5595 7.49005L22.6277 3.46495C22.6958 3.06574 22.6518 2.65876 22.4994 2.27622C22.347 1.89367 22.0903 1.54607 21.7496 1.26093C21.4088 0.975794 20.9935 0.760944 20.5363 0.633393C20.0792 0.505841 19.5929 0.469089 19.1159 0.526047L9.34564 0.526286C8.86861 0.469328 8.38228 0.50608 7.92517 0.633632C7.46805 0.761183 7.05268 0.976033 6.71196 1.26117C6.37123 1.54631 6.1145 1.89391 5.96208 2.27645C5.80966 2.659 5.76574 3.06598 5.8338 3.46519L5.76562 7.49029Z" fill="white"/>
<path opacity="0.4" d="M0.844806 29.9174L28.1589 29.9171V11.2556C28.2294 10.7486 28.1839 10.2318 28.0258 9.74597C27.8678 9.26015 27.6015 8.81871 27.2482 8.45659C26.8948 8.09448 26.464 7.82162 25.99 7.65964C25.5159 7.49765 25.0116 7.45098 24.5169 7.52331L4.48681 7.52362C3.9921 7.45128 3.48775 7.49796 3.01368 7.65994C2.53962 7.82193 2.10886 8.09478 1.75551 8.4569C1.40215 8.81901 1.1359 9.26045 0.977834 9.74627C0.819766 10.2321 0.774222 10.7489 0.844806 11.2559V29.9174Z" fill="white"/>
<path d="M27.3174 28.6051H17.1232V25.1307C17.157 24.8733 17.1352 24.6108 17.0593 24.3641C16.9835 24.1175 16.8557 23.8933 16.6862 23.7094C16.5166 23.5256 16.3099 23.387 16.0825 23.3048C15.855 23.2225 15.613 23.1988 15.3756 23.2355H13.628C13.3907 23.1988 13.1486 23.2225 12.9212 23.3048C12.6937 23.387 12.487 23.5256 12.3175 23.7094C12.1479 23.8933 12.0201 24.1175 11.9443 24.3641C11.8684 24.6108 11.8466 24.8733 11.8805 25.1307V28.6051H1.68629C1.45454 28.6051 1.23229 28.705 1.06843 28.8827C0.904559 29.0604 0.8125 29.3014 0.8125 29.5527C0.8125 29.804 0.904559 30.0451 1.06843 30.2228C1.23229 30.4005 1.45454 30.5003 1.68629 30.5003H27.3174C27.5491 30.5003 27.7713 30.4005 27.9352 30.2228C28.0991 30.0451 28.1911 29.804 28.1911 29.5527C28.1911 29.3014 28.0991 29.0604 27.9352 28.8827C27.7713 28.705 27.5491 28.6051 27.3174 28.6051Z" fill="white"/>
<path d="M26.1519 16.2286C26.1519 15.9814 26.0599 15.7443 25.896 15.5695C25.7321 15.3947 25.5099 15.2965 25.2781 15.2965H24.1131C23.8813 15.2965 23.6591 15.3947 23.4952 15.5695C23.3314 15.7443 23.2393 15.9814 23.2393 16.2286C23.2393 16.4757 23.3314 16.7128 23.4952 16.8876C23.6591 17.0624 23.8813 17.1606 24.1131 17.1606H25.2781C25.5099 17.1606 25.7321 17.0624 25.896 16.8876C26.0599 16.7128 26.1519 16.4757 26.1519 16.2286ZM20.3267 16.2286C20.3267 15.9814 20.2346 15.7443 20.0708 15.5695C19.9069 15.3947 19.6846 15.2965 19.4529 15.2965H18.2878C18.0561 15.2965 17.8339 15.3947 17.67 15.5695C17.5061 15.7443 17.4141 15.9814 17.4141 16.2286C17.4141 16.4757 17.5061 16.7128 17.67 16.8876C17.8339 17.0624 18.0561 17.1606 18.2878 17.1606H19.4529C19.6846 17.1606 19.9069 17.0624 20.0708 16.8876C20.2346 16.7128 20.3267 16.4757 20.3267 16.2286ZM26.1519 12.5004C26.1519 12.2532 26.0599 12.0161 25.896 11.8413C25.7321 11.6666 25.5099 11.5684 25.2781 11.5684H24.1131C23.8813 11.5684 23.6591 11.6666 23.4952 11.8413C23.3314 12.0161 23.2393 12.2532 23.2393 12.5004C23.2393 12.7476 23.3314 12.9847 23.4952 13.1594C23.6591 13.3342 23.8813 13.4324 24.1131 13.4324H25.2781C25.5099 13.4324 25.7321 13.3342 25.896 13.1594C26.0599 12.9847 26.1519 12.7476 26.1519 12.5004ZM20.3267 12.5004C20.3267 12.2532 20.2346 12.0161 20.0708 11.8413C19.9069 11.6666 19.6846 11.5684 19.4529 11.5684H18.2878C18.0561 11.5684 17.8339 11.6666 17.67 11.8413C17.5061 12.0161 17.4141 12.2532 17.4141 12.5004C17.4141 12.7476 17.5061 12.9847 17.67 13.1594C17.8339 13.3342 18.0561 13.4324 18.2878 13.4324H19.4529C19.6846 13.4324 19.9069 13.3342 20.0708 13.1594C20.2346 12.9847 20.3267 12.7476 20.3267 12.5004Z" fill="white"/>
<path d="M12.1715 16.2286C12.1715 15.9814 12.0794 15.7443 11.9155 15.5695C11.7517 15.3947 11.5294 15.2965 11.2977 15.2965H10.1326C9.90088 15.2965 9.67863 15.3947 9.51476 15.5695C9.3509 15.7443 9.25884 15.9814 9.25884 16.2286C9.25884 16.4757 9.3509 16.7128 9.51476 16.8876C9.67863 17.0624 9.90088 17.1606 10.1326 17.1606H11.2977C11.5294 17.1606 11.7517 17.0624 11.9155 16.8876C12.0794 16.7128 12.1715 16.4757 12.1715 16.2286ZM6.34622 16.2286C6.34622 15.9814 6.25416 15.7443 6.09029 15.5695C5.92642 15.3947 5.70417 15.2965 5.47243 15.2965H4.30738C4.07564 15.2965 3.85339 15.3947 3.68952 15.5695C3.52565 15.7443 3.43359 15.9814 3.43359 16.2286C3.43359 16.4757 3.52565 16.7128 3.68952 16.8876C3.85339 17.0624 4.07564 17.1606 4.30738 17.1606H5.47243C5.70417 17.1606 5.92642 17.0624 6.09029 16.8876C6.25416 16.7128 6.34622 16.4757 6.34622 16.2286ZM12.1715 12.5004C12.1715 12.2532 12.0794 12.0161 11.9155 11.8413C11.7517 11.6666 11.5294 11.5684 11.2977 11.5684H10.1326C9.90088 11.5684 9.67863 11.6666 9.51476 11.8413C9.3509 12.0161 9.25884 12.2532 9.25884 12.5004C9.25884 12.7476 9.3509 12.9847 9.51476 13.1594C9.67863 13.3342 9.90088 13.4324 10.1326 13.4324H11.2977C11.5294 13.4324 11.7517 13.3342 11.9155 13.1594C12.0794 12.9847 12.1715 12.7476 12.1715 12.5004ZM6.34622 12.5004C6.34622 12.2532 6.25416 12.0161 6.09029 11.8413C5.92642 11.6666 5.70417 11.5684 5.47243 11.5684H4.30738C4.07564 11.5684 3.85339 11.6666 3.68952 11.8413C3.52565 12.0161 3.43359 12.2532 3.43359 12.5004C3.43359 12.7476 3.52565 12.9847 3.68952 13.1594C3.85339 13.3342 4.07564 13.4324 4.30738 13.4324H5.47243C5.70417 13.4324 5.92642 13.3342 6.09029 13.1594C6.25416 12.9847 6.34622 12.7476 6.34622 12.5004Z" fill="white"/>
<path opacity="0.4" d="M2.28263 27.2691V22.3704C2.25406 22.1708 2.27238 21.9672 2.33613 21.7759C2.39988 21.5845 2.50732 21.4107 2.64992 21.2681C2.79253 21.1255 2.96638 21.018 3.15771 20.9543C3.34904 20.8905 3.55259 20.8722 3.75223 20.9008H8.65091C8.85055 20.8722 9.0541 20.8905 9.24543 20.9543C9.43676 21.018 9.61061 21.1255 9.75322 21.2681C9.89582 21.4107 10.0033 21.5845 10.067 21.7759C10.1308 21.9672 10.1491 22.1708 10.1205 22.3704V27.2691C10.1491 27.4687 10.1308 27.6723 10.067 27.8636C10.0033 28.0549 9.89582 28.2288 9.75322 28.3714C9.61061 28.514 9.43676 28.6214 9.24543 28.6852C9.0541 28.7489 8.85055 28.7672 8.65091 28.7387H3.75223C3.55259 28.7672 3.34904 28.7489 3.15771 28.6852C2.96638 28.6214 2.79253 28.514 2.64992 28.3714C2.50732 28.2288 2.39988 28.0549 2.33613 27.8636C2.27238 27.6723 2.25406 27.4687 2.28263 27.2691Z" fill="white"/>
<path fill-rule="evenodd" clip-rule="evenodd" d="M5.05859 20.8877V24.1855L6.20015 23.3611L7.34171 24.1855V20.8877" fill="white"/>
<path opacity="0.4" d="M18.5912 27.2691V22.3704C18.5627 22.1708 18.581 21.9672 18.6447 21.7759C18.7085 21.5845 18.8159 21.4107 18.9585 21.2681C19.1011 21.1255 19.275 21.018 19.4663 20.9543C19.6576 20.8905 19.8612 20.8722 20.0608 20.9008H24.9595C25.1591 20.8722 25.3627 20.8905 25.554 20.9543C25.7454 21.018 25.9192 21.1255 26.0618 21.2681C26.2044 21.4107 26.3118 21.5845 26.3756 21.7759C26.4394 21.9672 26.4577 22.1708 26.4291 22.3704V27.2691C26.4577 27.4687 26.4394 27.6723 26.3756 27.8636C26.3118 28.0549 26.2044 28.2288 26.0618 28.3714C25.9192 28.514 25.7454 28.6214 25.554 28.6852C25.3627 28.7489 25.1591 28.7672 24.9595 28.7387H20.0608C19.8612 28.7672 19.6576 28.7489 19.4663 28.6852C19.275 28.6214 19.1011 28.514 18.9585 28.3714C18.8159 28.2288 18.7085 28.0549 18.6447 27.8636C18.581 27.6723 18.5627 27.4687 18.5912 27.2691Z" fill="white"/>
<path fill-rule="evenodd" clip-rule="evenodd" d="M21.3672 20.8877V24.1855L22.5087 23.3611L23.6503 24.1855V20.8877" fill="white"/>
</svg>
