<svg width="94" height="94" viewBox="0 0 94 94" fill="none" xmlns="http://www.w3.org/2000/svg">
<path d="M74.0412 72.1629C73.7044 72.0034 73.3246 71.9595 72.9604 72.0379C72.5962 72.1163 72.2679 72.3127 72.0263 72.5967C71.0186 73.7816 69.5454 74.4624 67.9915 74.4647C66.4375 74.4633 64.9652 73.7837 63.9568 72.5992C63.7151 72.3152 63.3869 72.1188 63.0227 72.0404C62.6585 71.962 62.2787 72.0059 61.9419 72.1654C58.4626 73.8158 55.8033 76.8157 54.5807 80.4726C54.4857 80.7571 54.4677 81.0617 54.5283 81.3555C54.589 81.6493 54.7263 81.9217 54.9261 82.1451C58.2523 85.8667 63.0027 87.9967 67.989 88C67.9899 88 67.9908 88 67.9916 88C72.9806 87.9964 77.7359 85.8653 81.062 82.1401C81.2615 81.9164 81.3983 81.6439 81.4585 81.3501C81.5188 81.0564 81.5003 80.7519 81.4049 80.4676C80.1808 76.8113 77.5211 73.8118 74.0412 72.1629ZM73.3178 75.7787C75.2262 76.8929 76.6893 78.5446 77.6129 80.5504C74.9958 83.0377 71.6285 84.5992 67.9915 84.6024C64.3553 84.6 60.9902 83.0387 58.3727 80.5529C59.2958 78.5471 60.7572 76.8958 62.6653 75.7812C64.1948 77.0099 65.9972 77.8606 67.989 77.8624C67.9899 77.8624 67.9908 77.8624 67.9916 77.8624C69.9846 77.8603 71.788 77.0089 73.3178 75.7787Z" fill="white"/>
<path d="M67.9924 53C58.3479 53 50.4937 60.8548 50.4937 70.5C50.4937 80.1453 58.3479 88 67.9924 88C77.637 88 85.4937 80.1453 85.4937 70.5C85.4937 60.8548 77.637 53 67.9924 53ZM67.9924 56.3792C75.81 56.3792 82.1122 62.6819 82.1122 70.5C82.1122 78.3181 75.81 84.6183 67.9924 84.6183C60.1749 84.6183 53.8751 78.3181 53.8751 70.5C53.8751 62.6819 60.1749 56.3792 67.9924 56.3792Z" fill="white"/>
<path d="M67.9929 61C63.3186 61 59.4941 64.825 59.4941 69.5C59.4941 74.175 63.3186 78 67.9929 78C72.6673 78 76.4942 74.175 76.4942 69.5C76.4942 64.825 72.6673 61 67.9929 61ZM67.9929 64.311C70.8773 64.311 73.1812 66.6153 73.1812 69.5C73.1812 72.3847 70.8773 74.6866 67.9929 74.6866C65.1086 74.6866 62.8071 72.3847 62.8071 69.5C62.8071 66.6153 65.1086 64.311 67.9929 64.311Z" fill="white"/>
<path d="M31.4979 56.8067C31.2333 56.6814 30.935 56.6469 30.6489 56.7085C30.3628 56.7701 30.105 56.9243 29.9152 57.1474C29.1236 58.0782 27.9664 58.6129 26.7459 58.6147C25.5253 58.6136 24.3688 58.0798 23.5767 57.1494C23.3869 56.9263 23.129 56.7721 22.843 56.7105C22.5569 56.6489 22.2585 56.6834 21.994 56.8086C19.261 58.105 17.1722 60.4614 16.2118 63.3339C16.1372 63.5574 16.123 63.7966 16.1707 64.0274C16.2183 64.2581 16.3262 64.4721 16.4832 64.6476C19.0958 67.5709 22.8272 69.244 26.744 69.2466C26.7446 69.2466 26.7453 69.2466 26.746 69.2466C30.6648 69.2438 34.4001 67.5698 37.0127 64.6437C37.1694 64.468 37.2768 64.2539 37.3241 64.0232C37.3714 63.7924 37.3569 63.5532 37.282 63.3299C36.3205 60.458 34.2313 58.1019 31.4979 56.8067ZM30.9297 59.6468C32.4287 60.522 33.5779 61.8194 34.3034 63.3949C32.2477 65.3487 29.6027 66.5753 26.7459 66.5778C23.8897 66.5759 21.2464 65.3495 19.1904 63.3969C19.9155 61.8214 21.0634 60.5243 22.5622 59.6488C23.7636 60.6139 25.1794 61.2821 26.744 61.2835C26.7446 61.2835 26.7453 61.2835 26.746 61.2835C28.3114 61.2819 29.728 60.6131 30.9297 59.6468Z" fill="white"/>
<path d="M26.7461 41.7539C19.1704 41.7539 13.001 47.9238 13.001 55.5C13.001 63.0763 19.1704 69.2461 26.7461 69.2461C34.3218 69.2461 40.4932 63.0763 40.4932 55.5C40.4932 47.9238 34.3218 41.7539 26.7461 41.7539ZM26.7461 44.4082C32.8867 44.4082 37.8371 49.359 37.8371 55.5C37.8371 61.6411 32.8867 66.5898 26.7461 66.5898C20.6055 66.5898 15.6571 61.6411 15.6571 55.5C15.6571 49.359 20.6055 44.4082 26.7461 44.4082Z" fill="white"/>
<path d="M26.746 48.0381C23.0744 48.0381 20.0703 51.0426 20.0703 54.7148C20.0703 58.3869 23.0744 61.3915 26.746 61.3915C30.4177 61.3915 33.4237 58.3869 33.4237 54.7148C33.4237 51.0426 30.4177 48.0381 26.746 48.0381ZM26.746 50.6388C29.0116 50.6388 30.8214 52.4488 30.8214 54.7148C30.8214 56.9807 29.0116 58.7888 26.746 58.7888C24.4804 58.7888 22.6726 56.9807 22.6726 54.7148C22.6726 52.4488 24.4804 50.6388 26.746 50.6388Z" fill="white"/>
<path d="M63.3194 28.8036C63.1893 28.5922 63.0092 28.4111 62.789 28.2903C62.5689 28.1696 62.3187 28.0991 62.0685 28.0991H53.9522L55.9037 13.6477C55.9437 13.3055 55.8637 12.9634 55.6735 12.6715C55.4834 12.3797 55.2032 12.1683 54.8729 12.0677C54.5427 11.9671 54.1924 11.9771 53.8721 12.108C53.5519 12.2388 53.2917 12.4803 53.1316 12.7822L41.1523 36.5828C41.0423 36.8042 40.9922 37.0558 41.0022 37.3074C41.0122 37.559 41.0923 37.8005 41.2224 38.0219C41.3525 38.2332 41.5326 38.4144 41.7528 38.5351C41.973 38.6559 42.2132 38.7263 42.4634 38.7263H50.5796L48.6281 53.1777C48.5881 53.5199 48.6681 53.8621 48.8583 54.1539C49.0484 54.4458 49.3286 54.6571 49.6589 54.7577C49.9892 54.8584 50.3394 54.8483 50.6597 54.7175C50.9799 54.5867 51.2401 54.3451 51.4002 54.0432L63.3795 30.2527C63.4896 30.0313 63.5496 29.7797 63.5396 29.5281C63.5296 29.2766 63.4495 29.035 63.3194 28.8136V28.8036ZM52.7213 44.8752L53.722 37.4482C53.7521 37.2369 53.732 37.0256 53.672 36.8243C53.6119 36.623 53.5119 36.4318 53.3718 36.2809C53.2317 36.1198 53.0615 35.9991 52.8714 35.9085C52.6812 35.8179 52.4711 35.7777 52.2609 35.7777H44.8552L51.8106 21.9603L50.8098 29.3873C50.7798 29.5986 50.7998 29.8099 50.8598 30.0112C50.9199 30.2125 51.0199 30.4037 51.1601 30.5546C51.3002 30.7157 51.4703 30.8364 51.6604 30.927C51.8506 31.0176 52.0608 31.0578 52.2709 31.0578H59.6766L52.7213 44.8752Z" fill="white"/>
</svg>
