<svg width="79" height="78" viewBox="0 0 79 78" fill="none" xmlns="http://www.w3.org/2000/svg">
<path d="M27.8602 59.7368C27.4725 59.553 27.035 59.5022 26.6155 59.5923C26.196 59.6823 25.8179 59.9082 25.5398 60.2349C24.3807 61.5954 22.6891 62.377 20.9018 62.3797C19.1144 62.3781 17.4209 61.5949 16.261 60.2349C15.9827 59.9093 15.6049 59.6844 15.1861 59.5949C14.7672 59.5054 14.3305 59.5563 13.9435 59.7397C9.9415 61.6346 6.88275 65.079 5.4765 69.2776C5.36687 69.604 5.3456 69.9536 5.41487 70.2909C5.48415 70.6282 5.64151 70.9411 5.87091 71.1979C9.69669 75.4709 15.1636 77.9164 20.899 77.9202C20.8999 77.9202 20.9009 77.9202 20.9019 77.9202C26.6404 77.9161 32.1071 75.4692 35.9329 71.1921C36.1627 70.9356 36.3206 70.6229 36.3903 70.2856C36.4601 69.9483 36.4394 69.5985 36.3301 69.2719C34.9222 65.0739 31.8628 61.63 27.8602 59.7368ZM27.0282 63.8883C29.2236 65.1677 30.9062 67.0635 31.9685 69.3669C28.9582 72.2229 25.0853 74.0155 20.9018 74.0192C16.7194 74.0164 12.8487 72.2239 9.83809 69.3698C10.8999 67.0668 12.5808 65.1709 14.7755 63.8911C16.5348 65.3019 18.608 66.2786 20.899 66.2807C20.8999 66.2807 20.9009 66.2807 20.9019 66.2807C23.1943 66.2783 25.2686 65.3007 27.0282 63.8883Z" fill="white"/>
<path d="M20.899 37.5459C9.77276 37.5459 0.711914 46.6068 0.711914 57.733C0.711914 68.8593 9.77276 77.9201 20.899 77.9201C32.0253 77.9201 41.089 68.8593 41.089 57.733C41.089 46.6068 32.0253 37.5459 20.899 37.5459ZM20.899 41.444C29.9176 41.444 37.188 48.7145 37.188 57.733C37.188 66.7515 29.9176 74.0192 20.899 74.0192C11.8805 74.0192 4.61287 66.7515 4.61287 57.733C4.61287 48.7145 11.8805 41.444 20.899 41.444Z" fill="white"/>
<path d="M20.8988 46.2637C15.3948 46.2637 10.8916 50.7698 10.8916 56.2737C10.8916 61.7777 15.3948 66.2809 20.8988 66.2809C26.4027 66.2809 30.906 61.7777 30.906 56.2737C30.906 50.7698 26.4027 46.2637 20.8988 46.2637ZM20.8988 50.1646C24.295 50.1646 27.0079 52.8775 27.0079 56.2737C27.0079 59.67 24.295 62.38 20.8988 62.38C17.5025 62.38 14.7926 59.67 14.7926 56.2737C14.7926 52.8775 17.5025 50.1646 20.8988 50.1646Z" fill="white"/>
<path d="M65.0591 22.6909C64.6718 22.5078 64.2349 22.4574 63.816 22.5474C63.3971 22.6375 63.0195 22.8629 62.7416 23.189C61.5825 24.5495 59.888 25.3311 58.1008 25.3338C56.3133 25.3322 54.6199 24.5518 53.4599 23.1919C53.182 22.8658 52.8044 22.6403 52.3855 22.5503C51.9666 22.4603 51.5297 22.5107 51.1424 22.6938C47.1404 24.5887 44.0817 28.0331 42.6754 32.2317C42.5662 32.5584 42.5454 32.9081 42.6151 33.2454C42.6849 33.5827 42.8428 33.8955 43.0727 34.152C46.8985 38.425 52.3625 40.8706 58.0979 40.8743C58.0989 40.8743 58.0999 40.8743 58.1009 40.8743C63.8393 40.8702 69.3089 38.4233 73.1347 34.1462C73.3641 33.8895 73.5214 33.5765 73.5907 33.2393C73.66 32.902 73.6387 32.5524 73.5291 32.226C72.1211 28.028 69.0618 24.5841 65.0591 22.6909ZM64.2271 26.8424C66.4222 28.1217 68.1051 30.0181 69.1674 32.321C66.1572 35.1768 62.284 36.9696 58.1008 36.9734C53.9183 36.9705 50.0477 35.178 47.037 32.3239C48.0988 30.0209 49.7797 28.125 51.9744 26.8452C53.7337 28.256 55.8069 29.2327 58.0979 29.2348C58.0989 29.2348 58.0999 29.2348 58.1009 29.2348C60.3932 29.2324 62.4675 28.2549 64.2271 26.8424Z" fill="white"/>
<path d="M58.0977 0.5C46.9715 0.5 37.9106 9.56085 37.9106 20.6871C37.9106 31.8134 46.9715 40.8742 58.0977 40.8742C69.224 40.8742 78.2877 31.8134 78.2877 20.6871C78.2877 9.56085 69.224 0.5 58.0977 0.5ZM58.0977 4.39808C67.1163 4.39808 74.3868 11.6686 74.3868 20.6871C74.3868 29.7056 67.1163 36.9733 58.0977 36.9733C49.0792 36.9733 41.8116 29.7056 41.8116 20.6871C41.8116 11.6686 49.0792 4.39808 58.0977 4.39808Z" fill="white"/>
<path d="M58.098 9.2207C52.594 9.2207 48.0908 13.7239 48.0908 19.2279C48.0908 24.7318 52.594 29.2351 58.098 29.2351C63.602 29.2351 68.1081 24.7318 68.1081 19.2279C68.1081 13.7239 63.602 9.2207 58.098 9.2207ZM58.098 13.1188C61.4943 13.1188 64.2071 15.8316 64.2071 19.2279C64.2071 22.6241 61.4943 25.3341 58.098 25.3341C54.7018 25.3341 51.9918 22.6241 51.9918 19.2279C51.9918 15.8316 54.7018 13.1188 58.098 13.1188Z" fill="white"/>
<path d="M65.3119 48.0538C64.7967 48.0183 64.2885 48.1886 63.8987 48.5274C63.5089 48.8662 63.2694 49.3457 63.2328 49.8609C62.562 59.4631 58.625 62.1975 54.7603 63.2304C50.8957 64.2633 46.9912 63.1241 46.9912 63.1241C46.7465 63.0486 46.4893 63.022 46.2343 63.046C45.9793 63.0699 45.7315 63.1438 45.5051 63.2635C45.2786 63.3832 45.0781 63.5463 44.9147 63.7436C44.7513 63.9408 44.6283 64.1683 44.5529 64.413C44.4774 64.658 44.451 64.9154 44.475 65.1706C44.4991 65.4258 44.5733 65.6737 44.6933 65.9002C44.8132 66.1267 44.9767 66.3273 45.1742 66.4906C45.3718 66.6538 45.5997 66.7766 45.8447 66.8517C45.8447 66.8517 50.6072 68.3779 55.7674 66.9987C60.9276 65.6196 66.3725 60.8599 67.1218 50.1332C67.1574 49.6175 66.9866 49.1087 66.6472 48.7188C66.3079 48.3289 65.8276 48.0897 65.3119 48.0538Z" fill="white"/>
<path d="M66.682 44.9457C66.3472 44.6329 65.913 44.4479 65.4554 44.4233C64.9978 44.3986 64.5462 44.5359 64.1797 44.811L58.6001 48.9876C58.3949 49.1411 58.2219 49.3335 58.0911 49.5539C57.9604 49.7743 57.8742 50.0183 57.8378 50.272C57.8014 50.5257 57.8154 50.784 57.8789 51.0323C57.9424 51.2806 58.0542 51.5139 58.208 51.7189C58.518 52.1325 58.9795 52.4061 59.4911 52.4796C60.0027 52.553 60.5226 52.4204 60.9365 52.1107L65.2104 48.9122L69.0475 52.5014C69.2345 52.6764 69.4541 52.8129 69.6939 52.903C69.9336 52.9931 70.1888 53.0351 70.4447 53.0265C70.7007 53.018 70.9525 52.9592 71.1857 52.8533C71.4189 52.7475 71.629 52.5967 71.8039 52.4097C71.9789 52.2227 72.1153 52.003 72.2054 51.7633C72.2955 51.5236 72.3376 51.2684 72.3291 51.0125C72.3205 50.7565 72.2617 50.5047 72.1558 50.2715C72.05 50.0383 71.8992 49.8282 71.7122 49.6532L66.682 44.9457Z" fill="white"/>
<path d="M13.5768 30.6171C14.092 30.6526 14.6002 30.4823 14.99 30.1435C15.3797 29.8047 15.6192 29.3252 15.6559 28.81C16.3266 19.2078 20.2637 16.4734 24.1284 15.4405C27.993 14.4076 31.8974 15.5468 31.8974 15.5468C32.1422 15.6223 32.3994 15.6489 32.6544 15.6249C32.9094 15.601 33.1572 15.5271 33.3836 15.4074C33.61 15.2877 33.8106 15.1246 33.974 14.9273C34.1374 14.7301 34.2603 14.5026 34.3358 14.2579C34.4113 14.0129 34.4377 13.7555 34.4136 13.5003C34.3895 13.2451 34.3154 12.9972 34.1954 12.7707C34.0754 12.5442 33.912 12.3436 33.7144 12.1803C33.5168 12.0171 33.289 11.8943 33.044 11.8192C33.044 11.8192 28.2815 10.293 23.1213 11.6722C17.9611 13.0513 12.5162 17.811 11.7669 28.5377C11.7313 29.0534 11.902 29.5622 12.2414 29.9521C12.5808 30.342 13.0611 30.5812 13.5768 30.6171Z" fill="white"/>
<path d="M12.2066 33.7252C12.5414 34.038 12.9757 34.223 13.4333 34.2476C13.8908 34.2723 14.3425 34.135 14.7089 33.8599L20.2886 29.6833C20.4938 29.5298 20.6667 29.3374 20.7975 29.117C20.9283 28.8966 21.0144 28.6526 21.0509 28.3989C21.0873 28.1452 21.0733 27.8869 21.0098 27.6386C20.9463 27.3903 20.8344 27.157 20.6807 26.952C20.3707 26.5384 19.9092 26.2648 19.3976 26.1913C18.8859 26.1179 18.366 26.2505 17.9522 26.5602L13.6782 29.7587L9.8412 26.1695C9.6542 25.9945 9.43455 25.858 9.19481 25.7679C8.95507 25.6778 8.69991 25.6358 8.44394 25.6443C8.18797 25.6529 7.93622 25.7117 7.703 25.8176C7.46978 25.9234 7.25969 26.0742 7.08473 26.2612C6.90974 26.4482 6.77335 26.6679 6.68326 26.9076C6.59316 27.1473 6.5511 27.4025 6.55962 27.6584C6.56814 27.9144 6.62699 28.1662 6.73283 28.3994C6.83867 28.6326 6.98944 28.8427 7.17648 29.0177L12.2066 33.7252Z" fill="white"/>
</svg>
