<svg width="52" height="48" viewBox="0 0 52 48" fill="none" xmlns="http://www.w3.org/2000/svg">
<g opacity="0.5">
<path opacity="0.4" d="M18.9737 21.2224C19.6041 21.4863 20.2581 21.6901 20.9268 21.8312V45.9794C20.5167 45.8737 20.1175 45.7293 19.7346 45.5482L4.51512 38.7755C3.17131 38.1774 2.02967 37.2025 1.22834 35.969C0.427015 34.7355 0.000357863 33.2962 0 31.8253V14.9316C0.00201663 14.2541 0.0958794 13.58 0.279024 12.9277L18.9737 21.2224Z" fill="white"/>
<path d="M25.1631 17.7221C24.4283 18.0482 23.6334 18.2166 22.8295 18.2166C22.0256 18.2166 21.2306 18.0482 20.4958 17.7221L2.20703 9.57963C2.8671 8.90413 3.65071 8.36163 4.51532 7.98158L19.7348 1.2089C20.7075 0.769968 21.7624 0.542969 22.8295 0.542969C23.8966 0.542969 24.9515 0.769968 25.9241 1.2089L41.1436 7.98158C42.0082 8.36163 42.7918 8.90413 43.4519 9.57963L25.1631 17.7221Z" fill="white"/>
<path opacity="0.4" d="M45.6588 14.9316V22.0087C45.6572 22.1296 45.6269 22.2484 45.5703 22.3553C45.5136 22.4621 45.4324 22.554 45.3332 22.6231C45.234 22.6923 45.1198 22.7369 44.9999 22.7531C44.8801 22.7693 44.7581 22.7567 44.6441 22.7164C43.1586 22.2586 41.6061 22.0571 40.0529 22.1203C36.8104 22.2551 33.7149 23.5097 31.2936 25.6706C28.8724 27.8315 27.2751 30.7649 26.7739 33.9712C26.2791 37.2231 26.9609 40.5448 28.6966 43.3389C28.7553 43.4301 28.7938 43.5328 28.8096 43.6402C28.8253 43.7475 28.818 43.857 28.7879 43.9613C28.7579 44.0655 28.7059 44.1621 28.6355 44.2447C28.5651 44.3272 28.4778 44.3937 28.3795 44.4397L24.8283 46.0403L24.7319 45.9794V21.8312C25.3976 21.6784 26.0505 21.4748 26.6851 21.2224L45.3797 12.9277C45.5629 13.58 45.6567 14.2541 45.6588 14.9316Z" fill="white"/>
<path fill-rule="evenodd" clip-rule="evenodd" d="M51.9998 36.3788C51.9998 42.5078 47.0313 47.4764 40.9022 47.4764C34.7732 47.4764 29.8047 42.5078 29.8047 36.3788C29.8047 30.2498 34.7732 25.2812 40.9022 25.2812C47.0313 25.2812 51.9998 30.2498 51.9998 36.3788ZM43.5841 36.8257C43.9834 37.3374 44.2003 37.9679 44.2003 38.6169V38.6147C44.201 39.3128 43.9494 39.9876 43.4917 40.5148C43.0341 41.042 42.4013 41.386 41.7101 41.4834V41.9273C41.7101 42.1481 41.6224 42.3598 41.4663 42.5159C41.3102 42.672 41.0985 42.7597 40.8777 42.7597C40.657 42.7597 40.4453 42.672 40.2892 42.5159C40.1331 42.3598 40.0454 42.1481 40.0454 41.9273V41.4834C39.4184 41.3818 38.8419 41.0775 38.4042 40.6171C37.9665 40.1568 37.6916 39.5657 37.6217 38.9343C37.606 38.824 37.6126 38.7117 37.6411 38.604C37.6696 38.4964 37.7194 38.3955 37.7876 38.3074C37.8558 38.2193 37.941 38.1458 38.0381 38.0913C38.1352 38.0367 38.2423 38.0022 38.353 37.9898C38.4637 37.9774 38.5758 37.9873 38.6826 38.019C38.7894 38.0507 38.8887 38.1035 38.9747 38.1743C39.0607 38.2451 39.1316 38.3325 39.1832 38.4312C39.2349 38.5299 39.2662 38.638 39.2752 38.749C39.3093 39.0538 39.4544 39.3354 39.6828 39.5401C39.9113 39.7448 40.207 39.8582 40.5137 39.8588H41.2906C41.5943 39.8582 41.8874 39.7466 42.1147 39.5451C42.342 39.3437 42.488 39.0661 42.525 38.7646C42.5621 38.4631 42.4878 38.1585 42.316 37.9079C42.1443 37.6574 41.887 37.4782 41.5924 37.404L39.8079 36.9601C39.159 36.798 38.5859 36.417 38.1853 35.8814C37.7847 35.3458 37.5812 34.6883 37.6091 34.0201C37.6371 33.3518 37.8947 32.7137 38.3385 32.2133C38.7824 31.713 39.3853 31.3811 40.0454 31.2737V30.8298C40.0454 30.609 40.1331 30.3973 40.2892 30.2412C40.4453 30.0852 40.657 29.9975 40.8777 29.9975C41.0985 29.9975 41.3102 30.0852 41.4663 30.2412C41.6224 30.3973 41.7101 30.609 41.7101 30.8298V31.267C42.3466 31.3587 42.9348 31.659 43.3823 32.1209C43.8298 32.5829 44.1112 33.1803 44.1826 33.8195C44.1983 33.9297 44.1917 34.0421 44.1632 34.1498C44.1347 34.2574 44.0849 34.3583 44.0167 34.4464C43.9485 34.5345 43.8633 34.608 43.7662 34.6625C43.6691 34.7171 43.562 34.7516 43.4513 34.764C43.3406 34.7764 43.2285 34.7665 43.1217 34.7348C43.0149 34.7031 42.9156 34.6502 42.8296 34.5794C42.7436 34.5086 42.6727 34.4213 42.6211 34.3226C42.5694 34.2239 42.5381 34.1158 42.5291 34.0048C42.495 33.7 42.3499 33.4184 42.1215 33.2137C41.893 33.009 41.5973 32.8956 41.2906 32.895H40.5137C40.1838 32.8953 39.8674 33.0265 39.634 33.2597C39.4006 33.4929 39.2692 33.8091 39.2686 34.1391C39.2666 34.4144 39.3577 34.6823 39.5272 34.8993C39.6981 35.1221 39.9394 35.2806 40.2119 35.3487L41.9964 35.7926C42.626 35.9504 43.1848 36.314 43.5841 36.8257Z" fill="white"/>
</g>
</svg>
