<svg width="46" height="64" viewBox="0 0 46 64" fill="none" xmlns="http://www.w3.org/2000/svg">
<path fill-rule="evenodd" clip-rule="evenodd" d="M10.6073 39.5957H16.4984V45.6401C16.4984 47.9259 19.1247 49.1868 20.8672 47.7379L22.999 45.9652L25.1309 47.7379C26.8734 49.1868 29.4997 47.9259 29.4997 45.6401V39.5957H35.3908C36.2257 39.5957 36.9092 40.289 36.9092 41.136V45.6071C33.8197 46.0579 31.43 48.7678 31.43 52.0224C31.43 55.277 33.8185 57.9868 36.9092 58.4376V62.4592C36.9092 63.3062 36.2257 63.9995 35.3908 63.9995H10.6073C9.77236 63.9995 9.08887 63.3062 9.08887 62.4592V58.4376C12.1783 57.9868 14.5681 55.277 14.5681 52.0224C14.5681 48.7678 12.1796 46.0579 9.08887 45.6071V41.136C9.08887 40.289 9.77236 39.5957 10.6073 39.5957Z" fill="white"/>
<path fill-rule="evenodd" clip-rule="evenodd" d="M34.7814 19.3257C33.5208 24.7416 28.7239 28.7733 22.9993 28.7733C17.2748 28.7733 12.4791 24.7428 11.2185 19.3257C11.6065 19.2254 11.9859 19.0628 12.3401 18.8343C15.5498 16.7594 19.1951 15.6813 22.9993 15.6813C26.8036 15.6813 30.4501 16.7594 33.6585 18.8343C34.014 19.0641 34.3921 19.2267 34.7802 19.3257H34.7814ZM0.782099 49.8806C0.61686 51.5543 0.600586 53.0412 0.600586 54.7111C0.600586 55.6812 1.38047 56.4736 2.33811 56.4736H8.17783C10.5976 56.4736 12.5642 54.4622 12.5642 52.0228C12.5642 49.5835 10.5901 47.5733 8.17783 47.5733H7.08624V41.1378C7.08624 39.1733 8.67104 37.5657 10.6076 37.5657H35.3923C37.3289 37.5657 38.9137 39.1733 38.9137 41.1378V47.5733H37.8221C35.4098 47.5733 33.4345 49.5759 33.4345 52.0228C33.4345 54.4698 35.4011 56.4724 37.8208 56.4724H43.6605C44.6169 56.4724 45.3981 55.68 45.3981 54.7098C45.3981 53.0743 45.4231 51.5136 45.2166 49.8806C43.7306 38.579 34.2707 30.0419 22.9981 30.0419C11.7255 30.0419 2.35814 38.5549 0.782099 49.8806ZM18.5016 39.5962H27.4984V45.6406C27.4984 46.2159 26.8411 46.532 26.4018 46.1663L23.4249 43.6914C23.1746 43.4832 22.8241 43.4832 22.5737 43.6914L19.5969 46.1663C19.1588 46.5308 18.5003 46.2159 18.5003 45.6406V39.5962H18.5016ZM21.0603 0H24.9396C31.0335 0 36.027 5.01841 36.1046 11.1822C32.0812 8.97396 27.5772 7.80698 23.0006 7.80698C18.4239 7.80698 13.9199 8.97269 9.89657 11.1822C9.97293 5.01841 14.9664 0 21.0603 0Z" fill="white" fill-opacity="0.4"/>
<path fill-rule="evenodd" clip-rule="evenodd" d="M11.2631 17.1198C14.7944 14.8367 18.8128 13.6481 22.9988 13.6481C27.1849 13.6481 31.2032 14.8367 34.7346 17.1198C35.6059 17.6824 36.7613 17.4233 37.3158 16.5395C37.8704 15.6557 37.615 14.4837 36.7438 13.9211C32.6328 11.2633 27.8747 9.83984 22.9976 9.83984C18.1205 9.83984 13.3624 11.2633 9.25139 13.9211C8.38013 14.4837 8.12476 15.657 8.67932 16.5395C9.23387 17.4233 10.3905 17.6824 11.2606 17.1198H11.2631Z" fill="white"/>
<path fill-rule="evenodd" clip-rule="evenodd" d="M14.7014 58.6963H22.8845C23.1599 58.6963 23.3853 58.8728 23.3853 59.0899V61.2728C23.3853 61.4887 23.1599 61.6664 22.8845 61.6664H14.7014C14.426 61.6664 14.2007 61.4899 14.2007 61.2728V59.0899C14.2007 58.8741 14.426 58.6963 14.7014 58.6963Z" fill="#6D7F91"/>
</svg>
