<svg width="42" height="60" viewBox="0 0 42 60" fill="none" xmlns="http://www.w3.org/2000/svg">
<g opacity="0.5">
<g clip-path="url(#clip0_394_63293)">
<path opacity="0.4" d="M41.1556 42.4936H28.1847V31.3789H25.8053V42.4936H12.8344C12.7525 43.085 12.7116 43.6764 12.707 44.2724V55.196C12.616 55.8421 12.6752 56.5017 12.8799 57.1205C13.0846 57.7392 13.4349 58.3034 13.899 58.7674C14.3631 59.2315 14.9227 59.5773 15.546 59.7866C16.1647 59.9913 16.8244 60.055 17.4704 59.9594H36.5241C37.1702 60.0504 37.8299 59.9913 38.4486 59.7866C39.0673 59.5818 39.6315 59.2315 40.0955 58.7674C40.5596 58.3034 40.9054 57.7438 41.1147 57.1205C41.3239 56.4972 41.3831 55.8421 41.2875 55.196V44.2724C41.2875 43.6764 41.242 43.085 41.1602 42.4936H41.1556Z" fill="white"/>
<path d="M19.4679 31.3838H25.801V42.4984H12.8301C12.912 41.9206 13.0348 41.3474 13.194 40.7832L14.891 34.846C15.4779 32.7987 15.8738 31.3838 19.4634 31.3838H19.4679Z" fill="white"/>
<path d="M41.1555 42.4936H28.1846V31.3789H34.5176C38.1072 31.3789 38.503 32.7938 39.0899 34.8411L40.7869 40.7784C40.9462 41.3425 41.069 41.9158 41.1509 42.4936H41.1555Z" fill="white"/>
<path d="M23.8172 54.8H19.0538C18.7399 54.8 18.4351 54.6726 18.2121 54.4497C17.9892 54.2268 17.8618 53.9219 17.8618 53.608C17.8618 53.2941 17.9892 52.9893 18.2121 52.7663C18.4351 52.5434 18.7399 52.416 19.0538 52.416H23.8172C24.1312 52.416 24.436 52.5434 24.6589 52.7663C24.8818 52.9893 25.0092 53.2941 25.0092 53.608C25.0092 53.9219 24.8818 54.2268 24.6589 54.4497C24.436 54.6726 24.1312 54.8 23.8172 54.8Z" fill="white"/>
<path opacity="0.4" d="M8.43037 43.9304C8.55321 43.066 8.73519 42.2152 8.97632 41.3735L10.0136 37.752H9.02636C8.6533 37.8066 8.27568 37.7702 7.92081 37.6519C7.56594 37.5337 7.24292 37.3335 6.97905 37.0696C6.71517 36.8057 6.51499 36.4827 6.3967 36.1278C6.27841 35.773 6.24201 35.3954 6.29661 35.0223V24.1033C6.24201 23.7302 6.27841 23.3526 6.3967 22.9977C6.51499 22.6428 6.71517 22.3198 6.97905 22.056C7.24292 21.7921 7.56594 21.5919 7.92081 21.4736C8.27568 21.3553 8.6533 21.3189 9.02636 21.3735H18.1255C18.4986 21.3189 18.8762 21.3553 19.2311 21.4736C19.586 21.5919 19.909 21.7921 20.1729 22.056C20.4367 22.3198 20.6369 22.6428 20.7552 22.9977C20.8735 23.3526 20.9099 23.7302 20.8553 24.1033V27.3608H26.2693L26.2102 5.50909C26.3148 4.76751 26.2466 4.01227 26.01 3.30254C25.7734 2.5928 25.373 1.94676 24.8453 1.41446C24.3175 0.886706 23.6715 0.486342 22.9572 0.249763C22.2429 0.0131846 21.4922 -0.0550593 20.7507 0.0495813H6.18742C5.44584 -0.0550593 4.6906 0.0131846 3.98087 0.249763C3.27113 0.486342 2.62509 0.886706 2.09279 1.41446C1.56048 1.94221 1.16467 2.58825 0.923542 3.29799C0.686964 4.00772 0.61872 4.76751 0.72791 5.50909L0.83255 43.2115C0.72791 43.9531 0.796154 44.7084 1.03273 45.4181C1.26931 46.1278 1.66967 46.7739 2.19743 47.3062C2.72518 47.8339 3.37122 48.2343 4.08551 48.4709C4.79524 48.7075 5.55048 48.7757 6.29206 48.6711H8.23928V46.5828C8.23928 45.6956 8.30753 44.8085 8.43037 43.9304ZM6.29206 13.207L6.34665 8.7757C6.29206 8.40263 6.32846 8.02501 6.44674 7.67015C6.56503 7.31528 6.76522 6.99226 7.02909 6.72838C7.29297 6.4645 7.61599 6.26432 7.97086 6.14603C8.32573 6.02774 8.70334 5.99135 9.07641 6.04594H18.1756C18.5487 5.99135 18.9263 6.02774 19.2811 6.14603C19.636 6.26432 19.959 6.4645 20.2229 6.72838C20.4868 6.99226 20.687 7.31528 20.8053 7.67015C20.9235 8.02501 20.9599 8.40263 20.9053 8.7757L20.8507 13.207C20.9053 13.5801 20.8689 13.9577 20.7507 14.3125C20.6324 14.6674 20.4322 14.9904 20.1683 15.2543C19.9044 15.5182 19.5814 15.7184 19.2265 15.8367C18.8717 15.9549 18.4941 15.9913 18.121 15.9368H9.02181C8.64875 15.9913 8.27113 15.9549 7.91626 15.8367C7.56139 15.7184 7.23837 15.5182 6.9745 15.2543C6.71062 14.9904 6.51044 14.6674 6.39215 14.3125C6.27386 13.9577 6.23746 13.5801 6.29206 13.207Z" fill="white"/>
<path d="M20.7505 22.9977C20.6322 22.6428 20.432 22.3198 20.1682 22.0559C19.9043 21.792 19.5813 21.5918 19.2264 21.4735C18.8715 21.3553 18.4939 21.3189 18.1208 21.3735H9.02166C8.6486 21.3189 8.27098 21.3553 7.91611 21.4735C7.56124 21.5918 7.23822 21.792 6.97435 22.0559C6.71047 22.3198 6.51029 22.6428 6.392 22.9977C6.27371 23.3525 6.23731 23.7301 6.29191 24.1032V35.0222C6.23731 35.3953 6.27371 35.7729 6.392 36.1278C6.51029 36.4826 6.71047 36.8057 6.97435 37.0695C7.23822 37.3334 7.56124 37.5336 7.91611 37.6519C8.27098 37.7702 8.6486 37.8066 9.02166 37.752H10.0089L11.5057 32.5199C12.3838 29.4672 12.9753 27.3607 18.321 27.3607H20.8461V24.1032C20.9006 23.7301 20.8642 23.3525 20.746 22.9977H20.7505Z" fill="white"/>
<path d="M6.97435 15.2547C7.23822 15.5185 7.56124 15.7187 7.91611 15.837C8.27098 15.9553 8.6486 15.9917 9.02166 15.9371H18.1208C18.4939 15.9917 18.8715 15.9553 19.2264 15.837C19.5813 15.7187 19.9043 15.5185 20.1682 15.2547C20.432 14.9908 20.6322 14.6678 20.7505 14.3129C20.8688 13.958 20.9052 13.5804 20.8506 13.2074L20.9052 8.77606C20.9598 8.40299 20.9234 8.02538 20.8051 7.67051C20.6868 7.31564 20.4866 6.99262 20.2228 6.72874C19.9589 6.46487 19.6359 6.26468 19.281 6.14639C18.9261 6.02811 18.5485 5.99171 18.1754 6.0463H9.07626C8.70319 5.99171 8.32558 6.02811 7.97071 6.14639C7.61584 6.26468 7.29282 6.46487 7.02894 6.72874C6.76507 6.99262 6.56488 7.31564 6.4466 7.67051C6.32831 8.02538 6.29191 8.40299 6.3465 8.77606L6.29191 13.2074C6.23731 13.5804 6.27371 13.958 6.392 14.3129C6.51029 14.6678 6.71047 14.9908 6.97435 15.2547Z" fill="white"/>
</g>
</g>
<defs>
<clipPath id="clip0_394_63293">
<rect width="40.646" height="60" fill="white" transform="translate(0.677734)"/>
</clipPath>
</defs>
</svg>
