<svg width="64" height="60" viewBox="0 0 64 60" fill="none" xmlns="http://www.w3.org/2000/svg">
<g opacity="0.5">
<path d="M10.1053 59.0523H3.36842C2.47506 59.0523 1.61829 58.6974 0.986587 58.0657C0.354886 57.434 0 56.5772 0 55.6839V42.2102C0 41.3169 0.354886 40.4601 0.986587 39.8284C1.61829 39.1967 2.47506 38.8418 3.36842 38.8418H10.1053C10.9986 38.8418 11.8554 39.1967 12.4871 39.8284C13.1188 40.4601 13.4737 41.3169 13.4737 42.2102V55.6839C13.4737 56.5772 13.1188 57.434 12.4871 58.0657C11.8554 58.6974 10.9986 59.0523 10.1053 59.0523Z" fill="white"/>
<path opacity="0.4" d="M64.0001 43.4228C64.0025 44.0961 63.8521 44.7611 63.5604 45.3679C63.2687 45.9747 62.8432 46.5074 62.3159 46.926L50.8633 56.0881C48.4762 58.0071 45.5051 59.0529 42.4423 59.0523H23.5791C21.794 59.047 20.0836 58.3355 18.8213 57.0732C17.5591 55.811 16.8476 54.1005 16.8423 52.3155V45.5786C16.8476 43.7936 17.5591 42.0831 18.8213 40.8209C20.0836 39.5586 21.794 38.8471 23.5791 38.8418H40.8254C41.8305 38.8418 42.7943 39.241 43.505 39.9517C44.2156 40.6624 44.6149 41.6262 44.6149 42.6313C44.6149 43.6363 44.2156 44.6002 43.505 45.3108C42.7943 46.0215 41.8305 46.4207 40.8254 46.4207H30.316C29.6459 46.4207 29.0034 46.6869 28.5296 47.1607C28.0558 47.6345 27.7896 48.277 27.7896 48.9471C27.7896 49.6171 28.0558 50.2597 28.5296 50.7334C29.0034 51.2072 29.6459 51.4734 30.316 51.4734H40.8254C42.9109 51.4704 44.9286 50.7326 46.5241 49.3897C48.1196 48.0468 49.1908 46.1846 49.5496 44.1302L57.1959 39.5492C57.8873 39.1321 58.679 38.9109 59.4865 38.9092C60.6836 38.9092 61.8316 39.3847 62.6781 40.2312C63.5246 41.0777 64.0001 42.2257 64.0001 43.4228Z" fill="white"/>
<path opacity="0.4" d="M51.8577 12.6354H38.216V0.947266H35.7113V12.6354H22.0696C21.9836 13.2552 21.9389 13.8799 21.936 14.5055V25.9934C21.8389 26.6738 21.9016 27.3675 22.119 28.0195C22.3364 28.6715 22.7026 29.264 23.1886 29.75C23.6746 30.236 24.2671 30.6022 24.9191 30.8196C25.5711 31.037 26.2648 31.0997 26.9452 31.0026H46.9821C47.6625 31.0997 48.3562 31.037 49.0082 30.8196C49.6602 30.6022 50.2527 30.236 50.7387 29.75C51.2247 29.264 51.5909 28.6715 51.8083 28.0195C52.0257 27.3675 52.0884 26.6738 51.9913 25.9934V14.5055C51.9884 13.8799 51.9437 13.2552 51.8577 12.6354Z" fill="white"/>
<path d="M29.0484 0.947266H35.7106V12.6354H22.0688C22.1568 12.0265 22.2851 11.4241 22.4529 10.8321L24.2395 4.5873C24.8573 2.43333 25.2747 0.947266 29.0484 0.947266Z" fill="white"/>
<path d="M51.8571 12.6354H38.2153V0.947266H44.8776C48.6512 0.947266 49.0686 2.43333 49.6864 4.5873L51.4731 10.8321C51.6409 11.4241 51.7692 12.0265 51.8571 12.6354Z" fill="white"/>
<path d="M33.6233 25.5759H28.6141C28.282 25.5759 27.9635 25.444 27.7286 25.2091C27.4938 24.9743 27.3618 24.6557 27.3618 24.3236C27.3618 23.9915 27.4938 23.6729 27.7286 23.4381C27.9635 23.2032 28.282 23.0713 28.6141 23.0713H33.6233C33.9555 23.0713 34.274 23.2032 34.5089 23.4381C34.7437 23.6729 34.8756 23.9915 34.8756 24.3236C34.8756 24.6557 34.7437 24.9743 34.5089 25.2091C34.274 25.444 33.9555 25.5759 33.6233 25.5759Z" fill="white"/>
</g>
</svg>
