<svg width="73" height="77" viewBox="0 0 73 77" fill="none" xmlns="http://www.w3.org/2000/svg">
<path opacity="0.4" d="M60.9989 25.0009V39.0009C60.9987 39.3171 60.8736 39.6204 60.6509 39.8449L36.7389 63.8889C35.6227 65.0143 34.9971 66.5358 34.9989 68.1209V71.8009C34.9989 72.1191 34.8725 72.4244 34.6475 72.6494C34.4224 72.8745 34.1172 73.0009 33.7989 73.0009H12.9989C11.3689 73.2335 9.70714 73.0834 8.14515 72.5626C6.58317 72.0418 5.16386 71.1645 3.99959 70.0002C2.83532 68.836 1.95806 67.4167 1.43724 65.8547C0.916427 64.2927 0.766365 62.6309 0.998932 61.0009V13.0009C0.766365 11.3709 0.916427 9.70909 1.43724 8.1471C1.95806 6.58512 2.83532 5.16581 3.99959 4.00154C5.16386 2.83727 6.58317 1.96001 8.14515 1.43919C9.70714 0.918381 11.3689 0.768318 12.9989 1.00089H36.9989V13.0009C36.9989 16.1835 38.2632 19.2357 40.5136 21.4862C42.7641 23.7366 45.8163 25.0009 48.9989 25.0009H60.9989Z" fill="#FF5EEF"/>
<path d="M48.9989 25H60.9989L36.9989 1V13C36.7664 14.63 36.9164 16.2918 37.4372 17.8538C37.9581 19.4158 38.8353 20.8351 39.9996 21.9993C41.1639 23.1636 42.5832 24.0409 44.1452 24.5617C45.7071 25.0825 47.3689 25.2326 48.9989 25Z" fill="#FF5EEF"/>
<path d="M44.999 40H16.999C16.2034 40 15.4403 39.6839 14.8777 39.1213C14.3151 38.5587 13.999 37.7956 13.999 37C13.999 36.2044 14.3151 35.4413 14.8777 34.8787C15.4403 34.3161 16.2034 34 16.999 34H44.999C45.7947 34 46.5577 34.3161 47.1203 34.8787C47.683 35.4413 47.999 36.2044 47.999 37C47.999 37.7956 47.683 38.5587 47.1203 39.1213C46.5577 39.6839 45.7947 40 44.999 40ZM35.999 53C35.999 52.2044 35.683 51.4413 35.1203 50.8787C34.5577 50.3161 33.7947 50 32.999 50H16.999C16.2034 50 15.4403 50.3161 14.8777 50.8787C14.3151 51.4413 13.999 52.2044 13.999 53C13.999 53.7956 14.3151 54.5587 14.8777 55.1213C15.4403 55.6839 16.2034 56 16.999 56H32.999C33.7947 56 34.5577 55.6839 35.1203 55.1213C35.683 54.5587 35.999 53.7956 35.999 53Z" fill="#FF5EEF"/>
<path d="M56.919 52.1207L65.879 61.0807L49.879 77.0007H40.999V68.1207L56.919 52.1207ZM71.959 50.0007L67.999 46.0407C67.6692 45.7078 67.2766 45.4436 66.8441 45.2634C66.4116 45.0831 65.9476 44.9902 65.479 44.9902C65.0104 44.9902 64.5465 45.0831 64.1139 45.2634C63.6814 45.4436 63.2889 45.7078 62.959 46.0407L59.719 49.3207L68.679 58.2807L71.959 55.0407C72.2918 54.7108 72.556 54.3183 72.7363 53.8857C72.9166 53.4532 73.0094 52.9893 73.0094 52.5207C73.0094 52.0521 72.9166 51.5881 72.7363 51.1556C72.556 50.723 72.2918 50.3305 71.959 50.0007Z" fill="#FF5EEF"/>
</svg>
