<svg width="31" height="30" viewBox="0 0 31 30" fill="none" xmlns="http://www.w3.org/2000/svg">
<path d="M26.95 20.7929C27.0848 20.1539 27.0359 19.4898 26.8089 18.8775C26.582 18.2651 26.1862 17.7296 25.6675 17.3329C25.3493 17.086 24.9895 16.898 24.605 16.7779L23.4275 16.4166C23.1527 16.3323 22.864 16.3029 22.5779 16.3302C22.2917 16.3575 22.0138 16.4409 21.7599 16.5757C21.506 16.7105 21.2812 16.894 21.0982 17.1157C20.9153 17.3374 20.7779 17.593 20.6938 17.8679L18.8388 23.9354C18.7543 24.2101 18.7248 24.4988 18.752 24.7849C18.7792 25.071 18.8627 25.3489 18.9975 25.6027C19.1323 25.8566 19.3158 26.0813 19.5376 26.2641C19.7594 26.4468 20.0151 26.5841 20.29 26.6679L21.4975 27.0429C21.8214 27.1431 22.1585 27.1941 22.4975 27.1941C23.2324 27.1931 23.9477 26.9572 24.5391 26.521C25.1305 26.0848 25.5671 25.4709 25.785 24.7691L26.3738 22.8616C26.5113 22.4466 26.6238 22.0154 26.74 21.5866C26.7763 21.4529 26.82 21.3229 26.8538 21.1879C26.8775 21.0979 26.9088 21.0116 26.9313 20.9216C26.9425 20.8754 26.9413 20.8341 26.95 20.7929Z" fill="white"/>
<path d="M4.04987 20.792C4.05862 20.8333 4.05737 20.8733 4.06737 20.917C4.08987 21.0083 4.12112 21.092 4.14362 21.182C4.17737 21.3145 4.21987 21.4383 4.25487 21.5683C4.37987 22.0008 4.48737 22.4433 4.62237 22.8483L5.21362 24.7645C5.43196 25.4657 5.86848 26.0788 6.4596 26.5145C7.05071 26.9503 7.76551 27.1859 8.49987 27.187C8.8389 27.187 9.17599 27.136 9.49987 27.0358L10.7061 26.6608C10.9811 26.5772 11.2369 26.4402 11.4588 26.2576C11.6807 26.075 11.8644 25.8504 11.9994 25.5967C12.1343 25.3429 12.2178 25.065 12.2452 24.779C12.2725 24.4929 12.2431 24.2042 12.1586 23.9295L10.3061 17.8658C10.2219 17.591 10.0844 17.3355 9.90139 17.1139C9.7184 16.8924 9.49355 16.709 9.23968 16.5743C8.9858 16.4397 8.70789 16.3564 8.4218 16.3292C8.13572 16.302 7.84708 16.3314 7.57237 16.4158L6.39487 16.7758C6.01066 16.8964 5.65092 17.0844 5.33237 17.3308C4.81379 17.7279 4.41817 18.2637 4.19122 18.8762C3.96428 19.4886 3.91527 20.1528 4.04987 20.792Z" fill="white"/>
<path opacity="0.4" d="M26.95 20.7925C27.4259 18.898 27.6735 16.9533 27.6875 15C27.6875 11.7677 26.4035 8.66774 24.1179 6.38214C21.8323 4.09654 18.7323 2.8125 15.5 2.8125C12.2677 2.8125 9.16774 4.09654 6.88214 6.38214C4.59654 8.66774 3.3125 11.7677 3.3125 15C3.32654 16.9533 3.57413 18.898 4.05 20.7925C3.9154 20.1533 3.9644 19.4891 4.19135 18.8766C4.4183 18.2642 4.81392 17.7284 5.3325 17.3312C5.24143 16.5574 5.19302 15.7792 5.1875 15C5.1875 12.265 6.27399 9.64193 8.20796 7.70796C10.1419 5.77399 12.765 4.6875 15.5 4.6875C18.235 4.6875 20.8581 5.77399 22.792 7.70796C24.726 9.64193 25.8125 12.265 25.8125 15C25.807 15.7796 25.7586 16.5582 25.6675 17.3325C26.1862 17.7292 26.582 18.2648 26.8089 18.8771C27.0359 19.4894 27.0848 20.1535 26.95 20.7925Z" fill="white"/>
</svg>
