<svg width="48" height="50" viewBox="0 0 48 50" fill="none" xmlns="http://www.w3.org/2000/svg">
<path d="M7.57894 49.2634H2.52631C1.85629 49.2634 1.21372 48.9972 0.73994 48.5234C0.266164 48.0496 0 47.4071 0 46.737V36.6318C0 35.9618 0.266164 35.3192 0.73994 34.8454C1.21372 34.3716 1.85629 34.1055 2.52631 34.1055H7.57894C8.24896 34.1055 8.89154 34.3716 9.36532 34.8454C9.83909 35.3192 10.1053 35.9618 10.1053 36.6318V46.737C10.1053 47.4071 9.83909 48.0496 9.36532 48.5234C8.89154 48.9972 8.24896 49.2634 7.57894 49.2634Z" fill="white"/>
<path opacity="0.4" d="M48.0002 37.5413C48.002 38.0462 47.8893 38.545 47.6705 39C47.4517 39.4551 47.1326 39.8547 46.7371 40.1686L38.1476 47.0402C36.3573 48.4794 34.1289 49.2638 31.8318 49.2634H17.6845C16.3457 49.2594 15.0628 48.7257 14.1161 47.7791C13.1694 46.8324 12.6358 45.5495 12.6318 44.2107V39.1581C12.6358 37.8193 13.1694 36.5365 14.1161 35.5898C15.0628 34.6431 16.3457 34.1095 17.6845 34.1055H30.6192C31.373 34.1055 32.0959 34.4049 32.6289 34.9379C33.1619 35.4709 33.4613 36.1938 33.4613 36.9476C33.4613 37.7013 33.1619 38.4242 32.6289 38.9572C32.0959 39.4902 31.373 39.7897 30.6192 39.7897H22.7371C22.2346 39.7897 21.7526 39.9893 21.3973 40.3446C21.042 40.7 20.8424 41.1819 20.8424 41.6844C20.8424 42.1869 21.042 42.6689 21.3973 43.0242C21.7526 43.3795 22.2346 43.5791 22.7371 43.5791H30.6192C32.1833 43.5769 33.6966 43.0236 34.8932 42.0164C36.0898 41.0092 36.8933 39.6125 37.1624 38.0718L42.8971 34.636C43.4156 34.3232 44.0094 34.1573 44.615 34.156C45.5128 34.156 46.3739 34.5127 47.0087 35.1475C47.6436 35.7824 48.0002 36.6434 48.0002 37.5413Z" fill="white"/>
<path opacity="0.4" d="M27.789 15.1577H22.7364C21.722 15.0916 20.7053 15.2431 19.7542 15.6021C18.8032 15.961 17.9399 16.5191 17.2222 17.239C16.5045 17.9588 15.949 18.8238 15.5929 19.7759C15.2368 20.728 15.0883 21.7452 15.1574 22.7593C15.0882 23.4389 15.1715 24.1254 15.4013 24.7687C15.631 25.412 16.0015 25.9959 16.4856 26.4779C16.9697 26.9598 17.5553 27.3276 18.1996 27.5545C18.844 27.7814 19.5308 27.8616 20.2101 27.7892H30.3153C30.9946 27.8616 31.6814 27.7814 32.3258 27.5545C32.9701 27.3276 33.5557 26.9598 34.0398 26.4779C34.5239 25.9959 34.8944 25.412 35.1241 24.7687C35.3539 24.1254 35.4372 23.4389 35.368 22.7593C35.4371 21.7452 35.2886 20.728 34.9325 19.7759C34.5764 18.8238 34.0209 17.9588 33.3032 17.239C32.5855 16.5191 31.7222 15.961 30.7712 15.6021C29.8201 15.2431 28.8034 15.0916 27.789 15.1577Z" fill="white"/>
<path d="M25.275 11.3684C28.4143 11.3684 30.9592 8.82351 30.9592 5.68421C30.9592 2.54491 28.4143 0 25.275 0C22.1357 0 19.5908 2.54491 19.5908 5.68421C19.5908 8.82351 22.1357 11.3684 25.275 11.3684Z" fill="white"/>
</svg>
