<svg width="43" height="43" viewBox="0 0 43 43" fill="none" xmlns="http://www.w3.org/2000/svg">
<g opacity="0.4">
<path d="M37.5069 22.0549C31.1135 28.4505 26.2789 30.1725 17.8485 32.4102C17.4449 32.5175 16.9992 32.4055 16.7052 32.1092L10.8275 26.2269C10.5242 25.9235 10.4145 25.4615 10.5382 25.0485C12.9999 16.8655 14.7242 12.0309 21.1082 5.64455C28.1222 -1.37412 38.6432 -0.0791196 41.5389 0.441214C42.0125 0.527547 42.3719 0.87988 42.4629 1.35355C43.0345 4.27955 44.5349 15.0245 37.5069 22.0549Z" fill="white"/>
</g>
<path d="M10.7456 32.249C12.491 33.9943 12.3393 36.988 10.405 38.92C8.63395 40.6933 1.89995 42.3757 1.13695 42.5623C1.09029 42.574 1.04362 42.5787 0.999287 42.5787C0.845287 42.5787 0.69362 42.518 0.58162 42.4037C0.436954 42.2567 0.383287 42.0443 0.43462 41.846C0.646953 41.0503 2.55095 34.0177 4.31962 32.249C5.24129 31.3297 6.42429 30.8257 7.61662 30.8677C8.76929 30.8957 9.88229 31.3857 10.7456 32.249ZM28.4393 28.7933C28.4393 28.77 14.346 14.7 14.3226 14.7C15.326 12.7633 16.516 10.92 18.056 9.00665C17.916 8.91332 17.7526 8.86665 17.5893 8.91332L12.0593 10.08C7.85929 10.7567 4.26595 13.65 2.70262 17.5933L0.46262 23.17C0.369287 23.3567 0.415953 23.59 0.555953 23.7533C0.67262 23.8933 0.835953 23.9633 0.999287 23.9633C1.04595 23.9633 1.09262 23.9633 1.11595 23.94L11.616 21.6067C12.1526 19.9267 12.6893 18.41 13.296 16.9633L26.1526 29.7967C24.6826 30.38 23.1426 30.8933 21.4393 31.4067L19.106 41.8833C19.0593 42.0933 19.1293 42.3033 19.2926 42.4433C19.386 42.5367 19.526 42.5833 19.666 42.5833C19.736 42.5833 19.806 42.56 19.876 42.5367L25.4526 40.2967C29.4193 38.7333 32.3126 35.1633 32.966 30.9867L34.1093 25.69C34.156 25.5267 34.1093 25.3633 34.016 25.2233C32.1493 26.7167 30.3526 27.86 28.4393 28.7933ZM29.5826 18.7203C32.483 18.7203 34.8326 16.3753 34.8326 13.482C34.8326 10.5887 32.483 8.24365 29.5826 8.24365C26.6823 8.24365 24.3326 10.5887 24.3326 13.482C24.3326 16.3753 26.6823 18.7203 29.5826 18.7203Z" fill="white"/>
</svg>
