<svg width="61" height="61" viewBox="0 0 61 61" fill="none" xmlns="http://www.w3.org/2000/svg">
<path d="M7.62573 29.9915C7.55523 29.991 7.48481 29.9867 7.41477 29.9788C6.91225 29.9238 6.45214 29.6715 6.13565 29.2773C5.81916 28.8831 5.6722 28.3793 5.7271 27.8768C6.1655 23.7516 7.64466 19.8054 10.0258 16.4085C12.4069 13.0115 15.612 10.2751 19.3403 8.45594C19.6309 8.31301 19.9531 8.24648 20.2766 8.26263C20.6001 8.27877 20.9141 8.37707 21.189 8.54824C21.464 8.71942 21.6908 8.95782 21.848 9.24095C22.0053 9.52408 22.0878 9.84261 22.0878 10.1665V17.9186C22.0878 18.4241 21.887 18.909 21.5295 19.2665C21.172 19.624 20.6871 19.8248 20.1816 19.8248C19.676 19.8248 19.1911 19.624 18.8336 19.2665C18.4761 18.909 18.2753 18.4241 18.2753 17.9186V13.4935C15.8405 15.1881 13.7986 17.3865 12.2882 19.9397C10.7779 22.4929 9.83441 25.3411 9.52181 28.2911C9.4705 28.7582 9.24867 29.19 8.89882 29.5038C8.54896 29.8175 8.09566 29.9912 7.62573 29.9915Z" fill="white"/>
<path d="M40.8203 52.7398C40.3147 52.7398 39.8299 52.539 39.4724 52.1815C39.1149 51.824 38.9141 51.3391 38.9141 50.8336V43.0815C38.9141 42.5759 39.1149 42.091 39.4724 41.7335C39.8299 41.3761 40.3147 41.1752 40.8203 41.1752C41.3259 41.1752 41.8107 41.3761 42.1682 41.7335C42.5257 42.091 42.7266 42.5759 42.7266 43.0815V47.5065C45.1613 45.8116 47.2032 43.6131 48.7139 41.06C50.2247 38.5069 51.1689 35.6589 51.4826 32.7089C51.5375 32.2067 51.7897 31.7469 52.1837 31.4307C52.5776 31.1144 53.0811 30.9676 53.5833 31.0225C54.0855 31.0775 54.5453 31.3297 54.8616 31.7236C55.1778 32.1176 55.3246 32.621 55.2697 33.1232C54.8327 37.2482 53.3547 41.1944 50.9744 44.5915C48.5941 47.9886 45.3895 50.7251 41.6616 52.5441C41.4 52.6734 41.1121 52.7403 40.8203 52.7398Z" fill="white"/>
<path opacity="0.4" d="M40.6667 27.9583C46.2816 27.9583 50.8333 23.4066 50.8333 17.7917C50.8333 12.1768 46.2816 7.625 40.6667 7.625C35.0518 7.625 30.5 12.1768 30.5 17.7917C30.5 23.4066 35.0518 27.9583 40.6667 27.9583Z" fill="white"/>
<path opacity="0.4" d="M20.3327 53.3748C25.9476 53.3748 30.4993 48.8231 30.4993 43.2082C30.4993 37.5933 25.9476 33.0415 20.3327 33.0415C14.7178 33.0415 10.166 37.5933 10.166 43.2082C10.166 48.8231 14.7178 53.3748 20.3327 53.3748Z" fill="white"/>
</svg>
