<svg width="96" height="96" viewBox="0 0 96 96" fill="none" xmlns="http://www.w3.org/2000/svg">
<path opacity="0.4" d="M84.0009 47.7998V71.9998C84.2335 73.6298 84.0834 75.2916 83.5626 76.8535C83.0418 78.4155 82.1645 79.8348 81.0002 80.9991C79.836 82.1634 78.4167 83.0406 76.8547 83.5615C75.2927 84.0823 73.6309 84.2323 72.0009 83.9998H24.0009C22.3709 84.2323 20.7091 84.0823 19.1471 83.5615C17.5851 83.0406 16.1658 82.1634 15.0015 80.9991C13.8373 79.8348 12.96 78.4155 12.4392 76.8535C11.9184 75.2916 11.7683 73.6298 12.0009 71.9998V47.7598C13.2245 49.1786 14.7761 50.2771 16.5209 50.9598C22.19 53.1844 28.0376 54.9239 34.0009 56.1598C34.7984 56.2958 35.6183 56.1939 36.3582 55.8666C37.098 55.5394 37.7251 55.0014 38.1609 54.3198C39.217 52.6518 40.6666 51.2688 42.3824 50.2924C44.0981 49.3159 46.0275 48.7759 48.0009 48.7198C49.9743 48.7759 51.9036 49.3159 53.6194 50.2924C55.3352 51.2688 56.7848 52.6518 57.8409 54.3198C58.288 54.9998 58.9228 55.5355 59.6682 55.8621C60.4137 56.1887 61.2379 56.2921 62.0409 56.1598C67.9927 54.9304 73.8276 53.1906 79.4809 50.9598C81.2099 50.2669 82.7564 49.1857 84.0009 47.7998Z" fill="white"/>
<path d="M84.0009 35.9999V47.7999C82.7564 49.1858 81.2099 50.267 79.4809 50.9599C73.8276 53.1908 67.9927 54.9305 62.0409 56.1599C61.2379 56.2922 60.4137 56.1888 59.6682 55.8622C58.9228 55.5357 58.288 54.9999 57.8409 54.3199C56.7848 52.652 55.3352 51.269 53.6194 50.2925C51.9036 49.316 49.9743 48.776 48.0009 48.7199C46.0275 48.776 44.0981 49.316 42.3824 50.2925C40.6666 51.269 39.217 52.652 38.1609 54.3199C37.7251 55.0015 37.098 55.5395 36.3582 55.8668C35.6183 56.194 34.7984 56.296 34.0009 56.1599C28.0376 54.9241 22.19 53.1845 16.5209 50.9599C14.7761 50.2772 13.2245 49.1787 12.0009 47.7599V35.9999C11.7683 34.3699 11.9184 32.7081 12.4392 31.1461C12.96 29.5841 13.8373 28.1648 15.0015 27.0006C16.1658 25.8363 17.5851 24.959 19.1471 24.4382C20.7091 23.9174 22.3709 23.7673 24.0009 23.9999H72.0009C73.6309 23.7673 75.2927 23.9174 76.8547 24.4382C78.4167 24.959 79.836 25.8363 81.0002 27.0006C82.1645 28.1648 83.0418 29.5841 83.5626 31.1461C84.0834 32.7081 84.2335 34.3699 84.0009 35.9999Z" fill="white"/>
<path opacity="0.4" d="M67 18V24H61V18C61.0011 17.8684 60.9759 17.7379 60.9261 17.6161C60.8762 17.4943 60.8026 17.3836 60.7095 17.2905C60.6164 17.1974 60.5057 17.1238 60.3839 17.0739C60.2621 17.0241 60.1316 16.9989 60 17H36C35.8684 16.9989 35.7379 17.0241 35.6161 17.0739C35.4943 17.1238 35.3836 17.1974 35.2905 17.2905C35.1974 17.3836 35.1238 17.4943 35.0739 17.6161C35.0241 17.7379 34.9989 17.8684 35 18V24H29V18C29.0021 16.1441 29.7403 14.3649 31.0526 13.0526C32.3649 11.7403 34.1441 11.0021 36 11H60C61.8539 11.0084 63.6295 11.7486 64.9404 13.0596C66.2514 14.3705 66.9916 16.1461 67 18Z" fill="white"/>
<path d="M48.0004 64C46.9395 64.0042 45.9204 63.5869 45.1673 62.8397C44.4141 62.0926 43.9887 61.0769 43.9844 60.016C43.9802 58.9551 44.3975 57.936 45.1447 57.1829C45.8918 56.4297 46.9075 56.0042 47.9684 56H48.0004C49.0613 56 50.0787 56.4214 50.8288 57.1716C51.579 57.9217 52.0004 58.9391 52.0004 60C52.0004 61.0609 51.579 62.0783 50.8288 62.8284C50.0787 63.5786 49.0613 64 48.0004 64Z" fill="white"/>
</svg>
