<svg width="83" height="75" viewBox="0 0 83 75" fill="none" xmlns="http://www.w3.org/2000/svg">
<path opacity="0.4" d="M30.8702 32.9706C31.8644 33.3867 32.8956 33.7082 33.9502 33.9306V72.0106C33.3034 71.8439 32.6739 71.6162 32.0702 71.3306L8.0702 60.6506C5.95111 59.7073 4.15082 58.1701 2.88719 56.225C1.62357 54.2799 0.95076 52.0102 0.950195 49.6906V23.0506C0.953375 21.9822 1.10139 20.9192 1.39019 19.8906L30.8702 32.9706Z" fill="white"/>
<path d="M40.6302 27.4505C39.4715 27.9647 38.2179 28.2304 36.9502 28.2304C35.6825 28.2304 34.4289 27.9647 33.2702 27.4505L4.43018 14.6105C5.47106 13.5453 6.70675 12.6898 8.07018 12.0905L32.0702 1.41047C33.604 0.718312 35.2674 0.360352 36.9502 0.360352C38.6329 0.360352 40.2964 0.718312 41.8302 1.41047L65.8302 12.0905C67.1936 12.6898 68.4293 13.5453 69.4702 14.6105L40.6302 27.4505Z" fill="white"/>
<path opacity="0.4" d="M72.9502 23.0506V34.2106C72.9478 34.4013 72.8999 34.5886 72.8106 34.7571C72.7213 34.9256 72.5932 35.0704 72.4368 35.1795C72.2804 35.2886 72.1002 35.3589 71.9113 35.3844C71.7223 35.41 71.53 35.3902 71.3502 35.3266C69.0077 34.6048 66.5594 34.2869 64.1102 34.3866C58.997 34.5991 54.1157 36.5776 50.2975 39.9851C46.4794 43.3927 43.9606 48.0185 43.1702 53.0746C42.39 58.2026 43.4651 63.4406 46.2022 67.8466C46.2948 67.9905 46.3555 68.1525 46.3804 68.3218C46.4052 68.4911 46.3935 68.6637 46.3462 68.8281C46.2988 68.9925 46.2169 69.1449 46.1058 69.275C45.9947 69.4052 45.8571 69.51 45.7022 69.5826L40.1022 72.1066L39.9502 72.0106V33.9306C40.9999 33.6897 42.0295 33.3688 43.0302 32.9706L72.5102 19.8906C72.799 20.9192 72.947 21.9822 72.9502 23.0506Z" fill="white"/>
<path d="M65.9502 40.3604C62.5879 40.3604 59.3011 41.3574 56.5055 43.2254C53.7099 45.0934 51.5309 47.7484 50.2443 50.8547C48.9576 53.9611 48.6209 57.3792 49.2769 60.6769C49.9328 63.9746 51.5519 67.0037 53.9294 69.3812C56.3069 71.7587 59.336 73.3777 62.6337 74.0337C65.9313 74.6896 69.3495 74.353 72.4558 73.0663C75.5622 71.7796 78.2172 69.6007 80.0852 66.805C81.9532 64.0094 82.9502 60.7226 82.9502 57.3603C82.9502 52.8517 81.1591 48.5277 77.971 45.3395C74.7829 42.1514 70.4589 40.3604 65.9502 40.3604ZM72.2208 63.6309C71.7653 64.0862 71.1477 64.342 70.5038 64.342C69.8598 64.342 69.2422 64.0862 68.7868 63.6309L64.2308 59.0798C64.0054 58.8538 63.8268 58.5857 63.7051 58.2906C63.5834 57.9956 63.5211 57.6795 63.5216 57.3603V50.9878C63.5216 50.3437 63.7775 49.726 64.2329 49.2705C64.6884 48.8151 65.3061 48.5592 65.9502 48.5592C66.5943 48.5592 67.212 48.8151 67.6675 49.2705C68.1229 49.726 68.3788 50.3437 68.3788 50.9878V56.3549L72.2208 60.1969C72.6761 60.6523 72.9318 61.2699 72.9318 61.9139C72.9318 62.5579 72.6761 63.1755 72.2208 63.6309Z" fill="white"/>
</svg>
