<svg width="97" height="96" viewBox="0 0 97 96" fill="none" xmlns="http://www.w3.org/2000/svg">
<path d="M81.7385 72.1199C81.229 70.6729 81.2862 69.0866 81.8985 67.6799C83.5103 64.2161 84.3923 60.4577 84.4896 56.6384C84.587 52.8192 83.8977 49.0207 82.4646 45.4792C81.0315 41.9377 78.8852 38.7289 76.1592 36.0522C73.4331 33.3755 70.1856 31.2881 66.6185 29.9199C68.5979 34.9751 69.059 40.4981 67.9452 45.8115C66.8314 51.125 64.1912 55.9979 60.3484 59.8326C56.5055 63.6674 51.6271 66.2974 46.3113 67.4C40.9956 68.5026 35.4736 68.0299 30.4225 66.0399L30.3945 66.0679C31.7616 69.641 33.8493 72.8946 36.5278 75.6262C39.2063 78.3578 42.4183 80.509 45.9638 81.946C49.5094 83.383 53.3127 84.075 57.1372 83.979C60.9617 83.883 64.7255 83.001 68.1945 81.3879C69.6012 80.7756 71.1875 80.7184 72.6345 81.2279L80.3945 83.8279C80.9458 84.0081 81.5362 84.032 82.1003 83.8971C82.6644 83.7622 83.1801 83.4737 83.5902 83.0636C84.0003 82.6534 84.2888 82.1378 84.4237 81.5737C84.5586 81.0096 84.5347 80.4192 84.3545 79.8679L81.7385 72.1199Z" fill="white"/>
<path opacity="0.4" d="M68.4999 39.9995C68.5096 35.8086 67.5785 31.669 65.7751 27.8859C63.9717 24.1029 61.3421 20.7729 58.0802 18.1415C54.8183 15.5102 51.0074 13.6447 46.9284 12.6825C42.8494 11.7203 38.6065 11.6861 34.5125 12.5822C30.4185 13.4784 26.578 15.2822 23.274 17.8605C19.97 20.4388 17.287 23.7259 15.4228 27.4794C13.5585 31.2328 12.5606 35.3569 12.5027 39.5474C12.4447 43.7379 13.3282 47.888 15.0879 51.6915C15.7061 53.0814 15.7733 54.6541 15.2759 56.0915L12.6639 63.8675C12.4839 64.4174 12.4597 65.0063 12.594 65.569C12.7283 66.1317 13.0158 66.6463 13.4247 67.0555C13.8336 67.4648 14.3478 67.7529 14.9104 67.8877C15.473 68.0226 16.0619 67.999 16.6119 67.8195L24.3919 65.2075C25.8289 64.709 27.4016 64.7747 28.7919 65.3915C29.3079 65.6355 29.8559 65.8275 30.3919 66.0355C33.6089 67.3162 37.0375 67.9824 40.4999 67.9995C47.926 67.9995 55.0479 65.0495 60.2989 59.7985C65.5499 54.5475 68.4999 47.4256 68.4999 39.9995Z" fill="white"/>
<path d="M52.5 44C51.9747 44.0024 51.4541 43.9012 50.9679 43.7024C50.4817 43.5036 50.0394 43.2109 49.6663 42.8412C48.9128 42.0944 48.4868 41.0789 48.482 40.018C48.4772 38.9571 48.8941 37.9378 49.6408 37.1843C50.3876 36.4308 51.4031 36.0048 52.464 36H52.5C53.5609 36 54.5783 36.4214 55.3284 37.1716C56.0786 37.9217 56.5 38.9391 56.5 40C56.5 41.0609 56.0786 42.0783 55.3284 42.8284C54.5783 43.5786 53.5609 44 52.5 44ZM44.58 40C44.58 38.9391 44.1586 37.9217 43.4084 37.1716C42.6583 36.4214 41.6409 36 40.58 36H40.54C39.7506 36.0079 38.9812 36.2492 38.3287 36.6935C37.6762 37.1378 37.1698 37.7652 36.8731 38.4968C36.5765 39.2283 36.503 40.0313 36.6618 40.8046C36.8206 41.5779 37.2047 42.2868 37.7657 42.8423C38.3266 43.3977 39.0394 43.7747 39.8142 43.9258C40.589 44.0769 41.3913 43.9954 42.1198 43.6915C42.8484 43.3876 43.4708 42.875 43.9086 42.2181C44.3463 41.5612 44.58 40.7894 44.58 40ZM32.5 40C32.5 38.9391 32.0786 37.9217 31.3284 37.1716C30.5783 36.4214 29.5609 36 28.5 36H28.472C27.6821 36.0055 26.9115 36.2448 26.2574 36.6877C25.6033 37.1306 25.095 37.7572 24.7965 38.4886C24.498 39.2199 24.4228 40.0233 24.5803 40.7974C24.7378 41.5715 25.1209 42.2816 25.6815 42.8382C26.242 43.3948 26.9547 43.773 27.7299 43.9251C28.505 44.0772 29.3079 43.9963 30.0371 43.6928C30.7664 43.3892 31.3895 42.8765 31.8278 42.2193C32.2661 41.5622 32.5 40.7899 32.5 40Z" fill="white"/>
</svg>
