<svg width="60" height="60" viewBox="0 0 60 60" fill="none" xmlns="http://www.w3.org/2000/svg">
<path opacity="0.4" d="M28.7481 52.5H23.7481C23.2387 52.5727 22.7194 52.5258 22.2313 52.3631C21.7432 52.2003 21.2996 51.9262 20.9358 51.5623C20.572 51.1985 20.2978 50.755 20.1351 50.2668C19.9723 49.7787 19.9254 49.2594 19.9981 48.75V11.25C19.9254 10.7407 19.9723 10.2213 20.1351 9.73323C20.2978 9.24511 20.572 8.80157 20.9358 8.43774C21.2996 8.0739 21.7432 7.79976 22.2313 7.637C22.7194 7.47425 23.2387 7.42736 23.7481 7.50003H28.7481C29.2575 7.42736 29.7768 7.47425 30.2649 7.637C30.753 7.79976 31.1965 8.0739 31.5604 8.43774C31.9242 8.80157 32.1984 9.24511 32.3611 9.73323C32.5239 10.2213 32.5708 10.7407 32.4981 11.25V48.75C32.5708 49.2594 32.5239 49.7787 32.3611 50.2668C32.1984 50.755 31.9242 51.1985 31.5604 51.5623C31.1965 51.9262 30.753 52.2003 30.2649 52.3631C29.7768 52.5258 29.2575 52.5727 28.7481 52.5Z" fill="white"/>
<path opacity="0.4" d="M13.7481 52.5H8.74808C8.2387 52.5727 7.71939 52.5258 7.23127 52.3631C6.74315 52.2003 6.29962 51.9262 5.93578 51.5623C5.57195 51.1985 5.29781 50.755 5.13505 50.2668C4.9723 49.7787 4.9254 49.2594 4.99808 48.75V11.25C4.9254 10.7407 4.9723 10.2213 5.13505 9.73323C5.29781 9.24511 5.57195 8.80157 5.93578 8.43774C6.29962 8.0739 6.74315 7.79976 7.23127 7.637C7.71939 7.47425 8.2387 7.42736 8.74808 7.50003H13.7481C14.2575 7.42736 14.7768 7.47425 15.2649 7.637C15.753 7.79976 16.1965 8.0739 16.5604 8.43774C16.9242 8.80157 17.1984 9.24511 17.3611 9.73323C17.5239 10.2213 17.5708 10.7407 17.4981 11.25V48.75C17.5708 49.2594 17.5239 49.7787 17.3611 50.2668C17.1984 50.755 16.9242 51.1985 16.5604 51.5623C16.1965 51.9262 15.753 52.2003 15.2649 52.3631C14.7768 52.5258 14.2575 52.5727 13.7481 52.5Z" fill="white"/>
<path opacity="0.4" d="M51.9987 51.3322L47.1437 52.3647C46.6639 52.5419 46.1494 52.6048 45.641 52.5484C45.1326 52.492 44.6443 52.3178 44.215 52.0397C43.7857 51.7616 43.4272 51.3872 43.1679 50.9463C42.9086 50.5054 42.7556 50.0101 42.7212 49.4997L34.9712 13.0847C34.7948 12.6042 34.7328 12.0891 34.7904 11.5805C34.848 11.0719 35.0234 10.5837 35.3028 10.1547C35.5822 9.72583 35.9578 9.36802 36.3998 9.10978C36.8418 8.85154 37.3379 8.7 37.8487 8.6672L42.7037 7.6347C43.1832 7.45891 43.6969 7.39712 44.2043 7.45424C44.7118 7.51135 45.1989 7.68579 45.6273 7.96376C46.0556 8.24172 46.4134 8.61558 46.6723 9.05573C46.9311 9.49589 47.084 9.99025 47.1187 10.4997L54.8687 46.9147C55.0451 47.3946 55.1072 47.9091 55.05 48.4172C54.9929 48.9253 54.8181 49.4131 54.5395 49.8419C54.2609 50.2706 53.8863 50.6286 53.4452 50.8873C53.0042 51.146 52.5089 51.2983 51.9987 51.3322Z" fill="white"/>
<path d="M32.5 19.3746H20V15.6246H32.5V19.3746ZM32.5 40.6246H20V44.3746H32.5V40.6246ZM17.5 15.6246H5V19.3746H17.5V15.6246ZM17.5 40.6246H5V44.3746H17.5V40.6246ZM48.025 14.7246L35.875 17.3246L36.65 20.9996L48.8 18.3996L48.025 14.7246ZM53.2 38.9996L41.05 41.5996L41.825 45.2746L53.975 42.6746L53.2 38.9996Z" fill="white"/>
</svg>
