<svg width="40" height="34" viewBox="0 0 40 34" fill="none" xmlns="http://www.w3.org/2000/svg">
<path d="M35.6989 6.37793V10.2621H0.741091V6.37793C0.628173 5.58652 0.701033 4.77969 0.953901 4.0213C1.20677 3.26292 1.6327 2.57381 2.19798 2.00853C2.76327 1.44325 3.45237 1.01732 4.21076 0.764448C4.96914 0.51158 5.77597 0.43872 6.56739 0.551637H29.8726C30.664 0.43872 31.4708 0.51158 32.2292 0.764448C32.9876 1.01732 33.6767 1.44325 34.242 2.00853C34.8073 2.57381 35.2332 3.26292 35.4861 4.0213C35.7389 4.77969 35.8118 5.58652 35.6989 6.37793Z" fill="white"/>
<path d="M14.3356 21.4293H8.50931C8.123 21.4293 7.75252 21.2758 7.47935 21.0026C7.20619 20.7295 7.05273 20.359 7.05273 19.9727C7.05273 19.5864 7.20619 19.2159 7.47935 18.9427C7.75252 18.6696 8.123 18.5161 8.50931 18.5161H14.3356C14.7219 18.5161 15.0924 18.6696 15.3656 18.9427C15.6387 19.2159 15.7922 19.5864 15.7922 19.9727C15.7922 20.359 15.6387 20.7295 15.3656 21.0026C15.0924 21.2758 14.7219 21.4293 14.3356 21.4293Z" fill="white"/>
<path d="M31.8143 18.0308C30.2779 18.0308 28.7759 18.4864 27.4984 19.34C26.2209 20.1936 25.2252 21.4068 24.6372 22.8263C24.0493 24.2458 23.8954 25.8078 24.1952 27.3147C24.4949 28.8216 25.2348 30.2058 26.3212 31.2922C27.4076 32.3787 28.7918 33.1185 30.2988 33.4183C31.8057 33.718 33.3676 33.5642 34.7871 32.9762C36.2066 32.3882 37.4199 31.3925 38.2735 30.115C39.1271 28.8375 39.5827 27.3356 39.5827 25.7992C39.5827 23.7388 38.7642 21.7629 37.3074 20.3061C35.8505 18.8492 33.8746 18.0308 31.8143 18.0308ZM34.9217 24.8669L31.6978 28.1103C31.5078 28.2866 31.2578 28.3839 30.9986 28.3821C30.7452 28.3837 30.5013 28.2861 30.3189 28.1103L28.7069 26.4789C28.5297 26.298 28.4309 26.0544 28.4322 25.8012C28.4335 25.5479 28.5347 25.3053 28.7138 25.1263C28.8929 24.9472 29.1354 24.846 29.3887 24.8447C29.642 24.8434 29.8855 24.9421 30.0664 25.1194L30.9986 26.0516L33.5622 23.4881C33.7437 23.3101 33.9877 23.2105 34.2419 23.2105C34.4961 23.2105 34.7401 23.3101 34.9217 23.4881C35.0127 23.5783 35.0849 23.6857 35.1342 23.8041C35.1835 23.9224 35.2089 24.0493 35.2089 24.1775C35.2089 24.3057 35.1835 24.4326 35.1342 24.5509C35.0849 24.6693 35.0127 24.7767 34.9217 24.8669Z" fill="white"/>
<path opacity="0.4" d="M35.6989 10.2617V15.0199C35.6989 15.098 35.6832 15.1754 35.6527 15.2474C35.6222 15.3194 35.5776 15.3845 35.5214 15.4389C35.4652 15.4932 35.3987 15.5357 35.3257 15.5638C35.2528 15.592 35.1749 15.6051 35.0968 15.6025C35.0178 15.5991 34.9396 15.586 34.8638 15.5636C33.8748 15.266 32.8474 15.1155 31.8147 15.117C28.9833 15.1221 26.2694 16.2491 24.2673 18.2512C22.2653 20.2533 21.1383 22.9672 21.1331 25.7985C21.13 26.2464 21.1559 26.694 21.2108 27.1386C21.2098 27.2979 21.146 27.4505 21.0333 27.5631C20.9207 27.6758 20.7681 27.7396 20.6088 27.7406H6.56739C5.77597 27.8535 4.96914 27.7807 4.21076 27.5278C3.45237 27.2749 2.76327 26.849 2.19798 26.2837C1.6327 25.7184 1.20677 25.0293 0.953901 24.2709C0.701033 23.5126 0.628173 22.7057 0.741091 21.9143V10.2617H35.6989Z" fill="white"/>
</svg>
