<svg width="32" height="32" viewBox="0 0 32 32" fill="none" xmlns="http://www.w3.org/2000/svg">
<path opacity="0.4" d="M30.3254 8.73689C29.9947 8.73689 29.6776 8.60553 29.4438 8.37171C29.2099 8.1379 29.0786 7.82078 29.0786 7.49011V3.12641C29.0786 2.5666 29.0138 2.50302 28.4552 2.50302H24.0915C23.7608 2.50302 23.4437 2.37166 23.2099 2.13785C22.9761 1.90403 22.8447 1.58691 22.8447 1.25625C22.8447 0.925581 22.9761 0.608459 23.2099 0.374644C23.4437 0.140828 23.7608 0.00947215 24.0915 0.00947215H28.4552C28.8731 -0.0244323 29.2934 0.0329279 29.687 0.177579C30.0805 0.32223 30.4379 0.550713 30.7344 0.847198C31.0309 1.14368 31.2594 1.50108 31.404 1.89464C31.5487 2.28819 31.606 2.70848 31.5721 3.12641V7.49011C31.5721 7.82078 31.4408 8.1379 31.207 8.37171C30.9732 8.60553 30.656 8.73689 30.3254 8.73689Z" fill="white"/>
<path d="M1.33828 8.73689C1.00761 8.73689 0.69049 8.60553 0.456675 8.37171C0.222859 8.1379 0.0915034 7.82078 0.0915034 7.49011V3.12641C0.0575989 2.70848 0.114959 2.28819 0.25961 1.89464C0.404261 1.50108 0.632744 1.14368 0.929229 0.847198C1.22572 0.550713 1.58311 0.32223 1.97667 0.177579C2.37022 0.0329279 2.79052 -0.0244323 3.20844 0.00947215H7.57214C7.90281 0.00947215 8.21993 0.140828 8.45375 0.374644C8.68756 0.608459 8.81892 0.925581 8.81892 1.25625C8.81892 1.58691 8.68756 1.90403 8.45375 2.13785C8.21993 2.37166 7.90281 2.50302 7.57214 2.50302H3.20844C2.64988 2.50302 2.58505 2.5666 2.58505 3.12641V7.49011C2.58505 7.82078 2.45369 8.1379 2.21988 8.37171C1.98606 8.60553 1.66894 8.73689 1.33828 8.73689Z" fill="white"/>
<path opacity="0.4" d="M7.57214 31.4906H3.20844C2.79052 31.5245 2.37022 31.4671 1.97667 31.3225C1.58311 31.1778 1.22572 30.9494 0.929229 30.6529C0.632744 30.3564 0.404261 29.999 0.25961 29.6054C0.114959 29.2119 0.0575989 28.7916 0.0915034 28.3737V24.01C0.0915034 23.6793 0.222859 23.3622 0.456675 23.1284C0.69049 22.8945 1.00761 22.7632 1.33828 22.7632C1.66894 22.7632 1.98606 22.8945 2.21988 23.1284C2.45369 23.3622 2.58505 23.6793 2.58505 24.01V28.3737C2.58505 28.9335 2.64988 28.997 3.20844 28.997H7.57214C7.90281 28.997 8.21993 29.1284 8.45375 29.3622C8.68756 29.596 8.81892 29.9132 8.81892 30.2438C8.81892 30.5745 8.68756 30.8916 8.45375 31.1254C8.21993 31.3592 7.90281 31.4906 7.57214 31.4906Z" fill="white"/>
<path d="M28.4552 31.4906H24.0915C23.7608 31.4906 23.4437 31.3592 23.2099 31.1254C22.9761 30.8916 22.8447 30.5745 22.8447 30.2438C22.8447 29.9132 22.9761 29.596 23.2099 29.3622C23.4437 29.1284 23.7608 28.997 24.0915 28.997H28.4552C29.0138 28.997 29.0786 28.9335 29.0786 28.3737V24.01C29.0786 23.6793 29.2099 23.3622 29.4438 23.1284C29.6776 22.8945 29.9947 22.7632 30.3254 22.7632C30.656 22.7632 30.9732 22.8945 31.207 23.1284C31.4408 23.3622 31.5721 23.6793 31.5721 24.01V28.3737C31.606 28.7916 31.5487 29.2119 31.404 29.6054C31.2594 29.999 31.0309 30.3564 30.7344 30.6529C30.4379 30.9494 30.0805 31.1778 29.687 31.3225C29.2934 31.4671 28.8731 31.5245 28.4552 31.4906Z" fill="white"/>
<path opacity="0.4" d="M17.7247 17.2579H14.2315C13.5826 17.2142 12.9318 17.3097 12.3228 17.5382C11.7139 17.7666 11.1608 18.1226 10.7007 18.5824C10.2406 19.0421 9.88411 19.5949 9.65519 20.2037C9.42626 20.8125 9.33016 21.4632 9.37335 22.1122C9.32708 22.531 9.3761 22.9549 9.51675 23.3522C9.6574 23.7494 9.88604 24.1097 10.1856 24.4061C10.4851 24.7025 10.8478 24.9274 11.2464 25.0639C11.6451 25.2004 12.0695 25.245 12.4879 25.1944H19.4684C19.8868 25.245 20.3112 25.2004 20.7098 25.0639C21.1085 24.9274 21.4712 24.7025 21.7707 24.4061C22.0703 24.1097 22.2989 23.7494 22.4395 23.3522C22.5802 22.9549 22.6292 22.531 22.5829 22.1122C22.6261 21.4632 22.53 20.8125 22.3011 20.2037C22.0722 19.5949 21.7157 19.0421 21.2556 18.5824C20.7955 18.1226 20.2424 17.7666 19.6335 17.5382C19.0245 17.3097 18.3737 17.2142 17.7247 17.2579Z" fill="white"/>
<path d="M15.9863 15.4207C16.6642 15.418 17.3261 15.2145 17.8885 14.8359C18.4508 14.4573 18.8884 13.9206 19.1459 13.2935C19.4035 12.6664 19.4695 11.9771 19.3356 11.3125C19.2016 10.6479 18.8738 10.0379 18.3935 9.55954C17.9132 9.08113 17.3019 8.75576 16.6368 8.62449C15.9717 8.49323 15.2827 8.56196 14.6566 8.82201C14.0305 9.08206 13.4956 9.52177 13.1192 10.0856C12.7429 10.6495 12.542 11.3122 12.542 11.9901C12.5451 12.9014 12.9094 13.7742 13.5551 14.4173C14.2007 15.0604 15.075 15.4212 15.9863 15.4207Z" fill="white"/>
<path opacity="0.4" d="M26.2516 16.5338C26.2884 16.8545 26.2522 17.1794 26.1456 17.4842C26.0389 17.7889 25.8647 18.0655 25.636 18.2933C25.4072 18.5211 25.1299 18.6942 24.8247 18.7996C24.5195 18.9049 24.1945 18.9399 23.8739 18.9017H23.4629C23.405 18.9027 23.348 18.8865 23.2993 18.8551C23.2505 18.8238 23.2121 18.7787 23.189 18.7256C22.8105 18.0376 22.2888 17.4388 21.6592 16.9695C21.0296 16.5003 20.3067 16.1715 19.5392 16.0054C19.4878 15.9952 19.44 15.9714 19.4009 15.9365C19.3617 15.9016 19.3327 15.8569 19.3167 15.8069C19.3007 15.757 19.2984 15.7037 19.31 15.6525C19.3216 15.6014 19.3467 15.5543 19.3826 15.5162C20.0687 14.8705 20.5487 14.0364 20.7623 13.1189C20.7776 13.055 20.8139 12.9982 20.8653 12.9574C20.9168 12.9166 20.9804 12.8942 21.0461 12.8938H22.6214C23.1071 12.8625 23.5939 12.9352 24.0492 13.1072C24.5045 13.2792 24.9178 13.5464 25.2615 13.891C25.6052 14.2357 25.8713 14.6497 26.0421 15.1054C26.2128 15.5612 26.2843 16.0482 26.2516 16.5338Z" fill="white"/>
<path d="M23.9815 9.21545C23.982 9.90941 23.7073 10.5752 23.2175 11.0668C22.7277 11.5585 22.0629 11.8357 21.3689 11.8378C21.2965 11.8378 21.2251 11.8378 21.1556 11.828C21.0799 11.8259 21.0076 11.7956 20.9531 11.7429C20.9075 11.6987 20.8803 11.639 20.8768 11.5756C20.8263 10.9403 20.6498 10.3215 20.3576 9.75522C20.0655 9.18891 19.6635 8.68643 19.1752 8.27708C19.1233 8.24192 19.0866 8.18845 19.0724 8.12737C19.054 8.06191 19.0614 7.99189 19.093 7.93167C19.3762 7.4272 19.8188 7.03097 20.3515 6.80509C20.8841 6.57921 21.4766 6.53644 22.0362 6.68349C22.5957 6.83054 23.0907 7.15909 23.4434 7.61765C23.7962 8.07621 23.9868 8.63886 23.9854 9.21741L23.9815 9.21545Z" fill="white"/>
<path opacity="0.4" d="M5.70341 16.5338C5.66659 16.8545 5.70285 17.1794 5.80947 17.4842C5.9161 17.7889 6.09031 18.0655 6.31907 18.2933C6.54782 18.5211 6.82517 18.6942 7.13034 18.7996C7.4355 18.9049 7.76056 18.9399 8.08114 18.9017H8.4921C8.55006 18.9027 8.607 18.8865 8.65576 18.8551C8.70452 18.8238 8.7429 18.7787 8.76608 18.7256C9.14457 18.0376 9.66622 17.4388 10.2958 16.9695C10.9254 16.5003 11.6484 16.1715 12.4158 16.0054C12.4673 15.9952 12.515 15.9714 12.5542 15.9365C12.5933 15.9016 12.6223 15.8569 12.6383 15.8069C12.6543 15.757 12.6566 15.7037 12.645 15.6525C12.6334 15.6014 12.6084 15.5543 12.5724 15.5162C11.8863 14.8705 11.4064 14.0364 11.1927 13.1189C11.1774 13.055 11.1411 12.9982 11.0897 12.9574C11.0383 12.9166 10.9746 12.8942 10.909 12.8938H9.3336C8.84791 12.8625 8.36113 12.9352 7.90584 13.1072C7.45054 13.2792 7.03722 13.5464 6.69353 13.891C6.34985 14.2357 6.08373 14.6497 5.91297 15.1054C5.74222 15.5612 5.67077 16.0482 5.70341 16.5338Z" fill="white"/>
<path d="M7.97365 9.21545C7.97313 9.90941 8.2479 10.5752 8.73768 11.0668C9.22747 11.5585 9.89226 11.8357 10.5862 11.8378C10.6586 11.8378 10.7301 11.8378 10.7995 11.828C10.8753 11.8259 10.9476 11.7956 11.0021 11.7429C11.0476 11.6987 11.0749 11.639 11.0784 11.5756C11.1289 10.9403 11.3054 10.3215 11.5975 9.75522C11.8897 9.18891 12.2916 8.68643 12.78 8.27708C12.8319 8.24192 12.8686 8.18845 12.8827 8.12737C12.9011 8.06191 12.8938 7.99189 12.8622 7.93167C12.5789 7.4272 12.1363 7.03097 11.6037 6.80509C11.0711 6.57921 10.4785 6.53644 9.91899 6.68349C9.35944 6.83054 8.8645 7.15909 8.51175 7.61765C8.15899 8.07621 7.96836 8.63886 7.96973 9.21741L7.97365 9.21545Z" fill="white"/>
</svg>
