<svg width="46" height="45" viewBox="0 0 46 45" fill="none" xmlns="http://www.w3.org/2000/svg">
<path opacity="0.4" d="M34.25 13.125H9.87505C8.8814 13.122 7.9293 12.726 7.22668 12.0234C6.52406 11.3208 6.12802 10.3686 6.12505 9.375V33.75C6.01603 34.5141 6.08637 35.293 6.33051 36.0252C6.57464 36.7574 6.98586 37.4227 7.53161 37.9684C8.07736 38.5142 8.74266 38.9254 9.47484 39.1695C10.207 39.4137 10.986 39.484 11.75 39.375H34.25C35.0141 39.484 35.7931 39.4137 36.5253 39.1695C37.2574 38.9254 37.9227 38.5142 38.4685 37.9684C39.0142 37.4227 39.4255 36.7574 39.6696 36.0252C39.9137 35.293 39.9841 34.5141 39.875 33.75V18.75C39.9841 17.9859 39.9137 17.207 39.6696 16.4748C39.4255 15.7426 39.0142 15.0773 38.4685 14.5316C37.9227 13.9858 37.2574 13.5746 36.5253 13.3305C35.7931 13.0863 35.0141 13.016 34.25 13.125Z" fill="white"/>
<path d="M31.4375 21.5625C30.1943 21.5625 29.002 22.0564 28.1229 22.9354C27.2439 23.8145 26.75 25.0068 26.75 26.25C26.75 27.4932 27.2439 28.6855 28.1229 29.5646C29.002 30.4436 30.1943 30.9375 31.4375 30.9375H39.875V21.5625H31.4375ZM32.375 28.125C32.0042 28.125 31.6416 28.015 31.3333 27.809C31.025 27.603 30.7846 27.3101 30.6427 26.9675C30.5008 26.6249 30.4637 26.2479 30.536 25.8842C30.6084 25.5205 30.787 25.1864 31.0492 24.9242C31.3114 24.662 31.6455 24.4834 32.0092 24.411C32.3729 24.3387 32.7499 24.3758 33.0925 24.5177C33.4351 24.6596 33.728 24.9 33.934 25.2083C34.14 25.5166 34.25 25.8792 34.25 26.25C34.25 26.7473 34.0525 27.2242 33.7008 27.5758C33.3492 27.9275 32.8723 28.125 32.375 28.125Z" fill="white"/>
<path d="M9.875 5.62505H28.625C29.3891 5.51603 30.168 5.58637 30.9002 5.83051C31.6324 6.07464 32.2977 6.48586 32.8434 7.03161C33.3892 7.57736 33.8004 8.24266 34.0445 8.97484C34.2887 9.70702 34.359 10.486 34.25 11.25V13.125H9.875C8.88271 13.1177 7.93316 12.7202 7.23148 12.0186C6.52981 11.3169 6.13236 10.3673 6.125 9.37505C6.12797 8.3814 6.52401 7.4293 7.22663 6.72668C7.92925 6.02406 8.88135 5.62802 9.875 5.62505Z" fill="white"/>
</svg>
