<svg width="34" height="28" viewBox="0 0 34 28" fill="none" xmlns="http://www.w3.org/2000/svg">
<path d="M26.8704 8.65172C26.6548 9.29944 26.2953 9.87313 25.8101 10.3358C25.3249 10.7984 24.7409 11.1316 24.103 11.3074C23.5459 11.4647 22.9708 11.5017 22.3958 11.4092C21.8297 11.3259 21.2816 11.1131 20.7964 10.7984C20.7425 10.7614 20.7066 10.7152 20.6706 10.6596C20.6437 10.6041 20.6257 10.5486 20.6167 10.4838C20.6167 10.4191 20.6167 10.3543 20.6437 10.2988C20.6706 10.2433 20.6976 10.1877 20.7425 10.1415C21.8926 8.77201 22.5216 7.03242 22.5305 5.22805C22.5305 4.68212 22.4766 4.14544 22.3598 3.61801C22.3419 3.56249 22.3329 3.50697 22.3329 3.45145C22.3329 3.34041 22.3778 3.22938 22.4497 3.1461C22.5305 3.06282 22.6294 3.01655 22.7462 3.0073C22.7642 3.0073 22.9439 2.99805 23.0157 2.99805C23.6717 2.99805 24.3186 3.1646 24.9026 3.47921C25.4867 3.79382 25.9898 4.24722 26.3672 4.80241C26.7446 5.3576 26.9872 5.99606 27.0771 6.67154C27.1669 7.34702 27.095 8.0225 26.8794 8.67022L26.8704 8.65172Z" fill="url(#paint0_linear_2155_25829)"/>
<path d="M16.0523 20.2831C16.0523 17.4794 17.3012 14.9811 19.26 13.3433C18.7838 13.2692 18.2986 13.2507 17.8224 13.2785H12.6649C11.7034 13.2137 10.742 13.3618 9.8435 13.7134C8.94498 14.065 8.12733 14.6109 7.44445 15.3049C6.76157 16.0082 6.24043 16.8502 5.899 17.7755C5.55756 18.7008 5.42278 19.7002 5.48568 20.681V24.6413C5.48568 24.8357 5.56654 25.03 5.70132 25.1688C5.8361 25.3076 6.02479 25.3908 6.21348 25.3908H17.6157C16.6273 23.9381 16.0433 22.18 16.0433 20.2739L16.0523 20.2831Z" fill="url(#paint1_linear_2155_25829)"/>
<path d="M3.62535 8.65172C3.841 9.29944 4.2004 9.87313 4.68561 10.3358C5.17081 10.7984 5.75484 11.1316 6.39279 11.3074C6.94988 11.4647 7.52493 11.5017 8.09998 11.4092C8.66605 11.3259 9.21415 11.1131 9.69935 10.7984C9.75326 10.7614 9.7892 10.7152 9.82514 10.6596C9.8521 10.6041 9.87007 10.5486 9.87905 10.4838C9.87905 10.4191 9.87905 10.3543 9.8521 10.2988C9.83413 10.2433 9.79819 10.1877 9.75326 10.1415C8.60315 8.77201 7.97419 7.03242 7.9652 5.22805C7.9652 4.68212 8.01911 4.14544 8.13592 3.61801C8.15389 3.56249 8.16288 3.50697 8.16288 3.45145C8.16288 3.34041 8.11795 3.22938 8.04607 3.1461C7.9652 3.06282 7.86637 3.01655 7.74956 3.0073C7.73159 3.0073 7.55188 2.99805 7.48 2.99805C6.82408 2.99805 6.17715 3.1646 5.59311 3.47921C5.00907 3.79382 4.5059 4.24722 4.12852 4.80241C3.75114 5.3576 3.50854 5.99606 3.41869 6.67154C3.32884 7.34702 3.40072 8.0225 3.61637 8.67022L3.62535 8.65172Z" fill="url(#paint2_linear_2155_25829)"/>
<path d="M5.57536 12.9542C5.63826 12.9542 5.69217 12.9542 5.74608 12.982C5.79999 13.0005 5.8539 13.0375 5.88984 13.0745C5.92578 13.1115 5.96172 13.167 5.98868 13.2225C6.00665 13.2781 6.02462 13.3428 6.01563 13.3984C5.99766 13.5186 5.94375 13.6389 5.8539 13.7315C4.16468 15.6284 3.25718 18.1267 3.31109 20.6898V22.0223C3.31109 22.1241 3.26616 22.2258 3.19428 22.2999C3.1224 22.3739 3.02356 22.4109 2.92472 22.4109H0.741321C0.552632 22.4109 0.363943 22.3276 0.229164 22.1888C0.0943865 22.05 0.0135197 21.8557 0.0135197 21.6614V18.6911C-0.0403915 17.9231 0.0674309 17.1551 0.328002 16.4426C0.588573 15.7209 0.992907 15.0732 1.52303 14.5272C2.05316 13.9813 2.68212 13.5649 3.38297 13.2966C4.08382 13.0282 4.82959 12.9079 5.56637 12.9635L5.57536 12.9542Z" fill="url(#paint3_linear_2155_25829)"/>
<path d="M15.2612 10.456C18.0646 10.456 20.3378 8.115 20.3378 5.22802C20.3378 2.34104 18.0646 0 15.2612 0C12.4578 0 10.1846 2.34104 10.1846 5.22802C10.1846 8.115 12.4578 10.456 15.2612 10.456Z" fill="url(#paint4_linear_2155_25829)"/>
<path d="M25.395 24.2648C24.4672 24.2648 23.5644 23.9119 22.8706 23.2748C22.1768 22.6378 21.7254 21.7684 21.6083 20.8129C21.4913 19.8659 21.717 18.9018 22.2353 18.1012C22.7535 17.3093 23.5393 16.7325 24.4421 16.4915C24.5424 16.4656 24.6427 16.457 24.743 16.4656C24.8433 16.4828 24.9436 16.5173 25.0272 16.5689C25.1192 16.6206 25.1944 16.6894 25.2529 16.7755C25.3114 16.8616 25.3616 16.9563 25.3867 17.0596C25.4117 17.1629 25.4201 17.2662 25.4034 17.3695C25.3867 17.4728 25.3532 17.5761 25.3031 17.6622C25.2529 17.7483 25.1777 17.8258 25.0941 17.8946C25.0105 17.9549 24.9186 17.9979 24.8182 18.0237C24.4254 18.127 24.0659 18.3336 23.7817 18.6263C23.4891 18.919 23.2885 19.2892 23.1799 19.6852C23.0712 20.0898 23.0712 20.5116 23.1799 20.9162C23.2802 21.3208 23.4891 21.6909 23.7734 21.9836C24.0576 22.2763 24.417 22.4915 24.8099 22.5948C25.2028 22.6981 25.6124 22.6981 26.0052 22.5948C26.3981 22.4829 26.7492 22.2677 27.0334 21.975C27.3176 21.6737 27.5182 21.3121 27.6185 20.9075C27.6436 20.8042 27.6854 20.7096 27.7439 20.6321C27.8024 20.546 27.8777 20.4771 27.9696 20.4255C28.0532 20.3738 28.1535 20.3394 28.2538 20.3222C28.3541 20.305 28.4545 20.3136 28.5548 20.3394C28.6551 20.3652 28.747 20.4083 28.8223 20.4771C28.9058 20.5374 28.9727 20.6149 29.0229 20.7096C29.073 20.7956 29.1065 20.8989 29.1232 21.0022C29.1399 21.1055 29.1232 21.2088 29.1065 21.3121C28.8975 22.1644 28.421 22.9133 27.7439 23.447C27.0752 23.9807 26.2476 24.2734 25.395 24.2734V24.2648Z" fill="url(#paint5_linear_2155_25829)"/>
<path d="M25.3948 27.4245C23.5641 27.4245 21.8087 26.6756 20.5214 25.3413C19.2258 24.007 18.4985 22.1992 18.4985 20.3226C18.4985 18.446 19.2258 16.6296 20.5214 15.3039C21.8171 13.9696 23.5725 13.2207 25.3948 13.2207C25.562 13.2207 25.7292 13.2293 25.8963 13.2465C25.9966 13.2465 26.097 13.281 26.1889 13.3326C26.2809 13.3843 26.3561 13.4445 26.423 13.5306C26.4898 13.6081 26.54 13.7028 26.5651 13.8061C26.5901 13.9094 26.6069 14.0127 26.5901 14.116C26.5734 14.2193 26.5483 14.3226 26.4982 14.4173C26.448 14.512 26.3812 14.5894 26.2976 14.6583C26.214 14.7272 26.122 14.7702 26.0217 14.796C25.9214 14.8219 25.8211 14.8305 25.7208 14.8133C25.6121 14.8046 25.5035 14.796 25.3948 14.796C24.3332 14.796 23.2967 15.1232 22.419 15.7257C21.5329 16.3283 20.8474 17.1978 20.4462 18.2049C20.0366 19.2121 19.9363 20.3226 20.1369 21.3987C20.3459 22.4661 20.8558 23.4561 21.6081 24.2308C22.3604 25.0056 23.3134 25.5307 24.3583 25.7459C25.3948 25.9611 26.4731 25.8492 27.4595 25.4274C28.4375 25.0056 29.2734 24.2997 29.8669 23.3958C30.4604 22.4833 30.7697 21.4159 30.7697 20.3312C30.7697 20.2193 30.7697 20.1074 30.753 19.9955C30.7279 19.7889 30.7864 19.5823 30.9118 19.4187C31.0372 19.2552 31.2211 19.1519 31.4217 19.126C31.522 19.1088 31.6223 19.126 31.7226 19.1519C31.8229 19.1777 31.9149 19.2293 31.9901 19.2896C32.0654 19.3499 32.1322 19.4359 32.1824 19.5306C32.2325 19.6253 32.2576 19.72 32.2743 19.8233C32.291 19.9955 32.2994 20.1677 32.2994 20.3398C32.2994 22.2251 31.5722 24.0242 30.2765 25.3585C28.9808 26.6928 27.2338 27.4417 25.4032 27.4417L25.3948 27.4245Z" fill="url(#paint6_linear_2155_25829)"/>
<path d="M33.411 15.4414C33.3859 15.3726 33.3358 15.3037 33.2689 15.2607C33.202 15.2176 33.1352 15.1918 33.0599 15.1918H30.3767V12.4285C30.3767 12.351 30.3516 12.2736 30.3098 12.2047C30.268 12.1358 30.2095 12.0928 30.1343 12.0583C30.0674 12.0325 29.9838 12.0239 29.9086 12.0325C29.8333 12.0497 29.7665 12.0842 29.7163 12.1444L27.7519 14.1674C27.4677 14.4601 27.3005 14.8647 27.3005 15.2865V17.232L24.8429 19.7628C24.7677 19.8317 24.7092 19.9264 24.6674 20.0211C24.6256 20.1158 24.6089 20.2191 24.6089 20.3224C24.6089 20.4257 24.6256 20.529 24.6674 20.6323C24.7092 20.727 24.7594 20.8217 24.8346 20.8905C24.9098 20.968 24.9934 21.0197 25.0854 21.0627C25.1773 21.1057 25.2776 21.123 25.3863 21.123C25.4866 21.123 25.5869 21.0971 25.6789 21.0627C25.7708 21.0197 25.8544 20.9594 25.9296 20.8819L28.3872 18.3511H30.2764C30.686 18.3511 31.0705 18.1875 31.363 17.8862L33.3274 15.8632C33.3776 15.8116 33.4194 15.7341 33.4361 15.6653C33.4528 15.5878 33.4361 15.5103 33.411 15.4414Z" fill="url(#paint7_linear_2155_25829)"/>
<defs>
<linearGradient id="paint0_linear_2155_25829" x1="28.6462" y1="2.99805" x2="18.7636" y2="10.688" gradientUnits="userSpaceOnUse">
<stop stop-color="#FBC5AF"/>
<stop offset="1" stop-color="#7D1416"/>
</linearGradient>
<linearGradient id="paint1_linear_2155_25829" x1="22.5095" y1="13.2637" x2="8.04187" y2="29.9308" gradientUnits="userSpaceOnUse">
<stop stop-color="#FBC5AF"/>
<stop offset="1" stop-color="#7D1416"/>
</linearGradient>
<linearGradient id="paint2_linear_2155_25829" x1="11.4104" y1="2.99805" x2="1.52772" y2="10.688" gradientUnits="userSpaceOnUse">
<stop stop-color="#FBC5AF"/>
<stop offset="1" stop-color="#7D1416"/>
</linearGradient>
<linearGradient id="paint3_linear_2155_25829" x1="7.43621" y1="12.9502" x2="-2.94558" y2="19.6411" gradientUnits="userSpaceOnUse">
<stop stop-color="#FBC5AF"/>
<stop offset="1" stop-color="#7D1416"/>
</linearGradient>
<linearGradient id="paint4_linear_2155_25829" x1="22.7305" y1="1.74295e-09" x2="10.1331" y2="12.3938" gradientUnits="userSpaceOnUse">
<stop stop-color="#FBC5AF"/>
<stop offset="1" stop-color="#7D1416"/>
</linearGradient>
<linearGradient id="paint5_linear_2155_25829" x1="22.8623" y1="26.3326" x2="29.0306" y2="18.014" gradientUnits="userSpaceOnUse">
<stop stop-color="#C4786D"/>
<stop offset="1" stop-color="#E0D4D2"/>
</linearGradient>
<linearGradient id="paint6_linear_2155_25829" x1="20.8452" y1="31.1908" x2="32.0633" y2="16.0054" gradientUnits="userSpaceOnUse">
<stop stop-color="#C4786D"/>
<stop offset="1" stop-color="#E0D4D2"/>
</linearGradient>
<linearGradient id="paint7_linear_2155_25829" x1="26.111" y1="23.5203" x2="33.2823" y2="13.8031" gradientUnits="userSpaceOnUse">
<stop stop-color="#C4786D"/>
<stop offset="1" stop-color="#E0D4D2"/>
</linearGradient>
</defs>
</svg>
