<svg width="60" height="60" viewBox="0 0 60 60" fill="none" xmlns="http://www.w3.org/2000/svg">
<path opacity="0.4" d="M48.95 13.6997C48.1367 12.749 47.2507 11.863 46.3 11.0497C41.771 7.14685 35.9911 5 30.0125 5C24.0339 5 18.254 7.14685 13.725 11.0497C12.7683 11.8565 11.8817 12.743 11.075 13.6997C7.15664 18.2263 5 24.0128 5 29.9997C5 35.9866 7.15664 41.7732 11.075 46.2997C11.8817 47.2565 12.7683 48.143 13.725 48.9497C18.254 52.8526 24.0339 54.9995 30.0125 54.9995C35.9911 54.9995 41.771 52.8526 46.3 48.9497C47.2507 48.1365 48.1367 47.2505 48.95 46.2997C52.8533 41.7661 55.0001 35.9822 55.0001 29.9997C55.0001 24.0173 52.8533 18.2334 48.95 13.6997ZM30 41.0997C27.6933 41.1019 25.4447 40.3757 23.575 39.0247C22.5515 38.3221 21.6624 37.4414 20.95 36.4247C19.6163 34.5478 18.8998 32.3023 18.8998 29.9997C18.8998 27.6972 19.6163 25.4517 20.95 23.5747C21.6624 22.558 22.5515 21.6774 23.575 20.9747C25.4447 19.6237 27.6933 18.8976 30 18.8997C32.3094 18.9048 34.5614 19.6206 36.45 20.9497C37.4686 21.6683 38.3564 22.5562 39.075 23.5747C40.4087 25.4517 41.1252 27.6972 41.1252 29.9997C41.1252 32.3023 40.4087 34.5478 39.075 36.4247C38.3564 37.4433 37.4686 38.3312 36.45 39.0497C34.5614 40.3789 32.3094 41.0947 30 41.0997Z" fill="white"/>
<path d="M48.9492 13.6998L39.1992 23.4748C39.1492 23.4998 39.1242 23.5498 39.0742 23.5748C38.3556 22.5562 37.4678 21.6684 36.4492 20.9498C36.4746 20.9024 36.5085 20.86 36.5492 20.8248L46.2992 11.0498C47.25 11.8631 48.136 12.7491 48.9492 13.6998Z" fill="white"/>
<path d="M23.5742 39.0248C23.5498 39.0802 23.516 39.131 23.4742 39.1748L13.7242 48.9498C12.7675 48.1431 11.881 47.2565 11.0742 46.2998L20.8242 36.5248C20.8538 36.4787 20.8977 36.4435 20.9492 36.4248C21.6617 37.4415 22.5507 38.3221 23.5742 39.0248Z" fill="white"/>
<path d="M23.5742 20.9748C22.5507 21.6775 21.6617 22.5581 20.9492 23.5748C20.8992 23.5498 20.8742 23.4998 20.8242 23.4748L11.0742 13.6998C11.881 12.7431 12.7675 11.8565 13.7242 11.0498L23.4742 20.8248C23.516 20.8686 23.5498 20.9194 23.5742 20.9748Z" fill="white"/>
<path d="M48.9492 46.2998C48.136 47.2506 47.25 48.1366 46.2992 48.9498L36.5492 39.1748C36.5085 39.1396 36.4746 39.0972 36.4492 39.0498C37.4678 38.3312 38.3556 37.4434 39.0742 36.4248C39.1216 36.4502 39.164 36.4841 39.1992 36.5248L48.9492 46.2998Z" fill="white"/>
</svg>
