<svg width="53" height="59" viewBox="0 0 53 59" fill="none" xmlns="http://www.w3.org/2000/svg">
<g opacity="0.4">
<path d="M21.5147 18.3125H15.5602C14.454 18.238 13.3446 18.4009 12.3066 18.7903C11.2685 19.1797 10.3257 19.7866 9.5414 20.5702C8.75711 21.3539 8.14947 22.2962 7.75924 23.334C7.369 24.3717 7.2052 25.4809 7.27881 26.5872C7.19994 27.3012 7.28351 28.0238 7.52326 28.7009C7.76302 29.3781 8.15275 29.9922 8.66334 30.4975C9.17392 31.0028 9.79212 31.3861 10.4717 31.6188C11.1513 31.8515 11.8748 31.9275 12.5879 31.8412H24.487C25.2002 31.9275 25.9236 31.8515 26.6032 31.6188C27.2828 31.3861 27.901 31.0028 28.4116 30.4975C28.9222 29.9922 29.3119 29.3781 29.5517 28.7009C29.7914 28.0238 29.875 27.3012 29.7961 26.5872C29.8697 25.4809 29.7059 24.3717 29.3157 23.334C28.9254 22.2962 28.3178 21.3539 27.5335 20.5702C26.7492 19.7866 25.8064 19.1797 24.7684 18.7903C23.7303 18.4009 22.6209 18.238 21.5147 18.3125Z" fill="white"/>
<path d="M21.5147 18.3125H15.5602C14.454 18.238 13.3446 18.4009 12.3066 18.7903C11.2685 19.1797 10.3257 19.7866 9.5414 20.5702C8.75711 21.3539 8.14947 22.2962 7.75924 23.334C7.369 24.3717 7.2052 25.4809 7.27881 26.5872C7.19994 27.3012 7.28351 28.0238 7.52326 28.7009C7.76302 29.3781 8.15275 29.9922 8.66334 30.4975C9.17392 31.0028 9.79212 31.3861 10.4717 31.6188C11.1513 31.8515 11.8748 31.9275 12.5879 31.8412H24.487C25.2002 31.9275 25.9236 31.8515 26.6032 31.6188C27.2828 31.3861 27.901 31.0028 28.4116 30.4975C28.9222 29.9922 29.3119 29.3781 29.5517 28.7009C29.7914 28.0238 29.875 27.3012 29.7961 26.5872C29.8697 25.4809 29.7059 24.3717 29.3157 23.334C28.9254 22.2962 28.3178 21.3539 27.5335 20.5702C26.7492 19.7866 25.8064 19.1797 24.7684 18.7903C23.7303 18.4009 22.6209 18.238 21.5147 18.3125Z" fill="url(#paint0_linear_245_93707)"/>
</g>
<path d="M18.5509 15.1819C19.7064 15.1773 20.8348 14.8304 21.7934 14.1851C22.7519 13.5397 23.4978 12.6248 23.9369 11.5558C24.3759 10.4869 24.4884 9.31183 24.2601 8.17901C24.0318 7.04618 23.4731 6.00639 22.6543 5.19089C21.8355 4.37539 20.7935 3.82075 19.6598 3.597C18.5261 3.37325 17.3515 3.49041 16.2843 3.93369C15.2171 4.37698 14.3052 5.12651 13.6636 6.08767C13.0221 7.04883 12.6797 8.17851 12.6797 9.33411C12.685 10.8875 13.306 12.3753 14.4066 13.4715C15.5072 14.5677 16.9975 15.1828 18.5509 15.1819Z" fill="#D6FFAC"/>
<g opacity="0.4">
<path d="M36.0503 17.0801C36.113 17.6269 36.0512 18.1807 35.8695 18.7001C35.6877 19.2196 35.3907 19.6911 35.0008 20.0795C34.6109 20.4678 34.1381 20.7628 33.6179 20.9424C33.0977 21.1221 32.5436 21.1816 31.9971 21.1166H31.2966C31.1978 21.1182 31.1008 21.0906 31.0176 21.0372C30.9345 20.9837 30.8691 20.9069 30.8296 20.8163C30.1844 19.6435 29.2952 18.6228 28.222 17.8229C27.1487 17.023 25.9164 16.4626 24.6081 16.1794C24.5205 16.1621 24.4391 16.1215 24.3724 16.062C24.3057 16.0025 24.2561 15.9262 24.2289 15.8411C24.2016 15.756 24.1977 15.6651 24.2175 15.578C24.2372 15.4908 24.28 15.4105 24.3413 15.3455C25.5107 14.2448 26.3289 12.8231 26.6931 11.259C26.7192 11.1502 26.781 11.0532 26.8687 10.9837C26.9564 10.9141 27.0649 10.876 27.1768 10.8754H29.8622C30.6901 10.822 31.5199 10.946 32.296 11.2391C33.0721 11.5323 33.7766 11.9878 34.3625 12.5753C34.9483 13.1627 35.402 13.8685 35.693 14.6454C35.9841 15.4223 36.1059 16.2524 36.0503 17.0801Z" fill="white"/>
<path d="M36.0503 17.0801C36.113 17.6269 36.0512 18.1807 35.8695 18.7001C35.6877 19.2196 35.3907 19.6911 35.0008 20.0795C34.6109 20.4678 34.1381 20.7628 33.6179 20.9424C33.0977 21.1221 32.5436 21.1816 31.9971 21.1166H31.2966C31.1978 21.1182 31.1008 21.0906 31.0176 21.0372C30.9345 20.9837 30.8691 20.9069 30.8296 20.8163C30.1844 19.6435 29.2952 18.6228 28.222 17.8229C27.1487 17.023 25.9164 16.4626 24.6081 16.1794C24.5205 16.1621 24.4391 16.1215 24.3724 16.062C24.3057 16.0025 24.2561 15.9262 24.2289 15.8411C24.2016 15.756 24.1977 15.6651 24.2175 15.578C24.2372 15.4908 24.28 15.4105 24.3413 15.3455C25.5107 14.2448 26.3289 12.8231 26.6931 11.259C26.7192 11.1502 26.781 11.0532 26.8687 10.9837C26.9564 10.9141 27.0649 10.876 27.1768 10.8754H29.8622C30.6901 10.822 31.5199 10.946 32.296 11.2391C33.0721 11.5323 33.7766 11.9878 34.3625 12.5753C34.9483 13.1627 35.402 13.8685 35.693 14.6454C35.9841 15.4223 36.1059 16.2524 36.0503 17.0801Z" fill="url(#paint1_linear_245_93707)"/>
</g>
<path d="M32.1809 4.60394C32.1818 5.78686 31.7134 6.92184 30.8785 7.75986C30.0436 8.59788 28.9104 9.0705 27.7275 9.07403C27.6041 9.07403 27.4823 9.07403 27.3639 9.05735C27.2347 9.05383 27.1115 9.00206 27.0186 8.91224C26.9409 8.83691 26.8945 8.73507 26.8885 8.62702C26.8024 7.54421 26.5016 6.48938 26.0036 5.52404C25.5056 4.55869 24.8204 3.70216 23.988 3.00437C23.8995 2.94444 23.8369 2.85329 23.8128 2.74918C23.7815 2.63759 23.794 2.51823 23.8479 2.41559C24.3307 1.55566 25.0852 0.880243 25.9931 0.495198C26.901 0.110154 27.9111 0.0372483 28.8649 0.28791C29.8187 0.538572 30.6624 1.09863 31.2637 1.8803C31.865 2.66198 32.1899 3.62108 32.1876 4.60727L32.1809 4.60394Z" fill="#D6FFAC"/>
<g opacity="0.4">
<path d="M1.02379 17.0801C0.961028 17.6269 1.02284 18.1807 1.20459 18.7001C1.38634 19.2196 1.68331 19.6911 2.07325 20.0795C2.46319 20.4678 2.93597 20.7628 3.45616 20.9424C3.97634 21.1221 4.53044 21.1816 5.0769 21.1166H5.77744C5.87623 21.1182 5.9733 21.0906 6.05641 21.0372C6.13952 20.9837 6.20496 20.9069 6.24447 20.8163C6.88965 19.6435 7.77886 18.6228 8.8521 17.8229C9.92534 17.023 11.1577 16.4626 12.4659 16.1794C12.5536 16.1621 12.635 16.1215 12.7017 16.062C12.7684 16.0025 12.8179 15.9262 12.8452 15.8411C12.8724 15.756 12.8763 15.6651 12.8566 15.578C12.8368 15.4908 12.7941 15.4105 12.7328 15.3455C11.5633 14.2448 10.7451 12.8231 10.381 11.259C10.3549 11.1502 10.293 11.0532 10.2053 10.9837C10.1177 10.9141 10.0092 10.876 9.89727 10.8754H7.21187C6.38396 10.822 5.55419 10.946 4.77808 11.2391C4.00197 11.5323 3.29742 11.9878 2.71157 12.5753C2.12572 13.1627 1.67209 13.8685 1.38102 14.6454C1.08995 15.4223 0.968155 16.2524 1.02379 17.0801Z" fill="white"/>
<path d="M1.02379 17.0801C0.961028 17.6269 1.02284 18.1807 1.20459 18.7001C1.38634 19.2196 1.68331 19.6911 2.07325 20.0795C2.46319 20.4678 2.93597 20.7628 3.45616 20.9424C3.97634 21.1221 4.53044 21.1816 5.0769 21.1166H5.77744C5.87623 21.1182 5.9733 21.0906 6.05641 21.0372C6.13952 20.9837 6.20496 20.9069 6.24447 20.8163C6.88965 19.6435 7.77886 18.6228 8.8521 17.8229C9.92534 17.023 11.1577 16.4626 12.4659 16.1794C12.5536 16.1621 12.635 16.1215 12.7017 16.062C12.7684 16.0025 12.8179 15.9262 12.8452 15.8411C12.8724 15.756 12.8763 15.6651 12.8566 15.578C12.8368 15.4908 12.7941 15.4105 12.7328 15.3455C11.5633 14.2448 10.7451 12.8231 10.381 11.259C10.3549 11.1502 10.293 11.0532 10.2053 10.9837C10.1177 10.9141 10.0092 10.876 9.89727 10.8754H7.21187C6.38396 10.822 5.55419 10.946 4.77808 11.2391C4.00197 11.5323 3.29742 11.9878 2.71157 12.5753C2.12572 13.1627 1.67209 13.8685 1.38102 14.6454C1.08995 15.4223 0.968155 16.2524 1.02379 17.0801Z" fill="url(#paint2_linear_245_93707)"/>
</g>
<path d="M4.8934 4.60394C4.89251 5.78686 5.3609 6.92184 6.19579 7.75986C7.03068 8.59788 8.1639 9.0705 9.34682 9.07403C9.47025 9.07403 9.59201 9.07403 9.71044 9.05735C9.83961 9.05383 9.96279 9.00206 10.0557 8.91224C10.1334 8.83691 10.1798 8.73507 10.1858 8.62702C10.2719 7.54421 10.5727 6.48938 11.0707 5.52404C11.5687 4.55869 12.2539 3.70216 13.0864 3.00437C13.1748 2.94444 13.2374 2.85329 13.2615 2.74918C13.2929 2.63759 13.2803 2.51823 13.2265 2.41559C12.7436 1.55566 11.9891 0.880243 11.0812 0.495198C10.1733 0.110154 9.16327 0.0372483 8.20946 0.28791C7.25565 0.538572 6.41197 1.09863 5.81065 1.8803C5.20934 2.66198 4.88439 3.62108 4.88673 4.60727L4.8934 4.60394Z" fill="#D6FFAC"/>
<g filter="url(#filter0_d_245_93707)">
<g filter="url(#filter1_b_245_93707)">
<path d="M38.3079 42.8581C46.155 42.8581 52.5163 36.4968 52.5163 28.6497C52.5163 20.8027 46.155 14.4414 38.3079 14.4414C30.4609 14.4414 24.0996 20.8027 24.0996 28.6497C24.0996 36.4968 30.4609 42.8581 38.3079 42.8581Z" fill="#6CF256" fill-opacity="0.07"/>
</g>
<path d="M42.5309 31.5151C42.5308 30.6841 42.2531 29.877 41.7419 29.2218C41.2306 28.5667 40.5152 28.1011 39.7091 27.8991L37.4244 27.3308C37.0756 27.2435 36.7666 27.0407 36.5478 26.7553C36.3308 26.4775 36.2142 26.1345 36.2167 25.782C36.2175 25.3596 36.3857 24.9547 36.6846 24.6561C36.9834 24.3575 37.3885 24.1897 37.8109 24.1893H38.8055C39.1982 24.19 39.5768 24.3352 39.8693 24.5973C40.1617 24.8593 40.3475 25.2199 40.3911 25.6101C40.4028 25.7523 40.4428 25.8906 40.5089 26.017C40.575 26.1434 40.6658 26.2552 40.7759 26.3459C40.886 26.4365 41.0132 26.5041 41.1499 26.5447C41.2867 26.5853 41.4302 26.598 41.5719 26.5821C41.7136 26.5663 41.8507 26.5221 41.9751 26.4522C42.0994 26.3824 42.2085 26.2883 42.2958 26.1755C42.3831 26.0627 42.4469 25.9336 42.4834 25.7957C42.5199 25.6578 42.5283 25.514 42.5082 25.3728C42.4168 24.5545 42.0564 23.7896 41.4835 23.1982C40.9106 22.6068 40.1576 22.2222 39.3425 22.1049V21.5451C39.3425 21.2625 39.2303 20.9914 39.0304 20.7916C38.8306 20.5918 38.5595 20.4795 38.2769 20.4795C37.9943 20.4795 37.7233 20.5918 37.5234 20.7916C37.3236 20.9914 37.2113 21.2625 37.2113 21.5451V22.1135C36.3661 22.251 35.5942 22.6759 35.0259 23.3165C34.4577 23.9571 34.1278 24.7741 34.0921 25.6297C34.0564 26.4853 34.3169 27.327 34.8298 28.0127C35.3427 28.6985 36.0764 29.1863 36.9072 29.3938L39.1919 29.9621C39.5691 30.0571 39.8985 30.2865 40.1184 30.6073C40.3383 30.9281 40.4334 31.3182 40.386 31.7042C40.3385 32.0902 40.1517 32.4455 39.8607 32.7035C39.5696 32.9615 39.1944 33.1042 38.8055 33.105H37.8109C37.4182 33.1043 37.0395 32.9591 36.7471 32.697C36.4546 32.435 36.2689 32.0744 36.2252 31.6842C36.2136 31.542 36.1735 31.4037 36.1074 31.2773C36.0413 31.1509 35.9506 31.0391 35.8404 30.9484C35.7303 30.8578 35.6031 30.7902 35.4664 30.7496C35.3297 30.709 35.1862 30.6963 35.0445 30.7122C34.9027 30.7281 34.7656 30.7722 34.6413 30.8421C34.5169 30.9119 34.4079 31.006 34.3206 31.1188C34.2333 31.2316 34.1695 31.3607 34.133 31.4986C34.0965 31.6365 34.0881 31.7803 34.1082 31.9215C34.1977 32.7298 34.5496 33.4866 35.11 34.076C35.6704 34.6654 36.4085 35.055 37.2113 35.1851V35.7535C37.2113 36.0361 37.3236 36.3071 37.5234 36.507C37.7233 36.7068 37.9943 36.8191 38.2769 36.8191C38.5595 36.8191 38.8306 36.7068 39.0304 36.507C39.2303 36.3071 39.3425 36.0361 39.3425 35.7535V35.1851C40.2276 35.0604 41.0377 34.6199 41.6236 33.945C42.2095 33.27 42.5318 32.4061 42.5309 31.5123V31.5151Z" fill="#D4FDAB"/>
</g>
<defs>
<filter id="filter0_d_245_93707" x="0.00960922" y="5.75141" width="52.507" height="52.397" filterUnits="userSpaceOnUse" color-interpolation-filters="sRGB">
<feFlood flood-opacity="0" result="BackgroundImageFix"/>
<feColorMatrix in="SourceAlpha" type="matrix" values="0 0 0 0 0 0 0 0 0 0 0 0 0 0 0 0 0 0 127 0" result="hardAlpha"/>
<feOffset dx="-12.1" dy="3.3"/>
<feGaussianBlur stdDeviation="5.995"/>
<feComposite in2="hardAlpha" operator="out"/>
<feColorMatrix type="matrix" values="0 0 0 0 0 0 0 0 0 0 0 0 0 0 0 0 0 0 0.65 0"/>
<feBlend mode="normal" in2="BackgroundImageFix" result="effect1_dropShadow_245_93707"/>
<feBlend mode="normal" in="SourceGraphic" in2="effect1_dropShadow_245_93707" result="shape"/>
</filter>
<filter id="filter1_b_245_93707" x="6.49961" y="-3.15859" width="63.617" height="63.617" filterUnits="userSpaceOnUse" color-interpolation-filters="sRGB">
<feFlood flood-opacity="0" result="BackgroundImageFix"/>
<feGaussianBlur in="BackgroundImageFix" stdDeviation="8.8"/>
<feComposite in2="SourceAlpha" operator="in" result="effect1_backgroundBlur_245_93707"/>
<feBlend mode="normal" in="SourceGraphic" in2="effect1_backgroundBlur_245_93707" result="shape"/>
</filter>
<linearGradient id="paint0_linear_245_93707" x1="18.5375" y1="-4.88018" x2="19.0046" y2="36.6197" gradientUnits="userSpaceOnUse">
<stop stop-color="white"/>
<stop offset="1" stop-color="#ADFF00"/>
</linearGradient>
<linearGradient id="paint1_linear_245_93707" x1="30.1396" y1="-6.67709" x2="30.6484" y2="24.7284" gradientUnits="userSpaceOnUse">
<stop stop-color="white"/>
<stop offset="1" stop-color="#ADFF00"/>
</linearGradient>
<linearGradient id="paint2_linear_245_93707" x1="6.93449" y1="-6.67709" x2="7.44334" y2="24.7284" gradientUnits="userSpaceOnUse">
<stop stop-color="white"/>
<stop offset="1" stop-color="#ADFF00"/>
</linearGradient>
</defs>
</svg>
