<svg width="50" height="50" viewBox="0 0 50 50" fill="none" xmlns="http://www.w3.org/2000/svg">
<path opacity="0.4" d="M3.33373 25V41.25C3.17626 42.3537 3.27787 43.4788 3.6305 44.5364C3.98314 45.594 4.57712 46.555 5.36542 47.3433C6.15373 48.1316 7.11472 48.7256 8.17232 49.0782C9.22991 49.4309 10.3551 49.5325 11.4587 49.375H38.5421C39.6457 49.5325 40.7709 49.4309 41.8285 49.0782C42.8861 48.7256 43.8471 48.1316 44.6354 47.3433C45.4237 46.555 46.0177 45.594 46.3703 44.5364C46.7229 43.4788 46.8245 42.3537 46.6671 41.25V25" fill="white"/>
<path d="M49.375 15.5209C49.375 14.4435 48.947 13.4102 48.1851 12.6483C47.4233 11.8864 46.3899 11.4584 45.3125 11.4584H42.4281C42.9808 10.415 43.2734 9.25367 43.2812 8.07299C43.283 6.53654 42.809 5.03723 41.9243 3.78101C41.0397 2.52478 39.7878 1.57326 38.3406 1.05714C36.8935 0.54101 35.322 0.485597 33.8421 0.89851C32.3621 1.31142 31.0463 2.17241 30.0754 3.3632C30.0023 3.45528 26.9581 7.50424 25 10.1042C23.0392 7.49612 19.9923 3.44445 19.9056 3.33341C18.9312 2.14806 17.6141 1.29301 16.1347 0.885424C14.6554 0.477834 13.0862 0.537641 11.6421 1.05665C10.1981 1.57566 8.94988 2.52848 8.06849 3.78456C7.18709 5.04064 6.71565 6.53853 6.71875 8.07299C6.72658 9.25367 7.01924 10.415 7.57188 11.4584H4.6875C3.61006 11.4584 2.57675 11.8864 1.81488 12.6483C1.05301 13.4102 0.625 14.4435 0.625 15.5209V25.0001H22.9688V49.3751H27.0312V25.0001H49.375V15.5209ZM14.1667 11.4584C13.2688 11.4584 12.4077 11.1017 11.7728 10.4668C11.1379 9.83195 10.7812 8.97086 10.7812 8.07299C10.7812 7.17512 11.1379 6.31403 11.7728 5.67914C12.4077 5.04425 13.2688 4.68757 14.1667 4.68757C14.6566 4.68259 15.1415 4.78727 15.5857 4.99393C16.03 5.20059 16.4224 5.504 16.7342 5.88195C16.875 6.07424 19.0985 9.02091 20.9375 11.4584H14.1667ZM35.8333 11.4584H29.0625C30.8906 9.02091 33.0979 6.09049 33.2252 5.92528C33.5383 5.53551 33.9356 5.22169 34.3873 5.00733C34.839 4.79298 35.3334 4.68366 35.8333 4.68757C36.7312 4.68757 37.5923 5.04425 38.2272 5.67914C38.8621 6.31403 39.2188 7.17512 39.2188 8.07299C39.2188 8.97086 38.8621 9.83195 38.2272 10.4668C37.5923 11.1017 36.7312 11.4584 35.8333 11.4584Z" fill="white"/>
</svg>
