<svg width="77" height="71" viewBox="0 0 77 71" fill="none" xmlns="http://www.w3.org/2000/svg">
<path d="M58.2436 70.0898C62.6053 70.0898 66.1411 66.554 66.1411 62.1924C66.1411 57.8307 62.6053 54.2949 58.2436 54.2949C53.882 54.2949 50.3462 57.8307 50.3462 62.1924C50.3462 66.554 53.882 70.0898 58.2436 70.0898Z" fill="white"/>
<path d="M18.7563 70.0898C23.118 70.0898 26.6538 66.554 26.6538 62.1924C26.6538 57.8307 23.118 54.2949 18.7563 54.2949C14.3947 54.2949 10.8589 57.8307 10.8589 62.1924C10.8589 66.554 14.3947 70.0898 18.7563 70.0898Z" fill="white"/>
<path opacity="0.4" d="M76.8026 38.342C76.792 38.0721 76.7387 37.8055 76.6446 37.5523C76.4757 36.7739 76.2514 36.0085 75.9733 35.2621L71.8667 25.1138C70.0503 20.5333 68.1549 15.7949 58.1251 15.7949H49.359V8.88461C49.3558 6.52923 48.4188 4.27121 46.7533 2.60571C45.0878 0.940195 42.8297 0.00313425 40.4744 0H8.88461C6.52923 0.00313425 4.27121 0.940195 2.60571 2.60571C0.940195 4.27121 0.00313425 6.52923 0 8.88461V52.3205C0.000606989 53.6608 0.306766 54.9834 0.895205 56.1876C1.48364 57.3919 2.33888 58.4461 3.3959 59.2703C3.65815 59.4552 3.95284 59.5891 4.26462 59.6651C4.50656 59.6833 4.74754 59.6191 4.9483 59.4829C5.14907 59.3466 5.2978 59.1464 5.37026 58.9149C6.12344 55.801 7.93737 53.0466 10.5005 51.1247C13.0636 49.2027 16.216 48.2333 19.4161 48.3828C22.6163 48.5323 25.6646 49.7914 28.0373 51.9439C30.4101 54.0964 31.9594 57.0079 32.419 60.1785C32.4501 60.4605 32.5841 60.7212 32.7954 60.9106C33.0066 61.1 33.2803 61.2049 33.5641 61.2051H43.4359C43.7197 61.2049 43.9934 61.1 44.2046 60.9106C44.4159 60.7212 44.5499 60.4605 44.581 60.1785C45.0406 57.0079 46.5899 54.0964 48.9627 51.9439C51.3354 49.7914 54.3837 48.5323 57.5839 48.3828C60.784 48.2333 63.9364 49.2027 66.4995 51.1247C69.0626 53.0466 70.8766 55.801 71.6297 58.9149C71.6869 59.1429 71.8229 59.3434 72.0137 59.4807C72.2045 59.618 72.4378 59.6834 72.6722 59.6651C73.0148 59.6278 73.3389 59.4904 73.6041 59.2703C74.6611 58.4461 75.5164 57.3919 76.1048 56.1876C76.6932 54.9834 76.9994 53.6608 77 52.3205V40.7903C76.9947 39.9704 76.9287 39.1521 76.8026 38.342ZM49.359 35.5385V21.7179H58.1251C64.1272 21.7179 64.68 23.1395 66.3385 27.3251L69.6949 35.5385H49.359Z" fill="white"/>
<path d="M33.5641 38.5001C33.5589 39.284 33.2452 40.0342 32.691 40.5885C32.1367 41.1428 31.3864 41.4565 30.6026 41.4617H0V35.5386H30.6026C31.3864 35.5437 32.1367 35.8574 32.691 36.4117C33.2452 36.966 33.5589 37.7163 33.5641 38.5001Z" fill="white"/>
<path d="M69.6948 35.5383H49.3589V21.7178H58.125C64.1271 21.7178 64.6799 23.1393 66.3384 27.325L69.6948 35.5383Z" fill="white"/>
<path d="M25.5154 8.05448L27.5665 12.438C27.643 12.601 27.7557 12.7417 27.8948 12.8482C28.0339 12.9546 28.1953 13.0235 28.365 13.049L33.0977 13.7621C33.2918 13.7913 33.4744 13.8776 33.6246 14.0114C33.7749 14.1452 33.8869 14.3211 33.9479 14.5191C34.0089 14.7171 34.0165 14.9293 33.9698 15.1316C33.9231 15.334 33.824 15.5184 33.6838 15.6639L30.2617 19.1822C30.1385 19.3084 30.0463 19.4647 29.9929 19.6375C29.9395 19.8102 29.9266 19.9942 29.9552 20.1735L30.7403 24.9897C30.7751 25.2104 30.7512 25.4371 30.6712 25.6442C30.5912 25.8513 30.4583 26.0304 30.2876 26.1615C30.1168 26.2925 29.915 26.3702 29.7049 26.3858C29.4948 26.4013 29.2848 26.3542 29.0986 26.2496L24.9921 23.9746C24.8402 23.8902 24.6714 23.8462 24.5 23.8462C24.3286 23.8462 24.1598 23.8902 24.0079 23.9746L19.9059 26.2496C19.7191 26.3533 19.5088 26.3997 19.2986 26.3834C19.0884 26.3672 18.8866 26.289 18.7159 26.1577C18.5451 26.0263 18.4122 25.847 18.332 25.6399C18.2519 25.4327 18.2276 25.2059 18.2619 24.9849L19.0448 20.1735C19.0734 19.9942 19.0605 19.8102 19.0071 19.6375C18.9537 19.4647 18.8615 19.3084 18.7383 19.1822L15.3163 15.6639C15.176 15.5184 15.0769 15.334 15.0302 15.1316C14.9835 14.9293 14.9911 14.7171 15.0521 14.5191C15.1131 14.3211 15.2251 14.1452 15.3754 14.0114C15.5256 13.8776 15.7082 13.7913 15.9023 13.7621L20.635 13.049C20.8047 13.0235 20.9661 12.9546 21.1052 12.8482C21.2443 12.7417 21.3569 12.601 21.4335 12.438L23.4846 8.05448C23.5791 7.85434 23.7241 7.68609 23.9034 7.56851C24.0828 7.45094 24.2893 7.38867 24.5 7.38867C24.7107 7.38867 24.9172 7.45094 25.0966 7.56851C25.2759 7.68609 25.4209 7.85434 25.5154 8.05448Z" fill="white"/>
</svg>
