<svg width="92" height="76" viewBox="0 0 92 76" fill="none" xmlns="http://www.w3.org/2000/svg">
<path opacity="0.4" d="M45.8262 45.6667H28.1245V30.5H24.8745V45.6667H7.17284C7.06123 46.4708 7.00332 47.2815 6.9995 48.0933V63C6.87353 63.8829 6.95481 64.7831 7.23692 65.6291C7.51903 66.4752 7.99421 67.244 8.62486 67.8746C9.25551 68.5053 10.0243 68.9805 10.8704 69.2626C11.7164 69.5447 12.6166 69.626 13.4995 69.5H39.4995C40.3824 69.626 41.2826 69.5447 42.1286 69.2626C42.9747 68.9805 43.7435 68.5053 44.3741 67.8746C45.0048 67.244 45.48 66.4752 45.7621 65.6291C46.0442 64.7831 46.1255 63.8829 45.9995 63V48.0933C45.9957 47.2815 45.9378 46.4708 45.8262 45.6667Z" fill="white"/>
<path d="M16.229 30.5H24.874V45.6667H7.17236C7.28647 44.8765 7.45295 44.0948 7.6707 43.3267L9.98903 35.2233C10.7907 32.4283 11.3324 30.5 16.229 30.5Z" fill="white"/>
<path d="M45.8257 45.6667H28.124V30.5H36.769C41.6657 30.5 42.2074 32.4283 43.009 35.2233L45.3274 43.3267C45.5451 44.0948 45.7116 44.8765 45.8257 45.6667Z" fill="white"/>
<path d="M22.1655 62.4585H15.6655C15.2346 62.4585 14.8212 62.2873 14.5165 61.9825C14.2117 61.6778 14.0405 61.2645 14.0405 60.8335C14.0405 60.4025 14.2117 59.9892 14.5165 59.6844C14.8212 59.3797 15.2346 59.2085 15.6655 59.2085H22.1655C22.5965 59.2085 23.0098 59.3797 23.3146 59.6844C23.6193 59.9892 23.7905 60.4025 23.7905 60.8335C23.7905 61.2645 23.6193 61.6778 23.3146 61.9825C23.0098 62.2873 22.5965 62.4585 22.1655 62.4585Z" fill="white"/>
<path opacity="0.4" d="M84.8262 45.6667H67.1245V30.5H63.8745V45.6667H46.1728C46.0612 46.4708 46.0033 47.2815 45.9995 48.0933V63C45.8735 63.8829 45.9548 64.7831 46.2369 65.6291C46.519 66.4752 46.9942 67.244 47.6249 67.8746C48.2555 68.5053 49.0243 68.9805 49.8704 69.2626C50.7164 69.5447 51.6166 69.626 52.4995 69.5H78.4995C79.3824 69.626 80.2826 69.5447 81.1286 69.2626C81.9747 68.9805 82.7435 68.5053 83.3741 67.8746C84.0048 67.244 84.48 66.4752 84.7621 65.6291C85.0442 64.7831 85.1255 63.8829 84.9995 63V48.0933C84.9957 47.2815 84.9378 46.4708 84.8262 45.6667Z" fill="white"/>
<path d="M55.229 30.5H63.874V45.6667H46.1724C46.2865 44.8765 46.453 44.0948 46.6707 43.3267L48.989 35.2233C49.7907 32.4283 50.3324 30.5 55.229 30.5Z" fill="white"/>
<path d="M84.8257 45.6667H67.124V30.5H75.769C80.6657 30.5 81.2074 32.4283 82.009 35.2233L84.3274 43.3267C84.5451 44.0948 84.7116 44.8765 84.8257 45.6667Z" fill="white"/>
<path d="M61.1655 62.4585H54.6655C54.2346 62.4585 53.8212 62.2873 53.5165 61.9825C53.2117 61.6778 53.0405 61.2645 53.0405 60.8335C53.0405 60.4025 53.2117 59.9892 53.5165 59.6844C53.8212 59.3797 54.2346 59.2085 54.6655 59.2085H61.1655C61.5965 59.2085 62.0098 59.3797 62.3146 59.6844C62.6193 59.9892 62.7905 60.4025 62.7905 60.8335C62.7905 61.2645 62.6193 61.6778 62.3146 61.9825C62.0098 62.2873 61.5965 62.4585 61.1655 62.4585Z" fill="white"/>
<path d="M64.8262 21.6667H47.1245V6.5H43.8745V21.6667H26.1728C26.0612 22.4708 26.0033 23.2815 25.9995 24.0933V39C25.8735 39.8829 25.9548 40.7831 26.2369 41.6291C26.519 42.4752 26.9942 43.244 27.6249 43.8746C28.2555 44.5053 29.0243 44.9805 29.8704 45.2626C30.7164 45.5447 31.6166 45.626 32.4995 45.5H58.4995C59.3824 45.626 60.2826 45.5447 61.1286 45.2626C61.9747 44.9805 62.7435 44.5053 63.3741 43.8746C64.0048 43.244 64.48 42.4752 64.7621 41.6291C65.0442 40.7831 65.1255 39.8829 64.9995 39V24.0933C64.9957 23.2815 64.9378 22.4708 64.8262 21.6667Z" fill="#666666"/>
<path d="M35.229 6.5H43.874V21.6667H26.1724C26.2865 20.8765 26.453 20.0948 26.6707 19.3267L28.989 11.2233C29.7907 8.42833 30.3324 6.5 35.229 6.5Z" fill="white"/>
<path d="M64.8257 21.6667H47.124V6.5H55.769C60.6657 6.5 61.2074 8.42833 62.009 11.2233L64.3274 19.3267C64.5451 20.0948 64.7116 20.8765 64.8257 21.6667Z" fill="white"/>
<path d="M41.1655 38.4585H34.6655C34.2346 38.4585 33.8212 38.2873 33.5165 37.9825C33.2117 37.6778 33.0405 37.2645 33.0405 36.8335C33.0405 36.4025 33.2117 35.9892 33.5165 35.6844C33.8212 35.3797 34.2346 35.2085 34.6655 35.2085H41.1655C41.5965 35.2085 42.0098 35.3797 42.3146 35.6844C42.6193 35.9892 42.7905 36.4025 42.7905 36.8335C42.7905 37.2645 42.6193 37.6778 42.3146 37.9825C42.0098 38.2873 41.5965 38.4585 41.1655 38.4585Z" fill="white"/>
</svg>
