<svg width="57" height="77" viewBox="0 0 57 77" fill="none" xmlns="http://www.w3.org/2000/svg">
<path d="M39.7311 50.1784C38.502 50.1775 37.3227 50.6645 36.4522 51.5323L35.0855 52.8991C34.2261 53.7599 33.2054 54.4429 32.0818 54.9088C30.9582 55.3748 29.7537 55.6146 28.5373 55.6146C27.3209 55.6146 26.1165 55.3748 24.9928 54.9088C23.8692 54.4429 22.8485 53.7599 21.9891 52.8991L20.6224 51.5323C19.7539 50.6655 18.577 50.1785 17.3499 50.1784H15.4249C15.2132 50.1784 15.0143 50.1271 14.7833 50.1143L7.14746 77L18.999 72.2517C25.1241 69.8132 31.9505 69.8132 38.0756 72.2517L49.9272 77L42.2721 50.1335C42.0604 50.1335 41.8615 50.1977 41.6305 50.1977L39.7311 50.1784Z" fill="white"/>
<path opacity="0.4" fill-rule="evenodd" clip-rule="evenodd" d="M53.6252 21.2575C52.5878 20.5415 51.7791 19.5412 51.2965 18.3768C50.8139 17.2123 50.6778 15.9332 50.9045 14.6933C50.8704 13.3183 50.5419 11.9666 49.9412 10.7293C49.3406 9.49192 48.4817 8.39769 47.4225 7.52028C46.3633 6.64287 45.1283 6.00266 43.8008 5.6428C42.4733 5.28293 41.0841 5.21177 39.7268 5.43409C38.8027 5.34328 37.9093 5.05299 37.1084 4.58327C36.3074 4.11355 35.6179 3.47559 35.0875 2.71344C33.3499 0.976046 30.9934 0 28.5362 0C26.079 0 23.7224 0.976046 21.9848 2.71344C21.4566 3.47772 20.7677 4.11726 19.9663 4.58723C19.1649 5.0572 18.2704 5.34624 17.3455 5.43409C15.8224 5.1924 14.2637 5.31463 12.7968 5.79077C11.3299 6.26692 9.99658 7.08347 8.90576 8.17366C7.81494 9.26385 6.99763 10.5967 6.52064 12.0633C6.04365 13.5299 5.92053 15.0886 6.16135 16.6119C6.07143 17.5371 5.78157 18.4317 5.31181 19.2338C4.84205 20.036 4.20362 20.7264 3.4407 21.2575C1.70526 22.9949 0.730469 25.3501 0.730469 27.8057C0.730469 30.2613 1.70526 32.6165 3.4407 34.3539C4.48002 35.0666 5.29026 36.0654 5.77317 37.2295C6.25608 38.3934 6.39092 39.6726 6.16135 40.9117C6.16633 43.2567 7.06275 45.5121 8.6689 47.2207C10.275 48.9293 12.4708 49.9633 14.811 50.1131C16.7681 50.2543 19.1615 49.8693 20.5859 51.5312C21.3876 52.6519 22.4205 53.5874 23.6149 54.2744C24.8093 54.9615 26.1373 55.3841 27.5091 55.5137C28.8809 55.6432 30.2645 55.4768 31.5664 55.0255C32.8683 54.5742 34.0581 53.8487 35.0555 52.8979C35.582 52.1321 36.2706 51.4914 37.0723 51.0213C37.874 50.5511 38.7693 50.263 39.6947 50.1773C40.1054 50.0682 41.8378 50.2799 42.2292 50.1131C44.5689 49.9632 46.7639 48.929 48.369 47.2202C49.9741 45.5114 50.8691 43.2561 50.8725 40.9117C50.7076 39.9995 50.7439 39.0624 50.9788 38.1658C51.2138 37.2691 51.6418 36.4346 52.2328 35.7206C53.3542 34.9209 54.291 33.8898 54.9798 32.697C55.6685 31.5042 56.0933 30.1775 56.2253 28.8064C56.3572 27.4354 56.1934 26.052 55.7449 24.7496C55.2963 23.4473 54.5735 22.2565 53.6252 21.2575Z" fill="white"/>
<path d="M29.7292 15.806L32.212 21.1124C32.3047 21.3097 32.4412 21.48 32.6095 21.6089C32.7779 21.7377 32.9732 21.8211 33.1786 21.8519L38.9078 22.7152C39.1428 22.7505 39.3637 22.8551 39.5456 23.017C39.7275 23.179 39.8631 23.3919 39.9369 23.6316C40.0108 23.8712 40.02 24.1281 39.9635 24.3731C39.9069 24.618 39.787 24.8412 39.6172 25.0174L35.4746 29.2763C35.3256 29.4292 35.2139 29.6184 35.1493 29.8275C35.0846 30.0366 35.069 30.2593 35.1037 30.4763L36.054 36.3065C36.0962 36.5737 36.0672 36.8481 35.9704 37.0988C35.8735 37.3494 35.7127 37.5663 35.506 37.725C35.2993 37.8836 35.055 37.9776 34.8007 37.9965C34.5463 38.0153 34.2921 37.9582 34.0667 37.8316L29.0957 35.0777C28.9118 34.9756 28.7074 34.9222 28.5 34.9222C28.2926 34.9222 28.0882 34.9756 27.9043 35.0777L22.9387 37.8316C22.7126 37.9572 22.458 38.0133 22.2036 37.9936C21.9491 37.974 21.7048 37.8794 21.4982 37.7204C21.2915 37.5614 21.1306 37.3443 21.0335 37.0936C20.9365 36.8428 20.9071 36.5682 20.9487 36.3007L21.8963 30.4763C21.931 30.2593 21.9154 30.0366 21.8507 29.8275C21.7861 29.6184 21.6744 29.4292 21.5254 29.2763L17.3828 25.0174C17.213 24.8412 17.0931 24.618 17.0365 24.3731C16.98 24.1281 16.9892 23.8712 17.0631 23.6316C17.1369 23.3919 17.2725 23.179 17.4544 23.017C17.6363 22.8551 17.8572 22.7505 18.0922 22.7152L23.8214 21.8519C24.0268 21.8211 24.2221 21.7377 24.3905 21.6089C24.5588 21.48 24.6953 21.3097 24.788 21.1124L27.2708 15.806C27.3852 15.5637 27.5608 15.36 27.7778 15.2177C27.9949 15.0754 28.2449 15 28.5 15C28.7551 15 29.0051 15.0754 29.2222 15.2177C29.4392 15.36 29.6148 15.5637 29.7292 15.806Z" fill="white"/>
</svg>
