<svg width="52" height="73" viewBox="0 0 52 73" fill="none" xmlns="http://www.w3.org/2000/svg">
<path opacity="0.4" d="M52 25.7833C51.8472 19.0885 49.1559 12.7019 44.4711 7.91686C39.7863 3.13179 33.4581 0.305875 26.768 0.011346C23.2896 -0.0914471 19.8259 0.505094 16.5822 1.76562C13.3386 3.02614 10.381 4.92498 7.88472 7.34962C5.38846 9.77426 3.40435 12.6753 2.04996 15.8809C0.695574 19.0865 -0.00151604 22.5314 2.47556e-06 26.0113C0.414777 33.1752 3.38365 39.9531 8.368 45.1153C11.3795 48.0284 13.3333 51.8628 13.92 56.0113H38.08C38.6024 51.9208 40.5045 48.1308 43.472 45.2673C48.6999 40.101 51.7515 33.1291 52 25.7833Z" fill="white"/>
<path d="M13.9219 56.0112C13.9579 56.4312 14.0019 56.8512 14.0019 57.2992V60.0112C13.8824 61.6177 14.1108 63.231 14.6716 64.7411C15.2324 66.2512 16.1123 67.6226 17.2514 68.7617C18.3905 69.9008 19.7619 70.7807 21.272 71.3415C22.7821 71.9023 24.3954 72.1307 26.0019 72.0112C27.6083 72.1307 29.2216 71.9023 30.7318 71.3415C32.2419 70.7807 33.6133 69.9008 34.7523 68.7617C35.8914 67.6226 36.7714 66.2512 37.3321 64.7411C37.8929 63.231 38.1214 61.6177 38.0019 60.0112V57.2792C38.0019 56.8352 38.0419 56.4272 38.0779 56.0112C7.36048 56.0112 32.4712 56.0112 13.9219 56.0112Z" fill="white"/>
<path d="M37.0128 34.452C37.0195 32.4576 36.3618 30.5178 35.1435 28.9388C33.9251 27.3598 32.2156 26.2315 30.2848 25.732L25.2248 24.456C24.5859 24.2915 24.0218 23.915 23.6248 23.388C23.223 22.8592 23.0078 22.2121 23.0128 21.548C23.0011 20.7668 23.2999 20.0129 23.8436 19.4519C24.3874 18.8908 25.1316 18.5686 25.9128 18.556H28.1128C28.8373 18.5666 29.5324 18.8444 30.0647 19.3361C30.5969 19.8277 30.9289 20.4986 30.9968 21.22C31.0843 22.0109 31.4824 22.7346 32.1036 23.2319C32.7247 23.7293 33.5179 23.9595 34.3088 23.872C35.0997 23.7845 35.8234 23.3864 36.3208 22.7652C36.8181 22.1441 37.0483 21.3509 36.9608 20.56C36.7581 18.703 35.9791 16.956 34.733 15.5642C33.4869 14.1725 31.8363 13.2059 30.0128 12.8V12C30.0128 11.2044 29.6967 10.4413 29.1341 9.87868C28.5715 9.31607 27.8085 9 27.0128 9C26.2172 9 25.4541 9.31607 24.8915 9.87868C24.3289 10.4413 24.0128 11.2044 24.0128 12V12.772C22.0448 13.2183 20.2838 14.3127 19.0122 15.8797C17.7407 17.4467 17.0325 19.3954 17.0011 21.4131C16.9697 23.4308 17.6171 25.4006 18.8393 27.0064C20.0614 28.6121 21.7876 29.7608 23.7408 30.268L28.8008 31.544C29.44 31.7145 30.0043 32.0927 30.4048 32.6192C30.8052 33.1457 31.0192 33.7905 31.0128 34.452C31.015 35.2487 30.7015 36.0139 30.1408 36.58C29.8788 36.8537 29.564 37.0715 29.2154 37.22C28.8668 37.3685 28.4917 37.4447 28.1128 37.444H25.9128C25.1887 37.4378 24.4922 37.1646 23.9571 36.6767C23.4219 36.1888 23.0857 35.5205 23.0128 34.8C22.9695 34.4084 22.8494 34.0292 22.6595 33.684C22.4696 33.3387 22.2136 33.0343 21.9061 32.7881C21.5985 32.5418 21.2455 32.3585 20.8671 32.2487C20.4887 32.1389 20.0924 32.1047 19.7008 32.148C19.3092 32.1913 18.93 32.3114 18.5848 32.5013C18.2396 32.6912 17.9351 32.9472 17.6889 33.2548C17.4426 33.5623 17.2593 33.9153 17.1495 34.2937C17.0397 34.6721 17.0055 35.0684 17.0488 35.46C17.2475 37.3206 18.0248 39.0721 19.2712 40.4677C20.5176 41.8634 22.1704 42.833 23.9968 43.24V44C23.9968 44.7957 24.3129 45.5587 24.8755 46.1213C25.4381 46.6839 26.2012 47 26.9968 47C27.7925 47 28.5555 46.6839 29.1181 46.1213C29.6807 45.5587 29.9968 44.7957 29.9968 44V43.228C31.6697 42.8602 33.1989 42.0122 34.3968 40.788C36.0742 39.1062 37.0151 36.8273 37.0128 34.452Z" fill="white"/>
</svg>
