<svg width="72" height="72" viewBox="0 0 72 72" fill="none" xmlns="http://www.w3.org/2000/svg">
<path opacity="0.4" d="M0.0200257 35.9971C0.0169587 41.1908 1.14868 46.3225 3.33603 51.0331C4.13443 52.8273 4.22024 54.858 3.57603 56.7131L0.220026 66.7131C-0.0112467 67.4198 -0.042192 68.1768 0.130623 68.9C0.303439 69.6232 0.673256 70.2843 1.19904 70.8101C1.72481 71.3359 2.38599 71.7057 3.1092 71.8785C3.8324 72.0513 4.58934 72.0204 5.29602 71.7891L15.296 68.4331C17.1511 67.7889 19.1819 67.8747 20.976 68.6731C28.0437 71.9211 35.9736 72.7912 43.5774 71.1531C51.1813 69.5149 58.0495 65.4568 63.1529 59.5869C68.2563 53.7169 71.32 46.3511 71.885 38.5934C72.45 30.8357 70.4857 23.1038 66.2867 16.5563C62.0876 10.0089 55.8799 4.99849 48.5936 2.27597C41.3074 -0.446548 33.3351 -0.734568 25.8714 1.45507C18.4077 3.64471 11.8545 8.19409 7.19395 14.4215C2.53336 20.6488 0.0163252 28.2189 0.0200257 35.9971Z" fill="white"/>
<path d="M54.8401 44.765C55.0557 43.7426 54.9775 42.6801 54.6143 41.7004C54.2512 40.7206 53.618 39.8638 52.7881 39.229C52.2789 38.8339 51.7032 38.5332 51.0881 38.341L49.2041 37.763C48.7644 37.628 48.3025 37.581 47.8446 37.6247C47.3868 37.6684 46.942 37.8018 46.5358 38.0175C46.1296 38.2331 45.7699 38.5267 45.4772 38.8815C45.1845 39.2362 44.9646 39.6452 44.8301 40.085L41.8621 49.793C41.7268 50.2325 41.6797 50.6944 41.7232 51.1522C41.7668 51.6099 41.9003 52.0546 42.116 52.4608C42.3317 52.8669 42.6254 53.2265 42.9802 53.5189C43.3351 53.8113 43.7442 54.0309 44.1841 54.165L46.1161 54.765C46.6343 54.9253 47.1736 55.0069 47.7161 55.007C48.8919 55.0053 50.0364 54.628 50.9826 53.93C51.9289 53.232 52.6273 52.2499 52.9761 51.127L53.9181 48.075C54.1381 47.411 54.3181 46.721 54.5041 46.035C54.5621 45.821 54.6321 45.613 54.6861 45.397C54.7241 45.253 54.7741 45.115 54.8101 44.971C54.8281 44.897 54.8261 44.831 54.8401 44.765Z" fill="white"/>
<path d="M18.1994 44.7652C18.2134 44.8312 18.2114 44.8952 18.2274 44.9652C18.2634 45.1112 18.3134 45.2452 18.3494 45.3892C18.4034 45.6012 18.4714 45.7992 18.5274 46.0072C18.7274 46.6992 18.8994 47.4072 19.1154 48.0552L20.0614 51.1212C20.4108 52.243 21.1092 53.224 22.055 53.9212C23.0008 54.6184 24.1445 54.9953 25.3194 54.9972C25.8619 54.9971 26.4012 54.9155 26.9194 54.7552L28.8494 54.1552C29.2894 54.0215 29.6986 53.8023 30.0537 53.5101C30.4088 53.218 30.7027 52.8586 30.9186 52.4526C31.1345 52.0466 31.2682 51.602 31.3119 51.1443C31.3556 50.6865 31.3086 50.2247 31.1734 49.7852L28.2094 40.0832C28.0747 39.6436 27.8546 39.2348 27.5618 38.8803C27.2691 38.5257 26.9093 38.2324 26.5031 38.0169C26.0969 37.8015 25.6522 37.6682 25.1945 37.6246C24.7368 37.5811 24.275 37.6282 23.8354 37.7632L21.9514 38.3392C21.3367 38.5323 20.7611 38.8329 20.2514 39.2272C19.4217 39.8626 18.7887 40.7198 18.4256 41.6998C18.0625 42.6798 17.9841 43.7425 18.1994 44.7652Z" fill="white"/>
<path opacity="0.4" d="M54.84 44.7651C55.6014 41.7338 55.9976 38.6224 56.02 35.4971C56.02 30.3253 53.9656 25.3654 50.3086 21.7085C46.6516 18.0515 41.6917 15.9971 36.52 15.9971C31.3483 15.9971 26.3884 18.0515 22.7314 21.7085C19.0745 25.3654 17.02 30.3253 17.02 35.4971C17.0425 38.6224 17.4386 41.7338 18.2 44.7651C17.9847 43.7424 18.0631 42.6797 18.4262 41.6997C18.7893 40.7197 19.4223 39.8625 20.252 39.2271C20.1063 37.9889 20.0289 36.7437 20.02 35.4971C20.02 31.121 21.7584 26.9242 24.8528 23.8298C27.9471 20.7355 32.1439 18.9971 36.52 18.9971C40.8961 18.9971 45.0929 20.7355 48.1873 23.8298C51.2816 26.9242 53.02 31.121 53.02 35.4971C53.0112 36.7444 52.9338 37.9903 52.788 39.2291C53.618 39.8639 54.2511 40.7207 54.6143 41.7004C54.9774 42.6802 55.0557 43.7427 54.84 44.7651Z" fill="white"/>
</svg>
