<svg width="28" height="28" viewBox="0 0 28 28" fill="none" xmlns="http://www.w3.org/2000/svg">
<path opacity="0.4" d="M3.49977 21C3.43194 21.4754 3.47571 21.9601 3.62761 22.4157C3.77951 22.8713 4.03538 23.2852 4.37496 23.6248C4.71454 23.9644 5.1285 24.2203 5.58408 24.3722C6.03966 24.5241 6.52435 24.5678 6.99977 24.5H20.9998C21.4752 24.5678 21.9599 24.5241 22.4155 24.3722C22.871 24.2203 23.285 23.9644 23.6246 23.6248C23.9642 23.2852 24.22 22.8713 24.3719 22.4157C24.5238 21.9601 24.5676 21.4754 24.4998 21V10.5H3.49977V21Z" fill="white"/>
<path d="M20.9998 5.25H19.5414V3.5C19.5414 3.26794 19.4492 3.04538 19.2852 2.88128C19.1211 2.71719 18.8985 2.625 18.6664 2.625C18.4344 2.625 18.2118 2.71719 18.0477 2.88128C17.8836 3.04538 17.7914 3.26794 17.7914 3.5V5.25H10.2081V3.5C10.2081 3.26794 10.1159 3.04538 9.95182 2.88128C9.78773 2.71719 9.56517 2.625 9.3331 2.625C9.10104 2.625 8.87848 2.71719 8.71438 2.88128C8.55029 3.04538 8.4581 3.26794 8.4581 3.5V5.25H6.99977C6.52435 5.18217 6.03966 5.22594 5.58408 5.37784C5.1285 5.52974 4.71454 5.78561 4.37496 6.12519C4.03538 6.46477 3.77951 6.87874 3.62761 7.33431C3.47571 7.78989 3.43194 8.27458 3.49977 8.75V10.5H24.4998V8.75C24.5676 8.27458 24.5238 7.78989 24.3719 7.33431C24.22 6.87874 23.9642 6.46477 23.6246 6.12519C23.285 5.78561 22.871 5.52974 22.4155 5.37784C21.9599 5.22594 21.4752 5.18217 20.9998 5.25Z" fill="white"/>
<path d="M9.35611 16.3333C9.2029 16.3341 9.05104 16.3047 8.9092 16.2468C8.76736 16.1888 8.63832 16.1035 8.52944 15.9957C8.30956 15.7781 8.18516 15.4819 8.18361 15.1725C8.18206 14.8631 8.30349 14.5657 8.52119 14.3458C8.73889 14.1259 9.03502 14.0015 9.34444 14H9.35611C9.66553 14 9.96227 14.1229 10.1811 14.3417C10.3999 14.5605 10.5228 14.8572 10.5228 15.1667C10.5228 15.4761 10.3999 15.7728 10.1811 15.9916C9.96227 16.2104 9.66553 16.3333 9.35611 16.3333ZM15.1894 15.1667C15.1894 14.8572 15.0665 14.5605 14.8477 14.3417C14.6289 14.1229 14.3322 14 14.0228 14H14.0111C13.7809 14.0023 13.5565 14.0727 13.3662 14.2023C13.1758 14.3319 13.0281 14.5149 12.9416 14.7282C12.8551 14.9416 12.8336 15.1758 12.88 15.4013C12.9263 15.6269 13.0383 15.8337 13.2019 15.9957C13.3655 16.1577 13.5734 16.2676 13.7994 16.3117C14.0254 16.3558 14.2594 16.332 14.4719 16.2434C14.6844 16.1547 14.8659 16.0052 14.9936 15.8136C15.1213 15.622 15.1894 15.3969 15.1894 15.1667ZM19.8561 15.1667C19.8561 14.8572 19.7332 14.5605 19.5144 14.3417C19.2956 14.1229 18.9989 14 18.6894 14H18.6778C18.4475 14.0023 18.2231 14.0727 18.0328 14.2023C17.8425 14.3319 17.6948 14.5149 17.6083 14.7282C17.5218 14.9416 17.5003 15.1758 17.5466 15.4013C17.593 15.6269 17.705 15.8337 17.8686 15.9957C18.0322 16.1577 18.2401 16.2676 18.4661 16.3117C18.6921 16.3558 18.9261 16.332 19.1386 16.2434C19.3511 16.1547 19.5326 16.0052 19.6603 15.8136C19.788 15.622 19.8561 15.3969 19.8561 15.1667ZM10.5228 19.8333C10.5228 19.5239 10.3999 19.2272 10.1811 19.0084C9.96227 18.7896 9.66553 18.6667 9.35611 18.6667H9.34444C9.11421 18.669 8.8898 18.7393 8.69949 18.8689C8.50917 18.9985 8.36145 19.1815 8.27494 19.3949C8.18842 19.6083 8.16697 19.8425 8.2133 20.068C8.25962 20.2935 8.37165 20.5003 8.53527 20.6623C8.69888 20.8243 8.90677 20.9343 9.13276 20.9784C9.35875 21.0224 9.59272 20.9987 9.80523 20.91C10.0177 20.8214 10.1993 20.6719 10.3269 20.4803C10.4546 20.2887 10.5228 20.0636 10.5228 19.8333ZM15.1894 19.8333C15.1894 19.5239 15.0665 19.2272 14.8477 19.0084C14.6289 18.7896 14.3322 18.6667 14.0228 18.6667H14.0111C13.7809 18.669 13.5565 18.7393 13.3662 18.8689C13.1758 18.9985 13.0281 19.1815 12.9416 19.3949C12.8551 19.6083 12.8336 19.8425 12.88 20.068C12.9263 20.2935 13.0383 20.5003 13.2019 20.6623C13.3655 20.8243 13.5734 20.9343 13.7994 20.9784C14.0254 21.0224 14.2594 20.9987 14.4719 20.91C14.6844 20.8214 14.8659 20.6719 14.9936 20.4803C15.1213 20.2887 15.1894 20.0636 15.1894 19.8333ZM19.8561 19.8333C19.8561 19.5239 19.7332 19.2272 19.5144 19.0084C19.2956 18.7896 18.9989 18.6667 18.6894 18.6667H18.6778C18.4475 18.669 18.2231 18.7393 18.0328 18.8689C17.8425 18.9985 17.6948 19.1815 17.6083 19.3949C17.5218 19.6083 17.5003 19.8425 17.5466 20.068C17.593 20.2935 17.705 20.5003 17.8686 20.6623C18.0322 20.8243 18.2401 20.9343 18.4661 20.9784C18.6921 21.0224 18.9261 20.9987 19.1386 20.91C19.3511 20.8214 19.5326 20.6719 19.6603 20.4803C19.788 20.2887 19.8561 20.0636 19.8561 19.8333Z" fill="white"/>
</svg>
