<svg width="81" height="80" viewBox="0 0 81 80" fill="none" xmlns="http://www.w3.org/2000/svg">
<path opacity="0.4" d="M77.3112 22.1892C76.4714 22.1892 75.666 21.8556 75.0722 21.2617C74.4783 20.6679 74.1447 19.8625 74.1447 19.0227V7.94017C74.1447 6.51844 73.9801 6.35695 72.5615 6.35695H61.4789C60.6392 6.35695 59.8338 6.02334 59.2399 5.42952C58.6461 4.83569 58.3125 4.0303 58.3125 3.1905C58.3125 2.35071 58.6461 1.54531 59.2399 0.951487C59.8338 0.357663 60.6392 0.0240565 61.4789 0.0240565H72.5615C73.6229 -0.062051 74.6903 0.0836275 75.6898 0.450999C76.6894 0.81837 77.597 1.39865 78.35 2.15164C79.103 2.90463 79.6833 3.81232 80.0507 4.81183C80.418 5.81134 80.5637 6.87877 80.4776 7.94017V19.0227C80.4776 19.8625 80.144 20.6679 79.5502 21.2617C78.9564 21.8556 78.151 22.1892 77.3112 22.1892Z" fill="white"/>
<path d="M3.6905 22.1892C2.85071 22.1892 2.04531 21.8556 1.45149 21.2617C0.857663 20.6679 0.524057 19.8625 0.524057 19.0227V7.94017C0.437949 6.87877 0.583627 5.81134 0.950999 4.81183C1.31837 3.81232 1.89865 2.90463 2.65164 2.15164C3.40463 1.39865 4.31232 0.81837 5.31183 0.450999C6.31134 0.0836275 7.37877 -0.062051 8.44017 0.0240565H19.5227C20.3625 0.0240565 21.1679 0.357663 21.7617 0.951487C22.3556 1.54531 22.6892 2.35071 22.6892 3.1905C22.6892 4.0303 22.3556 4.83569 21.7617 5.42952C21.1679 6.02334 20.3625 6.35695 19.5227 6.35695H8.44017C7.0216 6.35695 6.85695 6.51844 6.85695 7.94017V19.0227C6.85695 19.8625 6.52334 20.6679 5.92952 21.2617C5.33569 21.8556 4.5303 22.1892 3.6905 22.1892Z" fill="white"/>
<path opacity="0.4" d="M19.5227 79.9757H8.44017C7.37877 80.0618 6.31134 79.9161 5.31183 79.5487C4.31232 79.1814 3.40463 78.6011 2.65164 77.8481C1.89865 77.0951 1.31837 76.1874 0.950999 75.1879C0.583627 74.1884 0.437949 73.1209 0.524057 72.0596V60.977C0.524057 60.1372 0.857663 59.3318 1.45149 58.738C2.04531 58.1442 2.85071 57.8105 3.6905 57.8105C4.5303 57.8105 5.33569 58.1442 5.92952 58.738C6.52334 59.3318 6.85695 60.1372 6.85695 60.977V72.0596C6.85695 73.4813 7.0216 73.6428 8.44017 73.6428H19.5227C20.3625 73.6428 21.1679 73.9764 21.7617 74.5702C22.3556 75.164 22.6892 75.9694 22.6892 76.8092C22.6892 77.649 22.3556 78.4544 21.7617 79.0482C21.1679 79.6421 20.3625 79.9757 19.5227 79.9757Z" fill="white"/>
<path d="M72.5615 79.9757H61.4789C60.6392 79.9757 59.8338 79.6421 59.2399 79.0482C58.6461 78.4544 58.3125 77.649 58.3125 76.8092C58.3125 75.9694 58.6461 75.164 59.2399 74.5702C59.8338 73.9764 60.6392 73.6428 61.4789 73.6428H72.5615C73.9801 73.6428 74.1447 73.4813 74.1447 72.0596V60.977C74.1447 60.1372 74.4783 59.3318 75.0722 58.738C75.666 58.1442 76.4714 57.8105 77.3112 57.8105C78.151 57.8105 78.9564 58.1442 79.5502 58.738C80.144 59.3318 80.4776 60.1372 80.4776 60.977V72.0596C80.5637 73.1209 80.418 74.1884 80.0507 75.1879C79.6833 76.1874 79.103 77.0951 78.35 77.8481C77.597 78.6011 76.6894 79.1814 75.6898 79.5487C74.6903 79.9161 73.6229 80.0618 72.5615 79.9757Z" fill="white"/>
<path opacity="0.4" d="M45.3078 43.8299H36.436C34.7879 43.7189 33.1351 43.9616 31.5885 44.5418C30.0418 45.1219 28.6372 46.0261 27.4686 47.1937C26.3001 48.3613 25.3948 49.7652 24.8134 51.3114C24.232 52.8575 23.9879 54.5102 24.0976 56.1584C23.9801 57.2222 24.1046 58.2987 24.4618 59.3076C24.819 60.3165 25.3997 61.2316 26.1604 61.9844C26.9211 62.7372 27.8422 63.3083 28.8548 63.655C29.8673 64.0017 30.9451 64.115 32.0076 63.9864H49.7362C50.7987 64.115 51.8765 64.0017 52.889 63.655C53.9016 63.3083 54.8227 62.7372 55.5834 61.9844C56.3441 61.2316 56.9248 60.3165 57.282 59.3076C57.6392 58.2987 57.7637 57.2222 57.6462 56.1584C57.7559 54.5102 57.5118 52.8575 56.9304 51.3114C56.349 49.7652 55.4437 48.3613 54.2752 47.1937C53.1066 46.0261 51.702 45.1219 50.1553 44.5418C48.6087 43.9616 46.9559 43.7189 45.3078 43.8299Z" fill="white"/>
<path d="M40.892 39.1641C42.6137 39.1572 44.2948 38.6404 45.723 37.6788C47.1512 36.7173 48.2625 35.3542 48.9166 33.7616C49.5707 32.1689 49.7383 30.4182 49.3982 28.7304C49.0581 27.0426 48.2256 25.4934 47.0057 24.2784C45.7859 23.0634 44.2334 22.237 42.5442 21.9037C40.8551 21.5703 39.105 21.7448 37.515 22.4053C35.925 23.0658 34.5663 24.1825 33.6105 25.6145C32.6547 27.0465 32.1445 28.7297 32.1445 30.4514C32.1524 32.7657 33.0777 34.9825 34.7174 36.6158C36.3572 38.249 38.5776 39.1654 40.892 39.1641Z" fill="white"/>
<path opacity="0.4" d="M66.9646 41.9915C67.0581 42.8061 66.966 43.6313 66.6952 44.4052C66.4244 45.1791 65.9819 45.8817 65.401 46.4602C64.82 47.0388 64.1156 47.4784 63.3406 47.746C62.5656 48.0136 61.74 48.1023 60.9258 48.0054H59.8821C59.7349 48.0079 59.5903 47.9667 59.4665 47.8871C59.3426 47.8075 59.2451 47.693 59.1863 47.5581C58.225 45.8107 56.9002 44.2899 55.3012 43.0981C53.7021 41.9064 51.8661 41.0714 49.9169 40.6496C49.7863 40.6237 49.665 40.5633 49.5656 40.4746C49.4663 40.386 49.3925 40.2723 49.3519 40.1455C49.3113 40.0187 49.3054 39.8833 49.3349 39.7534C49.3643 39.6236 49.428 39.5039 49.5193 39.407C51.2617 37.7671 52.4807 35.649 53.0233 33.3186C53.0622 33.1564 53.1543 33.012 53.285 32.9084C53.4156 32.8048 53.5772 32.748 53.744 32.747H57.7449C58.9784 32.6674 60.2147 32.8522 61.371 33.289C62.5274 33.7258 63.5771 34.4045 64.4499 35.2797C65.3228 36.1549 65.9987 37.2064 66.4323 38.3639C66.866 39.5214 67.0475 40.7582 66.9646 41.9915Z" fill="white"/>
<path d="M61.1999 23.4038C61.2012 25.1663 60.5034 26.8573 59.2595 28.1058C58.0156 29.3544 56.3272 30.0586 54.5647 30.0638C54.3808 30.0638 54.1994 30.0638 54.023 30.039C53.8305 30.0337 53.647 29.9566 53.5086 29.8228C53.3928 29.7105 53.3236 29.5588 53.3147 29.3978C53.1865 27.7845 52.7383 26.2129 51.9963 24.7747C51.2544 23.3364 50.2335 22.0602 48.9932 21.0206C48.8614 20.9313 48.7682 20.7955 48.7323 20.6404C48.6855 20.4742 48.7042 20.2963 48.7844 20.1434C49.5038 18.8622 50.6279 17.8559 51.9806 17.2822C53.3334 16.7085 54.8382 16.5999 56.2593 16.9734C57.6804 17.3468 58.9374 18.1813 59.8333 19.3459C60.7292 20.5105 61.2133 21.9394 61.2098 23.4088L61.1999 23.4038Z" fill="white"/>
<path opacity="0.4" d="M14.7776 41.9915C14.6841 42.8061 14.7762 43.6313 15.047 44.4052C15.3178 45.1791 15.7603 45.8817 16.3412 46.4602C16.9222 47.0388 17.6266 47.4784 18.4016 47.746C19.1766 48.0136 20.0022 48.1023 20.8164 48.0054H21.8601C22.0073 48.0079 22.1519 47.9667 22.2757 47.8871C22.3996 47.8075 22.4971 47.693 22.5559 47.5581C23.5172 45.8107 24.842 44.2899 26.4411 43.0981C28.0401 41.9064 29.8761 41.0714 31.8253 40.6496C31.9559 40.6237 32.0772 40.5633 32.1766 40.4746C32.2759 40.386 32.3497 40.2723 32.3903 40.1455C32.4309 40.0187 32.4368 39.8833 32.4073 39.7534C32.3779 39.6236 32.3142 39.5039 32.2229 39.407C30.4805 37.7671 29.2615 35.649 28.7189 33.3186C28.68 33.1564 28.5879 33.012 28.4572 32.9084C28.3266 32.8048 28.165 32.748 27.9983 32.747H23.9973C22.7638 32.6674 21.5275 32.8522 20.3712 33.289C19.2148 33.7258 18.1651 34.4045 17.2923 35.2797C16.4194 36.1549 15.7435 37.2064 15.3099 38.3639C14.8762 39.5214 14.6947 40.7582 14.7776 41.9915Z" fill="white"/>
<path d="M20.5451 23.4038C20.5438 25.1663 21.2416 26.8573 22.4855 28.1058C23.7295 29.3544 25.4178 30.0586 27.1803 30.0638C27.3642 30.0638 27.5456 30.0638 27.722 30.039C27.9145 30.0337 28.098 29.9566 28.2364 29.8228C28.3522 29.7105 28.4214 29.5588 28.4303 29.3978C28.5585 27.7845 29.0067 26.2129 29.7487 24.7747C30.4907 23.3364 31.5115 22.0602 32.7518 21.0206C32.8836 20.9313 32.9768 20.7955 33.0128 20.6404C33.0595 20.4742 33.0408 20.2963 32.9606 20.1434C32.2412 18.8622 31.1171 17.8559 29.7644 17.2822C28.4116 16.7085 26.9068 16.5999 25.4857 16.9734C24.0646 17.3468 22.8076 18.1813 21.9117 19.3459C21.0158 20.5105 20.5317 21.9394 20.5352 23.4088L20.5451 23.4038Z" fill="white"/>
</svg>
