<svg width="101" height="100" viewBox="0 0 101 100" fill="none" xmlns="http://www.w3.org/2000/svg">
<path opacity="0.4" d="M75.4987 39.3454C75.3395 32.3717 72.5361 25.719 67.6561 20.7345C62.7761 15.7501 56.1842 12.8064 49.2154 12.4996C45.592 12.3925 41.984 13.0139 38.6052 14.327C35.2264 15.64 32.1455 17.618 29.5453 20.1436C26.945 22.6693 24.8782 25.6913 23.4674 29.0304C22.0566 32.3696 21.3305 35.958 21.332 39.5829C21.7641 47.0453 24.8567 54.1056 30.0487 59.4829C33.1857 62.5174 35.2208 66.5115 35.832 70.8329H60.9987C61.5429 66.5719 63.5242 62.624 66.6154 59.6413C72.0611 54.2597 75.2398 46.9973 75.4987 39.3454Z" fill="white"/>
<path d="M51.5404 70.8327V55.4577L58.957 48.041C59.509 47.4486 59.8095 46.6651 59.7953 45.8555C59.781 45.0459 59.453 44.2735 58.8805 43.7009C58.3079 43.1284 57.5355 42.8004 56.7259 42.7861C55.9163 42.7718 55.1328 43.0724 54.5404 43.6244L48.4154 49.7494L42.2904 43.6244C41.698 43.0724 40.9144 42.7718 40.1049 42.7861C39.2953 42.8004 38.5228 43.1284 37.9503 43.7009C37.3777 44.2735 37.0498 45.0459 37.0355 45.8555C37.0212 46.6651 37.3217 47.4486 37.8737 48.041L45.2904 55.4577V70.8327H35.832C35.8695 71.2702 35.9154 71.7077 35.9154 72.1744V74.9994C35.7909 76.6727 36.0288 78.3533 36.613 79.9263C37.1972 81.4994 38.1138 82.9279 39.3003 84.1144C40.4868 85.301 41.9154 86.2176 43.4884 86.8017C45.0614 87.3859 46.742 87.6238 48.4154 87.4994C50.0887 87.6238 51.7693 87.3859 53.3423 86.8017C54.9154 86.2176 56.3439 85.301 57.5304 84.1144C58.717 82.9279 59.6336 81.4994 60.2177 79.9263C60.8019 78.3533 61.0398 76.6727 60.9154 74.9994V72.1535C60.9154 71.691 60.957 71.266 60.9945 70.8327H51.5404Z" fill="white"/>
</svg>
