<svg width="51" height="53" viewBox="0 0 51 53" fill="none" xmlns="http://www.w3.org/2000/svg">
<path d="M50.0825 15.4913C49.4588 15.1517 48.9382 14.6501 48.5754 14.0392C48.2126 13.4284 48.0212 12.7309 48.0212 12.0203C48.0212 11.3097 48.2126 10.6122 48.5754 10.0013C48.9382 9.39049 49.4588 8.88884 50.0825 8.54925L50.4785 8.32405L47.7274 3.70603L47.3344 3.92822C46.7023 4.28193 45.9901 4.46764 45.2659 4.46764C44.5416 4.46764 43.8295 4.28193 43.1973 3.92822C42.5783 3.58544 42.0619 3.08365 41.7012 2.47459C41.3405 1.86552 41.1486 1.17121 41.1453 0.463202C41.1449 0.403011 41.1326 0.343492 41.1091 0.288072C41.0857 0.232652 41.0515 0.182424 41.0085 0.140283C40.9656 0.0981412 40.9147 0.0649179 40.8589 0.0425249C40.8031 0.020132 40.7434 0.00901309 40.6833 0.00980636H36.1081C35.9877 0.00819695 35.8715 0.0543396 35.785 0.138161C35.6984 0.221982 35.6485 0.336674 35.6461 0.457197C35.6406 1.16354 35.4477 1.85574 35.0871 2.46297C34.7266 3.07021 34.2113 3.57069 33.5941 3.91321C32.9614 4.2669 32.2487 4.45258 31.524 4.45258C30.7993 4.45258 30.0867 4.2669 29.454 3.91321C29.35 3.85417 29.2272 3.83777 29.1114 3.86744C28.9956 3.89712 28.8958 3.97056 28.833 4.07235L26.5379 7.94272C26.5091 7.99293 26.4905 8.04836 26.4831 8.1058C26.4758 8.16325 26.48 8.22157 26.4953 8.27741C26.5107 8.33325 26.5369 8.38549 26.5725 8.43111C26.6082 8.47674 26.6525 8.51485 26.7029 8.54324C27.3258 8.88352 27.8456 9.3854 28.2077 9.99617C28.5699 10.6069 28.761 11.3041 28.761 12.0143C28.761 12.7245 28.5699 13.4216 28.2077 14.0324C27.8456 14.6431 27.3258 15.145 26.7029 15.4853C26.6522 15.5134 26.6076 15.5514 26.5717 15.5969C26.5359 15.6425 26.5095 15.6948 26.4941 15.7508C26.4787 15.8067 26.4747 15.8652 26.4822 15.9227C26.4897 15.9803 26.5087 16.0357 26.5379 16.0858L28.83 19.9352C28.8923 20.0383 28.9925 20.1129 29.109 20.1432C29.2256 20.1735 29.3494 20.157 29.454 20.0973C30.0856 19.7436 30.7973 19.5579 31.521 19.5579C32.2448 19.5579 32.9565 19.7436 33.5881 20.0973C34.2071 20.4401 34.7235 20.9419 35.0842 21.5509C35.4449 22.16 35.6368 22.8543 35.6401 23.5623C35.6425 23.6823 35.692 23.7966 35.7779 23.8803C35.8638 23.964 35.9792 24.0105 36.0991 24.0097H40.6803C40.8007 24.0113 40.9169 23.9652 41.0034 23.8814C41.09 23.7975 41.1399 23.6829 41.1423 23.5623C41.1461 22.8548 41.3383 22.1611 41.699 21.5527C42.0596 20.9442 42.5758 20.4429 43.1943 20.1003C43.8265 19.7466 44.5386 19.5609 45.2629 19.5609C45.9871 19.5609 46.6993 19.7466 47.3314 20.1003C47.4352 20.1601 47.5583 20.177 47.6743 20.1472C47.7903 20.1175 47.8901 20.0435 47.9524 19.9412L50.2475 16.0858C50.2772 16.0358 50.2964 15.9804 50.3042 15.9227C50.3119 15.8651 50.308 15.8065 50.2926 15.7504C50.2772 15.6944 50.2506 15.642 50.2145 15.5964C50.1784 15.5509 50.1335 15.5131 50.0825 15.4853V15.4913ZM38.5382 15.0229C37.7425 15.0269 36.9779 14.7143 36.4124 14.1541C35.847 13.5938 35.5271 12.8316 35.5231 12.0353C35.5192 11.2389 35.8314 10.4736 36.3912 9.90772C36.951 9.3418 37.7125 9.02164 38.5082 9.01766H38.5382C39.3339 9.01766 40.097 9.334 40.6596 9.8971C41.2222 10.4602 41.5383 11.2239 41.5383 12.0203C41.5383 12.8166 41.2222 13.5803 40.6596 14.1434C40.097 14.7065 39.3339 15.0229 38.5382 15.0229Z" fill="white"/>
<path opacity="0.4" d="M29.6517 37.4947L26.8642 41.6572C19.846 38.708 14.2689 33.1174 11.3367 26.0922L15.4792 23.3297C16.5723 22.6023 17.3448 21.4833 17.6374 20.2033C17.93 18.9232 17.7203 17.5797 17.0517 16.4497L13.1517 9.8522C12.7559 9.18185 12.1613 8.6513 11.4503 8.33414C10.7394 8.01697 9.9474 7.92892 9.18417 8.0822H9.14417C7.62445 8.37928 6.18189 8.98513 4.90578 9.86225C3.62966 10.7394 2.54716 11.8691 1.72529 13.1814C0.903418 14.4938 0.359663 15.9609 0.127689 17.4919C-0.104286 19.0229 -0.0195437 20.5853 0.37667 22.0822C2.37732 29.3846 6.24504 36.0402 11.5991 41.3938C16.9532 46.7475 23.6091 50.6146 30.9117 52.6147C32.4089 53.0105 33.9715 53.0948 35.5027 52.8623C37.0338 52.6299 38.501 52.0856 39.8133 51.2633C41.1257 50.441 42.2553 49.3581 43.1322 48.0816C44.0092 46.8051 44.6148 45.3622 44.9117 43.8422C45.0646 43.0826 44.9784 42.2942 44.6651 41.5856C44.3517 40.8769 43.8265 40.2827 43.1617 39.8847L36.5567 35.9447C35.4269 35.267 34.0796 35.0499 32.7941 35.3384C31.5086 35.627 30.3834 36.3991 29.6517 37.4947Z" fill="white"/>
</svg>
