<svg width="60" height="61" viewBox="0 0 60 61" fill="none" xmlns="http://www.w3.org/2000/svg">
<path opacity="0.4" d="M7.5 30.5002C7.49809 33.7462 8.20541 36.9535 9.5725 39.8977C10.0715 41.019 10.1251 42.2882 9.7225 43.4477L7.625 49.6977C7.48046 50.1393 7.46112 50.6124 7.56913 51.0644C7.67714 51.5164 7.90827 51.9297 8.23688 52.2583C8.5655 52.5869 8.97873 52.818 9.43074 52.926C9.88274 53.034 10.3558 53.0147 10.7975 52.8702L17.0475 50.7727C18.2069 50.37 19.4762 50.4237 20.5975 50.9227C25.0148 52.9526 29.971 53.4964 34.7234 52.4726C39.4758 51.4488 43.7684 48.9125 46.958 45.2437C50.1477 41.575 52.0625 36.9714 52.4156 32.1228C52.7687 27.2743 51.5411 22.4418 48.9167 18.3497C46.2923 14.2575 42.4124 11.126 37.8585 9.42444C33.3046 7.72286 28.3219 7.54285 23.6571 8.91137C18.9923 10.2799 14.8966 13.1233 11.9837 17.0154C9.07084 20.9075 7.49769 25.6387 7.5 30.5002Z" fill="white"/>
<path d="M31.1363 21.2023L33.4288 25.8098C33.5144 25.9812 33.6403 26.1292 33.7958 26.2411C33.9513 26.353 34.1316 26.4255 34.3213 26.4523L39.6113 27.2023C39.8282 27.233 40.0323 27.3238 40.2002 27.4645C40.3682 27.6052 40.4934 27.7901 40.5615 27.9984C40.6297 28.2066 40.6382 28.4297 40.586 28.6425C40.5339 28.8553 40.4231 29.0493 40.2663 29.2023L36.4413 32.9023C36.3039 33.0352 36.2009 33.1996 36.1412 33.3812C36.0815 33.5629 36.067 33.7563 36.0988 33.9448L36.9763 39.0098C37.0152 39.242 36.9885 39.4804 36.8991 39.6982C36.8096 39.9159 36.6611 40.1043 36.4703 40.2422C36.2794 40.38 36.0538 40.4617 35.819 40.478C35.5842 40.4944 35.3494 40.4448 35.1413 40.3348L30.5513 37.9423C30.3815 37.8536 30.1928 37.8073 30.0013 37.8073C29.8098 37.8073 29.6211 37.8536 29.4513 37.9423L24.8663 40.3348C24.6575 40.4439 24.4224 40.4926 24.1875 40.4756C23.9525 40.4585 23.727 40.3763 23.5362 40.2382C23.3453 40.1 23.1968 39.9115 23.1072 39.6936C23.0175 39.4758 22.9904 39.2372 23.0288 39.0048L23.9038 33.9448C23.9356 33.7563 23.9211 33.5629 23.8614 33.3812C23.8017 33.1996 23.6987 33.0352 23.5613 32.9023L19.7363 29.2023C19.5795 29.0493 19.4687 28.8553 19.4166 28.6425C19.3644 28.4297 19.3729 28.2066 19.441 27.9984C19.5092 27.7901 19.6344 27.6052 19.8024 27.4645C19.9703 27.3238 20.1743 27.233 20.3913 27.2023L25.6813 26.4523C25.871 26.4255 26.0513 26.353 26.2068 26.2411C26.3622 26.1292 26.4882 25.9812 26.5738 25.8098L28.8663 21.2023C28.9713 20.9911 29.1332 20.8133 29.3337 20.6891C29.5342 20.5649 29.7654 20.499 30.0013 20.499C30.2372 20.499 30.4684 20.5649 30.6689 20.6891C30.8694 20.8133 31.0313 20.9911 31.1363 21.2023Z" fill="white"/>
</svg>
