<svg width="60" height="61" viewBox="0 0 60 61" fill="none" xmlns="http://www.w3.org/2000/svg">
<path opacity="0.4" d="M12.3757 43.53C9.13984 39.9725 7.39458 35.3078 7.50066 30.5C7.50066 18 17.5757 10.5 30.0007 10.5C42.4257 10.5 52.5007 18 52.5007 30.5C52.5007 43 42.4257 50.5 30.0007 50.5C26.9492 50.5187 23.916 50.0286 21.0257 49.05C17.6757 52.625 12.2007 53.1 8.65066 52.975C8.41148 52.9642 8.18107 52.8818 7.98928 52.7385C7.7975 52.5951 7.65318 52.3975 7.57505 52.1712C7.49692 51.9449 7.48857 51.7003 7.55108 51.4692C7.6136 51.2381 7.7441 51.0311 7.92566 50.875C10.2683 49.063 11.8542 46.4453 12.3757 43.53Z" fill="white"/>
<path d="M30.0016 34.5306C29.7928 34.5304 29.5856 34.494 29.3891 34.4231C28.9268 34.2659 28.5454 33.932 28.3285 33.4944C28.1116 33.0569 28.0768 32.5512 28.2316 32.0881C28.8741 30.6815 29.9441 29.5135 31.2891 28.7506C31.8134 28.5047 32.2423 28.0932 32.5098 27.5796C32.7772 27.0659 32.8684 26.4786 32.7691 25.9081C32.6616 25.3513 32.3898 24.8394 31.9888 24.4384C31.5878 24.0374 31.076 23.7656 30.5191 23.6581C30.1125 23.5813 29.6939 23.595 29.2932 23.6985C28.8924 23.8019 28.5195 23.9924 28.2008 24.2564C27.8821 24.5205 27.6255 24.8515 27.4494 25.226C27.2732 25.6005 27.1818 26.0092 27.1816 26.4231C27.1816 26.9204 26.9841 27.3973 26.6325 27.7489C26.2808 28.1005 25.8039 28.2981 25.3066 28.2981C24.8094 28.2981 24.3324 28.1005 23.9808 27.7489C23.6292 27.3973 23.4316 26.9204 23.4316 26.4231C23.4337 24.7855 24.0477 23.2077 25.1531 21.9995C26.2586 20.7914 27.7757 20.0399 29.4067 19.8928C31.0377 19.7456 32.6648 20.2133 33.9686 21.2041C35.2725 22.1949 36.159 23.6373 36.4541 25.2481C36.6788 26.535 36.5024 27.8599 35.9488 29.0432C35.3951 30.2264 34.4911 31.2109 33.3591 31.8631C31.9666 32.7856 31.7766 33.2556 31.7691 33.2756C31.6355 33.6386 31.3952 33.9528 31.0798 34.1768C30.7643 34.4008 30.3885 34.5241 30.0016 34.5306ZM32.5516 39.2506C32.5516 38.5875 32.2882 37.9516 31.8194 37.4828C31.3506 37.014 30.7147 36.7506 30.0516 36.7506H30.0266C29.5333 36.7555 29.0524 36.9063 28.6446 37.184C28.2368 37.4617 27.9202 37.8538 27.7348 38.3111C27.5495 38.7683 27.5035 39.2701 27.6028 39.7534C27.702 40.2367 27.9421 40.6798 28.2927 41.027C28.6433 41.3741 29.0888 41.6098 29.573 41.7042C30.0573 41.7987 30.5587 41.7477 31.014 41.5578C31.4694 41.3678 31.8584 41.0474 32.132 40.6369C32.4056 40.2263 32.5516 39.744 32.5516 39.2506Z" fill="white"/>
</svg>
