<svg width="60" height="61" viewBox="0 0 60 61" fill="none" xmlns="http://www.w3.org/2000/svg">
<path opacity="0.4" d="M52.5005 30.4996C52.5005 42.9996 42.4255 50.4996 30.0005 50.4996C26.9491 50.5183 23.9158 50.0282 21.0255 49.0496C17.6755 52.6246 12.2005 53.0996 8.6505 52.9746C8.41132 52.9638 8.18091 52.8814 7.98912 52.7381C7.79734 52.5947 7.65302 52.3971 7.57489 52.1708C7.49676 51.9445 7.48841 51.6999 7.55092 51.4688C7.61344 51.2377 7.74394 51.0307 7.9255 50.8746C10.2691 49.0603 11.8551 46.4399 12.3755 43.5221C9.14148 39.9665 7.39636 35.3048 7.5005 30.4996C7.5005 17.9996 17.5755 10.4996 30.0005 10.4996C32.9581 10.4803 35.8992 10.943 38.708 11.8696C38.897 11.9395 39.0509 12.081 39.1365 12.2634C39.2221 12.4458 39.2325 12.6546 39.1655 12.8446C38.6565 14.4411 38.614 16.1498 39.043 17.7696C39.3533 18.9449 39.9063 20.0423 40.6662 20.991C41.4262 21.9398 42.3763 22.719 43.4555 23.2785C44.5347 23.838 45.719 24.1654 46.9324 24.2396C48.1457 24.3139 49.3611 24.1333 50.5005 23.7096C50.5959 23.6685 50.6987 23.6471 50.8026 23.6468C50.9064 23.6466 51.0093 23.6674 51.1049 23.7081C51.2005 23.7488 51.2869 23.8084 51.3587 23.8835C51.4306 23.9585 51.4865 24.0473 51.523 24.1446C52.1881 26.1967 52.5181 28.3425 52.5005 30.4996Z" fill="white"/>
<path d="M30.0508 33C29.3877 33.0033 28.7505 32.7431 28.2794 32.2766C27.8082 31.8101 27.5416 31.1755 27.5383 30.5125C27.535 29.8495 27.7952 29.2123 28.2617 28.7411C28.7282 28.2699 29.3627 28.0033 30.0258 28H30.0508C30.7138 28 31.3497 28.2634 31.8186 28.7322C32.2874 29.2011 32.5508 29.837 32.5508 30.5C32.5508 31.163 32.2874 31.7989 31.8186 32.2678C31.3497 32.7366 30.7138 33 30.0508 33ZM42.5508 30.5C42.5508 29.837 42.2874 29.2011 41.8185 28.7322C41.3497 28.2634 40.7138 28 40.0508 28H40.0258C39.5324 28.0049 39.0516 28.1557 38.6437 28.4334C38.2359 28.7111 37.9194 29.1033 37.734 29.5605C37.5486 30.0177 37.5026 30.5196 37.6019 31.0029C37.7012 31.4862 37.9412 31.9293 38.2918 32.2764C38.6424 32.6235 39.0879 32.8592 39.5722 32.9536C40.0564 33.0481 40.5578 32.9971 41.0132 32.8072C41.4685 32.6173 41.8575 32.2969 42.1311 31.8863C42.4047 31.4757 42.5508 30.9934 42.5508 30.5ZM22.5508 30.5C22.5508 29.837 22.2874 29.2011 21.8185 28.7322C21.3497 28.2634 20.7138 28 20.0508 28H20.0258C19.5324 28.0049 19.0516 28.1557 18.6437 28.4334C18.2359 28.7111 17.9194 29.1033 17.734 29.5605C17.5486 30.0177 17.5026 30.5196 17.6019 31.0029C17.7012 31.4862 17.9412 31.9293 18.2918 32.2764C18.6424 32.6235 19.0879 32.8592 19.5722 32.9536C20.0564 33.0481 20.5578 32.9971 21.0132 32.8072C21.4685 32.6173 21.8575 32.2969 22.1311 31.8863C22.4047 31.4757 22.5508 30.9934 22.5508 30.5Z" fill="white"/>
<path d="M47.5 20.5049C50.2614 20.5049 52.5 18.2663 52.5 15.5049C52.5 12.7435 50.2614 10.5049 47.5 10.5049C44.7386 10.5049 42.5 12.7435 42.5 15.5049C42.5 18.2663 44.7386 20.5049 47.5 20.5049Z" fill="white"/>
</svg>
