<svg width="60" height="61" viewBox="0 0 60 61" fill="none" xmlns="http://www.w3.org/2000/svg">
<path opacity="0.4" d="M52.5001 24.8251C52.4958 24.7133 52.4673 24.6038 52.4165 24.5041C52.3656 24.4045 52.2937 24.3172 52.2056 24.2482C52.1176 24.1792 52.0156 24.1302 51.9067 24.1046C51.7978 24.079 51.6846 24.0775 51.5751 24.1001C50.8748 24.231 50.1608 24.273 49.4501 24.2251C47.3346 24.0783 45.343 23.1732 43.8412 21.6761C42.3395 20.1789 41.4283 18.1901 41.2751 16.0751C41.2271 15.356 41.2691 14.6337 41.4001 13.9251C41.4264 13.8152 41.4276 13.7007 41.4036 13.5903C41.3795 13.4799 41.3308 13.3763 41.2611 13.2874C41.1913 13.1984 41.1024 13.1264 41.001 13.0766C40.8995 13.0269 40.7881 13.0007 40.6751 13.0001H15.0001C13.9813 12.8547 12.9427 12.9485 11.9665 13.274C10.9902 13.5995 10.1031 14.1478 9.37548 14.8755C8.64781 15.6031 8.09952 16.4902 7.77401 17.4665C7.4485 18.4427 7.35471 19.4813 7.50006 20.5001V43.0001C7.35471 44.0188 7.4485 45.0574 7.77401 46.0337C8.09952 47.0099 8.64781 47.897 9.37548 48.6247C10.1031 49.3523 10.9902 49.9006 11.9665 50.2261C12.9427 50.5516 13.9813 50.6454 15.0001 50.5001H45.0001C46.0188 50.6454 47.0574 50.5516 48.0337 50.2261C49.0099 49.9006 49.897 49.3523 50.6247 48.6247C51.3523 47.897 51.9006 47.0099 52.2261 46.0337C52.5516 45.0574 52.6454 44.0188 52.5001 43.0001V24.8251Z" fill="white"/>
<path d="M50 20.5C52.7614 20.5 55 18.2614 55 15.5C55 12.7386 52.7614 10.5 50 10.5C47.2386 10.5 45 12.7386 45 15.5C45 18.2614 47.2386 20.5 50 20.5Z" fill="white"/>
<path d="M29.9979 36.6802C29.0029 36.6794 28.038 36.339 27.2629 35.7152L16.3254 26.9652C15.9557 26.6482 15.7236 26.2 15.6781 25.7152C15.6326 25.2303 15.7773 24.7468 16.0816 24.3666C16.3859 23.9864 16.826 23.7393 17.309 23.6775C17.792 23.6157 18.2801 23.7439 18.6704 24.0352L29.6079 32.7852C29.719 32.8727 29.8564 32.9204 29.9979 32.9204C30.1394 32.9204 30.2768 32.8727 30.3879 32.7852L41.3254 24.0352C41.5166 23.8712 41.7389 23.7474 41.979 23.6711C42.219 23.5949 42.472 23.5677 42.7228 23.5912C42.9736 23.6147 43.2171 23.6885 43.4388 23.8081C43.6605 23.9277 43.8559 24.0907 44.0133 24.2873C44.1707 24.484 44.2869 24.7103 44.355 24.9528C44.4231 25.1954 44.4417 25.4491 44.4097 25.699C44.3777 25.9488 44.2958 26.1897 44.1688 26.4072C44.0418 26.6247 43.8723 26.8145 43.6704 26.9652L32.7329 35.7152C31.9578 36.339 30.9929 36.6794 29.9979 36.6802Z" fill="white"/>
</svg>
