<svg width="60" height="61" viewBox="0 0 60 61" fill="none" xmlns="http://www.w3.org/2000/svg">
<path opacity="0.4" d="M44.1675 5.5H15.8325C10.2775 5.5 7.5 8.2775 7.5 13.8325V38.8325C7.5 44.3908 10.2775 47.1692 15.8325 47.1675H19.5825C20.2294 47.1675 20.8675 47.3179 21.4463 47.6069C22.0251 47.8958 22.5287 48.3154 22.9175 48.8325L26.6675 53.8325C27.0554 54.35 27.5586 54.77 28.137 55.0593C28.7154 55.3486 29.3533 55.4992 30 55.4992C30.6467 55.4992 31.2846 55.3486 31.863 55.0593C32.4414 54.77 32.9446 54.35 33.3325 53.8325L37.0825 48.8325C37.4713 48.3154 37.9749 47.8958 38.5537 47.6069C39.1325 47.3179 39.7706 47.1675 40.4175 47.1675H44.1675C49.7225 47.1675 52.5 44.3892 52.5 38.8325V13.8325C52.5 8.2775 49.7225 5.5 44.1675 5.5Z" fill="white"/>
<path d="M20.1 24.1753H21.75C21.9489 24.1753 22.1397 24.2544 22.2803 24.395C22.421 24.5357 22.5 24.7264 22.5 24.9253V36.6253C22.5 36.8243 22.421 37.015 22.2803 37.1557C22.1397 37.2963 21.9489 37.3753 21.75 37.3753H20.1C19.8406 37.3753 19.5838 37.3243 19.3442 37.225C19.1046 37.1258 18.8869 36.9803 18.7035 36.7969C18.5201 36.6135 18.3746 36.3958 18.2753 36.1561C18.1761 35.9165 18.125 35.6597 18.125 35.4003V26.1503C18.1263 25.6269 18.3348 25.1254 18.7049 24.7553C19.075 24.3852 19.5766 24.1767 20.1 24.1753ZM37.7975 21.5503H32.6225V17.2753C32.6259 16.6236 32.4679 15.9811 32.1625 15.4053C31.8572 14.8294 31.414 14.3382 30.8725 13.9753C30.5357 13.7402 30.1332 13.6177 29.7225 13.6253C29.2953 13.6224 28.8774 13.7501 28.5248 13.9914C28.1723 14.2327 27.9019 14.576 27.75 14.9753L25.0375 23.2253C25.0115 23.3044 24.9988 23.3872 25 23.4703V36.6253C25 36.7238 25.0194 36.8214 25.0571 36.9124C25.0948 37.0033 25.15 37.086 25.2197 37.1557C25.2893 37.2253 25.372 37.2806 25.463 37.3183C25.554 37.3559 25.6515 37.3753 25.75 37.3753H35.1475C35.5713 37.4467 36.005 37.4333 36.4236 37.3359C36.8421 37.2385 37.2372 37.059 37.586 36.8079C37.9347 36.5568 38.2302 36.239 38.4553 35.873C38.6804 35.5069 38.8307 35.0999 38.8975 34.6753L41.5475 26.7503C42.3975 24.2003 41.75 21.5503 37.7975 21.5503Z" fill="white"/>
</svg>
