<svg width="50" height="50" viewBox="0 0 50 50" fill="none" xmlns="http://www.w3.org/2000/svg">
<g clip-path="url(#clip0_245_78657)">
<path opacity="0.4" d="M33.8137 16.5551V23.1993C33.8105 23.345 33.752 23.484 33.6502 23.5883C33.5484 23.6926 33.4109 23.7543 33.2653 23.7611C30.7194 23.8965 28.32 24.9942 26.5527 26.8319C24.7855 28.6696 23.7825 31.11 23.7467 33.6593C23.7443 35.4379 24.2269 37.1834 25.1427 38.7081C25.1925 38.7967 25.218 38.897 25.2165 38.9986C25.215 39.1003 25.1866 39.1997 25.1342 39.2868C25.0818 39.3739 25.0072 39.4456 24.9181 39.4945C24.829 39.5434 24.7285 39.5678 24.6269 39.5653H10.8035C10.0221 39.6768 9.22551 39.6048 8.47673 39.3551C7.72795 39.1055 7.04756 38.6849 6.48944 38.1268C5.93131 37.5687 5.51077 36.8883 5.2611 36.1395C5.01143 35.3907 4.9395 34.5941 5.05098 33.8127V10.8025C4.9395 10.0212 5.01143 9.22453 5.2611 8.47575C5.51077 7.72697 5.93131 7.04658 6.48944 6.48846C7.04756 5.93033 7.72795 5.50979 8.47673 5.26012C9.22551 5.01046 10.0221 4.93852 10.8035 5.05001H22.3086V10.8025C22.3086 12.3282 22.9147 13.7914 23.9935 14.8702C25.0723 15.949 26.5355 16.5551 28.0612 16.5551H33.8137Z" fill="white"/>
<path d="M28.0612 16.5549H33.8137L22.3086 5.0498V10.8023C22.1971 11.5837 22.2691 12.3804 22.5187 13.1291C22.7684 13.8779 23.1889 14.5583 23.7471 15.1164C24.3052 15.6746 24.9856 16.0951 25.7344 16.3448C26.4831 16.5944 27.2798 16.6664 28.0612 16.5549Z" fill="white"/>
<path d="M14.1586 22.3073C14.1586 22.5917 14.0742 22.8698 13.9162 23.1063C13.7582 23.3428 13.5336 23.5271 13.2708 23.6359C13.008 23.7448 12.7188 23.7733 12.4399 23.7178C12.1609 23.6623 11.9046 23.5253 11.7035 23.3242C11.5024 23.1231 11.3654 22.8668 11.3099 22.5878C11.2544 22.3089 11.2829 22.0197 11.3918 21.7569C11.5006 21.4941 11.6849 21.2695 11.9214 21.1115C12.1579 20.9535 12.436 20.8691 12.7204 20.8691C13.1018 20.8691 13.4676 21.0207 13.7373 21.2904C14.007 21.5601 14.1586 21.9259 14.1586 22.3073ZM12.7204 28.5392C12.436 28.5392 12.1579 28.6235 11.9214 28.7816C11.6849 28.9396 11.5006 29.1642 11.3918 29.427C11.2829 29.6898 11.2544 29.9789 11.3099 30.2579C11.3654 30.5369 11.5024 30.7931 11.7035 30.9943C11.9046 31.1954 12.1609 31.3323 12.4399 31.3878C12.7188 31.4433 13.008 31.4148 13.2708 31.306C13.5336 31.1971 13.7582 31.0128 13.9162 30.7763C14.0742 30.5398 14.1586 30.2618 14.1586 29.9773C14.1586 29.5959 14.007 29.2301 13.7373 28.9604C13.4676 28.6907 13.1018 28.5392 12.7204 28.5392ZM27.5812 22.3073C27.5812 21.9259 27.4296 21.5601 27.1599 21.2904C26.8902 21.0207 26.5244 20.8691 26.143 20.8691H17.5142C17.1328 20.8691 16.767 21.0207 16.4973 21.2904C16.2276 21.5601 16.0761 21.9259 16.0761 22.3073C16.0761 22.6887 16.2276 23.0545 16.4973 23.3242C16.767 23.5939 17.1328 23.7454 17.5142 23.7454H26.143C26.5244 23.7454 26.8902 23.5939 27.1599 23.3242C27.4296 23.0545 27.5812 22.6887 27.5812 22.3073ZM21.8286 29.9773C21.8286 29.5959 21.6771 29.2301 21.4074 28.9604C21.1377 28.6907 20.7719 28.5392 20.3905 28.5392H17.5142C17.1328 28.5392 16.767 28.6907 16.4973 28.9604C16.2276 29.2301 16.0761 29.5959 16.0761 29.9773C16.0761 30.3588 16.2276 30.7245 16.4973 30.9943C16.767 31.264 17.1328 31.4155 17.5142 31.4155H20.3905C20.7719 31.4155 21.1377 31.264 21.4074 30.9943C21.6771 30.7245 21.8286 30.3588 21.8286 29.9773Z" fill="white"/>
<path d="M42.5009 40.4657L39.5288 37.4936C40.2794 36.3554 40.6794 35.0219 40.6793 33.6585C40.6853 32.087 40.1665 30.5584 39.2051 29.3151C38.2437 28.0719 36.8949 27.1851 35.3723 26.7955C33.8498 26.4059 32.2408 26.5356 30.8004 27.1643C29.36 27.7929 28.1707 28.8843 27.421 30.2656C26.6714 31.6468 26.4042 33.2388 26.662 34.7891C26.9198 36.3394 27.6877 37.7593 28.844 38.8236C30.0004 39.8879 31.4789 40.5358 33.0452 40.6644C34.6115 40.7931 36.176 40.3952 37.4905 39.5338L40.4626 42.504C40.7352 42.7581 41.0958 42.8964 41.4684 42.8898C41.841 42.8832 42.1964 42.7323 42.4599 42.4688C42.7234 42.2053 42.8744 41.8498 42.8809 41.4772C42.8875 41.1047 42.7492 40.7441 42.4952 40.4715L42.5009 40.4657ZM29.5002 33.6528C29.4998 32.8309 29.7432 32.0273 30.1995 31.3437C30.6559 30.6601 31.3047 30.1273 32.064 29.8125C32.8232 29.4977 33.6587 29.4151 34.4649 29.5752C35.2711 29.7353 36.0116 30.1309 36.593 30.712C37.1743 31.293 37.5702 32.0334 37.7307 32.8395C37.8912 33.6456 37.809 34.4812 37.4946 35.2406C37.1801 36 36.6475 36.649 35.9642 37.1057C35.2808 37.5624 34.4773 37.8061 33.6554 37.8061C32.554 37.8051 31.498 37.3673 30.719 36.5886C29.94 35.81 29.5017 34.7542 29.5002 33.6528Z" fill="white"/>
</g>
<defs>
<clipPath id="clip0_245_78657">
<rect width="40" height="40" fill="white" transform="translate(5 5)"/>
</clipPath>
</defs>
</svg>
