<svg width="50" height="50" viewBox="0 0 50 50" fill="none" xmlns="http://www.w3.org/2000/svg">
<path opacity="0.4" fill-rule="evenodd" clip-rule="evenodd" d="M37.9991 42.5394H4.60383C4.30206 42.5394 4.0003 42.3382 4.0003 41.9358V37.7111C4.0003 32.2794 8.42617 27.8535 13.7573 27.8535H17.5797C17.7809 27.8535 17.982 27.9541 18.0826 28.1553H24.5203C24.6208 27.9541 24.822 27.8535 25.1238 27.8535H28.8455C34.2773 27.8535 38.6026 32.2794 38.6026 37.7111V41.9358C38.6026 42.3382 38.4014 42.5394 37.9991 42.5394Z" fill="white"/>
<path fill-rule="evenodd" clip-rule="evenodd" d="M38.2999 35.1963C38.5011 36.001 38.6017 36.8057 38.6017 37.711V39.7228H36.7394C35.4317 39.7228 34.4259 38.7169 34.4259 37.5098C34.4259 36.2022 35.4317 35.1963 36.7394 35.1963H38.2999Z" fill="white"/>
<path fill-rule="evenodd" clip-rule="evenodd" d="M4.30197 35.1963C4.10079 36.001 4.00021 36.8057 4.00021 37.711V39.7228H5.86252C7.17017 39.7228 8.17605 38.7169 8.17605 37.5098C8.17605 36.2022 7.17017 35.1963 5.86252 35.1963H4.30197Z" fill="white"/>
<path fill-rule="evenodd" clip-rule="evenodd" d="M24.3187 25.4395L24.5199 25.1377C24.5199 24.8359 24.7211 24.5342 25.1234 24.5342C25.4252 24.5342 25.727 24.8359 25.727 25.1377V28.4571V28.5577H25.6264C25.6264 28.6583 25.6264 28.7589 25.5258 28.8595L22.0052 33.8889C21.9046 34.09 21.7034 34.1906 21.5023 34.1906C21.3011 34.1906 21.0999 34.09 20.9993 33.9895L17.0764 28.8595C16.9758 28.7589 16.9758 28.5577 16.9758 28.4571V25.1377C16.9758 24.8359 17.177 24.5342 17.5793 24.5342C17.8811 24.5342 18.1828 24.8359 18.1828 25.1377L18.384 25.4395C19.3899 25.9424 20.1946 25.7412 21.3011 25.7412C22.4075 25.7412 23.3128 25.9424 24.3187 25.4395Z" fill="white"/>
<path fill-rule="evenodd" clip-rule="evenodd" d="M21.3012 27.0491C19.5912 27.0491 17.9818 26.345 16.7747 25.2385C15.6682 24.2326 14.9641 22.925 14.6624 21.4162H14.26C13.9582 21.4162 13.6565 21.1144 13.6565 20.8126V17.8956C13.6565 17.5938 13.9582 17.2921 14.26 17.2921H14.4612C14.4612 16.5879 14.4612 15.7832 14.4612 14.9785C14.4612 14.6768 14.7629 14.375 15.0647 14.375H27.5376C27.94 14.375 28.1412 14.6768 28.1412 14.9785V17.2921H28.3423C28.7447 17.2921 28.9459 17.5938 28.9459 17.8956V20.8126C28.9459 21.1144 28.7447 21.4162 28.3423 21.4162H27.94C27.7388 22.925 27.0347 24.2326 25.9282 25.2385C24.6206 26.345 23.0112 27.0491 21.3012 27.0491Z" fill="#575757"/>
<path fill-rule="evenodd" clip-rule="evenodd" d="M27.8395 15.683H14.763C14.5618 15.683 14.4612 15.5824 14.2601 15.3813L11.8459 12.0619C11.7454 11.9613 11.7454 11.7601 11.7454 11.5589C11.8459 11.3577 11.9465 11.2572 12.1477 11.1566L21.1001 7.5354C21.2006 7.43481 21.4018 7.43481 21.5024 7.5354L30.5553 11.2572C30.7565 11.2572 30.8571 11.4583 30.8571 11.6595C30.9577 11.8607 30.8571 11.9613 30.7565 12.1625L28.3424 15.3813C28.2418 15.5824 28.0406 15.683 27.8395 15.683Z" fill="#323FB0"/>
<path fill-rule="evenodd" clip-rule="evenodd" d="M27.8395 15.683H14.763C14.5618 15.683 14.4612 15.5824 14.2601 15.3813L11.8459 12.0619C11.7454 11.9613 11.7454 11.7601 11.7454 11.5589C11.8459 11.3577 11.9465 11.2572 12.1477 11.1566L21.1001 7.5354C21.2006 7.43481 21.4018 7.43481 21.5024 7.5354L30.5553 11.2572C30.7565 11.2572 30.8571 11.4583 30.8571 11.6595C30.9577 11.8607 30.8571 11.9613 30.7565 12.1625L28.3424 15.3813C28.2418 15.5824 28.0406 15.683 27.8395 15.683Z" fill="white"/>
<path fill-rule="evenodd" clip-rule="evenodd" d="M21.9045 38.211H20.6975C20.3957 38.211 20.0939 37.9092 20.0939 37.6074C20.0939 37.3057 20.3957 37.0039 20.6975 37.0039H21.9045C22.2063 37.0039 22.508 37.3057 22.508 37.6074C22.508 37.9092 22.2063 38.211 21.9045 38.211Z" fill="white"/>
<path fill-rule="evenodd" clip-rule="evenodd" d="M21.9044 40.8291H20.6973C20.3956 40.8291 20.0938 40.628 20.0938 40.2256C20.0938 39.9238 20.3956 39.6221 20.6973 39.6221H21.9044C22.2062 39.6221 22.5079 39.9238 22.5079 40.2256C22.5079 40.628 22.2062 40.8291 21.9044 40.8291Z" fill="white"/>
<path opacity="0.4" d="M43.9082 15.0238V18.2691C43.9082 18.493 43.6781 18.5104 43.5595 18.5104C43.3121 18.5083 43.069 18.5758 42.8582 18.7053C42.6473 18.8348 42.4771 19.021 42.3671 19.2426L42.0184 19.926L41.2026 20.0445C40.9588 20.0788 40.7297 20.181 40.5413 20.3394C40.3529 20.4978 40.2129 20.706 40.1372 20.9402C40.0616 21.1744 40.0534 21.4252 40.1135 21.6639C40.1736 21.9026 40.2997 22.1195 40.4773 22.2899L41.0561 22.8408L40.9864 23.2313C40.9757 23.2759 40.9507 23.3157 40.9152 23.3447C40.8796 23.3737 40.8356 23.3902 40.7897 23.3917H35.5403C35.2561 23.4322 34.9664 23.406 34.6941 23.3152C34.4218 23.2245 34.1744 23.0715 33.9714 22.8686C33.7685 22.6656 33.6155 22.4182 33.5247 22.1459C33.4339 21.8735 33.4078 21.5838 33.4483 21.2997V12.9318C33.4078 12.6476 33.4339 12.3579 33.5247 12.0856C33.6155 11.8133 33.7685 11.5659 33.9714 11.3629C34.1744 11.16 34.4218 11.007 34.6941 10.9162C34.9664 10.8254 35.2561 10.7993 35.5403 10.8398H39.7242V12.9318C39.6837 13.216 39.7099 13.5057 39.8006 13.778C39.8914 14.0503 40.0444 14.2977 40.2473 14.5007C40.4503 14.7036 40.6977 14.8566 40.97 14.9474C41.2423 15.0382 41.532 15.0643 41.8162 15.0238H43.9082Z" fill="#D9D9D9"/>
<path d="M41.8164 15.0238H43.9084L39.7244 10.8398V12.9318C39.6839 13.216 39.7101 13.5057 39.8008 13.778C39.8916 14.0503 40.0446 14.2977 40.2475 14.5007C40.4505 14.7036 40.6979 14.8566 40.9702 14.9474C41.2425 15.0382 41.5322 15.0643 41.8164 15.0238Z" fill="white"/>
<path d="M36.7607 17.1158C36.7607 17.2192 36.73 17.3203 36.6726 17.4063C36.6151 17.4923 36.5334 17.5594 36.4378 17.5989C36.3423 17.6385 36.2371 17.6489 36.1357 17.6287C36.0342 17.6085 35.941 17.5587 35.8679 17.4856C35.7948 17.4124 35.7449 17.3192 35.7248 17.2178C35.7046 17.1163 35.7149 17.0112 35.7545 16.9156C35.7941 16.8201 35.8611 16.7384 35.9471 16.6809C36.0332 16.6234 36.1343 16.5928 36.2377 16.5928C36.3764 16.5928 36.5094 16.6479 36.6075 16.746C36.7056 16.844 36.7607 16.9771 36.7607 17.1158ZM36.2377 19.3821C36.1343 19.3821 36.0332 19.4127 35.9471 19.4702C35.8611 19.5277 35.7941 19.6094 35.7545 19.7049C35.7149 19.8005 35.7046 19.9056 35.7248 20.0071C35.7449 20.1085 35.7948 20.2017 35.8679 20.2749C35.941 20.348 36.0342 20.3978 36.1357 20.418C36.2371 20.4382 36.3423 20.4278 36.4378 20.3882C36.5334 20.3487 36.6151 20.2816 36.6726 20.1956C36.73 20.1096 36.7607 20.0085 36.7607 19.9051C36.7607 19.7664 36.7056 19.6333 36.6075 19.5352C36.5094 19.4372 36.3764 19.3821 36.2377 19.3821ZM41.642 17.1158C41.642 16.9771 41.5869 16.844 41.4888 16.746C41.3907 16.6479 41.2577 16.5928 41.119 16.5928H37.981C37.8423 16.5928 37.7093 16.6479 37.6112 16.746C37.5131 16.844 37.458 16.9771 37.458 17.1158C37.458 17.2545 37.5131 17.3875 37.6112 17.4856C37.7093 17.5837 37.8423 17.6388 37.981 17.6388H41.119C41.2577 17.6388 41.3907 17.5837 41.4888 17.4856C41.5869 17.3875 41.642 17.2545 41.642 17.1158ZM39.55 19.9051C39.55 19.7664 39.4949 19.6333 39.3968 19.5352C39.2987 19.4372 39.1657 19.3821 39.027 19.3821H37.981C37.8423 19.3821 37.7093 19.4372 37.6112 19.5352C37.5131 19.6333 37.458 19.7664 37.458 19.9051C37.458 20.0438 37.5131 20.1768 37.6112 20.2749C37.7093 20.373 37.8423 20.4281 37.981 20.4281H39.027C39.1657 20.4281 39.2987 20.373 39.3968 20.2749C39.4949 20.1768 39.55 20.0438 39.55 19.9051Z" fill="white"/>
<path d="M43.8207 19.7154L44.3472 20.7614C44.3672 20.8002 44.3963 20.8336 44.432 20.8589C44.4676 20.8841 44.5089 20.9004 44.5522 20.9064L45.7676 21.0793C45.8173 21.0856 45.8643 21.1058 45.903 21.1376C45.9417 21.1695 45.9706 21.2117 45.9863 21.2593C46.002 21.3069 46.0038 21.358 45.9917 21.4066C45.9795 21.4552 45.9538 21.4994 45.9175 21.534L45.0389 22.3708C45.0074 22.4007 44.9837 22.4379 44.9701 22.4791C44.9565 22.5204 44.9533 22.5644 44.9608 22.6072L45.1616 23.7543C45.1698 23.807 45.1633 23.861 45.1426 23.9102C45.122 23.9594 45.0881 24.002 45.0448 24.0331C45.0015 24.0643 44.9503 24.0828 44.8971 24.0866C44.8438 24.0904 44.7906 24.0794 44.7432 24.0548L43.6889 23.5123C43.6498 23.4925 43.6065 23.4821 43.5627 23.4821C43.5188 23.4821 43.4756 23.4925 43.4365 23.5123L42.3828 24.0548C42.3353 24.0789 42.2821 24.0895 42.2291 24.0855C42.176 24.0814 42.125 24.0628 42.0818 24.0316C42.0386 24.0005 42.0048 23.9581 41.9841 23.9091C41.9634 23.86 41.9566 23.8062 41.9644 23.7536L42.1652 22.6072C42.1728 22.5643 42.1696 22.5203 42.1558 22.479C42.142 22.4377 42.1182 22.4005 42.0864 22.3708L41.2078 21.534C41.1715 21.4994 41.1458 21.4551 41.1337 21.4064C41.1215 21.3578 41.1235 21.3066 41.1393 21.259C41.155 21.2114 41.184 21.1692 41.2228 21.1374C41.2616 21.1056 41.3086 21.0855 41.3584 21.0793L42.5739 20.9064C42.6171 20.9005 42.6582 20.8842 42.6938 20.859C42.7294 20.8337 42.7583 20.8002 42.7782 20.7614L43.3054 19.7154C43.3306 19.6691 43.3679 19.6305 43.4132 19.6036C43.4586 19.5767 43.5103 19.5625 43.563 19.5625C43.6157 19.5625 43.6675 19.5767 43.7128 19.6036C43.7582 19.6305 43.7954 19.6691 43.8207 19.7154Z" fill="white"/>
</svg>
