<svg width="50" height="50" viewBox="0 0 50 50" fill="none" xmlns="http://www.w3.org/2000/svg">
<path opacity="0.4" d="M19.31 19.4886C19.7522 19.6737 20.211 19.8167 20.6801 19.9156V36.8556C20.3924 36.7814 20.1124 36.6802 19.8438 36.5531L9.16734 31.8021C8.22467 31.3825 7.4238 30.6986 6.86168 29.8333C6.29955 28.968 6.00025 27.9584 6 26.9265V15.0757C6.00141 14.6004 6.06726 14.1275 6.19573 13.6699L19.31 19.4886Z" fill="white"/>
<path d="M23.6523 17.0325C23.1368 17.2613 22.5791 17.3795 22.0152 17.3795C21.4513 17.3795 20.8936 17.2613 20.3782 17.0325L7.54863 11.3206C8.01167 10.8468 8.56137 10.4662 9.16789 10.1996L19.8443 5.44859C20.5266 5.14068 21.2666 4.98145 22.0152 4.98145C22.7638 4.98145 23.5038 5.14068 24.1861 5.44859L34.8625 10.1996C35.4691 10.4662 36.0188 10.8468 36.4818 11.3206L23.6523 17.0325Z" fill="white"/>
<path opacity="0.4" d="M38.029 15.0757V20.0402C38.0279 20.125 38.0066 20.2084 37.9669 20.2833C37.9272 20.3583 37.8702 20.4227 37.8006 20.4712C37.731 20.5197 37.6509 20.551 37.5668 20.5624C37.4828 20.5738 37.3972 20.5649 37.3172 20.5367C36.2752 20.2155 35.186 20.0741 34.0965 20.1185C31.8219 20.213 29.6504 21.0932 27.9519 22.609C26.2534 24.1248 25.1329 26.1826 24.7813 28.4319C24.4342 30.7131 24.9125 33.0432 26.1301 35.0032C26.1713 35.0672 26.1983 35.1393 26.2094 35.2146C26.2204 35.2899 26.2152 35.3667 26.1942 35.4398C26.1731 35.513 26.1366 35.5808 26.0872 35.6387C26.0378 35.6966 25.9766 35.7432 25.9077 35.7755L23.4165 36.8983L23.3489 36.8556V19.9156C23.8158 19.8085 24.2739 19.6657 24.719 19.4886L37.8333 13.6699C37.9617 14.1275 38.0276 14.6004 38.029 15.0757Z" fill="white"/>
<path opacity="0.4" d="M38.9908 38.3799C38.5179 37.8343 37.9297 37.4056 37.2706 37.126C36.6116 36.8464 35.8989 36.7234 35.1864 36.7661H31.5932C27.946 36.7661 26.6524 39.4894 26.6524 41.8277C26.6524 43.9183 27.7394 45.0187 29.7965 45.0187H36.3004C36.3472 45.0181 36.393 45.005 36.4334 44.9808C36.4738 44.9565 36.5073 44.922 36.5306 44.8805C36.5539 44.839 36.5662 44.7921 36.5663 44.7443C36.5664 44.6965 36.5543 44.6495 36.5312 44.6079C36.2649 44.0787 36.1139 43.497 36.0884 42.9027C36.063 42.3083 36.1637 41.7154 36.3838 41.1645C36.6038 40.6136 36.938 40.1179 37.3633 39.7111C37.7886 39.3044 38.2951 38.9964 38.848 38.8082C38.8899 38.796 38.9283 38.7736 38.9599 38.743C38.9914 38.7123 39.0153 38.6743 39.0293 38.6322C39.0434 38.5901 39.0472 38.5452 39.0405 38.5013C39.0338 38.4573 39.0167 38.4157 38.9908 38.3799Z" fill="white"/>
<path d="M33.6737 35.1053C36.6392 35.1053 39.0433 32.7013 39.0433 29.7358C39.0433 26.7702 36.6392 24.3662 33.6737 24.3662C30.7082 24.3662 28.3041 26.7702 28.3041 29.7358C28.3041 32.7013 30.7082 35.1053 33.6737 35.1053Z" fill="white"/>
<path d="M40.9274 45.0181C40.8384 45.0181 40.7502 44.9988 40.668 44.9612C40.5857 44.9236 40.5111 44.8685 40.4482 44.7991L39.243 43.4718C39.1155 43.3319 39.0436 43.1418 39.0433 42.9435C39.0429 42.7452 39.1141 42.5549 39.2412 42.4144C39.3683 42.2739 39.5409 42.1948 39.7209 42.1944C39.901 42.194 40.0738 42.2724 40.2014 42.4124L40.9247 43.2089L42.8595 41.0881C42.988 40.9562 43.158 40.8844 43.3337 40.8878C43.5094 40.8912 43.677 40.9696 43.8012 41.1064C43.9254 41.2432 43.9966 41.4278 43.9997 41.6213C44.0028 41.8148 43.9376 42.002 43.8178 42.1436L41.4066 44.8021C41.3435 44.871 41.2687 44.9255 41.1865 44.9626C41.1043 44.9997 41.0162 45.0185 40.9274 45.0181Z" fill="white"/>
</svg>
