<svg width="45" height="45" viewBox="0 0 45 45" fill="none" xmlns="http://www.w3.org/2000/svg">
<path opacity="0.4" d="M11.2497 39.375C10.4857 39.4841 9.7067 39.4137 8.97452 39.1696C8.24234 38.9255 7.57704 38.5142 7.03129 37.9685C6.48554 37.4227 6.07432 36.7574 5.83019 36.0253C5.58605 35.2931 5.51571 34.5141 5.62473 33.75V11.25C5.51571 10.486 5.58605 9.70702 5.83019 8.97484C6.07432 8.24266 6.48554 7.57736 7.03129 7.03161C7.57704 6.48586 8.24234 6.07464 8.97452 5.83051C9.7067 5.58637 10.4857 5.51603 11.2497 5.62505H26.2497C27.0138 5.51603 27.7928 5.58637 28.5249 5.83051C29.2571 6.07464 29.9224 6.48586 30.4682 7.03161C31.0139 7.57736 31.4251 8.24266 31.6693 8.97484C31.9134 9.70702 31.9837 10.486 31.8747 11.25V35.625C31.8747 36.6196 32.2698 37.5734 32.9731 38.2767C33.6763 38.98 34.6302 39.375 35.6247 39.375H11.2497Z" fill="white"/>
<path d="M31.8742 18.75H36.5617C37.3076 18.75 38.023 19.0463 38.5504 19.5738C39.0779 20.1012 39.3742 20.8166 39.3742 21.5625V35.625C39.3668 36.6173 38.9694 37.5668 38.2677 38.2685C37.566 38.9702 36.6165 39.3676 35.6242 39.375C34.6305 39.372 33.6784 38.976 32.9758 38.2734C32.2732 37.5708 31.8772 36.6186 31.8742 35.625V18.75Z" fill="white"/>
<path d="M13.5929 15C13.5929 15.2781 13.5105 15.55 13.356 15.7813C13.2014 16.0125 12.9818 16.1928 12.7248 16.2992C12.4679 16.4056 12.1851 16.4335 11.9124 16.3792C11.6396 16.325 11.389 16.191 11.1923 15.9944C10.9957 15.7977 10.8617 15.5471 10.8075 15.2743C10.7532 15.0016 10.7811 14.7188 10.8875 14.4619C10.9939 14.2049 11.1742 13.9853 11.4054 13.8307C11.6367 13.6762 11.9086 13.5938 12.1867 13.5938C12.5597 13.5938 12.9173 13.7419 13.1811 14.0056C13.4448 14.2694 13.5929 14.627 13.5929 15ZM12.1867 21.0937C11.9086 21.0937 11.6367 21.1762 11.4054 21.3307C11.1742 21.4853 10.9939 21.7049 10.8875 21.9619C10.7811 22.2188 10.7532 22.5016 10.8075 22.7743C10.8617 23.0471 10.9957 23.2977 11.1923 23.4944C11.389 23.691 11.6396 23.825 11.9124 23.8792C12.1851 23.9335 12.4679 23.9056 12.7248 23.7992C12.9818 23.6928 13.2014 23.5125 13.356 23.2813C13.5105 23.05 13.5929 22.7781 13.5929 22.5C13.5929 22.127 13.4448 21.7694 13.1811 21.5056C12.9173 21.2419 12.5597 21.0937 12.1867 21.0937ZM12.1867 28.5937C11.9086 28.5937 11.6367 28.6762 11.4054 28.8307C11.1742 28.9853 10.9939 29.2049 10.8875 29.4619C10.7811 29.7188 10.7532 30.0016 10.8075 30.2743C10.8617 30.5471 10.9957 30.7977 11.1923 30.9944C11.389 31.191 11.6396 31.325 11.9124 31.3792C12.1851 31.4335 12.4679 31.4056 12.7248 31.2992C12.9818 31.1928 13.2014 31.0125 13.356 30.7813C13.5105 30.55 13.5929 30.2781 13.5929 30C13.5929 29.627 13.4448 29.2694 13.1811 29.0056C12.9173 28.7419 12.5597 28.5937 12.1867 28.5937ZM26.7179 15C26.7179 14.627 26.5698 14.2694 26.3061 14.0056C26.0423 13.7419 25.6847 13.5938 25.3117 13.5938H16.8742C16.5012 13.5938 16.1436 13.7419 15.8798 14.0056C15.6161 14.2694 15.4679 14.627 15.4679 15C15.4679 15.373 15.6161 15.7306 15.8798 15.9944C16.1436 16.2581 16.5012 16.4062 16.8742 16.4062H25.3117C25.6847 16.4062 26.0423 16.2581 26.3061 15.9944C26.5698 15.7306 26.7179 15.373 26.7179 15ZM26.7179 22.5C26.7179 22.127 26.5698 21.7694 26.3061 21.5056C26.0423 21.2419 25.6847 21.0937 25.3117 21.0937H16.8742C16.5012 21.0937 16.1436 21.2419 15.8798 21.5056C15.6161 21.7694 15.4679 22.127 15.4679 22.5C15.4679 22.873 15.6161 23.2306 15.8798 23.4944C16.1436 23.7581 16.5012 23.9062 16.8742 23.9062H25.3117C25.6847 23.9062 26.0423 23.7581 26.3061 23.4944C26.5698 23.2306 26.7179 22.873 26.7179 22.5ZM26.7179 30C26.7179 29.627 26.5698 29.2694 26.3061 29.0056C26.0423 28.7419 25.6847 28.5937 25.3117 28.5937H16.8742C16.5012 28.5937 16.1436 28.7419 15.8798 29.0056C15.6161 29.2694 15.4679 29.627 15.4679 30C15.4679 30.373 15.6161 30.7306 15.8798 30.9944C16.1436 31.2581 16.5012 31.4062 16.8742 31.4062H25.3117C25.6847 31.4062 26.0423 31.2581 26.3061 30.9944C26.5698 30.7306 26.7179 30.373 26.7179 30Z" fill="white"/>
</svg>
