<svg width="48" height="50" viewBox="0 0 48 50" fill="none" xmlns="http://www.w3.org/2000/svg">
<path d="M24.94 40.9244V29.6464C24.8857 29.263 24.9209 28.8733 25.0423 28.5059C25.1637 28.1384 25.3713 27.8062 25.6429 27.5314C25.9145 27.2566 26.2499 27.0522 26.6173 26.9308C26.9848 26.8094 27.3745 26.7742 27.7579 26.8285H37.1573C37.5407 26.7742 37.9305 26.8094 38.2979 26.9308C38.6653 27.0522 38.9976 27.2598 39.2723 27.5314C39.5471 27.8062 39.7516 28.1384 39.873 28.5059C39.9944 28.8733 40.0295 29.263 39.9752 29.6464V40.9244C40.0295 41.3078 39.9944 41.6976 39.873 42.065C39.7516 42.4324 39.5439 42.7647 39.2723 43.0394C38.9976 43.3142 38.6653 43.5187 38.2979 43.6401C37.9305 43.7615 37.5407 43.7966 37.1573 43.7423H27.7579C27.3745 43.7966 26.9848 43.7615 26.6173 43.6401C26.2499 43.5187 25.9177 43.311 25.6429 43.0394C25.3681 42.7679 25.1637 42.4324 25.0423 42.065C24.9209 41.6976 24.8857 41.3078 24.94 40.9244Z" fill="white"/>
<path d="M27.7577 31.9978V31.0585C27.729 30.8668 27.7482 30.6719 27.8089 30.4898C27.8696 30.3077 27.9718 30.1384 28.1092 30.0042C28.2466 29.8668 28.4127 29.7646 28.5948 29.7039C28.7769 29.6432 28.975 29.624 29.1635 29.6528H35.7418C35.9335 29.624 36.1284 29.6432 36.3105 29.7039C36.4926 29.7646 36.6619 29.8668 36.7961 30.0042C36.9335 30.1416 37.0357 30.3077 37.0964 30.4898C37.1571 30.6719 37.1763 30.87 37.1475 31.0585V31.9978C37.1763 32.1895 37.1571 32.3844 37.0964 32.5665C37.0357 32.7486 36.9335 32.9179 36.7961 33.0521C36.6587 33.1895 36.4926 33.2917 36.3105 33.3525C36.1284 33.4132 35.9303 33.4323 35.7418 33.4036H29.1635C28.9718 33.4323 28.7769 33.4132 28.5948 33.3525C28.4127 33.2917 28.2434 33.1895 28.1092 33.0521C27.9718 32.9148 27.8696 32.7486 27.8089 32.5665C27.7482 32.3844 27.729 32.1863 27.7577 31.9978Z" fill="#666666"/>
<path d="M36.2179 38.1071C36.7355 38.1071 37.1572 37.6854 37.1572 37.1678C37.1572 36.6502 36.7355 36.2285 36.2179 36.2285C35.7004 36.2285 35.2786 36.6502 35.2786 37.1678C35.2786 37.6854 35.7004 38.1071 36.2179 38.1071Z" fill="#666666"/>
<path d="M32.4574 38.1071C32.975 38.1071 33.3967 37.6854 33.3967 37.1678C33.3967 36.6502 32.975 36.2285 32.4574 36.2285C31.9398 36.2285 31.5181 36.6502 31.5181 37.1678C31.5181 37.6854 31.9398 38.1071 32.4574 38.1071Z" fill="#666666"/>
<path d="M28.6971 38.1071C29.2147 38.1071 29.6364 37.6854 29.6364 37.1678C29.6364 36.6502 29.2147 36.2285 28.6971 36.2285C28.1795 36.2285 27.7578 36.6502 27.7578 37.1678C27.7578 37.6854 28.1795 38.1071 28.6971 38.1071Z" fill="#666666"/>
<path d="M36.2179 40.9245C36.7355 40.9245 37.1572 40.5028 37.1572 39.9852C37.1572 39.4676 36.7355 39.0459 36.2179 39.0459C35.7004 39.0459 35.2786 39.4676 35.2786 39.9852C35.2786 40.5028 35.7004 40.9245 36.2179 40.9245Z" fill="#666666"/>
<path d="M32.4574 40.9245C32.975 40.9245 33.3967 40.5028 33.3967 39.9852C33.3967 39.4676 32.975 39.0459 32.4574 39.0459C31.9398 39.0459 31.5181 39.4676 31.5181 39.9852C31.5181 40.5028 31.9398 40.9245 32.4574 40.9245Z" fill="#666666"/>
<path d="M28.6971 40.9245C29.2147 40.9245 29.6364 40.5028 29.6364 39.9852C29.6364 39.4676 29.2147 39.0459 28.6971 39.0459C28.1795 39.0459 27.7578 39.4676 27.7578 39.9852C27.7578 40.5028 28.1795 40.9245 28.6971 40.9245Z" fill="#666666"/>
<path opacity="0.4" d="M20.85 31.4245C20.4843 31.4245 20.1369 31.2782 19.8809 31.0222C19.6249 30.7662 19.4786 30.4142 19.4786 30.053C19.4786 29.6919 19.6249 29.3399 19.8809 29.0839C20.1369 28.8279 20.4889 28.6816 20.85 28.6816H22.6786C23.0855 26.4598 25.0238 24.7775 27.3598 24.7775H37.3074V11.767C37.4126 11.0219 37.344 10.263 37.1063 9.54987C36.8685 8.83672 36.4663 8.18757 35.936 7.6527C35.4057 7.11784 34.7565 6.72012 34.0388 6.4824C33.3256 6.24468 32.5668 6.17611 31.8216 6.28126H13.5357C12.7905 6.17611 12.0316 6.24468 11.3185 6.4824C10.6053 6.72012 9.95617 7.12241 9.42131 7.6527C8.89102 8.183 8.48873 8.83215 8.25101 9.54987C8.01329 10.2676 7.94015 11.0219 8.04986 11.767V33.7102C7.94472 34.4554 8.01329 35.2142 8.25101 35.9274C8.48873 36.6405 8.89102 37.2897 9.42131 37.8246C9.9516 38.3548 10.6008 38.7571 11.3185 38.9949C12.0316 39.2326 12.7905 39.3011 13.5357 39.196H22.5963V31.4245H20.85ZM19.8763 14.4551C20.1323 14.1991 20.4843 14.0528 20.8455 14.0528H29.9885C30.3542 14.0528 30.7016 14.1991 30.9576 14.4551C31.2136 14.7111 31.3599 15.0631 31.3599 15.4242C31.3599 15.7854 31.2136 16.1374 30.9576 16.3934C30.7016 16.6494 30.3496 16.7957 29.9885 16.7957H20.8455C20.4797 16.7957 20.1323 16.6494 19.8763 16.3934C19.6203 16.1374 19.474 15.7854 19.474 15.4242C19.474 15.0631 19.6203 14.7111 19.8763 14.4551ZM19.8763 21.7695C20.1323 21.5135 20.4843 21.3672 20.8455 21.3672H29.9885C30.3542 21.3672 30.7016 21.5135 30.9576 21.7695C31.2136 22.0255 31.3599 22.3775 31.3599 22.7386C31.3599 23.0998 31.2136 23.4518 30.9576 23.7078C30.7016 23.9638 30.3496 24.1101 29.9885 24.1101H20.8455C20.4797 24.1101 20.1323 23.9638 19.8763 23.7078C19.6203 23.4518 19.474 23.0998 19.474 22.7386C19.474 22.3775 19.6203 22.0255 19.8763 21.7695ZM16.5026 30.8119C16.3517 31.0359 16.1368 31.2142 15.8854 31.3147C15.634 31.4199 15.3597 31.4473 15.0945 31.3925C14.8294 31.3376 14.5825 31.2096 14.3905 31.0176C14.1985 30.8256 14.0659 30.5833 14.0157 30.3136C13.9608 30.0484 13.9882 29.7696 14.0934 29.5227C14.1985 29.2713 14.3722 29.0564 14.5962 28.9056C14.8202 28.7547 15.0854 28.6724 15.3597 28.6724C15.7254 28.6724 16.0728 28.8187 16.3288 29.0747C16.5848 29.3307 16.7311 29.6827 16.7311 30.0439C16.7311 30.3136 16.6488 30.5787 16.498 30.8073L16.5026 30.8119ZM16.5026 23.4975C16.3517 23.7215 16.1368 23.8998 15.8854 24.0004C15.634 24.1055 15.3597 24.1329 15.0945 24.0781C14.8294 24.0232 14.5825 23.8952 14.3905 23.7032C14.1985 23.5112 14.0659 23.2689 14.0157 22.9992C13.9608 22.7341 13.9882 22.4552 14.0934 22.2083C14.1985 21.9569 14.3722 21.742 14.5962 21.5912C14.8202 21.4403 15.0854 21.358 15.3597 21.358C15.7254 21.358 16.0728 21.5043 16.3288 21.7603C16.5848 22.0163 16.7311 22.3683 16.7311 22.7295C16.7311 22.9992 16.6488 23.2643 16.498 23.4929L16.5026 23.4975ZM16.5026 16.1831C16.3517 16.4071 16.1368 16.5854 15.8854 16.686C15.634 16.7911 15.3597 16.8185 15.0945 16.7637C14.8294 16.7088 14.5825 16.5808 14.3905 16.3888C14.1985 16.1968 14.0659 15.9545 14.0157 15.6848C13.9608 15.4197 13.9882 15.1408 14.0934 14.8939C14.1985 14.6425 14.3722 14.4277 14.5962 14.2768C14.8202 14.1259 15.0854 14.0436 15.3597 14.0436C15.7254 14.0436 16.0728 14.1899 16.3288 14.4459C16.5848 14.7019 16.7311 15.0539 16.7311 15.4151C16.7311 15.6848 16.6488 15.95 16.498 16.1785L16.5026 16.1831Z" fill="white"/>
<path d="M20.85 24.1101H29.993C30.3587 24.1101 30.7062 23.9638 30.9622 23.7078C31.2182 23.4518 31.3645 23.0998 31.3645 22.7386C31.3645 22.3775 31.2182 22.0255 30.9622 21.7695C30.7062 21.5135 30.3542 21.3672 29.993 21.3672H20.85C20.4843 21.3672 20.1369 21.5135 19.8809 21.7695C19.6249 22.0255 19.4786 22.3775 19.4786 22.7386C19.4786 23.0998 19.6249 23.4518 19.8809 23.7078C20.1369 23.9638 20.4889 24.1101 20.85 24.1101Z" fill="white"/>
<path d="M20.85 16.7966H29.993C30.3587 16.7966 30.7062 16.6503 30.9622 16.3943C31.2182 16.1383 31.3645 15.7863 31.3645 15.4252C31.3645 15.064 31.2182 14.712 30.9622 14.456C30.7062 14.2 30.3542 14.0537 29.993 14.0537H20.85C20.4843 14.0537 20.1369 14.2 19.8809 14.456C19.6249 14.712 19.4786 15.064 19.4786 15.4252C19.4786 15.7863 19.6249 16.1383 19.8809 16.3943C20.1369 16.6503 20.4889 16.7966 20.85 16.7966Z" fill="white"/>
<path d="M15.3643 28.6826C15.0946 28.6826 14.8294 28.7649 14.6008 28.9158C14.3768 29.0666 14.1986 29.2815 14.098 29.5329C13.9928 29.7843 13.9654 30.0586 14.0203 30.3238C14.0751 30.5889 14.2031 30.8358 14.3951 31.0278C14.5871 31.2198 14.8294 31.3524 15.0991 31.4027C15.3643 31.4575 15.6431 31.4301 15.89 31.3249C16.1414 31.2198 16.3563 31.0461 16.5072 30.8221C16.658 30.5981 16.7403 30.3329 16.7403 30.0586C16.7403 29.6929 16.594 29.3455 16.338 29.0895C16.082 28.8335 15.73 28.6872 15.3689 28.6872L15.3643 28.6826Z" fill="white"/>
<path d="M19.8764 29.0849C19.6204 29.3409 19.4741 29.6929 19.4741 30.0541C19.4741 30.4152 19.6204 30.7672 19.8764 31.0232C20.1324 31.2792 20.4844 31.4255 20.8456 31.4255H22.5919V29.5421C22.5919 29.2495 22.6239 28.9615 22.6742 28.6826H20.8456C20.4799 28.6826 20.1324 28.8289 19.8764 29.0849Z" fill="white"/>
<path d="M15.3643 14.0537C15.0946 14.0537 14.8294 14.136 14.6008 14.2869C14.3768 14.4377 14.1986 14.6526 14.098 14.904C13.9928 15.1554 13.9654 15.4297 14.0203 15.6949C14.0751 15.96 14.2031 16.2069 14.3951 16.3989C14.5871 16.5909 14.8294 16.7235 15.0991 16.7737C15.3643 16.8286 15.6431 16.8012 15.89 16.696C16.1414 16.5909 16.3563 16.4172 16.5072 16.1932C16.658 15.9692 16.7403 15.704 16.7403 15.4297C16.7403 15.064 16.594 14.7166 16.338 14.4606C16.082 14.2046 15.73 14.0583 15.3689 14.0583L15.3643 14.0537Z" fill="white"/>
<path d="M15.3643 21.3672C15.0946 21.3672 14.8294 21.4495 14.6008 21.6003C14.3768 21.7512 14.1986 21.9661 14.098 22.2175C13.9928 22.4689 13.9654 22.7432 14.0203 23.0084C14.0751 23.2735 14.2031 23.5204 14.3951 23.7124C14.5871 23.9044 14.8294 24.0369 15.0991 24.0872C15.3643 24.1421 15.6431 24.1147 15.89 24.0095C16.1414 23.9044 16.3563 23.7306 16.5072 23.5066C16.658 23.2826 16.7403 23.0175 16.7403 22.7432C16.7403 22.3775 16.594 22.0301 16.338 21.7741C16.082 21.518 15.73 21.3718 15.3689 21.3718L15.3643 21.3672Z" fill="white"/>
</svg>
