<svg width="51" height="38" viewBox="0 0 51 38" fill="none" xmlns="http://www.w3.org/2000/svg">
<g clip-path="url(#clip0_5557_42379)">
<rect x="0.675781" y="0.911133" width="50" height="37" rx="5" fill="white"/>
<path fill-rule="evenodd" clip-rule="evenodd" d="M0.675781 0.911133H10.1996V10.7778H0.675781V0.911133ZM14.9615 0.911133H24.4853V10.7778H14.9615V0.911133ZM0.675781 15.7111H10.1996V25.5778H0.675781V15.7111ZM14.9615 15.7111H24.4853V25.5778H14.9615V15.7111ZM24.4853 0.911133H50.6758V5.84447H24.4853V0.911133ZM24.4853 10.7778H50.6758V15.7111H24.4853V10.7778Z" fill="#1A47B8"/>
<path fill-rule="evenodd" clip-rule="evenodd" d="M0.675781 20.6445H50.6758V25.5779H0.675781V20.6445ZM10.1996 20.6445H14.9615V25.5779H10.1996V20.6445ZM0.675781 30.5112H50.6758V35.4445H0.675781V30.5112Z" fill="#1A47B8"/>
</g>
<defs>
<clipPath id="clip0_5557_42379">
<rect x="0.675781" y="0.911133" width="50" height="37" rx="5" fill="white"/>
</clipPath>
</defs>
</svg>
