<svg width="51" height="38" viewBox="0 0 51 38" fill="none" xmlns="http://www.w3.org/2000/svg">
<g clip-path="url(#clip0_5557_42387)">
<rect x="0.675781" y="0.363281" width="50" height="37" rx="5" fill="#1A47B8"/>
<path fill-rule="evenodd" clip-rule="evenodd" d="M0.675781 25.0303H50.6758V37.3636H0.675781V25.0303Z" fill="#F93939"/>
<path fill-rule="evenodd" clip-rule="evenodd" d="M0.675781 0.363281H50.6758V12.6966H0.675781V0.363281Z" fill="white"/>
<path d="M16.1516 7.76367H11.3897C10.0748 7.76367 9.00879 8.86804 9.00879 10.2303V16.397C9.00879 17.7593 10.0748 18.8637 11.3897 18.8637H16.1516C17.4666 18.8637 18.5326 17.7593 18.5326 16.397V10.2303C18.5326 8.86804 17.4666 7.76367 16.1516 7.76367Z" fill="#F93939"/>
<path d="M14.9611 7.76367H12.5802C11.2652 7.76367 10.1992 8.86804 10.1992 10.2303V15.1637C10.1992 16.526 11.2652 17.6303 12.5802 17.6303H14.9611C16.2761 17.6303 17.3421 16.526 17.3421 15.1637V10.2303C17.3421 8.86804 16.2761 7.76367 14.9611 7.76367Z" fill="#1A47B8"/>
<path fill-rule="evenodd" clip-rule="evenodd" d="M10.1992 15.163L13.7706 13.9297L17.3421 15.163L14.9611 17.6297H12.5802L10.1992 15.163Z" fill="white"/>
<path fill-rule="evenodd" clip-rule="evenodd" d="M12.5801 10.2295H14.961V12.6962H12.5801V10.2295Z" fill="#FFDA2C"/>
</g>
<defs>
<clipPath id="clip0_5557_42387">
<rect x="0.675781" y="0.363281" width="50" height="37" rx="5" fill="white"/>
</clipPath>
</defs>
</svg>
