<svg width="30" height="30" viewBox="0 0 30 30" fill="none" xmlns="http://www.w3.org/2000/svg">
<path opacity="0.4" d="M11.85 13.9381C12.1607 14.0681 12.4829 14.1686 12.8125 14.2381V26.1381C12.6104 26.086 12.4137 26.0148 12.225 25.9256L4.725 22.5881C4.06279 22.2933 3.5002 21.8129 3.10531 21.2051C2.71043 20.5972 2.50018 19.8879 2.5 19.1631V10.8381C2.50099 10.5042 2.54725 10.172 2.6375 9.85059L11.85 13.9381Z" fill="white"/>
<path d="M14.9004 12.2127C14.5383 12.3734 14.1465 12.4565 13.7504 12.4565C13.3542 12.4565 12.9625 12.3734 12.6004 12.2127L3.58789 8.20023C3.91317 7.86735 4.29932 7.60002 4.72539 7.41273L12.2254 4.07523C12.7047 3.85893 13.2245 3.74707 13.7504 3.74707C14.2762 3.74707 14.7961 3.85893 15.2754 4.07523L22.7754 7.41273C23.2015 7.60002 23.5876 7.86735 23.9129 8.20023L14.9004 12.2127Z" fill="white"/>
<path opacity="0.4" d="M25 10.8381V14.3256C24.9992 14.3852 24.9843 14.4437 24.9564 14.4964C24.9285 14.549 24.8884 14.5943 24.8396 14.6284C24.7907 14.6625 24.7344 14.6844 24.6753 14.6924C24.6163 14.7004 24.5562 14.6942 24.5 14.6743C23.768 14.4488 23.0029 14.3494 22.2375 14.3806C20.6396 14.447 19.1142 15.0653 17.921 16.1301C16.7279 17.195 15.9407 18.6405 15.6938 20.2206C15.4499 21.8231 15.7859 23.46 16.6412 24.8368C16.6702 24.8818 16.6892 24.9324 16.6969 24.9853C16.7047 25.0382 16.701 25.0922 16.6862 25.1435C16.6715 25.1949 16.6458 25.2425 16.6111 25.2832C16.5764 25.3239 16.5334 25.3567 16.485 25.3793L14.735 26.1681L14.6875 26.1381V14.2381C15.0155 14.1628 15.3373 14.0625 15.65 13.9381L24.8625 9.85059C24.9528 10.172 24.999 10.5042 25 10.8381Z" fill="white"/>
<path d="M28.5088 25.6213L26.5725 23.6838C27.1965 22.7316 27.4452 21.5819 27.2706 20.457C27.096 19.3321 26.5105 18.3119 25.6273 17.5936C24.744 16.8754 23.6259 16.5102 22.489 16.5686C21.3521 16.627 20.2773 17.1049 19.4723 17.9098C18.6674 18.7148 18.1895 19.7896 18.1311 20.9265C18.0727 22.0634 18.4379 23.1815 19.1561 24.0648C19.8744 24.948 20.8946 25.5335 22.0195 25.7081C23.1444 25.8827 24.2941 25.634 25.2463 25.01L27.1838 26.9463C27.3615 27.1119 27.5965 27.202 27.8394 27.1977C28.0823 27.1934 28.314 27.0951 28.4858 26.9233C28.6575 26.7515 28.7559 26.5198 28.7602 26.2769C28.7645 26.034 28.6744 25.799 28.5088 25.6213ZM20.0338 21.18C20.0335 20.6442 20.1922 20.1204 20.4897 19.6748C20.7871 19.2292 21.2101 18.8818 21.705 18.6766C22.2 18.4713 22.7447 18.4175 23.2702 18.5219C23.7957 18.6263 24.2785 18.8842 24.6574 19.2629C25.0364 19.6417 25.2945 20.1244 25.3991 20.6498C25.5037 21.1753 25.4502 21.72 25.2452 22.2151C25.0402 22.7101 24.693 23.1332 24.2475 23.4309C23.8021 23.7286 23.2783 23.8875 22.7425 23.8875C22.0245 23.8868 21.3361 23.6014 20.8283 23.0938C20.3205 22.5863 20.0348 21.898 20.0338 21.18Z" fill="white"/>
</svg>
