<svg width="43" height="42" viewBox="0 0 43 42" fill="none" xmlns="http://www.w3.org/2000/svg">
<path opacity="0.4" d="M8.29753 32.8736H34.4372C35.2012 32.8736 35.9436 32.6197 36.5478 32.152C37.152 31.6843 37.5838 31.0292 37.7753 30.2895L41.9572 14.1207C42.1016 13.5906 42.0808 13.0291 41.8976 12.5112C41.7144 11.9933 41.3775 11.5436 40.9319 11.2223C40.4864 10.9009 39.9533 10.7232 39.4041 10.7128C38.8548 10.7024 38.3155 10.8599 37.8581 11.1642L32.5313 14.7115C32.2619 14.8905 31.9571 15.0092 31.6376 15.0597C31.3182 15.1101 30.9916 15.091 30.6802 15.0037C30.3687 14.9164 30.0798 14.763 29.8331 14.5539C29.5864 14.3447 29.3877 14.0848 29.2506 13.7919L23.802 2.22334C23.5838 1.76025 23.2384 1.36877 22.806 1.09458C22.3737 0.820394 21.8724 0.674805 21.3604 0.674805C20.8485 0.674805 20.3472 0.820394 19.9148 1.09458C19.4825 1.36877 19.1371 1.76025 18.9189 2.22334L13.4841 13.7919C13.347 14.0852 13.1482 14.3454 12.9014 14.5547C12.6545 14.7641 12.3653 14.9177 12.0536 15.005C11.7419 15.0923 11.415 15.1113 11.0953 15.0606C10.7756 15.01 10.4706 14.8909 10.2011 14.7115L4.87661 11.1642C4.41922 10.8599 3.87987 10.7024 3.33061 10.7128C2.78135 10.7232 2.24834 10.9009 1.80278 11.2223C1.35722 11.5436 1.02034 11.9933 0.837129 12.5112C0.653922 13.0291 0.633118 13.5906 0.777496 14.1207L4.95938 30.2895C5.1509 31.0292 5.58266 31.6843 6.18685 32.152C6.79104 32.6197 7.53346 32.8736 8.29753 32.8736Z" fill="white"/>
<path d="M36.3095 41.4954H6.42249C5.96519 41.4954 5.52662 41.3137 5.20326 40.9904C4.8799 40.667 4.69824 40.2284 4.69824 39.7711C4.69824 39.3138 4.8799 38.8753 5.20326 38.5519C5.52662 38.2285 5.96519 38.0469 6.42249 38.0469H36.3095C36.7668 38.0469 37.2054 38.2285 37.5287 38.5519C37.8521 38.8753 38.0337 39.3138 38.0337 39.7711C38.0337 40.2284 37.8521 40.667 37.5287 40.9904C37.2054 41.3137 36.7668 41.4954 36.3095 41.4954Z" fill="white"/>
</svg>
