<svg width="199" height="193" viewBox="0 0 199 193" fill="none" xmlns="http://www.w3.org/2000/svg">
<g filter="url(#filter0_b_245_68581)">
<rect width="199" height="193" rx="96.5" fill="#ED0006"/>
<g clip-path="url(#clip0_245_68581)">
<path d="M49.0088 88.5607C48.1023 87.6407 47.115 86.9465 46.0467 86.4882C44.9818 86.0231 43.8327 85.794 42.6195 85.7906C39.9742 85.7906 37.7298 86.8016 35.8764 88.8168C34.0263 90.8353 33.103 93.4234 33.0996 96.581C33.0996 99.6274 34.0533 102.178 35.964 104.224C37.8747 106.276 40.1393 107.304 42.7577 107.304C43.927 107.306 45.0121 107.095 46.0096 106.677C47.0105 106.256 48.008 105.572 49.0021 104.615V106.782H54.1176V86.3264H49.0088V88.5607ZM47.6541 100.915C46.6027 102.04 45.2784 102.596 43.681 102.6C42.1343 102.598 40.8301 102.027 39.7753 100.881C38.7172 99.7386 38.1881 98.2794 38.1881 96.5102C38.1881 94.7478 38.7105 93.3088 39.7484 92.1833C40.7897 91.0577 42.0938 90.5017 43.6676 90.5017C45.2784 90.5017 46.6095 91.0544 47.6609 92.1563C48.7123 93.265 49.0526 94.5254 49.0493 96.308C49.0493 98.1311 48.7089 99.7925 47.6541 100.915ZM83.4524 88.5607C82.5459 87.6407 81.5552 86.9465 80.4937 86.4882C79.422 86.0231 78.2796 85.794 77.0598 85.7906C74.4211 85.7906 72.17 86.8016 70.32 88.8168C68.4699 90.8353 67.5466 93.4234 67.5432 96.581C67.5399 99.6274 68.4935 102.178 70.4076 104.224C72.3183 106.276 74.5829 107.304 77.2047 107.304C78.3706 107.306 79.4557 107.095 80.4499 106.677C81.4507 106.256 82.4482 105.572 83.4423 104.615V106.782H88.5578V86.3264H83.4524V88.5607ZM82.0977 100.915C81.0463 102.04 79.7186 102.596 78.128 102.6C76.5779 102.598 75.2737 102.027 74.2156 100.881C73.1574 99.7386 72.6284 98.2794 72.6317 96.5102C72.6351 94.7478 73.1507 93.3088 74.192 92.1833C75.2333 91.0577 76.5374 90.5017 78.1112 90.5017C79.7186 90.5017 81.0497 91.0544 82.1045 92.1563C83.1559 93.265 83.4929 94.5254 83.4895 96.308C83.4895 98.1311 83.1525 99.7925 82.0977 100.915ZM119.338 86.8252C118.24 86.1478 116.969 85.8108 115.52 85.8108C114.118 85.8092 112.834 86.1242 111.652 86.7578C110.472 87.3879 109.478 88.3079 108.663 89.5245C108.042 88.3079 107.22 87.3846 106.199 86.7544C105.171 86.1209 104.026 85.8041 102.752 85.8007C101.491 85.8007 100.329 86.0399 99.2605 86.5219C98.1923 87.0004 97.2218 87.7249 96.349 88.6988V86.3264H91.2301L91.2233 106.782H96.3387L96.3421 97.7065C96.3454 95.7453 96.5173 94.3063 96.861 93.3931C97.2081 92.4798 97.7271 91.7722 98.4213 91.2633C99.1189 90.7612 99.8906 90.5051 100.743 90.5051C101.505 90.5068 102.159 90.7073 102.698 91.1083C103.237 91.5093 103.638 92.1193 103.907 92.9381C104.177 93.757 104.312 95.078 104.312 96.9078L104.302 106.782H109.424V97.5818C109.431 95.6307 109.599 94.2153 109.936 93.3358C110.277 92.4529 110.796 91.7654 111.49 91.2633C112.181 90.7646 112.973 90.5152 113.852 90.5152C115.005 90.5152 115.864 90.9263 116.444 91.7418C117.023 92.5641 117.31 94.1311 117.31 96.4394L117.303 106.782H122.418L122.425 94.8017C122.425 92.345 122.186 90.5691 121.707 89.4806C121.229 88.3888 120.44 87.5025 119.338 86.8252ZM140.282 100.753C138.914 102.114 137.276 102.795 135.372 102.795C133.775 102.793 132.47 102.354 131.439 101.484C130.411 100.615 129.781 99.442 129.542 97.966L145.953 97.976L145.974 97.0021C145.974 93.6322 144.973 90.9229 142.964 88.8639C140.959 86.8116 138.351 85.7838 135.143 85.7804C132.123 85.7804 129.609 86.8082 127.611 88.874C125.606 90.933 124.605 93.5244 124.605 96.6449C124.602 99.6947 125.606 102.225 127.608 104.251C129.609 106.279 132.211 107.29 135.399 107.29C137.455 107.292 139.227 106.926 140.727 106.192C142.22 105.461 143.504 104.325 144.575 102.795L140.282 100.753ZM131.655 91.3509C132.73 90.559 133.98 90.1647 135.402 90.1681C136.72 90.1681 137.872 90.5186 138.86 91.2229C139.857 91.9306 140.521 92.8438 140.858 93.9693L129.781 93.9626C130.354 92.7158 130.981 91.8429 131.655 91.3509ZM158.095 95.9576L165.01 86.3231H159.177L155.173 91.9003L151.157 86.3231H145.232L152.218 96.0149L144.494 106.782H150.328L155.136 100.076L159.972 106.782H165.9L158.095 95.9576ZM66.4309 85.6963C65.4839 85.6963 64.6583 85.8748 63.9675 86.222C63.2868 86.5623 62.5049 87.1858 61.6254 88.099V86.3264H56.7424V106.782H61.8579L61.8546 96.1429C61.8546 92.244 62.933 90.2894 65.5412 90.2894C65.9928 90.2894 66.4545 90.3873 66.9195 90.5624C67.7586 89.1572 68.7291 87.8362 69.8142 86.6196C68.6449 86.0198 67.516 85.6963 66.4309 85.6963Z" fill="white"/>
</g>
</g>
<defs>
<filter id="filter0_b_245_68581" x="-60" y="-60" width="319" height="313" filterUnits="userSpaceOnUse" color-interpolation-filters="sRGB">
<feFlood flood-opacity="0" result="BackgroundImageFix"/>
<feGaussianBlur in="BackgroundImageFix" stdDeviation="30"/>
<feComposite in2="SourceAlpha" operator="in" result="effect1_backgroundBlur_245_68581"/>
<feBlend mode="normal" in="SourceGraphic" in2="effect1_backgroundBlur_245_68581" result="shape"/>
</filter>
<clipPath id="clip0_245_68581">
<rect width="132.8" height="21.6077" fill="white" transform="translate(33.0996 85.6963)"/>
</clipPath>
</defs>
</svg>
