<svg width="188" height="183" viewBox="0 0 188 183" fill="none" xmlns="http://www.w3.org/2000/svg">
<g filter="url(#filter0_b_245_68585)">
<rect width="188" height="183" rx="91.5" fill="#0587FF"/>
<path d="M57.1098 105.18H53.9242L53.5194 107.294H57.0922L56.793 108.884H51.2842L52.9914 100.131H58.3066L57.9722 101.738H54.593L54.2234 103.608H57.4266L57.1098 105.18Z" fill="white"/>
<path d="M62.2313 108.884L61.6153 107.119C61.4393 106.595 61.2985 106.176 61.1401 105.634H61.1225C60.8233 106.124 60.5945 106.578 60.2073 107.189L59.1337 108.884H56.8281L60.1897 104.411L58.6233 100.131H60.6473L61.1929 101.808C61.3513 102.35 61.4745 102.752 61.6153 103.258H61.6505C61.9849 102.664 62.2313 102.245 62.4953 101.773L63.5337 100.131H65.8217L62.5481 104.429L64.2729 108.884H62.2313Z" fill="white"/>
<path d="M66.3498 100.288C66.9306 100.148 67.8282 100.061 68.6906 100.061C69.5002 100.061 70.433 100.183 71.0842 100.637C71.7002 101.039 72.0522 101.668 72.0522 102.507C72.0522 103.59 71.5242 104.446 70.8378 104.953C70.0986 105.512 69.0602 105.774 67.9514 105.774C67.6346 105.774 67.3706 105.739 67.1594 105.721L66.5434 108.866H64.6602L66.3498 100.288ZM67.4762 104.201C67.6698 104.236 67.881 104.271 68.2154 104.271C69.3594 104.271 70.1162 103.555 70.1162 102.681C70.1162 101.808 69.4826 101.581 68.761 101.581C68.409 101.581 68.1274 101.598 67.969 101.633L67.4762 104.201Z" fill="white"/>
<path d="M73.3537 100.288C73.9521 100.148 74.8673 100.061 75.7473 100.061C76.6273 100.061 77.4721 100.183 78.1057 100.567C78.6865 100.899 79.1089 101.458 79.1089 102.262C79.1089 103.555 78.2289 104.376 77.0673 104.743V104.778C77.5953 105.022 77.8417 105.582 77.9121 106.368C78.0353 107.364 78.1057 108.499 78.2641 108.866H76.2929C76.2049 108.639 76.1169 107.888 76.0465 106.805C75.9585 105.739 75.5889 105.424 74.8145 105.424H74.2337L73.5649 108.884H71.6641L73.3537 100.288ZM74.5329 104.027H75.3249C76.3633 104.027 77.1201 103.415 77.1201 102.559C77.1201 101.843 76.5217 101.528 75.7473 101.528C75.3953 101.528 75.1665 101.563 75.0081 101.598L74.5329 104.027Z" fill="white"/>
<path d="M84.7416 105.18H81.556L81.1336 107.294H84.724L84.4248 108.884H78.8984L80.6056 100.131H85.9208L85.604 101.738H82.2248L81.8376 103.608H85.0584L84.7416 105.18Z" fill="white"/>
<path d="M85.6385 106.857C86.1665 107.172 86.9409 107.416 87.7505 107.416C88.4897 107.416 89.1761 107.084 89.1761 106.403C89.1761 105.896 88.7889 105.582 87.9617 105.162C87.0113 104.673 86.1137 103.974 86.1137 102.856C86.1137 101.074 87.6801 100.008 89.6513 100.008C90.7425 100.008 91.3761 100.235 91.7633 100.445L91.1649 102C90.8657 101.843 90.2321 101.616 89.4929 101.616C88.5953 101.616 88.1201 102.052 88.1201 102.524C88.1201 103.031 88.6657 103.363 89.4225 103.765C90.5137 104.306 91.2001 105.023 91.2001 106.071C91.2001 108.01 89.5457 109.024 87.5569 109.024C86.3073 109.006 85.4097 108.692 84.9873 108.395L85.6385 106.857Z" fill="white"/>
<path d="M91.9051 106.857C92.4331 107.172 93.2075 107.416 94.0171 107.416C94.7563 107.416 95.4427 107.084 95.4427 106.403C95.4427 105.896 95.0555 105.582 94.2283 105.162C93.2779 104.673 92.3803 103.974 92.3803 102.856C92.3803 101.074 93.9467 100.008 95.9179 100.008C97.0091 100.008 97.6427 100.235 98.0299 100.445L97.4315 102C97.1323 101.843 96.4987 101.616 95.7595 101.616C94.8619 101.616 94.3867 102.052 94.3867 102.524C94.3867 103.031 94.9323 103.363 95.6891 103.765C96.7803 104.306 97.4667 105.023 97.4667 106.071C97.4667 108.01 95.8123 109.024 93.8235 109.024C92.5739 109.006 91.6763 108.692 91.2539 108.395L91.9051 106.857Z" fill="white"/>
<path d="M41.1992 100.131V108.884H49.3656L51.0728 100.131H41.1992Z" fill="white"/>
<path d="M118.481 93.3862V88.5815H128.425V84.3884H118.481V79.5837H129.111L129.129 74.9014H112.901V98.0686H129.129L129.111 93.3862H118.481Z" fill="white"/>
<path d="M96.3228 97.9469C96.3228 97.9469 96.5164 97.9819 96.5692 97.9819C96.7276 97.9993 96.886 98.0168 97.0444 98.0343H97.1676C97.326 98.0518 97.502 98.0518 97.6603 98.0692H97.766C97.942 98.0692 98.1004 98.0867 98.2764 98.0692H98.382C98.558 98.0692 98.7164 98.0518 98.8924 98.0518H98.998C99.174 98.0343 99.35 98.0168 99.526 97.9993C99.5436 97.9993 99.5788 97.9819 99.614 97.9819C99.79 97.9644 99.966 97.9295 100.16 97.912C100.177 97.912 100.212 97.8945 100.23 97.8945C100.406 97.8596 100.6 97.8246 100.776 97.7897C100.793 97.7897 100.811 97.7722 100.828 97.7722C101.004 97.7373 101.198 97.6848 101.374 97.6499C101.386 97.6499 101.392 97.6441 101.392 97.6324C101.779 97.5276 102.184 97.3878 102.588 97.2481C102.588 97.2481 103.31 96.9336 103.521 96.8287C103.539 96.8113 103.574 96.8113 103.592 96.7938C104.049 96.6016 104.296 96.9161 104.595 97.1956C104.859 97.4228 105.035 97.58 105.369 97.877C108.396 100.568 115.929 106.77 124.219 108.36C134.761 110.387 141.59 109.094 141.59 109.094C141.59 109.094 127.475 107.748 119.502 103.084C114.31 100.044 109.54 96.5667 107.516 94.7846C107.428 94.7147 107.041 94.4701 107.305 94.0333L107.358 93.9809C108.995 92.1813 110.104 89.8751 110.42 87.2718C111.248 80.5453 106.425 74.4128 99.6492 73.5917C92.8732 72.7705 86.6956 77.5577 85.8684 84.2842C85.0236 90.9409 89.6876 96.986 96.3228 97.9469ZM90.8668 84.9481C91.3596 80.9821 95.0028 78.1517 98.998 78.6409C102.993 79.1301 105.844 82.7467 105.369 86.7128C104.876 90.6788 101.233 93.5092 97.238 93.02C93.2252 92.5308 90.374 88.9142 90.8668 84.9481Z" fill="white"/>
<path d="M136.82 93.3862V74.9014H131.241V98.0686H146.8V93.3862H136.82Z" fill="white"/>
<path d="M57.6552 74.9014V90.0142L47.7464 74.9014H41.1992V98.0686H46.3032V82.9557L56.212 98.0686H62.7592V74.9014H57.6552Z" fill="white"/>
<path d="M78.7405 74.9014H72.7213L63.6221 98.086H68.6205L70.6973 92.8096H80.8349L82.9645 98.086H88.0861L78.7405 74.9014ZM72.5453 88.1098L75.6781 80.1603L78.9341 88.1098H72.5453Z" fill="white"/>
</g>
<defs>
<filter id="filter0_b_245_68585" x="-60" y="-60" width="308" height="303" filterUnits="userSpaceOnUse" color-interpolation-filters="sRGB">
<feFlood flood-opacity="0" result="BackgroundImageFix"/>
<feGaussianBlur in="BackgroundImageFix" stdDeviation="30"/>
<feComposite in2="SourceAlpha" operator="in" result="effect1_backgroundBlur_245_68585"/>
<feBlend mode="normal" in="SourceGraphic" in2="effect1_backgroundBlur_245_68585" result="shape"/>
</filter>
</defs>
</svg>
