<svg width="31" height="30" viewBox="0 0 31 30" fill="none" xmlns="http://www.w3.org/2000/svg">
<path opacity="0.4" d="M15.4994 29.5837C12.615 29.5837 9.79551 28.7284 7.39729 27.1259C4.99907 25.5235 3.12989 23.2459 2.02611 20.5811C0.922334 17.9164 0.633536 14.9842 1.19624 12.1553C1.75894 9.32638 3.14787 6.72787 5.18738 4.68836C7.2269 2.64884 9.8254 1.25991 12.6543 0.697213C15.4832 0.134512 18.4154 0.423311 21.0802 1.52709C23.7449 2.63087 26.0225 4.50005 27.625 6.89827C29.2274 9.29648 30.0827 12.116 30.0827 15.0003C30.0784 18.8668 28.5406 22.5736 25.8066 25.3076C23.0727 28.0416 19.3658 29.5794 15.4994 29.5837Z" fill="white"/>
<path d="M30.0353 16.183C29.6446 16.1175 29.2436 16.1547 28.8716 16.291C28.4996 16.4273 28.1694 16.6579 27.9134 16.9603C27.2047 17.7609 26.232 17.3657 24.6555 14.4578C23.1447 11.6738 24.5286 10.4488 25.0799 8.74695C25.5509 7.35425 24.2836 3.85279 23.5049 2.81445L23.5195 2.82904C25.5361 4.15535 27.1917 5.96189 28.3374 8.08634C29.4831 10.2108 30.0831 12.5866 30.0834 15.0003C30.0834 15.394 30.0688 15.8024 30.0397 16.1815L30.0353 16.183Z" fill="white"/>
<path d="M18.8825 29.1899C17.7744 29.4552 16.6385 29.5874 15.4991 29.5837C14.9887 29.5837 14.4929 29.5545 13.997 29.5107C14.3729 28.3441 14.2948 27.0786 13.7783 25.967C12.6991 24.3628 9.89913 24.3337 9.79704 22.3066C9.86585 21.1197 9.83169 19.9292 9.69496 18.7482C9.41788 17.5816 2.28663 17.0507 2.65121 8.12574V8.11699C3.89509 5.79067 5.7472 3.8457 8.00994 2.4896C10.2727 1.13349 12.8611 0.417149 15.4991 0.416992C16.5331 0.418893 17.5641 0.526395 18.5762 0.737826C18.5662 1.32351 18.3708 1.89094 18.0181 2.35864C17.6655 2.82634 17.1736 3.17024 16.6133 3.34095C12.4891 4.69137 15.7791 10.0668 13.0345 10.6326C12.1231 10.8193 10.567 9.28803 9.69204 9.49949C9.46484 9.54529 9.25452 9.65246 9.08392 9.80935C8.91333 9.96625 8.78897 10.1669 8.72434 10.3895C8.65971 10.612 8.65729 10.8481 8.71734 11.0719C8.77739 11.2958 8.89761 11.4989 9.06496 11.6593C10.3045 12.9441 9.72121 13.4399 10.1748 14.4768C10.6283 15.5137 12.0706 15.6347 13.7739 15.4407C15.4773 15.2468 16.2429 15.1593 17.4416 16.4076C18.6404 17.656 18.3983 19.4205 20.0827 19.616C21.767 19.8114 23.6804 20.5639 23.4368 22.0062C23.097 24.023 19.3666 25.0862 18.8781 29.1899" fill="white"/>
</svg>
