<svg width="31" height="31" viewBox="0 0 31 31" fill="none" xmlns="http://www.w3.org/2000/svg">
<path opacity="0.4" d="M26.5535 5.99184C26.0791 5.43724 25.5623 4.9204 25.0077 4.44601C22.3658 2.16932 18.9942 0.916992 15.5066 0.916992C12.0191 0.916992 8.6475 2.16932 6.0056 4.44601C5.4475 4.91661 4.93036 5.43374 4.45976 5.99184C2.17406 8.63232 0.916016 12.0078 0.916016 15.5002C0.916016 18.9925 2.17406 22.368 4.45976 25.0085C4.93036 25.5666 5.4475 26.0837 6.0056 26.5543C8.6475 28.831 12.0191 30.0834 15.5066 30.0834C18.9942 30.0834 22.3658 28.831 25.0077 26.5543C25.5623 26.0799 26.0791 25.5631 26.5535 25.0085C28.8304 22.3639 30.0827 18.99 30.0827 15.5002C30.0827 12.0104 28.8304 8.63648 26.5535 5.99184ZM15.4993 21.9752C14.1537 21.9764 12.8421 21.5528 11.7514 20.7648C11.1544 20.3549 10.6358 19.8412 10.2202 19.2481C9.4422 18.1532 9.02422 16.8433 9.02422 15.5002C9.02422 14.157 9.4422 12.8472 10.2202 11.7523C10.6358 11.1592 11.1544 10.6455 11.7514 10.2356C12.8421 9.44751 14.1537 9.0239 15.4993 9.02517C16.8465 9.02814 18.1602 9.44565 19.2618 10.221C19.856 10.6402 20.3739 11.1581 20.7931 11.7523C21.5711 12.8472 21.9891 14.157 21.9891 15.5002C21.9891 16.8433 21.5711 18.1532 20.7931 19.2481C20.3739 19.8423 19.856 20.3602 19.2618 20.7793C18.1602 21.5547 16.8465 21.9722 15.4993 21.9752Z" fill="white"/>
<path d="M26.5534 5.99212L20.8659 11.6942C20.8367 11.7088 20.8221 11.738 20.793 11.7525C20.3738 11.1584 19.8559 10.6405 19.2617 10.2213C19.2765 10.1936 19.2963 10.1689 19.3201 10.1484L25.0076 4.44629C25.5622 4.92068 26.079 5.43752 26.5534 5.99212Z" fill="white"/>
<path d="M11.7507 20.7647C11.7364 20.797 11.7167 20.8266 11.6923 20.8522L6.00482 26.5543C5.44672 26.0837 4.92958 25.5666 4.45898 25.0085L10.1465 19.3064C10.1637 19.2795 10.1894 19.259 10.2194 19.248C10.635 19.8411 11.1536 20.3548 11.7507 20.7647Z" fill="white"/>
<path d="M11.7507 10.2359C11.1536 10.6458 10.635 11.1595 10.2194 11.7525C10.1902 11.738 10.1757 11.7088 10.1465 11.6942L4.45898 5.99212C4.92958 5.43402 5.44672 4.91689 6.00482 4.44629L11.6923 10.1484C11.7167 10.1739 11.7364 10.2035 11.7507 10.2359Z" fill="white"/>
<path d="M26.5534 25.0085C26.079 25.5631 25.5622 26.0799 25.0076 26.5543L19.3201 20.8522C19.2963 20.8317 19.2765 20.807 19.2617 20.7793C19.8559 20.3601 20.3738 19.8422 20.793 19.248C20.8206 19.2629 20.8454 19.2826 20.8659 19.3064L26.5534 25.0085Z" fill="white"/>
</svg>
