<svg width="27" height="31" viewBox="0 0 27 31" fill="none" xmlns="http://www.w3.org/2000/svg">
<path opacity="0.4" d="M21.7644 0.916992H5.23563C1.99521 0.916992 0.375 2.5372 0.375 5.77762V20.361C0.375 23.6033 1.99521 25.224 5.23563 25.223H7.42313C7.80049 25.223 8.17269 25.3108 8.51032 25.4793C8.84795 25.6479 9.14176 25.8927 9.36854 26.1943L11.556 29.111C11.7823 29.4128 12.0758 29.6578 12.4132 29.8266C12.7507 29.9953 13.1227 30.0832 13.5 30.0832C13.8773 30.0832 14.2493 29.9953 14.5868 29.8266C14.9242 29.6578 15.2177 29.4128 15.444 29.111L17.6315 26.1943C17.8582 25.8927 18.1521 25.6479 18.4897 25.4793C18.8273 25.3108 19.1995 25.223 19.5769 25.223H21.7644C25.0048 25.223 26.625 23.6023 26.625 20.361V5.77762C26.625 2.5372 25.0048 0.916992 21.7644 0.916992Z" fill="white"/>
<path d="M14.2798 6.50684L15.8519 9.69913C15.9111 9.81606 15.9978 9.91692 16.1044 9.99311C16.2111 10.0693 16.3346 10.1185 16.4644 10.1366L20.0957 10.666C20.2458 10.6884 20.3868 10.7522 20.5026 10.8504C20.6184 10.9486 20.7045 11.0771 20.7512 11.2216C20.7979 11.3661 20.8033 11.5207 20.7669 11.6681C20.7304 11.8155 20.6535 11.9498 20.5448 12.0558L17.9184 14.6254C17.8241 14.7179 17.7536 14.8319 17.713 14.9576C17.6723 15.0833 17.6627 15.217 17.685 15.3473L18.2859 18.8545C18.3112 19.0137 18.2921 19.1768 18.2307 19.3258C18.1693 19.4748 18.0679 19.6039 17.9377 19.699C17.8075 19.794 17.6536 19.8512 17.493 19.8643C17.3323 19.8775 17.1712 19.846 17.0273 19.7733L13.8773 18.1152C13.7608 18.0541 13.6312 18.0222 13.4996 18.0222C13.368 18.0222 13.2384 18.0541 13.1219 18.1152L9.97482 19.7718C9.83074 19.8454 9.66908 19.8776 9.50781 19.8648C9.34654 19.852 9.19197 19.7948 9.06127 19.6994C8.93058 19.6041 8.82887 19.4744 8.76745 19.3247C8.70603 19.1751 8.68731 19.0113 8.71336 18.8516L9.3142 15.3516C9.33648 15.2214 9.3269 15.0877 9.28626 14.962C9.24563 14.8363 9.17515 14.7223 9.08086 14.6298L6.45586 12.0675C6.34719 11.9614 6.27029 11.8272 6.23382 11.6798C6.19736 11.5324 6.20278 11.3778 6.24947 11.2333C6.29616 11.0888 6.38227 10.9602 6.49809 10.8621C6.61392 10.7639 6.75486 10.7 6.90503 10.6777L10.5363 10.1483C10.6661 10.1302 10.7896 10.081 10.8963 10.0048C11.0029 9.92859 11.0896 9.82773 11.1488 9.7108L12.7209 6.51851C12.7931 6.37425 12.9038 6.25276 13.0407 6.16746C13.1776 6.08217 13.3355 6.03639 13.4968 6.03518C13.6581 6.03397 13.8166 6.07739 13.9548 6.16062C14.093 6.24386 14.2055 6.36368 14.2798 6.50684Z" fill="white"/>
</svg>
