<svg width="77" height="77" viewBox="0 0 77 77" fill="none" xmlns="http://www.w3.org/2000/svg">
<path d="M58.4601 20.073C54.7888 18.3885 50.852 17.1474 46.7358 16.4366C46.6608 16.4229 46.5859 16.4571 46.5473 16.5257C46.041 17.4262 45.4802 18.601 45.0874 19.5244C40.6602 18.8616 36.2557 18.8616 31.9192 19.5244C31.5264 18.5805 30.9452 17.4262 30.4366 16.5257C30.398 16.4594 30.3231 16.4251 30.2481 16.4366C26.1342 17.1451 22.1974 18.3862 18.5239 20.073C18.4921 20.0867 18.4648 20.1096 18.4467 20.1393C10.9794 31.2953 8.93374 42.1772 9.93725 52.9241C9.94179 52.9767 9.97131 53.027 10.0122 53.059C14.9389 56.6771 19.7113 58.8736 24.3951 60.3295C24.47 60.3523 24.5495 60.3249 24.5972 60.2632C25.7051 58.7502 26.6928 57.1548 27.5396 55.4771C27.5895 55.3789 27.5418 55.2623 27.4397 55.2234C25.8731 54.6292 24.3815 53.9046 22.9466 53.0818C22.8331 53.0156 22.824 52.8532 22.9284 52.7755C23.2304 52.5492 23.5324 52.3138 23.8207 52.0761C23.8729 52.0327 23.9456 52.0235 24.0069 52.051C33.4335 56.3548 43.6389 56.3548 52.9543 52.051C53.0156 52.0213 53.0883 52.0304 53.1428 52.0738C53.4312 52.3115 53.7331 52.5492 54.0373 52.7755C54.1418 52.8532 54.1349 53.0156 54.0214 53.0818C52.5866 53.9206 51.0949 54.6292 49.526 55.2212C49.4239 55.26 49.3785 55.3789 49.4285 55.4771C50.2934 57.1525 51.2811 58.7478 52.3686 60.2609C52.414 60.3249 52.4957 60.3523 52.5707 60.3295C57.2771 58.8736 62.0495 56.6771 66.9763 53.059C67.0194 53.027 67.0467 52.979 67.0512 52.9264C68.2522 40.5018 65.0396 29.7091 58.5349 20.1415C58.519 20.1096 58.4919 20.0867 58.4601 20.073ZM28.9473 46.3804C26.1092 46.3804 23.7707 43.7748 23.7707 40.5749C23.7707 37.3751 26.0639 34.7695 28.9473 34.7695C31.8533 34.7695 34.1692 37.3979 34.1237 40.5749C34.1237 43.7748 31.8306 46.3804 28.9473 46.3804ZM48.0866 46.3804C45.2486 46.3804 42.9102 43.7748 42.9102 40.5749C42.9102 37.3751 45.2032 34.7695 48.0866 34.7695C50.9927 34.7695 53.3085 37.3979 53.2632 40.5749C53.2632 43.7748 50.9927 46.3804 48.0866 46.3804Z" fill="#5865F2"/>
</svg>
