<svg width="30" height="30" viewBox="0 0 30 30" fill="none" xmlns="http://www.w3.org/2000/svg">
<path opacity="0.4" d="M20.5754 7.77734V15.2043C20.6185 15.5061 20.5907 15.8139 20.4943 16.1031C20.3978 16.3924 20.2354 16.6552 20.0198 16.8708C19.8042 17.0864 19.5413 17.2489 19.2521 17.3453C18.9628 17.4418 18.6551 17.4696 18.3532 17.4265H9.46433C9.16247 17.4696 8.85474 17.4418 8.56548 17.3453C8.27623 17.2489 8.01339 17.0864 7.79779 16.8708C7.58218 16.6552 7.41972 16.3924 7.32328 16.1031C7.22683 15.8139 7.19904 15.5061 7.24211 15.2043V7.77734H20.5754Z" fill="white"/>
<path d="M20.5754 6.31614V7.79762H7.24211V6.31614C7.19904 6.01428 7.22683 5.70654 7.32328 5.41729C7.41972 5.12803 7.58218 4.8652 7.79779 4.64959C8.01339 4.43399 8.27623 4.27153 8.56548 4.17508C8.85474 4.07864 9.16247 4.05085 9.46433 4.09391H18.3532C18.6551 4.05085 18.9628 4.07864 19.2521 4.17508C19.5413 4.27153 19.8042 4.43399 20.0198 4.64959C20.2354 4.8652 20.3978 5.12803 20.4943 5.41729C20.5907 5.70654 20.6185 6.01428 20.5754 6.31614Z" fill="white"/>
<path d="M12.4263 15.2051H10.2041C10.0077 15.2051 9.81925 15.1271 9.68034 14.9882C9.54142 14.8492 9.46338 14.6608 9.46338 14.4644C9.46338 14.2679 9.54142 14.0795 9.68034 13.9406C9.81925 13.8017 10.0077 13.7236 10.2041 13.7236H12.4263C12.6228 13.7236 12.8112 13.8017 12.9501 13.9406C13.089 14.0795 13.1671 14.2679 13.1671 14.4644C13.1671 14.6608 13.089 14.8492 12.9501 14.9882C12.8112 15.1271 12.6228 15.2051 12.4263 15.2051Z" fill="white"/>
<path d="M29.0684 7.9746C29.068 7.36172 28.8601 6.76651 28.4776 6.28334C28.095 5.80017 27.5598 5.4567 26.9568 5.30737L25.2987 4.90215C25.0643 4.84448 24.8567 4.70994 24.7101 4.52063C24.565 4.33681 24.4867 4.1102 24.488 3.87725C24.488 3.59734 24.6008 3.3289 24.8016 3.13098C25.0024 2.93306 25.2747 2.82187 25.5586 2.82187H26.2801C26.544 2.82199 26.7987 2.91811 26.9952 3.09182C27.1917 3.26553 27.3162 3.50461 27.345 3.76324C27.3548 3.87595 27.3873 3.98559 27.4408 4.08569C27.4942 4.18579 27.5675 4.27431 27.6562 4.34603C27.745 4.41775 27.8474 4.47122 27.9574 4.50326C28.0675 4.53531 28.1829 4.54529 28.297 4.53262C28.411 4.51995 28.5213 4.48487 28.6214 4.42948C28.7214 4.37408 28.8092 4.29948 28.8795 4.21008C28.9498 4.12068 29.0012 4.0183 29.0307 3.90898C29.0602 3.79967 29.0672 3.68563 29.0512 3.57362C28.9844 2.98307 28.725 2.42983 28.3121 1.99694C27.8991 1.56405 27.3549 1.27485 26.761 1.17277V0.846561C26.761 0.622039 26.6705 0.406713 26.5095 0.247952C26.3484 0.0891909 26.13 0 25.9022 0C25.6744 0 25.456 0.0891909 25.2949 0.247952C25.1338 0.406713 25.0433 0.622039 25.0433 0.846561V1.18519C24.4196 1.30234 23.8551 1.62595 23.4433 2.10244C23.0315 2.57892 22.7971 3.17973 22.779 3.80541C22.7608 4.43108 22.9599 5.04412 23.3434 5.54304C23.7268 6.04197 24.2716 6.39686 24.8876 6.54899L26.5446 6.95422C26.7763 7.01171 26.9819 7.14371 27.129 7.32933C27.276 7.51496 27.3561 7.74361 27.3565 7.97912C27.3547 8.25847 27.2413 8.52588 27.0409 8.72342C26.8405 8.92096 26.5692 9.03272 26.2858 9.0345H25.5644C25.3004 9.03438 25.0458 8.93826 24.8493 8.76455C24.6528 8.59084 24.5282 8.35176 24.4994 8.09312C24.4897 7.98041 24.4571 7.87077 24.4037 7.77067C24.3502 7.67058 24.277 7.58205 24.1882 7.51033C24.0995 7.43861 23.9971 7.38515 23.887 7.3531C23.7769 7.32105 23.6615 7.31107 23.5475 7.32375C23.4334 7.33642 23.3231 7.37149 23.2231 7.42689C23.123 7.48229 23.0352 7.55689 22.9649 7.64629C22.8946 7.73569 22.8432 7.83807 22.8137 7.94738C22.7842 8.0567 22.7772 8.17073 22.7932 8.28275C22.8592 8.8669 23.1133 9.41485 23.5182 9.84629C23.9232 10.2777 24.4576 10.57 25.0433 10.6802V11.0053C25.0433 11.2298 25.1338 11.4451 25.2949 11.6039C25.456 11.7627 25.6744 11.8519 25.9022 11.8519C26.13 11.8519 26.3484 11.7627 26.5095 11.6039C26.6705 11.4451 26.761 11.2298 26.761 11.0053V10.6768C27.4081 10.5679 27.9952 10.2369 28.4185 9.74234C28.8418 9.24781 29.074 8.62165 29.0741 7.9746H29.0684Z" fill="white"/>
<path d="M5.37047 30.0002H2.40751C2.01459 30.0002 1.63777 29.8441 1.35994 29.5663C1.08211 29.2885 0.926025 28.9116 0.926025 28.5187V22.5928C0.926025 22.1999 1.08211 21.8231 1.35994 21.5452C1.63777 21.2674 2.01459 21.1113 2.40751 21.1113H5.37047C5.76338 21.1113 6.1402 21.2674 6.41804 21.5452C6.69587 21.8231 6.85195 22.1999 6.85195 22.5928V28.5187C6.85195 28.9116 6.69587 29.2885 6.41804 29.5663C6.1402 29.8441 5.76338 30.0002 5.37047 30.0002Z" fill="white"/>
<path opacity="0.4" d="M29.0742 23.1261C29.0753 23.4222 29.0091 23.7147 28.8808 23.9816C28.7525 24.2485 28.5654 24.4828 28.3335 24.6669L23.2965 28.6965C22.2466 29.5405 20.9398 30.0005 19.5928 30.0002H11.2965C10.5114 29.9979 9.75907 29.685 9.20392 29.1298C8.64876 28.5746 8.33584 27.8224 8.3335 27.0373V24.0743C8.33584 23.2892 8.64876 22.5369 9.20392 21.9818C9.75907 21.4266 10.5114 21.1137 11.2965 21.1113H18.8816C19.3237 21.1113 19.7476 21.2869 20.0602 21.5995C20.3727 21.912 20.5483 22.336 20.5483 22.778C20.5483 23.22 20.3727 23.6439 20.0602 23.9565C19.7476 24.2691 19.3237 24.4447 18.8816 24.4447H14.2594C13.9647 24.4447 13.6821 24.5617 13.4737 24.7701C13.2654 24.9785 13.1483 25.2611 13.1483 25.5558C13.1483 25.8505 13.2654 26.1331 13.4737 26.3414C13.6821 26.5498 13.9647 26.6669 14.2594 26.6669H18.8816C19.7989 26.6656 20.6863 26.3411 21.388 25.7505C22.0897 25.1598 22.5609 24.3408 22.7187 23.4373L26.0816 21.4224C26.3857 21.239 26.7339 21.1417 27.0891 21.141C27.6156 21.141 28.1205 21.3501 28.4928 21.7224C28.8651 22.0947 29.0742 22.5996 29.0742 23.1261Z" fill="white"/>
</svg>
