<svg width="96" height="94" viewBox="0 0 96 94" fill="none" xmlns="http://www.w3.org/2000/svg">
<path d="M24.8559 49.7654C38.3366 49.7654 49.265 38.8371 49.265 25.3564C49.265 11.8756 38.3366 0.947266 24.8559 0.947266C11.3751 0.947266 0.446777 11.8756 0.446777 25.3564C0.446777 38.8371 11.3751 49.7654 24.8559 49.7654Z" fill="#F15C2D"/>
<g filter="url(#filter0_b_245_76768)">
<path d="M79.5531 37.0536V53.9136C79.5453 54.2175 79.4224 54.5071 79.2094 54.7239C78.9963 54.9407 78.7088 55.0685 78.4051 55.0816C72.7802 55.3862 67.4852 57.8327 63.6074 61.9188C59.7297 66.0048 57.5633 71.4204 57.5531 77.0536C57.5466 79.2227 57.8675 81.3803 58.5051 83.4536C58.5688 83.6337 58.5886 83.8264 58.5628 84.0157C58.537 84.2049 58.4664 84.3853 58.3569 84.5418C58.2473 84.6983 58.102 84.8264 57.933 84.9154C57.764 85.0044 57.5761 85.0518 57.3851 85.0536H31.5531C29.9231 85.2862 28.2613 85.1361 26.6994 84.6153C25.1374 84.0945 23.7181 83.2172 22.5538 82.053C21.3895 80.8887 20.5123 79.4694 19.9914 77.9074C19.4706 76.3454 19.3206 74.6836 19.5531 73.0536V25.0536C19.3206 23.4236 19.4706 21.7618 19.9914 20.1998C20.5123 18.6379 21.3895 17.2185 22.5538 16.0543C23.7181 14.89 25.1374 14.0127 26.6994 13.4919C28.2613 12.9711 29.9231 12.8211 31.5531 13.0536H55.5531V25.0536C55.5531 28.2362 56.8174 31.2885 59.0678 33.5389C61.3183 35.7893 64.3705 37.0536 67.5531 37.0536H79.5531Z" fill="white" fill-opacity="0.4"/>
</g>
<path d="M67.5531 37.0527H79.5531L55.5531 13.0527V25.0527C55.3206 26.6828 55.4706 28.3445 55.9914 29.9065C56.5123 31.4685 57.3895 32.8878 58.5538 34.0521C59.7181 35.2163 61.1374 36.0936 62.6994 36.6144C64.2613 37.1352 65.9231 37.2853 67.5531 37.0527Z" fill="white"/>
<path d="M63.5532 52.0527H35.5532C34.7576 52.0527 33.9945 51.7367 33.4319 51.1741C32.8693 50.6114 32.5532 49.8484 32.5532 49.0527C32.5532 48.2571 32.8693 47.494 33.4319 46.9314C33.9945 46.3688 34.7576 46.0527 35.5532 46.0527H63.5532C64.3489 46.0527 65.1119 46.3688 65.6745 46.9314C66.2372 47.494 66.5532 48.2571 66.5532 49.0527C66.5532 49.8484 66.2372 50.6114 65.6745 51.1741C65.1119 51.7367 64.3489 52.0527 63.5532 52.0527ZM54.5532 65.0527C54.5532 64.2571 54.2372 63.494 53.6745 62.9314C53.1119 62.3688 52.3489 62.0527 51.5532 62.0527H35.5532C34.7576 62.0527 33.9945 62.3688 33.4319 62.9314C32.8693 63.494 32.5532 64.2571 32.5532 65.0527C32.5532 65.8484 32.8693 66.6114 33.4319 67.1741C33.9945 67.7367 34.7576 68.0527 35.5532 68.0527H51.5532C52.3489 68.0527 53.1119 67.7367 53.6745 67.1741C54.2372 66.6114 54.5532 65.8484 54.5532 65.0527Z" fill="white"/>
<path d="M79.5532 61.0527C76.3887 61.0527 73.2953 61.9911 70.6641 63.7492C68.0329 65.5073 65.9822 68.0062 64.7712 70.9298C63.5602 73.8534 63.2433 77.0705 63.8607 80.1742C64.478 83.2779 66.0019 86.1288 68.2395 88.3664C70.4772 90.6041 73.3281 92.1279 76.4318 92.7453C79.5355 93.3627 82.7525 93.0458 85.6762 91.8348C88.5998 90.6238 91.0986 88.573 92.8567 85.9419C94.6148 83.3107 95.5532 80.2172 95.5532 77.0527C95.5532 72.8093 93.8675 68.7396 90.8669 65.739C87.8664 62.7384 83.7967 61.0527 79.5532 61.0527ZM85.9532 75.1327L79.2852 81.8007C79.0995 81.987 78.8787 82.1348 78.6358 82.2356C78.3928 82.3364 78.1323 82.3883 77.8692 82.3883C77.6062 82.3883 77.3457 82.3364 77.1027 82.2356C76.8597 82.1348 76.639 81.987 76.4532 81.8007L73.1212 78.4687C72.9353 78.2828 72.7878 78.062 72.6871 77.8191C72.5865 77.5761 72.5347 77.3157 72.5347 77.0527C72.5347 76.7898 72.5865 76.5294 72.6871 76.2864C72.7878 76.0434 72.9353 75.8227 73.1212 75.6367C73.3072 75.4508 73.5279 75.3033 73.7709 75.2026C74.0139 75.102 74.2743 75.0502 74.5372 75.0502C74.8002 75.0502 75.0606 75.102 75.3036 75.2026C75.5465 75.3033 75.7673 75.4508 75.9532 75.6367L77.8692 77.5567L83.1532 72.3047C83.5282 71.9292 84.0371 71.718 84.5678 71.7176C85.0985 71.7172 85.6077 71.9277 85.9832 72.3027C86.3588 72.6778 86.57 73.1866 86.5703 73.7173C86.5707 74.2481 86.3602 74.7572 85.9852 75.1327H85.9532Z" fill="#F15C2D"/>
<defs>
<filter id="filter0_b_245_76768" x="-0.553223" y="-7.05273" width="100.106" height="112.213" filterUnits="userSpaceOnUse" color-interpolation-filters="sRGB">
<feFlood flood-opacity="0" result="BackgroundImageFix"/>
<feGaussianBlur in="BackgroundImageFix" stdDeviation="10"/>
<feComposite in2="SourceAlpha" operator="in" result="effect1_backgroundBlur_245_76768"/>
<feBlend mode="normal" in="SourceGraphic" in2="effect1_backgroundBlur_245_76768" result="shape"/>
</filter>
</defs>
</svg>
