<svg width="94" height="74" viewBox="0 0 94 74" fill="none" xmlns="http://www.w3.org/2000/svg">
<path d="M61.4091 64.6151C74.8899 64.6151 85.8182 53.6867 85.8182 40.206C85.8182 26.7252 74.8899 15.7969 61.4091 15.7969C47.9283 15.7969 37 26.7252 37 40.206C37 53.6867 47.9283 64.6151 61.4091 64.6151Z" fill="#7033F3"/>
<path d="M15 73.7969H5C3.67392 73.7969 2.40215 73.2701 1.46447 72.3324C0.526784 71.3947 0 70.123 0 68.7969V48.7969C0 47.4708 0.526784 46.199 1.46447 45.2613C2.40215 44.3237 3.67392 43.7969 5 43.7969H15C16.3261 43.7969 17.5979 44.3237 18.5355 45.2613C19.4732 46.199 20 47.4708 20 48.7969V68.7969C20 70.123 19.4732 71.3947 18.5355 72.3324C17.5979 73.2701 16.3261 73.7969 15 73.7969Z" fill="#7033F3"/>
<g filter="url(#filter0_b_245_76733)">
<path d="M94 50.5969C94.0034 51.5962 93.7834 52.5834 93.3566 53.4841C92.9298 54.3847 92.3072 55.1755 91.5357 55.7969L74.7785 69.3969C71.2858 72.2453 66.9385 73.7977 62.4571 73.7969H34.8571C32.2453 73.789 29.7426 72.7329 27.8957 70.8592C26.0488 68.9856 25.0078 66.4466 25 63.7969V53.7969C25.0078 51.1471 26.0488 48.6082 27.8957 46.7345C29.7426 44.8609 32.2453 43.8048 34.8571 43.7969H60.0914C61.5619 43.7969 62.9722 44.3895 64.0121 45.4444C65.0519 46.4993 65.6361 47.93 65.6361 49.4219C65.6361 50.9137 65.0519 52.3445 64.0121 53.3994C62.9722 54.4542 61.5619 55.0469 60.0914 55.0469H44.7143C43.7339 55.0469 42.7937 55.442 42.1005 56.1452C41.4073 56.8485 41.0178 57.8023 41.0178 58.7969C41.0178 59.7914 41.4073 60.7453 42.1005 61.4485C42.7937 62.1518 43.7339 62.5469 44.7143 62.5469H60.0914C63.1428 62.5425 66.095 61.4474 68.4295 59.454C70.764 57.4605 72.3314 54.6963 72.8564 51.6469L84.0443 44.8469C85.0558 44.2278 86.2143 43.8994 87.3957 43.8969C89.1472 43.8969 90.8271 44.6028 92.0656 45.8593C93.3042 47.1158 94 48.8199 94 50.5969Z" fill="white" fill-opacity="0.4"/>
</g>
<path d="M78.438 28.3723C78.6492 27.3712 78.5726 26.3308 78.217 25.3715C77.8614 24.4121 77.2414 23.5731 76.4288 22.9516C75.9303 22.5647 75.3665 22.2703 74.7642 22.0821L72.9195 21.5161C72.489 21.384 72.0366 21.338 71.5883 21.3807C71.1401 21.4235 70.7046 21.5542 70.3068 21.7653C69.9091 21.9765 69.5568 22.264 69.2702 22.6113C68.9836 22.9587 68.7683 23.3591 68.6366 23.7898L65.7304 33.2955C65.598 33.7259 65.5518 34.1781 65.5945 34.6264C65.6372 35.0746 65.7678 35.51 65.979 35.9077C66.1902 36.3054 66.4778 36.6574 66.8253 36.9438C67.1728 37.2301 67.5733 37.4451 68.004 37.5764L69.8958 38.1639C70.4032 38.3209 70.9313 38.4008 71.4625 38.4009C72.6138 38.3992 73.7345 38.0298 74.661 37.3463C75.5875 36.6629 76.2714 35.7012 76.6129 34.6017L77.5353 31.6133C77.7507 30.9631 77.9269 30.2875 78.109 29.6158C78.1658 29.4062 78.2344 29.2026 78.2873 28.9911C78.3245 28.8501 78.3734 28.715 78.4087 28.574C78.4263 28.5015 78.4243 28.4369 78.438 28.3723Z" fill="white"/>
<path d="M42.5607 28.3714C42.5744 28.4361 42.5725 28.4987 42.5881 28.5673C42.6234 28.7102 42.6723 28.8414 42.7076 28.9824C42.7605 29.19 42.8271 29.3839 42.8819 29.5876C43.0777 30.2651 43.2461 30.9584 43.4576 31.5929L44.3839 34.595C44.726 35.6935 45.4099 36.654 46.336 37.3367C47.262 38.0194 48.3819 38.3885 49.5324 38.3903C50.0635 38.3902 50.5916 38.3103 51.0991 38.1533L52.9888 37.5658C53.4196 37.4349 53.8204 37.2203 54.1681 36.9342C54.5157 36.6482 54.8035 36.2963 55.0149 35.8987C55.2263 35.5012 55.3572 35.0659 55.4 34.6177C55.4428 34.1695 55.3968 33.7172 55.2644 33.2869L52.3622 23.787C52.2302 23.3565 52.0148 22.9563 51.7281 22.6091C51.4414 22.262 51.0891 21.9747 50.6914 21.7638C50.2937 21.5528 49.8583 21.4223 49.4101 21.3797C48.9619 21.337 48.5097 21.3831 48.0793 21.5153L46.2346 22.0793C45.6326 22.2684 45.069 22.5628 44.57 22.9488C43.7575 23.571 43.1377 24.4104 42.7822 25.3699C42.4266 26.3295 42.3498 27.3701 42.5607 28.3714Z" fill="white"/>
<path opacity="0.4" d="M78.4383 28.3718C79.1839 25.4037 79.5718 22.3571 79.5938 19.2969C79.5938 14.2329 77.5821 9.37633 74.0013 5.79556C70.4205 2.21478 65.564 0.203125 60.5 0.203125C55.436 0.203125 50.5795 2.21478 46.9987 5.79556C43.4179 9.37633 41.4062 14.2329 41.4062 19.2969C41.4282 22.3571 41.8161 25.4037 42.5617 28.3718C42.3508 27.3704 42.4276 26.3299 42.7831 25.3703C43.1387 24.4107 43.7585 23.5714 44.5709 22.9492C44.4282 21.7368 44.3524 20.5176 44.3438 19.2969C44.3438 15.012 46.0459 10.9026 49.0758 7.87268C52.1057 4.8428 56.2151 3.14062 60.5 3.14062C64.7849 3.14062 68.8943 4.8428 71.9242 7.87268C74.9541 10.9026 76.6562 15.012 76.6562 19.2969C76.6476 20.5182 76.5718 21.7381 76.4291 22.9511C77.2417 23.5727 77.8617 24.4117 78.2173 25.371C78.5729 26.3303 78.6495 27.3707 78.4383 28.3718Z" fill="white"/>
<defs>
<filter id="filter0_b_245_76733" x="5" y="23.7969" width="109" height="70" filterUnits="userSpaceOnUse" color-interpolation-filters="sRGB">
<feFlood flood-opacity="0" result="BackgroundImageFix"/>
<feGaussianBlur in="BackgroundImageFix" stdDeviation="10"/>
<feComposite in2="SourceAlpha" operator="in" result="effect1_backgroundBlur_245_76733"/>
<feBlend mode="normal" in="SourceGraphic" in2="effect1_backgroundBlur_245_76733" result="shape"/>
</filter>
</defs>
</svg>
