<svg width="86" height="92" viewBox="0 0 86 92" fill="none" xmlns="http://www.w3.org/2000/svg">
<path d="M61.4999 49.4549C74.9807 49.4549 85.909 38.5266 85.909 25.0458C85.909 11.565 74.9807 0.636719 61.4999 0.636719C48.0191 0.636719 37.0908 11.565 37.0908 25.0458C37.0908 38.5266 48.0191 49.4549 61.4999 49.4549Z" fill="#FFD234"/>
<g filter="url(#filter0_b_245_76745)">
<path opacity="0.4" d="M43.6812 85.6373C61.1357 85.6373 74.2267 76.91 74.2267 55.0918V37.6373C74.2267 15.8191 61.1357 7.0918 43.6812 7.0918C26.2267 7.0918 13.1357 15.8191 13.1357 37.6373V55.0918C13.1357 76.91 26.2267 85.6373 43.6812 85.6373Z" fill="white"/>
<path d="M46.9539 23.2722V7.17907C45.863 7.13543 44.7721 7.0918 43.6812 7.0918C42.5903 7.0918 41.4994 7.13543 40.4085 7.17907V23.2722C39.4159 23.8417 38.5908 24.6626 38.0163 25.6523C37.4417 26.642 37.138 27.7656 37.1357 28.91V35.4554C37.1357 37.1914 37.8253 38.8563 39.0529 40.0838C40.2804 41.3113 41.9452 42.0009 43.6812 42.0009C45.4172 42.0009 47.082 41.3113 48.3095 40.0838C49.537 38.8563 50.2267 37.1914 50.2267 35.4554V28.91C50.2244 27.7656 49.9207 26.642 49.3461 25.6523C48.7716 24.6626 47.9465 23.8417 46.9539 23.2722Z" fill="white"/>
</g>
<path d="M24.0908 76.8451C24.0906 74.5704 23.3011 72.3609 21.8477 70.5676C20.3943 68.7743 18.3603 67.4999 16.0687 66.9468L9.57353 65.3911C8.58181 65.1522 7.70333 64.597 7.08127 63.8159C6.46452 63.0554 6.13285 62.1165 6.14012 61.1517C6.14225 59.9953 6.62056 58.887 7.47015 58.0696C8.31973 57.2523 9.47126 56.7928 10.6722 56.7918H13.4997C14.6161 56.7937 15.6927 57.1912 16.5241 57.9086C17.3555 58.6259 17.8836 59.6128 18.0076 60.6811C18.0407 61.0702 18.1546 61.4489 18.3425 61.7949C18.5304 62.1408 18.7885 62.4469 19.1016 62.6951C19.4146 62.9432 19.7762 63.1283 20.1649 63.2394C20.5536 63.3505 20.9615 63.3853 21.3644 63.3418C21.7674 63.2983 22.1571 63.1774 22.5106 62.9862C22.8642 62.795 23.1742 62.5375 23.4224 62.2288C23.6706 61.9201 23.852 61.5665 23.9557 61.1891C24.0594 60.8117 24.0834 60.4181 24.0262 60.0316C23.7665 57.7915 22.7419 55.6978 21.1132 54.0788C19.4844 52.4598 17.3436 51.4072 15.0266 51.0861V49.5537C15.0266 48.7801 14.7074 48.0381 14.1393 47.4911C13.5711 46.944 12.8006 46.6367 11.9971 46.6367C11.1936 46.6367 10.4231 46.944 9.85495 47.4911C9.28681 48.0381 8.96763 48.7801 8.96763 49.5537V51.1094C6.56477 51.4859 4.37036 52.649 2.75484 54.4026C1.13932 56.1561 0.201621 58.3927 0.100036 60.7347C-0.00154859 63.0767 0.739198 65.3808 2.19724 67.2579C3.65528 69.1351 5.74132 70.4703 8.10322 71.0384L14.5984 72.5941C15.6706 72.8541 16.6072 73.4821 17.2323 74.3602C17.8574 75.2383 18.1279 76.306 17.993 77.3626C17.858 78.4193 17.3269 79.3921 16.4995 80.0982C15.6721 80.8043 14.6054 81.1952 13.4997 81.1973H10.6722C9.55586 81.1953 8.47931 80.7978 7.64789 80.0805C6.81648 79.3631 6.28839 78.3762 6.16435 77.308C6.13126 76.9189 6.01738 76.5401 5.82947 76.1942C5.64156 75.8482 5.38343 75.5421 5.07039 75.294C4.75736 75.0459 4.39578 74.8608 4.00708 74.7497C3.61839 74.6386 3.21048 74.6037 2.80754 74.6472C2.4046 74.6907 2.01483 74.8116 1.66132 75.0028C1.30782 75.194 0.997763 75.4516 0.749542 75.7603C0.501321 76.069 0.319983 76.4225 0.216272 76.7999C0.112562 77.1773 0.0885895 77.571 0.145777 77.9575C0.400255 80.1702 1.40062 82.2418 2.99381 83.8552C4.587 85.4686 6.68529 86.535 8.96763 86.8913V88.447C8.96763 89.2206 9.28681 89.9626 9.85495 90.5096C10.4231 91.0567 11.1936 91.364 11.9971 91.364C12.8006 91.364 13.5711 91.0567 14.1393 90.5096C14.7074 89.9626 15.0266 89.2206 15.0266 88.447V86.8913C17.5427 86.5498 19.8458 85.3442 21.5115 83.4966C23.1772 81.649 24.0933 79.284 24.0908 76.8374V76.8451Z" fill="#FFD234"/>
<defs>
<filter id="filter0_b_245_76745" x="-6.86426" y="-12.9082" width="101.091" height="118.546" filterUnits="userSpaceOnUse" color-interpolation-filters="sRGB">
<feFlood flood-opacity="0" result="BackgroundImageFix"/>
<feGaussianBlur in="BackgroundImageFix" stdDeviation="10"/>
<feComposite in2="SourceAlpha" operator="in" result="effect1_backgroundBlur_245_76745"/>
<feBlend mode="normal" in="SourceGraphic" in2="effect1_backgroundBlur_245_76745" result="shape"/>
</filter>
</defs>
</svg>
