<svg width="114" height="94" viewBox="0 0 114 94" fill="none" xmlns="http://www.w3.org/2000/svg">
<path d="M24.4091 58.8182C37.8899 58.8182 48.8182 47.8899 48.8182 34.4091C48.8182 20.9283 37.8899 10 24.4091 10C10.9283 10 0 20.9283 0 34.4091C0 47.8899 10.9283 58.8182 24.4091 58.8182Z" fill="#338AF3"/>
<g filter="url(#filter0_b_245_76756)">
<path opacity="0.4" d="M85 26C72.4475 23.9898 60.3094 19.9361 49.068 14C37.7666 19.9081 25.5883 23.9598 13 26V49.556C13 76.224 35.668 89.556 49 94C62.332 89.556 85 76.224 85 49.556V26Z" fill="white"/>
</g>
<path d="M60.7664 60.068C60.7662 57.7285 59.9844 55.4562 58.5451 53.6118C57.1059 51.7675 55.0917 50.4568 52.8224 49.888L46.3904 48.288C45.4084 48.0423 44.5384 47.4713 43.9224 46.668C43.3117 45.8859 42.9832 44.9203 42.9904 43.928C42.9925 42.7387 43.4662 41.5988 44.3075 40.7583C45.1488 39.9177 46.2891 39.4451 47.4784 39.444H50.2784C51.3839 39.446 52.45 39.8549 53.2733 40.5926C54.0966 41.3303 54.6196 42.3453 54.7424 43.444C54.7752 43.8442 54.888 44.2337 55.074 44.5895C55.2601 44.9453 55.5157 45.2601 55.8257 45.5153C56.1357 45.7705 56.4938 45.9608 56.8787 46.0751C57.2636 46.1894 57.6675 46.2252 58.0666 46.1805C58.4656 46.1357 58.8516 46.0114 59.2016 45.8147C59.5517 45.6181 59.8587 45.3532 60.1045 45.0357C60.3503 44.7182 60.5299 44.3546 60.6326 43.9665C60.7353 43.5783 60.7591 43.1735 60.7024 42.776C60.4453 40.4722 59.4307 38.3189 57.8178 36.6538C56.2049 34.9888 54.0849 33.9063 51.7904 33.576V32C51.7904 31.2044 51.4744 30.4413 50.9117 29.8787C50.3491 29.3161 49.5861 29 48.7904 29C47.9948 29 47.2317 29.3161 46.6691 29.8787C46.1065 30.4413 45.7904 31.2044 45.7904 32V33.6C43.4109 33.9871 41.2379 35.1834 39.6381 36.9868C38.0383 38.7903 37.1097 41.0905 37.0091 43.4991C36.9085 45.9078 37.6421 48.2774 39.0859 50.208C40.5298 52.1385 42.5955 53.5118 44.9344 54.096L51.3664 55.696C52.4281 55.9634 53.3557 56.6093 53.9747 57.5124C54.5937 58.4155 54.8615 59.5136 54.7279 60.6002C54.5943 61.6869 54.0684 62.6874 53.249 63.4136C52.4297 64.1399 51.3733 64.5418 50.2784 64.544H47.4784C46.3729 64.542 45.3068 64.1331 44.4835 63.3954C43.6602 62.6576 43.1373 61.6427 43.0144 60.544C42.9817 60.1438 42.8689 59.7543 42.6828 59.3985C42.4967 59.0427 42.2411 58.7279 41.9311 58.4727C41.6211 58.2175 41.2631 58.0272 40.8781 57.9129C40.4932 57.7986 40.0893 57.7628 39.6903 57.8075C39.2913 57.8523 38.9053 57.9766 38.5552 58.1733C38.2052 58.3699 37.8981 58.6348 37.6523 58.9523C37.4065 59.2698 37.2269 59.6334 37.1242 60.0215C37.0215 60.4097 36.9978 60.8145 37.0544 61.212C37.3064 63.4877 38.297 65.6182 39.8747 67.2775C41.4524 68.9369 43.5303 70.0336 45.7904 70.4V72C45.7904 72.7957 46.1065 73.5587 46.6691 74.1213C47.2317 74.6839 47.9948 75 48.7904 75C49.5861 75 50.3491 74.6839 50.9117 74.1213C51.4744 73.5587 51.7904 72.7957 51.7904 72V70.4C54.282 70.0488 56.5627 68.8089 58.2122 66.9087C59.8617 65.0086 60.7689 62.5762 60.7664 60.06V60.068Z" fill="white"/>
<path d="M113.784 12.8587C113.641 12.5198 113.433 12.2116 113.17 11.9515L101.8 0.751492C101.262 0.2569 100.549 -0.0123624 99.8126 0.000436225C99.0762 0.0132349 98.3736 0.307096 97.8528 0.820104C97.332 1.33311 97.0337 2.02522 97.0207 2.75061C97.0078 3.476 97.2811 4.17804 97.7832 4.70882L104.298 11.1302H80.8424C80.0886 11.1302 79.3656 11.4252 78.8325 11.9503C78.2995 12.4754 78 13.1875 78 13.9302C78 14.6728 78.2995 15.385 78.8325 15.9101C79.3656 16.4352 80.0886 16.7302 80.8424 16.7302H104.298L97.7832 23.1515C97.5039 23.4078 97.2799 23.7169 97.1246 24.0604C96.9692 24.4039 96.8857 24.7746 96.8789 25.1506C96.8722 25.5266 96.9424 25.9 97.0854 26.2487C97.2283 26.5973 97.4411 26.914 97.711 27.1799C97.9809 27.4458 98.3024 27.6554 98.6564 27.7962C99.0103 27.937 99.3894 28.0062 99.7711 27.9996C100.153 27.9929 100.529 27.9106 100.878 27.7576C101.226 27.6046 101.54 27.3839 101.8 27.1088L113.17 15.9088C113.567 15.5168 113.836 15.018 113.946 14.4753C114.055 13.9325 113.999 13.37 113.784 12.8587Z" fill="#338AF3"/>
<path d="M73.216 34.8587C73.3587 34.5198 73.5673 34.2116 73.8299 33.9515L85.1996 22.7515C85.7384 22.2569 86.451 21.9876 87.1874 22.0004C87.9238 22.0132 88.6264 22.3071 89.1472 22.8201C89.668 23.3331 89.9663 24.0252 89.9793 24.7506C89.9922 25.476 89.7189 26.178 89.2168 26.7088L82.702 33.1302H106.158C106.911 33.1302 107.634 33.4252 108.167 33.9503C108.701 34.4754 109 35.1875 109 35.9302C109 36.6728 108.701 37.385 108.167 37.9101C107.634 38.4352 106.911 38.7302 106.158 38.7302H82.702L89.2168 45.1515C89.4961 45.4078 89.7201 45.7169 89.8754 46.0604C90.0308 46.4039 90.1143 46.7746 90.1211 47.1506C90.1278 47.5266 90.0576 47.9 89.9146 48.2487C89.7717 48.5973 89.5589 48.914 89.289 49.1799C89.0191 49.4458 88.6976 49.6554 88.3436 49.7962C87.9897 49.937 87.6106 50.0062 87.2289 49.9996C86.8473 49.9929 86.4709 49.9106 86.1222 49.7576C85.7736 49.6046 85.4598 49.3839 85.1996 49.1088L73.8299 37.9088C73.4335 37.5168 73.1636 37.018 73.0544 36.4753C72.9451 35.9325 73.0013 35.37 73.216 34.8587Z" fill="white"/>
<defs>
<filter id="filter0_b_245_76756" x="-7" y="-6" width="112" height="120" filterUnits="userSpaceOnUse" color-interpolation-filters="sRGB">
<feFlood flood-opacity="0" result="BackgroundImageFix"/>
<feGaussianBlur in="BackgroundImageFix" stdDeviation="10"/>
<feComposite in2="SourceAlpha" operator="in" result="effect1_backgroundBlur_245_76756"/>
<feBlend mode="normal" in="SourceGraphic" in2="effect1_backgroundBlur_245_76756" result="shape"/>
</filter>
</defs>
</svg>
